<svg width="8" height="8" viewBox="0 0 8 8" fill="none" xmlns="http://www.w3.org/2000/svg">
<path fill-rule="evenodd" clip-rule="evenodd" d="M4.95079 4.00002L7.80309 1.14772C8.06565 0.885164 8.06565 0.459475 7.80309 0.196956C7.54053 -0.0656018 7.11488 -0.0656018 6.85233 0.196956L3.99999 3.04929L1.14766 0.196918C0.885098 -0.0656393 0.459447 -0.0656393 0.19689 0.196918C-0.06563 0.459475 -0.06563 0.885164 0.19689 1.14768L3.04922 3.99998L0.19689 6.85232C-0.06563 7.11487 -0.06563 7.54056 0.19689 7.80308C0.459447 8.06564 0.885098 8.06564 1.14766 7.80308L3.99999 4.95075L6.85233 7.80308C7.11485 8.06564 7.54053 8.06564 7.80309 7.80308C8.06565 7.54052 8.06565 7.11487 7.80309 6.85232L4.95079 4.00002Z" fill="#A4AAB3"/>
</svg>
