<svg width="12" height="12" viewBox="0 0 12 12" fill="none" xmlns="http://www.w3.org/2000/svg">
<path fill-rule="evenodd" clip-rule="evenodd" d="M7.4263 6.00003L11.7047 1.72158C12.0986 1.32775 12.0986 0.689213 11.7047 0.295433C11.3109 -0.0984027 10.6724 -0.0984027 10.2786 0.295433L6.0001 4.57394L1.7216 0.295377C1.32777 -0.098459 0.689292 -0.098459 0.295457 0.295377C-0.0983228 0.689213 -0.0983228 1.32775 0.295457 1.72153L4.57395 5.99997L0.295457 10.2785C-0.0983228 10.6723 -0.0983228 11.3108 0.295457 11.7046C0.689292 12.0985 1.32777 12.0985 1.7216 11.7046L6.0001 7.42612L10.2786 11.7046C10.6724 12.0985 11.3109 12.0985 11.7047 11.7046C12.0986 11.3108 12.0986 10.6723 11.7047 10.2785L7.4263 6.00003Z" fill="white"/>
</svg>
