<svg width="19" height="21" viewBox="0 0 19 21" fill="none" xmlns="http://www.w3.org/2000/svg">
<path d="M14.51 9.2378C14.4074 9.01107 14.1819 8.86667 13.9337 8.86667H11.4003V0.633333C11.4003 0.283733 11.1166 0 10.767 0H8.23367C7.88407 0 7.60034 0.283733 7.60034 0.633333V8.86667H5.067C4.81874 8.86667 4.59327 9.01233 4.49067 9.2378C4.3868 9.46453 4.42734 9.72927 4.59074 9.91673L9.02407 14.9834C9.1444 15.1215 9.31794 15.2 9.50034 15.2C9.68274 15.2 9.85627 15.1202 9.9766 14.9834L14.4099 9.91673C14.5746 9.73053 14.6126 9.46453 14.51 9.2378Z" fill="#F9A51B"/>
<path d="M16.4667 13.9333V17.7333H2.53333V13.9333H0V19C0 19.7005 0.567467 20.2667 1.26667 20.2667H17.7333C18.4338 20.2667 19 19.7005 19 19V13.9333H16.4667Z" fill="#F9A51B"/>
</svg>
