<svg width="20" height="20" viewBox="0 0 20 20" fill="none" xmlns="http://www.w3.org/2000/svg">
<path d="M5.00005 1.25005H15V3.75003H16.25V1.25005C16.25 0.560374 15.691 0 15 0H5.00005C4.31041 0 3.75 0.560374 3.75 1.25005V3.75003H5.00005V1.25005Z" fill="#979797"/>
<path d="M18.7501 5.00009H1.25005C0.560415 5.00009 0 5.5603 0 6.25002V12.5C0 13.191 0.560374 13.7501 1.25005 13.7501H3.75003V18.75C3.75003 19.441 4.3104 20.0001 5.00008 20.0001H15C15.691 20.0001 16.25 19.441 16.25 18.75V13.7501H18.7501C19.4409 13.7501 20 13.191 20 12.5V6.25002C20 5.5603 19.4409 5.00009 18.7501 5.00009ZM15 18.75H5.00004V10.0001H15V18.75ZM17.5 8.75012C16.809 8.75012 16.25 8.19103 16.25 7.50007C16.25 6.81043 16.809 6.25002 17.5 6.25002C18.1911 6.25002 18.7501 6.81039 18.7501 7.50007C18.7501 8.19099 18.1911 8.75012 17.5 8.75012Z" fill="#979797"/>
<path d="M11.25 11.25H6.25V12.5001H11.25V11.25Z" fill="#979797"/>
<path d="M13.7501 13.7501H6.25V14.9999H13.7501V13.7501Z" fill="#979797"/>
<path d="M13.7501 16.25H6.25V17.4998H13.7501V16.25Z" fill="#979797"/>
</svg>
