<svg width="22" height="22" viewBox="0 0 22 22" fill="none" xmlns="http://www.w3.org/2000/svg">
<path d="M13.2225 20.0381C13.0411 20.0833 12.8561 20.1234 12.6725 20.1573C12.1926 20.2465 11.8753 20.7081 11.9641 21.1884C12.0079 21.4247 12.1422 21.6216 12.3244 21.75C12.5122 21.8822 12.7512 21.9419 12.9947 21.8966C13.2134 21.856 13.4337 21.8083 13.6499 21.7543C14.1238 21.6364 14.4125 21.1563 14.2943 20.6826C14.1764 20.2085 13.6967 19.92 13.2225 20.0381Z" fill="#979797"/>
<path d="M19.7625 8.18366C19.8245 8.37037 19.9428 8.52279 20.0922 8.6281C20.3137 8.78412 20.6035 8.83661 20.8801 8.74515C21.3439 8.59117 21.5951 8.09111 21.4417 7.62761C21.3718 7.41631 21.2943 7.20435 21.2116 6.99797C21.0302 6.54445 20.5158 6.32364 20.062 6.50505C19.6087 6.68637 19.3878 7.20095 19.5694 7.65461C19.6388 7.82808 19.7038 8.00613 19.7625 8.18366Z" fill="#979797"/>
<path d="M16.0957 18.7753C15.9397 18.8783 15.7787 18.978 15.6165 19.0714C15.1932 19.3156 15.0483 19.8565 15.2923 20.2796C15.3586 20.3946 15.4468 20.4887 15.5484 20.5606C15.8213 20.7525 16.1918 20.7813 16.5003 20.6035C16.6931 20.4923 16.8849 20.374 17.0707 20.2511C17.4781 19.982 17.5902 19.4333 17.3209 19.0257C17.0517 18.618 16.5032 18.506 16.0957 18.7753Z" fill="#979797"/>
<path d="M21.9908 10.6538C21.9715 10.1656 21.5604 9.78571 21.0721 9.80476C20.5844 9.82401 20.2042 10.2353 20.2233 10.7233C20.2307 10.9098 20.2326 11.0992 20.2283 11.2856C20.2214 11.5917 20.3711 11.8645 20.6038 12.0286C20.7424 12.1262 20.9106 12.1852 21.093 12.1894C21.5812 12.2002 21.9857 11.813 21.9966 11.3247C22.0014 11.102 21.9996 10.8763 21.9908 10.6538Z" fill="#979797"/>
<path d="M19.6172 16.4487C19.2258 16.1551 18.672 16.2348 18.3788 16.6255C18.2666 16.7751 18.1483 16.9229 18.0273 17.0652C17.7109 17.4369 17.7556 17.9953 18.1273 18.3119C18.1485 18.3299 18.1699 18.3464 18.1921 18.3619C18.5617 18.6224 19.0753 18.5625 19.3741 18.2119C19.5186 18.0421 19.6596 17.8656 19.7937 17.6869C20.0869 17.2962 20.0076 16.742 19.6172 16.4487Z" fill="#979797"/>
<path d="M20.9177 13.2517C20.4516 13.1056 19.9553 13.365 19.8093 13.8311C19.7534 14.0091 19.6914 14.188 19.6245 14.3632C19.4777 14.7489 19.6184 15.1733 19.9409 15.4008C20.0001 15.4423 20.0653 15.4776 20.1361 15.5043C20.5924 15.6785 21.1034 15.4495 21.2773 14.993C21.3567 14.7847 21.4304 14.5718 21.497 14.3602C21.6429 13.894 21.3836 13.3978 20.9177 13.2517Z" fill="#979797"/>
<path d="M9.36365 20.1652C8.57294 20.0232 7.81443 19.7815 7.09517 19.4443C7.08666 19.4398 7.07904 19.4348 7.07011 19.4307C6.90061 19.3509 6.73141 19.2655 6.5674 19.1762C6.56683 19.1755 6.56579 19.1751 6.56489 19.1747C6.26398 19.009 5.9703 18.8257 5.68499 18.6248C1.52466 15.6942 0.52435 9.92517 3.45519 5.76489C4.09249 4.86058 4.86372 4.10614 5.72353 3.50818C5.73412 3.50081 5.74472 3.49348 5.75521 3.48605C8.78504 1.39842 12.8991 1.25772 16.1163 3.40296L15.4253 4.40133C15.2332 4.67922 15.3514 4.88172 15.6877 4.85145L18.6891 4.58274C19.0258 4.55247 19.2272 4.26121 19.1366 3.93603L18.3306 1.03205C18.2404 0.706494 18.0094 0.667526 17.8171 0.945364L17.1245 1.9461C14.7635 0.361219 11.9318 -0.243119 9.12109 0.244267C8.838 0.293261 8.55889 0.353227 8.28361 0.423029C8.28148 0.423407 8.27978 0.423644 8.27807 0.424022C8.26743 0.426623 8.25665 0.430076 8.24629 0.43296C5.8226 1.05536 3.70797 2.46895 2.19904 4.48584C2.18631 4.50093 2.17322 4.51568 2.1612 4.53209C2.11103 4.59967 2.06123 4.66881 2.01247 4.73795C1.93274 4.85126 1.85414 4.96741 1.77895 5.08356C1.76954 5.09756 1.76235 5.11179 1.75412 5.12593C0.508933 7.05547 -0.0916688 9.28621 0.011332 11.5572C0.0115685 11.5647 0.0111429 11.5722 0.011332 11.5799C0.0213105 11.8017 0.038903 12.0267 0.0627852 12.2481C0.064062 12.2624 0.0672306 12.2759 0.0696424 12.2902C0.0943286 12.5128 0.125305 12.736 0.164131 12.9591C0.558731 15.2356 1.63263 17.2841 3.24181 18.8781C3.24555 18.8818 3.24943 18.8859 3.25321 18.8898C3.25453 18.8913 3.256 18.892 3.25728 18.8934C3.68962 19.3198 4.15988 19.7142 4.66623 20.0708C5.99134 21.0046 7.46688 21.6218 9.05153 21.9061C9.53234 21.9925 9.99163 21.6725 10.0779 21.1919C10.1641 20.711 9.84432 20.2513 9.36365 20.1652Z" fill="#979797"/>
<path d="M10.4561 3.93456C10.0606 3.93456 9.74023 4.25519 9.74023 4.65012V11.7792L16.2603 15.1497C16.3653 15.204 16.4776 15.2296 16.5882 15.2296C16.8472 15.2296 17.0973 15.0886 17.2245 14.8425C17.4058 14.4913 17.2686 14.0599 16.9174 13.8785L11.1711 10.9078V4.65012C11.1711 4.25519 10.8511 3.93456 10.4561 3.93456Z" fill="#979797"/>
</svg>
