<svg width="16" height="16" viewBox="0 0 16 16" fill="none" xmlns="http://www.w3.org/2000/svg">
    <path fill-rule="evenodd" clip-rule="evenodd" d="M16 8C16 12.4152 12.416 16 8 16C3.576 16 -3.13393e-07 12.4152 -6.99382e-07 8C-1.08551e-06 3.5832 3.576 1.08614e-06 8 6.99382e-07C12.416 3.13323e-07 16 3.5832 16 8ZM8.70536 11.032C8.70536 11.4152 8.38536 11.736 8.00136 11.736C7.61736 11.736 7.30536 11.4152 7.30536 11.032L7.30536 7.49605C7.30536 7.11125 7.61736 6.80005 8.00136 6.80005C8.38536 6.80005 8.70536 7.11125 8.70536 7.49605L8.70536 11.032ZM7.99243 4.25513C8.38443 4.25513 8.69643 4.57513 8.69643 4.95913C8.69643 5.34313 8.38443 5.65513 8.00043 5.65513C7.60843 5.65513 7.29643 5.34313 7.29643 4.95913C7.29643 4.57513 7.60843 4.25513 7.99243 4.25513Z" fill="url(#paint0_linear)"/>
    <defs>
        <linearGradient id="paint0_linear" x1="8" y1="16" x2="8" y2="6.99382e-07" gradientUnits="userSpaceOnUse">
            <stop stop-color="#FBAC19"/>
            <stop offset="1" stop-color="#FECB0C"/>
        </linearGradient>
    </defs>
</svg>
