<svg width="16" height="14" viewBox="0 0 16 14" fill="none" xmlns="http://www.w3.org/2000/svg">
    <path fill-rule="evenodd" clip-rule="evenodd" d="M9.70453 1.12163L15.358 10.9334C15.4824 11.2263 15.5369 11.4644 15.5524 11.7118C15.5835 12.2898 15.3814 12.8517 14.9848 13.284C14.5882 13.7148 14.0516 13.9692 13.4683 14H2.08359C1.84252 13.9854 1.60145 13.9306 1.37593 13.8459C0.248346 13.3911 -0.296007 12.1118 0.162804 11.0028L5.85518 1.11469C6.04959 0.767105 6.3451 0.467303 6.71059 0.274629C7.76819 -0.311873 9.11352 0.0734762 9.70453 1.12163ZM8.45317 7.5879C8.45317 7.95784 8.14989 8.26689 7.77661 8.26689C7.40334 8.26689 7.09229 7.95784 7.09229 7.5879V5.4076C7.09229 5.03689 7.40334 4.73709 7.77661 4.73709C8.14989 4.73709 8.45317 5.03689 8.45317 5.4076V7.5879ZM7.77661 10.9025C7.40334 10.9025 7.09229 10.5935 7.09229 10.2243C7.09229 9.8536 7.40334 9.54532 7.77661 9.54532C8.14989 9.54532 8.45317 9.84666 8.45317 10.2158C8.45317 10.5935 8.14989 10.9025 7.77661 10.9025Z" fill="#59BA71"/>
</svg>
