<svg width="14" height="14" viewBox="0 0 14 14" fill="none" xmlns="http://www.w3.org/2000/svg">
    <mask id="path-1-inside-1" fill="white">
        <path fill-rule="evenodd" clip-rule="evenodd" d="M9.72164 0.391953C9.69185 0.170605 9.50357 0 9.27575 0C9.02722 0 8.82575 0.203034 8.82575 0.453488V0.954869H4.87977V0.453488L4.87566 0.391953C4.84586 0.170605 4.65759 0 4.42977 0C4.18124 0 3.97977 0.203034 3.97977 0.453488V0.966096C2.13545 1.09293 1 2.28779 1 4.21577V9.68765C1 11.7567 2.27292 13 4.31257 13H9.38737C11.4295 13 12.7 11.7775 12.7 9.73339V4.21577C12.7058 2.28711 11.574 1.09258 9.72575 0.966045V0.453488L9.72164 0.391953ZM8.82575 1.86185V2.44326L8.82986 2.5048C8.85966 2.72615 9.04794 2.89675 9.27575 2.89675C9.52428 2.89675 9.72575 2.69372 9.72575 2.44326V1.87526C11.0703 1.98712 11.8038 2.79679 11.7995 4.21438V4.477H1.89955V4.21577C1.89955 2.79876 2.63741 1.98733 3.97977 1.87527V2.44326L3.98388 2.5048C4.01368 2.72615 4.20195 2.89675 4.42977 2.89675C4.6783 2.89675 4.87977 2.69372 4.87977 2.44326V1.86185H8.82575ZM1.89955 5.38397V9.68766C1.89955 11.2493 2.76334 12.093 4.31212 12.093H9.38693C10.941 12.093 11.7995 11.267 11.7995 9.7334L11.7995 5.38397H1.89955ZM9.9707 7.29193C9.9707 7.04147 9.76923 6.83844 9.52071 6.83844L9.45409 6.84258C9.23444 6.87261 9.06515 7.06234 9.06515 7.29193C9.06515 7.54238 9.26662 7.74541 9.52071 7.74541L9.58177 7.74127C9.80141 7.71125 9.9707 7.52151 9.9707 7.29193ZM6.85832 6.83844C7.10685 6.83844 7.30832 7.04147 7.30832 7.29193C7.30832 7.52151 7.13903 7.71125 6.91938 7.74127L6.85832 7.74541C6.60423 7.74541 6.40276 7.54238 6.40276 7.29193C6.40276 7.06234 6.57205 6.87261 6.7917 6.84258L6.85832 6.83844ZM4.64049 7.29193C4.64049 7.04147 4.43902 6.83844 4.19049 6.83844L4.12387 6.84258C3.90422 6.87261 3.73493 7.06234 3.73493 7.29193C3.73493 7.54238 3.9364 7.74541 4.18493 7.74541L4.25155 7.74127C4.4712 7.71125 4.64049 7.52151 4.64049 7.29193ZM9.52071 9.1884C9.76923 9.1884 9.9707 9.39144 9.9707 9.64189C9.9707 9.87147 9.80141 10.0612 9.58177 10.0912L9.52071 10.0954C9.26662 10.0954 9.06515 9.89235 9.06515 9.64189C9.06515 9.41231 9.23444 9.22257 9.45409 9.19254L9.52071 9.1884ZM7.30832 9.64189C7.30832 9.39144 7.10685 9.1884 6.85832 9.1884L6.7917 9.19254C6.57205 9.22257 6.40276 9.41231 6.40276 9.64189C6.40276 9.89235 6.60423 10.0954 6.85832 10.0954L6.91938 10.0912C7.13903 10.0612 7.30832 9.87147 7.30832 9.64189ZM4.19049 9.1884C4.43902 9.1884 4.64049 9.39144 4.64049 9.64189C4.64049 9.87147 4.4712 10.0612 4.25155 10.0912L4.18493 10.0954C3.9364 10.0954 3.73493 9.89235 3.73493 9.64189C3.73493 9.41231 3.90422 9.22257 4.12387 9.19254L4.19049 9.1884Z"/>
    </mask>
    <path fill-rule="evenodd" clip-rule="evenodd" d="M9.72164 0.391953C9.69185 0.170605 9.50357 0 9.27575 0C9.02722 0 8.82575 0.203034 8.82575 0.453488V0.954869H4.87977V0.453488L4.87566 0.391953C4.84586 0.170605 4.65759 0 4.42977 0C4.18124 0 3.97977 0.203034 3.97977 0.453488V0.966096C2.13545 1.09293 1 2.28779 1 4.21577V9.68765C1 11.7567 2.27292 13 4.31257 13H9.38737C11.4295 13 12.7 11.7775 12.7 9.73339V4.21577C12.7058 2.28711 11.574 1.09258 9.72575 0.966045V0.453488L9.72164 0.391953ZM8.82575 1.86185V2.44326L8.82986 2.5048C8.85966 2.72615 9.04794 2.89675 9.27575 2.89675C9.52428 2.89675 9.72575 2.69372 9.72575 2.44326V1.87526C11.0703 1.98712 11.8038 2.79679 11.7995 4.21438V4.477H1.89955V4.21577C1.89955 2.79876 2.63741 1.98733 3.97977 1.87527V2.44326L3.98388 2.5048C4.01368 2.72615 4.20195 2.89675 4.42977 2.89675C4.6783 2.89675 4.87977 2.69372 4.87977 2.44326V1.86185H8.82575ZM1.89955 5.38397V9.68766C1.89955 11.2493 2.76334 12.093 4.31212 12.093H9.38693C10.941 12.093 11.7995 11.267 11.7995 9.7334L11.7995 5.38397H1.89955ZM9.9707 7.29193C9.9707 7.04147 9.76923 6.83844 9.52071 6.83844L9.45409 6.84258C9.23444 6.87261 9.06515 7.06234 9.06515 7.29193C9.06515 7.54238 9.26662 7.74541 9.52071 7.74541L9.58177 7.74127C9.80141 7.71125 9.9707 7.52151 9.9707 7.29193ZM6.85832 6.83844C7.10685 6.83844 7.30832 7.04147 7.30832 7.29193C7.30832 7.52151 7.13903 7.71125 6.91938 7.74127L6.85832 7.74541C6.60423 7.74541 6.40276 7.54238 6.40276 7.29193C6.40276 7.06234 6.57205 6.87261 6.7917 6.84258L6.85832 6.83844ZM4.64049 7.29193C4.64049 7.04147 4.43902 6.83844 4.19049 6.83844L4.12387 6.84258C3.90422 6.87261 3.73493 7.06234 3.73493 7.29193C3.73493 7.54238 3.9364 7.74541 4.18493 7.74541L4.25155 7.74127C4.4712 7.71125 4.64049 7.52151 4.64049 7.29193ZM9.52071 9.1884C9.76923 9.1884 9.9707 9.39144 9.9707 9.64189C9.9707 9.87147 9.80141 10.0612 9.58177 10.0912L9.52071 10.0954C9.26662 10.0954 9.06515 9.89235 9.06515 9.64189C9.06515 9.41231 9.23444 9.22257 9.45409 9.19254L9.52071 9.1884ZM7.30832 9.64189C7.30832 9.39144 7.10685 9.1884 6.85832 9.1884L6.7917 9.19254C6.57205 9.22257 6.40276 9.41231 6.40276 9.64189C6.40276 9.89235 6.60423 10.0954 6.85832 10.0954L6.91938 10.0912C7.13903 10.0612 7.30832 9.87147 7.30832 9.64189ZM4.19049 9.1884C4.43902 9.1884 4.64049 9.39144 4.64049 9.64189C4.64049 9.87147 4.4712 10.0612 4.25155 10.0912L4.18493 10.0954C3.9364 10.0954 3.73493 9.89235 3.73493 9.64189C3.73493 9.41231 3.90422 9.22257 4.12387 9.19254L4.19049 9.1884Z" fill="#200E32"/>
    <path d="M9.72164 0.391953L9.80165 0.386611L9.80093 0.38128L9.72164 0.391953ZM8.82575 0.954869V1.03487H8.90575V0.954869H8.82575ZM4.87977 0.954869H4.79977V1.03487H4.87977V0.954869ZM4.87977 0.453488H4.95995L4.95959 0.448159L4.87977 0.453488ZM4.87566 0.391953L4.95566 0.386612L4.95494 0.38128L4.87566 0.391953ZM3.97977 0.966096L3.98526 1.04591L4.05977 1.04078V0.966096H3.97977ZM12.7 4.21577L12.62 4.21553V4.21577H12.7ZM9.72575 0.966045H9.64575V1.04076L9.72029 1.04586L9.72575 0.966045ZM9.72575 0.453488H9.80593L9.80557 0.448159L9.72575 0.453488ZM8.82575 2.44326H8.74557L8.74593 2.44859L8.82575 2.44326ZM8.82575 1.86185H8.90575V1.78185H8.82575V1.86185ZM8.82986 2.5048L8.74986 2.51014L8.75058 2.51547L8.82986 2.5048ZM9.72575 1.87526L9.73238 1.79553L9.64575 1.78832V1.87526H9.72575ZM11.7995 4.21438L11.7195 4.21414V4.21438H11.7995ZM11.7995 4.477V4.557H11.8795V4.477H11.7995ZM1.89955 4.477H1.81955V4.557H1.89955V4.477ZM3.97977 1.87527H4.05977V1.78831L3.97312 1.79555L3.97977 1.87527ZM3.97977 2.44326H3.89959L3.89995 2.44859L3.97977 2.44326ZM3.98388 2.5048L3.90388 2.51014L3.90459 2.51547L3.98388 2.5048ZM4.87977 1.86185V1.78185H4.79977V1.86185H4.87977ZM1.89955 5.38397V5.30397H1.81955V5.38397H1.89955ZM11.7995 9.7334H11.7195H11.7995ZM11.7995 5.38397H11.8795V5.30397H11.7995V5.38397ZM9.52071 6.83844V6.75828L9.51574 6.75859L9.52071 6.83844ZM9.45409 6.84258L9.44911 6.76251L9.44325 6.76331L9.45409 6.84258ZM9.52071 7.74541V7.8256L9.52612 7.82523L9.52071 7.74541ZM9.58177 7.74127L9.58719 7.82128L9.5926 7.82054L9.58177 7.74127ZM6.85832 6.83844V6.75828L6.85336 6.75859L6.85832 6.83844ZM6.91938 7.74127L6.92481 7.82128L6.93022 7.82054L6.91938 7.74127ZM6.85832 7.74541V7.8256L6.86373 7.82523L6.85832 7.74541ZM6.7917 6.84258L6.78672 6.76251L6.78086 6.76331L6.7917 6.84258ZM4.19049 6.83844V6.75828L4.18553 6.75859L4.19049 6.83844ZM4.12387 6.84258L4.11889 6.76251L4.11303 6.76331L4.12387 6.84258ZM4.18493 7.74541V7.82557L4.18989 7.82526L4.18493 7.74541ZM4.25155 7.74127L4.25653 7.82134L4.26239 7.82054L4.25155 7.74127ZM9.52071 9.1884V9.10825L9.51574 9.10856L9.52071 9.1884ZM9.58177 10.0912L9.58719 10.1712L9.5926 10.1705L9.58177 10.0912ZM9.52071 10.0954V10.1756L9.52612 10.1752L9.52071 10.0954ZM9.45409 9.19254L9.44911 9.11248L9.44325 9.11328L9.45409 9.19254ZM6.85832 9.1884V9.10825L6.85336 9.10856L6.85832 9.1884ZM6.7917 9.19254L6.78672 9.11248L6.78086 9.11328L6.7917 9.19254ZM6.85832 10.0954V10.1756L6.86373 10.1752L6.85832 10.0954ZM6.91938 10.0912L6.92481 10.1712L6.93022 10.1705L6.91938 10.0912ZM4.19049 9.1884V9.10825L4.18553 9.10856L4.19049 9.1884ZM4.25155 10.0912L4.25653 10.1713L4.26239 10.1705L4.25155 10.0912ZM4.18493 10.0954V10.1755L4.18989 10.1752L4.18493 10.0954ZM4.12387 9.19254L4.11889 9.11248L4.11303 9.11328L4.12387 9.19254ZM9.27575 0.08C9.4625 0.08 9.61777 0.219971 9.64236 0.402626L9.80093 0.38128C9.76592 0.121239 9.54463 -0.08 9.27575 -0.08V0.08ZM8.90575 0.453488C8.90575 0.246633 9.07199 0.08 9.27575 0.08V-0.08C8.98246 -0.08 8.74575 0.159435 8.74575 0.453488H8.90575ZM8.90575 0.954869V0.453488H8.74575V0.954869H8.90575ZM4.87977 1.03487H8.82575V0.874869H4.87977V1.03487ZM4.95977 0.954869V0.453488H4.79977V0.954869H4.95977ZM4.95959 0.448159L4.95548 0.386624L4.79584 0.397282L4.79995 0.458817L4.95959 0.448159ZM4.95494 0.38128C4.91994 0.121239 4.69865 -0.08 4.42977 -0.08V0.08C4.61652 0.08 4.77179 0.219971 4.79637 0.402626L4.95494 0.38128ZM4.42977 -0.08C4.13648 -0.08 3.89977 0.159435 3.89977 0.453488H4.05977C4.05977 0.246633 4.22601 0.08 4.42977 0.08V-0.08ZM3.89977 0.453488V0.966096H4.05977V0.453488H3.89977ZM1.08 4.21577C1.08 3.26766 1.35891 2.50777 1.85697 1.96985C2.35499 1.43198 3.07938 1.1082 3.98526 1.04591L3.97428 0.886284C3.03585 0.950819 2.27035 1.28789 1.73956 1.86115C1.20882 2.43437 0.92 3.2359 0.92 4.21577H1.08ZM1.08 9.68765V4.21577H0.92V9.68765H1.08ZM4.31257 12.92C3.30907 12.92 2.50291 12.6145 1.9478 12.063C1.39278 11.5116 1.08 10.7056 1.08 9.68765H0.92C0.92 10.7388 1.24368 11.589 1.83503 12.1765C2.4263 12.7639 3.27642 13.08 4.31257 13.08V12.92ZM9.38737 12.92H4.31257V13.08H9.38737V12.92ZM12.62 9.73339C12.62 10.7386 12.3079 11.533 11.7535 12.0761C11.1988 12.6194 10.3925 12.92 9.38737 12.92V13.08C10.4243 13.08 11.2744 12.7694 11.8654 12.1904C12.4567 11.6112 12.78 10.7723 12.78 9.73339H12.62ZM12.62 4.21577V9.73339H12.78V4.21577H12.62ZM9.72029 1.04586C10.6282 1.10802 11.3526 1.43166 11.8494 1.9694C12.3463 2.50718 12.6228 3.26706 12.62 4.21553L12.78 4.21601C12.7829 3.23582 12.4966 2.43411 11.9669 1.86082C11.4372 1.2875 10.6716 0.950613 9.73122 0.886232L9.72029 1.04586ZM9.64575 0.453488V0.966045H9.80575V0.453488H9.64575ZM9.64182 0.397282L9.64593 0.458818L9.80557 0.448159L9.80147 0.386623L9.64182 0.397282ZM8.90575 2.44326V1.86185H8.74575V2.44326H8.90575ZM8.90968 2.49947L8.90558 2.43793L8.74593 2.44859L8.75004 2.51013L8.90968 2.49947ZM9.27575 2.81675C9.089 2.81675 8.93373 2.67678 8.90915 2.49413L8.75058 2.51547C8.78558 2.77551 9.00687 2.97675 9.27575 2.97675V2.81675ZM9.64575 2.44326C9.64575 2.65012 9.47952 2.81675 9.27575 2.81675V2.97675C9.56905 2.97675 9.80575 2.73732 9.80575 2.44326H9.64575ZM9.64575 1.87526V2.44326H9.80575V1.87526H9.64575ZM11.8795 4.21463C11.8817 3.49234 11.6958 2.91432 11.3282 2.50193C10.9602 2.08923 10.4194 1.85269 9.73238 1.79553L9.71912 1.95498C10.3767 2.00969 10.8749 2.23392 11.2088 2.60841C11.5429 2.98323 11.7216 3.51884 11.7195 4.21414L11.8795 4.21463ZM11.8795 4.477V4.21438H11.7195V4.477H11.8795ZM1.89955 4.557H11.7995V4.397H1.89955V4.557ZM1.81955 4.21577V4.477H1.97955V4.21577H1.81955ZM3.97312 1.79555C3.28714 1.85281 2.74586 2.08987 2.37664 2.50284C2.0077 2.91549 1.81955 3.4937 1.81955 4.21577H1.97955C1.97955 3.52083 2.16034 2.98482 2.49592 2.60948C2.83121 2.23447 3.33004 2.00978 3.98643 1.95499L3.97312 1.79555ZM3.89977 1.87527V2.44326H4.05977V1.87527H3.89977ZM3.89995 2.44859L3.90406 2.51013L4.0637 2.49947L4.05959 2.43793L3.89995 2.44859ZM3.90459 2.51547C3.9396 2.77551 4.16089 2.97675 4.42977 2.97675V2.81675C4.24302 2.81675 4.08775 2.67678 4.06316 2.49413L3.90459 2.51547ZM4.42977 2.97675C4.72306 2.97675 4.95977 2.73732 4.95977 2.44326H4.79977C4.79977 2.65012 4.63353 2.81675 4.42977 2.81675V2.97675ZM4.95977 2.44326V1.86185H4.79977V2.44326H4.95977ZM8.82575 1.78185H4.87977V1.94185H8.82575V1.78185ZM1.81955 5.38397V9.68766H1.97955V5.38397H1.81955ZM1.81955 9.68766C1.81955 10.4829 2.03972 11.1074 2.46871 11.5328C2.8976 11.9581 3.52368 12.173 4.31212 12.173V12.013C3.55179 12.013 2.97159 11.8061 2.58138 11.4192C2.19128 11.0323 1.97955 10.4541 1.97955 9.68766H1.81955ZM4.31212 12.173H9.38693V12.013H4.31212V12.173ZM9.38693 12.173C10.1775 12.173 10.8035 11.9628 11.2318 11.5456C11.6605 11.1281 11.8795 10.5149 11.8795 9.7334H11.7195C11.7195 10.4855 11.5093 11.0521 11.1202 11.431C10.7308 11.8103 10.1504 12.013 9.38693 12.013V12.173ZM11.8795 9.7334L11.8795 5.38397H11.7195L11.7195 9.7334H11.8795ZM11.7995 5.30397H1.89955V5.46397H11.7995V5.30397ZM9.52071 6.91844C9.72447 6.91844 9.8907 7.08507 9.8907 7.29193H10.0507C10.0507 6.99787 9.814 6.75844 9.52071 6.75844V6.91844ZM9.45905 6.92242L9.52567 6.91828L9.51574 6.75859L9.44912 6.76273L9.45905 6.92242ZM9.14515 7.29193C9.14515 7.10241 9.28483 6.94646 9.46492 6.92184L9.44325 6.76331C9.18405 6.79875 8.98515 7.02228 8.98515 7.29193H9.14515ZM9.52071 7.66541C9.31075 7.66541 9.14515 7.49814 9.14515 7.29193H8.98515C8.98515 7.58662 9.2225 7.82541 9.52071 7.82541V7.66541ZM9.57636 7.66146L9.5153 7.6656L9.52612 7.82523L9.58718 7.82109L9.57636 7.66146ZM9.8907 7.29193C9.8907 7.48144 9.75102 7.63739 9.57093 7.66201L9.5926 7.82054C9.8518 7.7851 10.0507 7.56158 10.0507 7.29193H9.8907ZM7.38832 7.29193C7.38832 6.99787 7.15161 6.75844 6.85832 6.75844V6.91844C7.06208 6.91844 7.22832 7.08507 7.22832 7.29193H7.38832ZM6.93022 7.82054C7.18942 7.7851 7.38832 7.56158 7.38832 7.29193H7.22832C7.22832 7.48144 7.08863 7.63739 6.90855 7.66201L6.93022 7.82054ZM6.86373 7.82523L6.92479 7.82109L6.91397 7.66146L6.85291 7.6656L6.86373 7.82523ZM6.32276 7.29193C6.32276 7.58662 6.56011 7.82541 6.85832 7.82541V7.66541C6.64836 7.66541 6.48276 7.49814 6.48276 7.29193H6.32276ZM6.78086 6.76331C6.52166 6.79875 6.32276 7.02228 6.32276 7.29193H6.48276C6.48276 7.10241 6.62245 6.94646 6.80254 6.92184L6.78086 6.76331ZM6.85336 6.75859L6.78674 6.76273L6.79666 6.92242L6.86328 6.91828L6.85336 6.75859ZM4.19049 6.91844C4.39425 6.91844 4.56049 7.08507 4.56049 7.29193H4.72049C4.72049 6.99787 4.48378 6.75844 4.19049 6.75844V6.91844ZM4.12883 6.92242L4.19545 6.91828L4.18553 6.75859L4.11891 6.76273L4.12883 6.92242ZM3.81493 7.29193C3.81493 7.10241 3.95462 6.94646 4.13471 6.92184L4.11303 6.76331C3.85383 6.79875 3.65493 7.02228 3.65493 7.29193H3.81493ZM4.18493 7.66541C3.98117 7.66541 3.81493 7.49878 3.81493 7.29193H3.65493C3.65493 7.58598 3.89164 7.82541 4.18493 7.82541V7.66541ZM4.24659 7.66143L4.17997 7.66557L4.18989 7.82526L4.25651 7.82112L4.24659 7.66143ZM4.56049 7.29193C4.56049 7.48144 4.4208 7.63739 4.24072 7.66201L4.26239 7.82054C4.52159 7.7851 4.72049 7.56158 4.72049 7.29193H4.56049ZM10.0507 9.64189C10.0507 9.34784 9.814 9.1084 9.52071 9.1084V9.2684C9.72447 9.2684 9.8907 9.43503 9.8907 9.64189H10.0507ZM9.5926 10.1705C9.8518 10.1351 10.0507 9.91154 10.0507 9.64189H9.8907C9.8907 9.83141 9.75102 9.98736 9.57093 10.012L9.5926 10.1705ZM9.52612 10.1752L9.58718 10.1711L9.57636 10.0114L9.5153 10.0156L9.52612 10.1752ZM8.98515 9.64189C8.98515 9.93659 9.2225 10.1754 9.52071 10.1754V10.0154C9.31075 10.0154 9.14515 9.8481 9.14515 9.64189H8.98515ZM9.44325 9.11328C9.18405 9.14872 8.98515 9.37224 8.98515 9.64189H9.14515C9.14515 9.45237 9.28483 9.29642 9.46492 9.2718L9.44325 9.11328ZM9.51574 9.10856L9.44912 9.1127L9.45905 9.27239L9.52567 9.26825L9.51574 9.10856ZM6.85832 9.2684C7.06208 9.2684 7.22832 9.43503 7.22832 9.64189H7.38832C7.38832 9.34784 7.15161 9.1084 6.85832 9.1084V9.2684ZM6.79666 9.27239L6.86328 9.26825L6.85336 9.10856L6.78674 9.1127L6.79666 9.27239ZM6.48276 9.64189C6.48276 9.45237 6.62245 9.29643 6.80254 9.2718L6.78086 9.11328C6.52166 9.14872 6.32276 9.37224 6.32276 9.64189H6.48276ZM6.85832 10.0154C6.64836 10.0154 6.48276 9.8481 6.48276 9.64189H6.32276C6.32276 9.93659 6.56011 10.1754 6.85832 10.1754V10.0154ZM6.91397 10.0114L6.85291 10.0156L6.86373 10.1752L6.92479 10.1711L6.91397 10.0114ZM7.22832 9.64189C7.22832 9.83141 7.08863 9.98736 6.90855 10.012L6.93022 10.1705C7.18942 10.1351 7.38832 9.91154 7.38832 9.64189H7.22832ZM4.72049 9.64189C4.72049 9.34784 4.48378 9.1084 4.19049 9.1084V9.2684C4.39425 9.2684 4.56049 9.43503 4.56049 9.64189H4.72049ZM4.26239 10.1705C4.52159 10.1351 4.72049 9.91154 4.72049 9.64189H4.56049C4.56049 9.83141 4.4208 9.98736 4.24072 10.012L4.26239 10.1705ZM4.18989 10.1752L4.25651 10.1711L4.24659 10.0114L4.17997 10.0155L4.18989 10.1752ZM3.65493 9.64189C3.65493 9.93594 3.89164 10.1754 4.18493 10.1754V10.0154C3.98117 10.0154 3.81493 9.84875 3.81493 9.64189H3.65493ZM4.11303 9.11328C3.85383 9.14872 3.65493 9.37224 3.65493 9.64189H3.81493C3.81493 9.45237 3.95462 9.29642 4.13471 9.2718L4.11303 9.11328ZM4.18553 9.10856L4.11891 9.1127L4.12883 9.27239L4.19545 9.26825L4.18553 9.10856Z" fill="white" mask="url(#path-1-inside-1)"/>
</svg>
