<svg width="14" height="14" viewBox="0 0 14 14" fill="none" xmlns="http://www.w3.org/2000/svg">
    <mask id="path-1-inside-1" fill="white">
        <path fill-rule="evenodd" clip-rule="evenodd" d="M5.17776 1C3.23539 1 1.67617 2.55946 1.67617 4.50159C1.67617 6.44428 3.23526 8.00386 5.17776 8.00386C7.12035 8.00386 8.68003 6.44418 8.68003 4.50159C8.68003 2.55955 7.12023 1 5.17776 1ZM5.17815 2.02306C6.55564 2.02306 7.65736 3.12461 7.65736 4.50159C7.65736 5.87916 6.55573 6.9808 5.17815 6.9808C3.80075 6.9808 2.69962 5.87933 2.69962 4.50159C2.69962 3.12444 3.80083 2.02306 5.17815 2.02306ZM12.3228 4.48972C12.3228 2.96569 11.0869 1.72951 9.56263 1.72951C9.28012 1.72951 9.0511 1.95853 9.0511 2.24104C9.0511 2.52355 9.28012 2.75257 9.56263 2.75257C10.5219 2.75257 11.2998 3.53066 11.2998 4.48972C11.2998 5.4492 10.5221 6.22687 9.56263 6.22687C9.28012 6.22687 9.0511 6.45589 9.0511 6.7384C9.0511 7.02091 9.28012 7.24993 9.56263 7.24993C11.0871 7.24993 12.3228 6.01422 12.3228 4.48972ZM11.7986 8.83935C11.4203 8.75548 11.0267 8.69872 10.6307 8.67178C10.3488 8.65261 10.1048 8.86556 10.0856 9.14742C10.0665 9.42928 10.2794 9.67331 10.5613 9.69248C10.9061 9.71594 11.249 9.76539 11.5883 9.84049C12.118 9.94597 12.4688 10.1212 12.5636 10.3202C12.6351 10.4707 12.6351 10.647 12.5634 10.7979C12.4692 10.9963 12.1202 11.1711 11.5958 11.279C11.3191 11.3359 11.1409 11.6064 11.1978 11.8831C11.2547 12.1598 11.5252 12.338 11.8019 12.2811C12.6168 12.1135 13.213 11.8147 13.4874 11.237C13.6912 10.8083 13.6912 10.3094 13.4874 9.88057C13.2114 9.30143 12.609 9.00054 11.7986 8.83935ZM0 11.5842C0 9.79416 1.88079 9.15478 5.17736 9.15478L5.39546 9.15572C8.56314 9.18329 10.3554 9.82307 10.3554 11.5706C10.3554 13.281 8.63769 13.9409 5.60851 13.9962L5.17736 14C1.87333 14 0 13.3719 0 11.5842ZM9.33234 11.5706C9.33234 10.6514 7.92014 10.1778 5.17736 10.1778C2.43737 10.1778 1.02306 10.6586 1.02306 11.5842C1.02306 12.5039 2.43398 12.9769 5.17736 12.9769C7.91755 12.9769 9.33234 12.4961 9.33234 11.5706Z"/>
    </mask>
    <path fill-rule="evenodd" clip-rule="evenodd" d="M5.17776 1C3.23539 1 1.67617 2.55946 1.67617 4.50159C1.67617 6.44428 3.23526 8.00386 5.17776 8.00386C7.12035 8.00386 8.68003 6.44418 8.68003 4.50159C8.68003 2.55955 7.12023 1 5.17776 1ZM5.17815 2.02306C6.55564 2.02306 7.65736 3.12461 7.65736 4.50159C7.65736 5.87916 6.55573 6.9808 5.17815 6.9808C3.80075 6.9808 2.69962 5.87933 2.69962 4.50159C2.69962 3.12444 3.80083 2.02306 5.17815 2.02306ZM12.3228 4.48972C12.3228 2.96569 11.0869 1.72951 9.56263 1.72951C9.28012 1.72951 9.0511 1.95853 9.0511 2.24104C9.0511 2.52355 9.28012 2.75257 9.56263 2.75257C10.5219 2.75257 11.2998 3.53066 11.2998 4.48972C11.2998 5.4492 10.5221 6.22687 9.56263 6.22687C9.28012 6.22687 9.0511 6.45589 9.0511 6.7384C9.0511 7.02091 9.28012 7.24993 9.56263 7.24993C11.0871 7.24993 12.3228 6.01422 12.3228 4.48972ZM11.7986 8.83935C11.4203 8.75548 11.0267 8.69872 10.6307 8.67178C10.3488 8.65261 10.1048 8.86556 10.0856 9.14742C10.0665 9.42928 10.2794 9.67331 10.5613 9.69248C10.9061 9.71594 11.249 9.76539 11.5883 9.84049C12.118 9.94597 12.4688 10.1212 12.5636 10.3202C12.6351 10.4707 12.6351 10.647 12.5634 10.7979C12.4692 10.9963 12.1202 11.1711 11.5958 11.279C11.3191 11.3359 11.1409 11.6064 11.1978 11.8831C11.2547 12.1598 11.5252 12.338 11.8019 12.2811C12.6168 12.1135 13.213 11.8147 13.4874 11.237C13.6912 10.8083 13.6912 10.3094 13.4874 9.88057C13.2114 9.30143 12.609 9.00054 11.7986 8.83935ZM0 11.5842C0 9.79416 1.88079 9.15478 5.17736 9.15478L5.39546 9.15572C8.56314 9.18329 10.3554 9.82307 10.3554 11.5706C10.3554 13.281 8.63769 13.9409 5.60851 13.9962L5.17736 14C1.87333 14 0 13.3719 0 11.5842ZM9.33234 11.5706C9.33234 10.6514 7.92014 10.1778 5.17736 10.1778C2.43737 10.1778 1.02306 10.6586 1.02306 11.5842C1.02306 12.5039 2.43398 12.9769 5.17736 12.9769C7.91755 12.9769 9.33234 12.4961 9.33234 11.5706Z" fill="#231F20"/>
    <path d="M10.6307 8.67178L10.6246 8.76158L10.6307 8.67178ZM11.7986 8.83935L11.7792 8.92724L11.7811 8.92762L11.7986 8.83935ZM10.0856 9.14742L9.99584 9.14132L10.0856 9.14742ZM10.5613 9.69248L10.5552 9.78228L10.5613 9.69248ZM11.5883 9.84049L11.5688 9.92838L11.5707 9.92875L11.5883 9.84049ZM12.5636 10.3202L12.6449 10.2816L12.6449 10.2815L12.5636 10.3202ZM12.5634 10.7979L12.4821 10.7593L12.4821 10.7593L12.5634 10.7979ZM11.5958 11.279L11.5777 11.1908L11.5958 11.279ZM11.8019 12.2811L11.82 12.3692H11.82L11.8019 12.2811ZM13.4874 11.237L13.4062 11.1984L13.4061 11.1984L13.4874 11.237ZM13.4874 9.88057L13.5687 9.84194L13.5687 9.84185L13.4874 9.88057ZM5.17736 9.15478L5.17775 9.06478H5.17736V9.15478ZM5.39546 9.15572L5.39625 9.06572L5.39585 9.06572L5.39546 9.15572ZM5.60851 13.9962L5.60931 14.0862L5.61015 14.0861L5.60851 13.9962ZM5.17736 14V14.09L5.17816 14.09L5.17736 14ZM1.76617 4.50159C1.76617 2.60916 3.2851 1.09 5.17776 1.09V0.91C3.18568 0.91 1.58617 2.50976 1.58617 4.50159H1.76617ZM5.17776 7.91386C3.28499 7.91386 1.76617 6.39459 1.76617 4.50159H1.58617C1.58617 6.49396 3.18554 8.09386 5.17776 8.09386V7.91386ZM8.59003 4.50159C8.59003 6.39448 7.07065 7.91386 5.17776 7.91386V8.09386C7.17006 8.09386 8.77003 6.49389 8.77003 4.50159H8.59003ZM5.17776 1.09C7.07054 1.09 8.59003 2.60928 8.59003 4.50159H8.77003C8.77003 2.50983 7.16992 0.91 5.17776 0.91V1.09ZM7.74736 4.50159C7.74736 3.07488 6.60532 1.93306 5.17815 1.93306V2.11306C6.50595 2.11306 7.56736 3.17434 7.56736 4.50159H7.74736ZM5.17815 7.0708C6.60543 7.0708 7.74736 5.92887 7.74736 4.50159H7.56736C7.56736 5.82946 6.50602 6.8908 5.17815 6.8908V7.0708ZM2.60962 4.50159C2.60962 5.92901 3.75102 7.0708 5.17815 7.0708V6.8908C3.85048 6.8908 2.78962 5.82965 2.78962 4.50159H2.60962ZM5.17815 1.93306C3.75112 1.93306 2.60962 3.07474 2.60962 4.50159H2.78962C2.78962 3.17414 3.85054 2.11306 5.17815 2.11306V1.93306ZM9.56263 1.81951C11.0372 1.81951 12.2328 3.01539 12.2328 4.48972H12.4128C12.4128 2.91599 11.1366 1.63951 9.56263 1.63951V1.81951ZM9.1411 2.24104C9.1411 2.00823 9.32983 1.81951 9.56263 1.81951V1.63951C9.23041 1.63951 8.9611 1.90882 8.9611 2.24104H9.1411ZM9.56263 2.66257C9.32983 2.66257 9.1411 2.47384 9.1411 2.24104H8.9611C8.9611 2.57325 9.23041 2.84257 9.56263 2.84257V2.66257ZM11.3898 4.48972C11.3898 3.48096 10.5716 2.66257 9.56263 2.66257V2.84257C10.4721 2.84257 11.2098 3.58036 11.2098 4.48972H11.3898ZM9.56263 6.31687C10.5718 6.31687 11.3898 5.49891 11.3898 4.48972H11.2098C11.2098 5.3995 10.4724 6.13687 9.56263 6.13687V6.31687ZM9.1411 6.7384C9.1411 6.5056 9.32983 6.31687 9.56263 6.31687V6.13687C9.23041 6.13687 8.9611 6.40619 8.9611 6.7384H9.1411ZM9.56263 7.15993C9.32983 7.15993 9.1411 6.97121 9.1411 6.7384H8.9611C8.9611 7.07062 9.23041 7.33993 9.56263 7.33993V7.15993ZM12.2328 4.48972C12.2328 5.96452 11.0374 7.15993 9.56263 7.15993V7.33993C11.1368 7.33993 12.4128 6.06393 12.4128 4.48972H12.2328ZM10.6246 8.76158C11.0161 8.78821 11.4053 8.84433 11.7792 8.92722L11.8181 8.75148C11.4354 8.66662 11.0372 8.60923 10.6368 8.58199L10.6246 8.76158ZM10.1754 9.15353C10.1912 8.92126 10.3923 8.74578 10.6246 8.76158L10.6368 8.58199C10.3054 8.55945 10.0184 8.80987 9.99584 9.14132L10.1754 9.15353ZM10.5674 9.60269C10.3351 9.58689 10.1596 9.3858 10.1754 9.15353L9.99584 9.14132C9.9733 9.47277 10.2237 9.75973 10.5552 9.78228L10.5674 9.60269ZM11.6077 9.75261C11.2641 9.67655 10.9167 9.62645 10.5674 9.60269L10.5552 9.78228C10.8955 9.80542 11.234 9.85422 11.5688 9.92836L11.6077 9.75261ZM12.6449 10.2815C12.5845 10.1547 12.4511 10.0496 12.2789 9.96458C12.1039 9.87815 11.8756 9.80594 11.6059 9.75222L11.5707 9.92875C11.8306 9.98051 12.0426 10.0487 12.1992 10.126C12.3585 10.2047 12.448 10.2867 12.4824 10.359L12.6449 10.2815ZM12.6447 10.8365C12.728 10.6612 12.7281 10.4565 12.6449 10.2816L12.4824 10.3589C12.5422 10.4848 12.5423 10.6328 12.4821 10.7593L12.6447 10.8365ZM11.6139 11.3671C11.8809 11.3122 12.1073 11.2395 12.281 11.1529C12.452 11.0678 12.5846 10.9629 12.6447 10.8365L12.4821 10.7593C12.4479 10.8312 12.359 10.913 12.2008 10.9918C12.0453 11.0693 11.835 11.1379 11.5777 11.1908L11.6139 11.3671ZM11.286 11.8649C11.2391 11.6369 11.3859 11.414 11.6139 11.3671L11.5777 11.1908C11.2523 11.2578 11.0427 11.5758 11.1096 11.9012L11.286 11.8649ZM11.7838 12.1929C11.5557 12.2398 11.3329 12.093 11.286 11.8649L11.1096 11.9012C11.1766 12.2266 11.4946 12.4361 11.82 12.3692L11.7838 12.1929ZM13.4061 11.1984C13.1504 11.7367 12.5908 12.0269 11.7838 12.1929L11.82 12.3692C12.6428 12.2 13.2755 11.8928 13.5687 11.2756L13.4061 11.1984ZM13.4061 9.91921C13.5983 10.3236 13.5983 10.7941 13.4062 11.1984L13.5687 11.2757C13.7841 10.8225 13.7841 10.2952 13.5687 9.84194L13.4061 9.91921ZM11.7811 8.92762C12.583 9.08714 13.1489 9.37958 13.4062 9.9193L13.5687 9.84185C13.2738 9.22328 12.6349 8.91393 11.8162 8.75108L11.7811 8.92762ZM5.17736 9.06478C3.5265 9.06478 2.2166 9.22437 1.31658 9.61569C0.865182 9.81195 0.512457 10.0684 0.272725 10.3963C0.0323044 10.7252 -0.09 11.12 -0.09 11.5842H0.09C0.09 11.1534 0.202794 10.797 0.418038 10.5025C0.633971 10.2072 0.957479 9.9681 1.38835 9.78076C2.25287 9.40488 3.53164 9.24478 5.17736 9.24478V9.06478ZM5.39585 9.06572L5.17775 9.06478L5.17697 9.24478L5.39508 9.24572L5.39585 9.06572ZM10.4454 11.5706C10.4454 11.1174 10.3289 10.731 10.0992 10.4078C9.87016 10.0854 9.53279 9.83178 9.10041 9.63617C8.23851 9.24625 6.98274 9.07953 5.39625 9.06572L5.39468 9.24572C6.97587 9.25948 8.20007 9.42643 9.02622 9.80017C9.43786 9.98639 9.74654 10.2221 9.9525 10.512C10.1579 10.8011 10.2654 11.15 10.2654 11.5706H10.4454ZM5.61015 14.0861C7.12778 14.0584 8.33055 13.8796 9.15666 13.4853C9.57114 13.2875 9.89442 13.0337 10.1139 12.7144C10.3338 12.3943 10.4454 12.0141 10.4454 11.5706H10.2654C10.2654 11.9823 10.1623 12.326 9.9655 12.6124C9.7682 12.8996 9.47274 13.135 9.07913 13.3228C8.28909 13.6999 7.11842 13.8786 5.60686 13.9062L5.61015 14.0861ZM5.17816 14.09L5.60931 14.0862L5.60771 13.9062L5.17656 13.91L5.17816 14.09ZM-0.09 11.5842C-0.09 12.0478 0.0318136 12.4415 0.271725 12.769C0.510945 13.0957 0.863055 13.3504 1.314 13.5451C2.21306 13.9333 3.52294 14.09 5.17736 14.09V13.91C3.52776 13.91 2.24895 13.7527 1.38534 13.3799C0.954947 13.1941 0.632223 12.9566 0.416942 12.6627C0.202353 12.3697 0.09 12.0145 0.09 11.5842H-0.09ZM5.17736 10.2678C6.54584 10.2678 7.57289 10.3862 8.25479 10.6148C8.9399 10.8445 9.24234 11.1713 9.24234 11.5706H9.42234C9.42234 11.0506 9.01868 10.6811 8.312 10.4442C7.6021 10.2062 6.55165 10.0878 5.17736 10.0878V10.2678ZM1.11306 11.5842C1.11306 11.1813 1.41663 10.8513 2.1016 10.6192C2.78357 10.3881 3.81036 10.2678 5.17736 10.2678V10.0878C3.80437 10.0878 2.754 10.208 2.04383 10.4487C1.33664 10.6884 0.933059 11.0615 0.933059 11.5842H1.11306ZM5.17736 12.8869C3.80856 12.8869 2.78169 12.7686 2.10005 12.5401C1.41525 12.3105 1.11306 11.9838 1.11306 11.5842H0.933059C0.933059 12.1043 1.33633 12.4739 2.04283 12.7108C2.7525 12.9487 3.80277 13.0669 5.17736 13.0669V12.8869ZM9.24234 11.5706C9.24234 11.9734 8.93867 12.3034 8.25354 12.5356C7.57141 12.7667 6.54446 12.8869 5.17736 12.8869V13.0669C6.55045 13.0669 7.60098 12.9467 8.3113 12.706C9.01861 12.4664 9.42234 12.0932 9.42234 11.5706H9.24234Z" fill="white" mask="url(#path-1-inside-1)"/>
</svg>
