<svg width="14" height="14" viewBox="0 0 14 14" fill="none" xmlns="http://www.w3.org/2000/svg">
    <path d="M11.1874 1.73431C10.069 0.615919 8.58202 0 7.0004 0C5.41878 0 3.93177 0.615919 2.81341 1.73431C1.69502 2.85272 1.0791 4.33968 1.0791 5.92127C1.0791 9.12083 4.10437 11.7821 5.72965 13.2118C5.95551 13.4104 6.15056 13.582 6.30595 13.7272C6.50064 13.909 6.75053 14 7.00037 14C7.25027 14 7.50011 13.909 7.69483 13.7272C7.85022 13.582 8.04526 13.4104 8.27112 13.2118C9.89641 11.782 12.9217 9.12083 12.9217 5.92127C12.9216 4.33968 12.3058 2.85272 11.1874 1.73431ZM7.72944 12.596C7.49863 12.7991 7.29932 12.9744 7.13499 13.1279C7.05949 13.1984 6.94126 13.1984 6.86573 13.1279C6.70142 12.9744 6.50209 12.799 6.27128 12.596C4.74331 11.2519 1.89914 8.74999 1.89914 5.9213C1.89914 3.1085 4.18752 0.820123 7.00035 0.820123C9.81315 0.820123 12.1015 3.1085 12.1015 5.9213C12.1016 8.74999 9.25741 11.2519 7.72944 12.596Z" fill="#231F20"/>
    <path d="M7.00007 3.08813C5.56121 3.08813 4.39062 4.2587 4.39062 5.69756C4.39062 7.13642 5.56121 8.30698 7.00007 8.30698C8.43893 8.30698 9.60949 7.13642 9.60949 5.69756C9.60949 4.2587 8.43893 3.08813 7.00007 3.08813ZM7.00007 7.48686C6.01343 7.48686 5.21072 6.68415 5.21072 5.69753C5.21072 4.71091 6.01343 3.9082 7.00007 3.9082C7.98672 3.9082 8.78939 4.71091 8.78939 5.69753C8.78939 6.68415 7.98672 7.48686 7.00007 7.48686Z" fill="#231F20"/>
</svg>
