<svg width="14" height="14" viewBox="0 0 14 14" fill="none" xmlns="http://www.w3.org/2000/svg">
    <path d="M0.959932 12.0268L3.73069 9.25605C3.05244 8.36554 2.64876 7.25438 2.64876 6.05078C2.64876 3.12771 5.02638 0.75 7.94935 0.75C10.8724 0.75 13.25 3.1277 13.25 6.05078C13.25 8.97369 10.8724 11.3512 7.94935 11.3512C6.74582 11.3512 5.6346 10.9476 4.74407 10.2693L1.97328 13.04C1.97326 13.0401 1.97324 13.0401 1.97322 13.0401C1.83334 13.18 1.64947 13.25 1.46656 13.25C1.28361 13.25 1.09975 13.18 0.95984 13.0401C0.68001 12.7603 0.679998 12.3066 0.959904 12.0268C0.959913 12.0268 0.959923 12.0268 0.959932 12.0268ZM11.8169 6.05078C11.8169 3.91835 10.0817 2.18311 7.94935 2.18311C5.81706 2.18311 4.08192 3.91834 4.08192 6.05078C4.08192 8.18301 5.81704 9.91808 7.94935 9.91808C10.0817 9.91808 11.8169 8.18301 11.8169 6.05078Z" fill="white" stroke="white" stroke-width="0.5"/>
</svg>
