<svg width="22" height="22" viewBox="0 0 22 22" fill="none" xmlns="http://www.w3.org/2000/svg">
    <path d="M8.5699 13.6196C4.93641 13.6196 1.83301 14.1809 1.83301 16.4243C1.83301 18.6694 4.91667 19.25 8.5699 19.25C12.2034 19.25 15.3068 18.6887 15.3068 16.4453C15.3068 14.2002 12.2231 13.6196 8.5699 13.6196Z" fill="#200E32"/>
    <path opacity="0.4" d="M8.57008 11.4811C11.0447 11.4811 13.0279 9.53899 13.0279 7.11554C13.0279 4.6921 11.0447 2.75 8.57008 2.75C6.09633 2.75 4.1123 4.6921 4.1123 7.11554C4.1123 9.53899 6.09633 11.4811 8.57008 11.4811Z" fill="#200E32"/>
    <path opacity="0.4" d="M14.8252 7.1947C14.8252 8.42882 14.4467 9.58038 13.783 10.5369C13.7139 10.6353 13.7749 10.7679 13.8951 10.789C14.0619 10.8163 14.2332 10.8329 14.4081 10.8365C16.1482 10.8813 17.7098 9.78416 18.1412 8.13193C18.7807 5.68037 16.9043 3.47916 14.514 3.47916C14.2548 3.47916 14.0063 3.50551 13.7641 3.55382C13.731 3.56085 13.6951 3.57666 13.6771 3.60476C13.6538 3.64078 13.6709 3.68733 13.6942 3.71808C14.4126 4.7045 14.8252 5.90524 14.8252 7.1947Z" fill="#200E32"/>
    <path d="M19.9639 13.9052C19.6455 13.2403 18.8768 12.7844 17.7072 12.5604C17.1556 12.4287 15.6613 12.2416 14.272 12.2679C14.2513 12.2706 14.2397 12.2846 14.2379 12.2934C14.2352 12.3075 14.2415 12.3286 14.2684 12.3435C14.9106 12.6544 17.3924 14.0071 17.0803 16.8601C17.0668 16.9848 17.1682 17.0903 17.2946 17.0727C17.9054 16.9875 19.4769 16.6563 19.9639 15.6269C20.2339 15.0823 20.2339 14.4498 19.9639 13.9052Z" fill="#200E32"/>
</svg>
