<svg width="22" height="22" viewBox="0 0 22 22" fill="none" xmlns="http://www.w3.org/2000/svg">
    <path fill-rule="evenodd" clip-rule="evenodd" d="M2.75 15.4641V8.48553H19.25V15.52C19.25 18.3975 17.4388 20.1666 14.5409 20.1666H7.45006C4.57931 20.1666 2.75 18.3608 2.75 15.4641ZM7.29614 13.2091C6.87956 13.2284 6.53543 12.8975 6.51732 12.4767C6.51732 12.055 6.84334 11.7067 7.25991 11.6875C7.66743 11.6875 8.0025 12.0092 8.01156 12.4208C8.02967 12.8434 7.70365 13.1917 7.29614 13.2091ZM11.0181 13.2091C10.6016 13.2284 10.2574 12.8975 10.2393 12.4767C10.2393 12.055 10.5653 11.7067 10.9819 11.6875C11.3894 11.6875 11.7245 12.0092 11.7336 12.4208C11.7517 12.8434 11.4256 13.1917 11.0181 13.2091ZM14.7129 16.5824C14.2964 16.5733 13.9613 16.2249 13.9613 15.8033C13.9522 15.3816 14.2873 15.0342 14.7039 15.025H14.7129C15.1386 15.025 15.4827 15.3734 15.4827 15.8033C15.4827 16.2341 15.1386 16.5824 14.7129 16.5824ZM10.2393 15.8033C10.2574 16.2249 10.6016 16.5559 11.0181 16.5366C11.4256 16.5192 11.7517 16.1709 11.7336 15.7492C11.7245 15.3367 11.3894 15.0149 10.9819 15.0149C10.5653 15.0342 10.2393 15.3816 10.2393 15.8033ZM6.50826 15.8033C6.52637 16.2249 6.8705 16.5559 7.28707 16.5366C7.69459 16.5192 8.02061 16.1709 8.00249 15.7492C7.99344 15.3367 7.65837 15.0149 7.25085 15.0149C6.83427 15.0342 6.50826 15.3816 6.50826 15.8033ZM13.9704 12.4675C13.9704 12.0459 14.2964 11.7067 14.713 11.6975C15.1205 11.6975 15.4465 12.0266 15.4646 12.4309C15.4737 12.8525 15.1477 13.2009 14.7401 13.2091C14.3236 13.2183 13.9794 12.8975 13.9704 12.4767V12.4675Z" fill="#A69FAD"/>
    <path d="M2.75293 8.48545C2.7647 7.94737 2.80998 6.87945 2.89511 6.5357C3.3298 4.60245 4.80592 3.37412 6.91597 3.19904H15.0845C17.1764 3.38329 18.6706 4.61987 19.1053 6.5357C19.1895 6.87029 19.2348 7.94645 19.2466 8.48545H2.75293Z" fill="#231F20"/>
    <path d="M7.61235 6.04081C8.01081 6.04081 8.30966 5.73923 8.30966 5.33498V2.54006C8.30966 2.13581 8.01081 1.83331 7.61235 1.83331C7.21389 1.83331 6.91504 2.13581 6.91504 2.54006V5.33498C6.91504 5.73923 7.21389 6.04081 7.61235 6.04081Z" fill="#A69FAD"/>
    <path d="M14.3868 6.04081C14.7762 6.04081 15.0841 5.73923 15.0841 5.33498V2.54006C15.0841 2.13581 14.7762 1.83331 14.3868 1.83331C13.9883 1.83331 13.6895 2.13581 13.6895 2.54006V5.33498C13.6895 5.73923 13.9883 6.04081 14.3868 6.04081Z" fill="#A69FAD"/>
</svg>
