<svg width="22" height="22" viewBox="-1.6 -1 21 21" fill="none" xmlns="http://www.w3.org/2000/svg">
    <path d="M14.3831 2.22982C12.9452 0.791896 11.0333 0 8.99982 0C6.96631 0 5.05444 0.791896 3.61654 2.22982C2.17861 3.66779 1.38672 5.57959 1.38672 7.61307C1.38672 11.7268 5.27634 15.1484 7.366 16.9865C7.65639 17.242 7.90716 17.4626 8.10695 17.6492C8.35727 17.883 8.67856 18 8.99978 18C9.32108 18 9.6423 17.883 9.89265 17.6492C10.0924 17.4626 10.3432 17.242 10.6336 16.9865C12.7233 15.1483 16.6129 11.7268 16.6129 7.61307C16.6128 5.57959 15.821 3.66779 14.3831 2.22982Z" fill="#A69FAD"/>
    <path d="M8.99953 3.97052C7.14957 3.97052 5.64453 5.47553 5.64453 7.32549C5.64453 9.17546 7.14957 10.6805 8.99953 10.6805C10.8495 10.6805 12.3545 9.17546 12.3545 7.32549C12.3545 5.47553 10.8495 3.97052 8.99953 3.97052Z" fill="white"/>
</svg>
