<svg width="60" height="60" viewBox="0 0 60 60" fill="none" xmlns="http://www.w3.org/2000/svg">
<path d="M30 60C46.5685 60 60 46.5685 60 30C60 13.4315 46.5685 0 30 0C13.4315 0 0 13.4315 0 30C0 46.5685 13.4315 60 30 60Z" fill="#5F98D1"/>
<path d="M48.7281 17.2811H11.1982L24.7941 31.4381L28.7176 35.4107C26.5829 34.9228 26.4508 34.6187 25.5049 33.8464C25.0087 33.4413 24.0501 32.3403 22.5942 30.8534C18.0495 26.2127 10.3379 18.3379 10.3379 18.3379V41.6374L11.3064 42.6059L11.198 42.7188L28.439 59.9597C28.9561 59.9862 29.4764 59.9999 30 59.9999C46.5685 59.9999 60 46.5685 60 29.9999C60 29.5024 59.9871 29.0078 59.9633 28.5162L48.7281 17.2811Z" fill="#3A6DA1"/>
<path d="M10.3379 18.338V41.6374L21.7001 29.9406L10.3379 18.338Z" fill="white"/>
<path d="M49.662 18.338V41.6374L38.3562 29.9877L49.662 18.338Z" fill="white"/>
<path d="M11.198 17.2811H48.7279L33.9781 32.6395C32.9283 33.7325 31.4783 34.3503 29.963 34.3503C28.4476 34.3503 26.9977 33.7325 25.9479 32.6395L11.198 17.2811Z" fill="white"/>
<path d="M34.829 33.4565C33.5635 34.7741 31.79 35.53 29.963 35.53C28.1362 35.53 26.3625 34.7744 25.0971 33.4566L22.5953 30.8515L11.198 42.7187H48.7279L37.3307 30.8515L34.829 33.4565Z" fill="white"/>
</svg>
