<svg width="60" height="60" viewBox="0 0 60 60" fill="none" xmlns="http://www.w3.org/2000/svg">
<path d="M30 60C46.5685 60 60 46.5685 60 30C60 13.4315 46.5685 0 30 0C13.4315 0 0 13.4315 0 30C0 46.5685 13.4315 60 30 60Z" fill="#ADDC51"/>
<path d="M18.3382 18.2073C12.9346 23.6108 12.0343 31.8457 15.7201 38.2057L13.4138 46.5319L26.7005 59.8186C27.7843 59.9371 28.8847 60 29.9998 60C44.5525 60 56.6834 49.6377 59.4203 35.8894L41.7384 18.2073C35.2771 11.7462 24.8033 11.7421 18.3382 18.2073Z" fill="#94C435"/>
<path d="M41.7384 18.2073C35.2771 11.746 24.8033 11.7421 18.3382 18.2073C12.9346 23.6108 12.0343 31.8457 15.7201 38.2057L13.4138 46.5319L21.74 44.2256C28.1351 47.9319 36.3617 46.9841 41.7384 41.6075C48.1986 35.1473 48.2046 24.6735 41.7384 18.2073Z" fill="#5A915A"/>
<path d="M39.1085 35.8144C39.1023 35.3204 38.6406 34.9184 38.0746 34.849C36.6885 34.6815 35.3783 34.3131 34.1706 33.781C33.7317 33.5886 33.2259 33.6652 32.9213 33.9865C32.6462 34.2818 32.3627 34.5716 32.0716 34.8554C29.061 33.3411 26.6053 30.8854 25.091 27.8748C25.3749 27.5836 25.6647 27.3004 25.9599 27.025C26.281 26.7204 26.3578 26.2146 26.1655 25.7758C25.6333 24.5679 25.265 23.2579 25.0974 21.8718C25.0279 21.3061 24.6265 20.844 24.1329 20.8378C23.7826 20.8378 23.3554 20.8378 22.9046 20.8378C21.1131 20.7365 19.5634 23.1849 20.339 26.0047C22.1506 32.6006 27.346 37.7959 33.9418 39.6075C36.7615 40.3832 39.2102 38.8328 39.1087 37.0415C39.1085 36.6324 39.1085 36.2234 39.1085 35.8144Z" fill="white"/>
</svg>
