<svg width="16" height="11" viewBox="0 0 16 11" fill="none" xmlns="http://www.w3.org/2000/svg">
<path d="M14.12 0.247864H1.14309C0.51176 0.247864 0 0.7637 0 1.40006V9.17528C0 9.81161 0.51176 10.3275 1.14309 10.3275H14.12C14.7513 10.3275 15.2631 9.81164 15.2631 9.17528V1.40006C15.2631 0.7637 14.7513 0.247864 14.12 0.247864Z" fill="#41479B"/>
<path d="M15.2472 1.20864C15.1571 0.662993 14.6869 0.246887 14.12 0.246887H13.8226L8.94731 3.46645V0.246917H6.31575V3.46648L1.44051 0.246917H1.14309C0.576181 0.246917 0.105917 0.662993 0.0158295 1.20867L4.1827 3.96047H0V6.613H4.1827L0.0158295 9.36475C0.105917 9.91039 0.576181 10.3265 1.14309 10.3265H1.44051L6.31575 7.10693V10.3265H8.94731V7.10693L13.8226 10.3265H14.12C14.6869 10.3265 15.1571 9.91042 15.2472 9.36475L11.0804 6.61294H15.2631V3.96041H11.0804L15.2472 1.20864Z" fill="#F5F5F5"/>
<path d="M8.42101 0.247864H6.84205V4.49189H0V6.08342H6.84205V10.3274H8.42101V6.08342H15.2631V4.49189H8.42101V0.247864Z" fill="#FF4B55"/>
<path d="M0.739026 10.2522L6.30121 6.61298H5.3345L0.274902 9.92343C0.398706 10.0691 0.557806 10.1832 0.739026 10.2522Z" fill="#FF4B55"/>
<path d="M10.3261 6.61298H9.35938L14.7466 10.1378C14.8974 10.038 15.0232 9.90318 15.1129 9.74489L10.3261 6.61298Z" fill="#FF4B55"/>
<path d="M0.120728 0.883889L4.82273 3.96043H5.78943L0.461342 0.474243C0.318282 0.581575 0.201216 0.7219 0.120728 0.883889Z" fill="#FF4B55"/>
<path d="M9.91397 3.9599L14.9828 0.643339C14.8577 0.498177 14.6973 0.384715 14.5148 0.317017L8.94727 3.9599H9.91397Z" fill="#FF4B55"/>
</svg>
