<svg width="27" height="27" viewBox="0 0 27 27" fill="none" xmlns="http://www.w3.org/2000/svg">
<path d="M22.3085 9.10665C21.7112 9.37524 21.0683 9.55639 20.3938 9.63744C21.0825 9.22041 21.6106 8.55976 21.8597 7.77173C21.2155 8.15837 20.5024 8.43905 19.7428 8.59049C19.1349 7.93526 18.2684 7.52551 17.3096 7.52551C15.4689 7.52551 13.9763 9.0352 13.9763 10.8976C13.9763 11.1615 14.0057 11.4188 14.0627 11.666C11.2921 11.5252 8.83551 10.183 7.19133 8.14278C6.90436 8.64053 6.74008 9.21973 6.74008 9.83831C6.74008 11.0081 7.32853 12.0403 8.22299 12.6449C7.67681 12.6272 7.16257 12.4754 6.713 12.2228C6.71266 12.2368 6.71266 12.2512 6.71266 12.2655C6.71266 13.899 7.86181 15.2615 9.38694 15.5719C9.10724 15.6486 8.81273 15.69 8.50862 15.69C8.29358 15.69 8.08473 15.669 7.88125 15.6293C8.30575 16.9688 9.53671 17.9441 10.9952 17.9711C9.85433 18.8756 8.41727 19.4148 6.85517 19.4148C6.58635 19.4148 6.32083 19.3987 6.05994 19.3674C7.53559 20.3246 9.28766 20.8824 11.1701 20.8824C17.302 20.8824 20.6548 15.7444 20.6548 11.2883C20.6548 11.1421 20.6518 10.9964 20.6456 10.8516C21.2966 10.3771 21.8619 9.78295 22.3085 9.10665Z" fill="#A4AAB3"/>
<path d="M13.346 0C5.97521 0 0 6.04416 0 13.5C0 20.9558 5.97521 27 13.346 27C20.7168 27 26.692 20.9558 26.692 13.5C26.692 6.04416 20.7168 0 13.346 0ZM22.1908 22.4468C19.8283 24.8366 16.6871 26.1527 13.346 26.1527C10.0049 26.1527 6.86375 24.8366 4.50123 22.4468C2.13871 20.057 0.837615 16.8797 0.837615 13.5C0.837615 10.1203 2.13871 6.94295 4.50123 4.55317C6.86375 2.16339 10.0049 0.84728 13.346 0.84728C16.6871 0.84728 19.8283 2.16339 22.1908 4.55317C24.5533 6.94295 25.8544 10.1203 25.8544 13.5C25.8544 16.8797 24.5533 20.057 22.1908 22.4468Z" fill="#A4AAB3"/>
</svg>
