<svg width="16" height="16" viewBox="0 0 16 16" fill="none" xmlns="http://www.w3.org/2000/svg">
    <path d="M7.29477 10.224L7.29474 10.224C6.89871 10.1173 6.54229 9.9218 6.29179 9.67147C6.19584 9.5757 6.06855 9.52306 5.93292 9.52306C5.79733 9.52306 5.67004 9.57579 5.57399 9.67165C5.57398 9.67166 5.57398 9.67167 5.57397 9.67167L5.53138 9.71422L5.53137 9.71423C5.43588 9.80961 5.38158 9.94209 5.38253 10.0774C5.3836 10.2124 5.43998 10.3441 5.53711 10.4381L5.53711 10.4381C6.00427 10.8907 6.66567 11.2189 7.35114 11.3371L7.35116 11.3371L7.41846 11.3488L7.45995 11.3559V11.398V11.9246C7.45995 12.2044 7.68771 12.4322 7.96764 12.4322H8.03085C8.31069 12.4322 8.53846 12.2044 8.53846 11.9246V11.3858V11.3444L8.57913 11.3367L8.64507 11.3241C9.21373 11.2159 9.66389 10.9848 9.97146 10.6629C10.2785 10.3416 10.446 9.92721 10.446 9.44618V9.44581C10.4509 8.78921 10.211 8.34469 9.86568 8.02923C9.51825 7.71188 9.06149 7.52284 8.62985 7.38499L7.29477 10.224ZM7.29477 10.224L7.39698 10.2514L7.45995 10.2683V10.2031V8.1912V8.15536L7.426 8.14385L7.37098 8.1252C6.80039 7.93181 6.38144 7.67314 6.10521 7.34727C5.82976 7.02231 5.69313 6.62689 5.69313 6.15308C5.69313 5.71319 5.84745 5.33228 6.13063 5.0347C6.41433 4.73658 6.82972 4.51972 7.35476 4.41382L7.35477 4.41382L7.41984 4.40069L7.45995 4.39259V4.35168V3.92404C7.45995 3.6441 7.68771 3.4163 7.96764 3.4163H8.03085C8.31069 3.4163 8.53846 3.64413 8.53846 3.92404V4.32216V4.36508L8.58089 4.37158L8.64969 4.38213L8.6497 4.38213C9.12299 4.45452 9.5759 4.61141 9.92491 4.82258C10.0403 4.89243 10.1246 5.00801 10.1559 5.13928L10.1559 5.13928C10.1871 5.27031 10.1641 5.41138 10.0926 5.52579L10.0926 5.52582L10.0643 5.57107L7.29477 10.224ZM9.36753 9.43948C9.36933 9.23164 9.32687 9.06407 9.22067 8.92234C9.11544 8.7819 8.95171 8.6724 8.72235 8.57176L8.72232 8.57174L8.60852 8.52191L8.53846 8.49124L8.53846 8.56772L8.53858 10.1816L8.53859 10.2506L8.60415 10.2291L8.71057 10.1943L8.71062 10.1942C8.92258 10.1246 9.08702 10.0272 9.19871 9.9002C9.31113 9.77241 9.36743 9.61764 9.36753 9.43948ZM9.36753 9.43948L9.31753 9.43905M9.36753 9.43948C9.36753 9.43934 9.36753 9.43919 9.36753 9.43905H9.31753M9.31753 9.43905C9.31753 9.77291 9.10809 10.011 8.69501 10.1467L8.63858 10.1652L8.63858 10.1816L8.58858 10.1816L8.57302 10.1341L8.58858 10.129L8.58847 8.6223L8.56841 8.61352L8.58846 8.56772L8.63846 8.56771L8.63846 8.58961L8.70226 8.61754C9.15414 8.81583 9.32101 9.03817 9.31753 9.43905ZM7.26704 6.90647L7.26703 6.90646C7.09429 6.81418 6.96915 6.71451 6.88777 6.59147C6.8059 6.46769 6.77152 6.32511 6.77152 6.15312C6.77152 6.01595 6.81599 5.89489 6.90409 5.79293C6.9914 5.69188 7.11945 5.61192 7.28351 5.55143M7.26704 6.90647L7.28351 5.55143M7.26704 6.90647L7.38636 6.97016L7.45991 7.00942V6.92605V5.55808V5.48634M7.26704 6.90647L7.45991 5.48634M7.28351 5.55143L7.3926 5.51118M7.28351 5.55143L7.3926 5.51118M7.45991 5.48634L7.3926 5.51118M7.45991 5.48634L7.3926 5.51118M8.5733 7.36699L8.62981 7.38498L10.0643 5.5711C9.97083 5.72064 9.80995 5.80976 9.63335 5.80976C9.54183 5.80976 9.45173 5.78479 9.37265 5.73744C9.19076 5.62819 8.95717 5.5411 8.69766 5.48435L8.69765 5.48434L8.59914 5.46282L8.53846 5.44956V5.51166V7.31935V7.35591L8.5733 7.36699ZM8.63846 5.52259L8.68698 5.53319L8.58846 7.31935V5.56284L8.57779 5.56051L8.58846 5.51166H8.63846V5.52259ZM10.135 5.55229C10.2135 5.42652 10.2388 5.27173 10.2045 5.12769L10.135 5.55229Z" fill="#777777" stroke="#F7F8FC" stroke-width="0.1"/>
    <path d="M13.9649 3.73836L14.0662 3.89408L14.229 3.80446L15.3246 3.20113C15.3246 3.20112 15.3246 3.20112 15.3246 3.20111C15.4383 3.13856 15.5783 3.15063 15.6795 3.23159C15.7807 3.31257 15.8232 3.44657 15.7872 3.57117L14.9904 6.32083C14.9667 6.40254 14.9115 6.4715 14.837 6.51255C14.7893 6.53881 14.7361 6.55225 14.6825 6.55225C14.6525 6.55225 14.6226 6.54808 14.5934 6.53961L14.5934 6.53959L11.8435 5.74274L11.8435 5.74274C11.7189 5.70665 11.6284 5.59908 11.6141 5.47037L11.6141 5.47015C11.5997 5.34137 11.6643 5.21664 11.7779 5.1541L12.8042 4.58898L12.9967 4.48296L12.8731 4.30126C11.7623 2.66927 9.91451 1.67818 7.91429 1.67818C4.6071 1.67818 1.91679 4.36844 1.91679 7.67567C1.91679 8.01304 1.64336 8.28651 1.30596 8.28651C0.968621 8.28651 0.695117 8.01303 0.695117 7.67567C0.695117 3.69516 3.93382 0.4565 7.91429 0.4565C10.3725 0.4565 12.6383 1.70006 13.9649 3.73836Z" fill="#777777" stroke="#F7F8FC" stroke-width="0.4"/>
    <path d="M3.19561 11.411L3.00307 11.517L3.12674 11.6987C4.23748 13.3307 6.0853 14.3218 8.08548 14.3218C11.3927 14.3218 14.083 11.6316 14.083 8.32433C14.083 7.98695 14.3565 7.71349 14.6939 7.71349C15.0312 7.71349 15.3047 7.98697 15.3047 8.32431V8.32433C15.3047 12.3048 12.0659 15.5435 8.08544 15.5435C5.62723 15.5435 3.36146 14.3 2.03494 12.2617L1.93359 12.106L1.77084 12.1956L0.675197 12.799C0.561591 12.8615 0.421572 12.8495 0.320303 12.7685C0.219065 12.6874 0.176618 12.5534 0.212686 12.429L1.00953 9.67913C1.03319 9.59751 1.08833 9.5286 1.16284 9.48755L1.16287 9.48753C1.21053 9.46126 1.26374 9.44784 1.3174 9.44784C1.34751 9.44784 1.37737 9.452 1.40634 9.46043L1.40655 9.46049L4.15639 10.2573L4.15649 10.2574C4.28097 10.2934 4.3715 10.4009 4.38577 10.5297L4.38579 10.5298C4.40014 10.6587 4.33545 10.7834 4.22191 10.8459L4.22189 10.8459L3.19561 11.411Z" fill="#777777" stroke="#F7F8FC" stroke-width="0.4"/>
</svg>
