<svg width="16" height="16" viewBox="0 0 16 16" fill="none" xmlns="http://www.w3.org/2000/svg">
    <path d="M7.99074 0.000823975C7.70395 0.000823975 7.41735 0.0162417 7.13219 0.0469771C6.87082 0.0736746 6.61266 0.117458 6.35796 0.170586C6.30867 0.180898 6.25935 0.191777 6.21006 0.203157C4.70943 0.544817 3.33919 1.31207 2.26365 2.4129C2.16364 2.51542 2.06572 2.62098 1.96998 2.72953C-0.935365 6.06498 -0.586697 11.1241 2.74878 14.0295C5.94205 16.811 10.7488 16.6259 13.7187 13.6071C13.8189 13.5046 13.9168 13.3991 14.0124 13.2905C15.2946 11.8304 16.0011 9.95322 16 8.01002C16 3.58662 12.4141 0.000790603 7.99074 0.000823975ZM2.61953 2.81336C2.66171 2.76958 2.70549 2.72767 2.74848 2.68522C2.79813 2.63636 2.84752 2.58724 2.89825 2.53998C2.94283 2.49833 2.98875 2.45829 3.03441 2.41771C3.08593 2.37206 3.13719 2.3264 3.19005 2.28235C3.2365 2.24311 3.28429 2.20546 3.33181 2.16755C3.38521 2.12484 3.4386 2.08212 3.4936 2.04101C3.54219 2.00443 3.59158 1.96892 3.64124 1.93422C3.6965 1.89471 3.75203 1.85413 3.80836 1.81728C3.85882 1.78311 3.90981 1.75001 3.96107 1.71717C4.0182 1.68059 4.0756 1.64455 4.13354 1.61038C4.1857 1.57924 4.23819 1.54861 4.29105 1.51854C4.35015 1.4849 4.40949 1.45206 4.46912 1.42003C4.52252 1.39156 4.57591 1.36369 4.62931 1.33646C4.69018 1.30576 4.75158 1.27613 4.81325 1.24703C4.86665 1.22166 4.92218 1.1963 4.97718 1.17227C5.03991 1.14558 5.10345 1.11888 5.16699 1.09218C5.22226 1.06949 5.27725 1.04733 5.33305 1.02597C5.39766 1.00141 5.46307 0.97845 5.52848 0.95549C5.58427 0.936001 5.64007 0.916512 5.69667 0.898091C5.76315 0.876733 5.83016 0.856977 5.89743 0.837488C5.95377 0.821202 6.00956 0.804383 6.06616 0.789166C6.08779 0.783559 6.10941 0.779021 6.13104 0.773414C5.34079 1.54073 4.75435 2.49303 4.42481 3.54407C3.79114 3.37695 3.1777 3.14087 2.5955 2.84006C2.60431 2.83072 2.61179 2.82137 2.61953 2.81336ZM2.23562 3.24319C2.87692 3.59066 3.55697 3.8613 4.26168 4.04946C3.91622 5.25071 3.73488 6.49317 3.72266 7.74304H0.521646C0.579813 6.09484 1.18254 4.51242 2.23562 3.24319ZM2.23562 12.7768C1.18261 11.5076 0.579879 9.92516 0.521646 8.27699H3.72266C3.73488 9.52687 3.91619 10.7693 4.26168 11.9706C3.55701 12.1588 2.87696 12.4294 2.23562 12.7768ZM6.06456 15.2319C6.01063 15.2183 5.95483 15.2007 5.8993 15.1844C5.83176 15.1647 5.76395 15.1449 5.6972 15.1233C5.64087 15.1051 5.58534 15.0856 5.52981 15.0661C5.46414 15.0435 5.39846 15.0202 5.33359 14.9954C5.27805 14.9743 5.22333 14.9521 5.16833 14.9297C5.10452 14.903 5.04072 14.8763 4.97744 14.8496C4.92298 14.8256 4.86878 14.8009 4.81486 14.7754C4.75265 14.746 4.69071 14.7161 4.62797 14.6852C4.57458 14.6585 4.52118 14.6318 4.46779 14.6027C4.40745 14.5704 4.34765 14.5373 4.28785 14.5031C4.23445 14.4735 4.18373 14.443 4.1322 14.4121C4.07347 14.3768 4.0158 14.3405 3.95814 14.3034C3.90741 14.2711 3.85669 14.2383 3.80676 14.2046C3.7499 14.1662 3.69356 14.1261 3.63777 14.0861C3.58891 14.0511 3.54005 14.0161 3.492 13.9793C3.43674 13.9376 3.38254 13.8947 3.32861 13.8514C3.28136 13.8138 3.23437 13.7764 3.18818 13.7377C3.13479 13.6934 3.08326 13.6472 3.03147 13.6013C2.98608 13.5609 2.94043 13.5212 2.89611 13.4801C2.84512 13.4325 2.79573 13.3831 2.74607 13.3343C2.70309 13.2918 2.65931 13.2499 2.61712 13.2064C2.60938 13.1981 2.60191 13.1896 2.59417 13.1816C3.17634 12.8806 3.78977 12.6445 4.42347 12.4773C4.75308 13.5283 5.33949 14.4806 6.1297 15.248C6.10808 15.2423 6.08619 15.2378 6.06456 15.2319ZM7.7238 15.4642C6.58142 15.3019 5.58 14.1096 4.94994 12.3489C5.86086 12.1449 6.79043 12.0355 7.7238 12.0224V15.4642ZM7.7238 11.4884C6.73366 11.5014 5.7477 11.619 4.78228 11.8392C4.44706 10.681 4.27023 9.48268 4.25661 8.27699H7.7238V11.4884ZM7.7238 7.74304H4.25661C4.27019 6.53735 4.44703 5.33904 4.78228 4.18081C5.7477 4.40096 6.7337 4.51856 7.7238 4.53161V7.74304ZM7.7238 3.99766C6.7904 3.98465 5.86086 3.87522 4.94994 3.67115C5.58 1.91046 6.58142 0.71815 7.7238 0.55583V3.99766ZM13.7459 3.24319C14.799 4.51245 15.4017 6.09488 15.4599 7.74304H12.2589C12.2467 6.49317 12.0654 5.25071 11.7199 4.04946C12.4246 3.8612 13.1046 3.59059 13.7459 3.24319ZM9.91486 0.787831C9.97093 0.801713 10.0267 0.819334 10.0823 0.835619C10.1498 0.855375 10.2176 0.875131 10.2844 0.896756C10.3407 0.91491 10.3962 0.9344 10.4517 0.953889C10.5174 0.976581 10.5831 0.999808 10.648 1.02464C10.7035 1.04573 10.7582 1.06789 10.8132 1.09031C10.877 1.11701 10.9408 1.14371 11.0041 1.1704C11.0586 1.19443 11.1128 1.21916 11.1667 1.24462C11.2289 1.27399 11.2908 1.30389 11.3536 1.33486C11.407 1.36156 11.4604 1.38826 11.5138 1.41736C11.5741 1.44966 11.6339 1.48276 11.6937 1.51694C11.7471 1.54657 11.7978 1.57701 11.8494 1.60798C11.9081 1.64322 11.9658 1.67952 12.0234 1.71663C12.0741 1.74894 12.1249 1.78178 12.1748 1.81541C12.2317 1.85386 12.2877 1.89364 12.3435 1.93368C12.3926 1.96866 12.4415 2.0039 12.4898 2.04047C12.5448 2.08185 12.5988 2.12484 12.6529 2.16809C12.6999 2.20546 12.7472 2.24284 12.7934 2.28182C12.8468 2.32614 12.8983 2.37232 12.9501 2.41824C12.9955 2.45856 13.0411 2.49833 13.0854 2.53945C13.1364 2.58697 13.1858 2.63636 13.2355 2.68522C13.2785 2.72767 13.3223 2.76958 13.3644 2.8131C13.3722 2.82137 13.3796 2.82992 13.3874 2.83793C12.8052 3.13887 12.1918 3.37504 11.5581 3.5422C11.2278 2.49106 10.6407 1.53886 9.84972 0.771812C9.87134 0.777419 9.89324 0.781957 9.91486 0.787831ZM8.25775 0.55583C9.40013 0.71815 10.4016 1.91046 11.0316 3.67115C10.1207 3.87512 9.19113 3.98455 8.25775 3.99766V0.55583ZM8.25775 4.53161C9.24789 4.5186 10.2339 4.40099 11.1993 4.18081C11.5345 5.33904 11.7113 6.53735 11.7249 7.74304H8.25775V4.53161ZM8.25775 8.27699H11.7249C11.7114 9.48268 11.5345 10.681 11.1993 11.8392C10.2339 11.6191 9.24789 11.5015 8.25775 11.4884V8.27699ZM8.25775 15.4642V12.0224C9.19116 12.0354 10.1207 12.1448 11.0316 12.3489C10.4016 14.1096 9.40013 15.3019 8.25775 15.4642ZM13.362 13.2067C13.3198 13.2502 13.2763 13.2921 13.2333 13.3346C13.1837 13.3834 13.134 13.4328 13.083 13.4803C13.0387 13.5217 12.9931 13.5604 12.9477 13.6018C12.8959 13.6477 12.8444 13.6936 12.7915 13.738C12.7448 13.7769 12.6973 13.8146 12.6497 13.8525C12.5963 13.8952 12.543 13.9379 12.488 13.979C12.4394 14.0156 12.39 14.0511 12.3403 14.0858C12.2851 14.1253 12.2295 14.1659 12.1732 14.2028C12.1227 14.2369 12.0717 14.27 12.0205 14.3026C11.9634 14.3394 11.9058 14.3751 11.8478 14.4094C11.7944 14.4406 11.7434 14.4711 11.6908 14.5012C11.6317 14.5349 11.5722 14.5677 11.5124 14.5997C11.459 14.6282 11.4056 14.6561 11.3522 14.6833C11.2914 14.714 11.23 14.7436 11.1683 14.7727C11.1149 14.7981 11.0594 14.8235 11.0044 14.8475C10.9416 14.8742 10.8781 14.9009 10.8146 14.9276C10.7593 14.95 10.7043 14.9724 10.6488 14.9935C10.5836 15.0184 10.5182 15.0416 10.4525 15.0643C10.397 15.0838 10.3415 15.1033 10.2852 15.1214C10.2184 15.143 10.1517 15.1628 10.0836 15.1823C10.0278 15.1988 9.97173 15.2154 9.91539 15.2306C9.89377 15.2362 9.87214 15.2407 9.85052 15.2464C10.6408 14.479 11.2272 13.5267 11.5568 12.4757C12.1904 12.6428 12.8039 12.8789 13.3861 13.1797C13.3772 13.1893 13.3698 13.1987 13.362 13.2067ZM13.7459 12.7768C13.1046 12.4294 12.4246 12.1587 11.7199 11.9706C12.0653 10.7693 12.2467 9.52687 12.2589 8.27699H15.4599C15.4018 9.92516 14.799 11.5076 13.7459 12.7768Z" fill="#777777"/>
</svg>
