<svg width="17" height="11" viewBox="0 0 17 11" fill="none" xmlns="http://www.w3.org/2000/svg">
<path d="M15.0962 7.40744V10.0356H16.4103V6.09334H1.3141V0.708722C1.3141 0.537696 1.25 0.382792 1.12179 0.243978C0.99359 0.1051 0.838686 0.0356445 0.657051 0.0356445C0.475417 0.0356445 0.320513 0.1051 0.192308 0.243978C0.0641026 0.382856 0 0.537792 0 0.708722V10.0356H1.3141V7.40744H15.0962Z" fill="#A4AAB3"/>
<path d="M3.38149 3.40104C3.71267 3.40104 4.00114 3.28351 4.24687 3.04847C4.49261 2.81341 4.61546 2.53027 4.61546 2.19912C4.61546 1.86787 4.49261 1.58476 4.24687 1.34976C4.00114 1.11472 3.71267 0.997192 3.38149 0.997192C3.0503 0.997192 2.76716 1.11472 2.53213 1.34976C2.2971 1.58479 2.17957 1.86793 2.17957 2.19912C2.17957 2.5303 2.2971 2.81344 2.53213 3.04847C2.76716 3.28351 3.0503 3.40104 3.38149 3.40104Z" fill="#A4AAB3"/>
<path d="M16.4104 5.09978V3.49722C16.4104 3.24081 16.3196 3.03248 16.138 2.87222C15.9562 2.71196 15.7265 2.61046 15.4489 2.56773L5.92962 1.63824H5.86552C5.69459 1.63824 5.55036 1.69699 5.43282 1.81453C5.31529 1.93206 5.25654 2.07629 5.25654 2.24722V4.10619H2.82064C2.41465 4.10619 2.21167 4.2718 2.21167 4.60299C2.21167 4.93417 2.41465 5.09978 2.82064 5.09978H16.4104Z" fill="#A4AAB3"/>
</svg>
