<svg width="18" height="18" viewBox="0 0 18 18" fill="none" xmlns="http://www.w3.org/2000/svg">
<path d="M2.24998 2.81255V0.562503C2.24998 0.251556 2.50153 0 2.81255 0C3.12343 0 3.37498 0.251556 3.37498 0.562503V2.81255C3.37498 3.12343 3.12343 3.37498 2.81255 3.37498C2.50153 3.37502 2.24998 3.12343 2.24998 2.81255ZM11.8126 3.37502C12.1234 3.37502 12.3751 3.12347 12.3751 2.81259V0.562503C12.3751 0.251556 12.1234 0 11.8126 0C11.5016 0 11.2499 0.251556 11.2499 0.562503V2.81255C11.2499 3.12343 11.5016 3.37502 11.8126 3.37502ZM17.9999 13.4999C17.9999 15.9852 15.9851 18 13.4999 18C11.0149 18 8.99998 15.9852 8.99998 13.4999C8.99998 11.0149 11.0149 8.99998 13.4999 8.99998C15.9851 8.99998 17.9999 11.0148 17.9999 13.4999ZM16.8751 13.4999C16.8751 11.639 15.3611 10.1249 13.5 10.1249C11.639 10.1249 10.125 11.639 10.125 13.4999C10.125 15.3611 11.639 16.875 13.5 16.875C15.3611 16.875 16.8751 15.3611 16.8751 13.4999ZM4.50003 6.75H2.24998V8.99998H4.50003V6.75ZM2.24998 12.375H4.50003V10.1249H2.24998V12.375ZM5.62496 8.99998H7.87505V6.75H5.62496V8.99998ZM5.62496 12.375H7.87505V10.1249H5.62496V12.375ZM1.12504 13.388V5.62496H13.5V7.87501H14.625V3.48713C14.625 2.80376 14.08 2.24998 13.4066 2.24998H12.9375V2.81259C12.9375 3.43215 12.4331 3.93756 11.8126 3.93756C11.1919 3.93756 10.6876 3.43215 10.6876 2.81259V2.24998H3.93745V2.81259C3.93745 3.43215 3.43319 3.93756 2.81259 3.93756C2.19185 3.93756 1.68755 3.43215 1.68755 2.81259V2.24998H1.21894C0.54555 2.24998 0 2.80376 0 3.48713V13.388C0 14.0692 0.54555 14.6251 1.21894 14.6251H7.87505V13.4999H1.21894C1.16797 13.4999 1.12504 13.4472 1.12504 13.388ZM11.2499 8.99998V6.75H9.00002V8.99998H11.2499ZM15.1875 13.4999H13.4999V11.8123C13.4999 11.5015 13.2484 11.25 12.9374 11.25C12.6265 11.25 12.3751 11.5015 12.3751 11.8123V14.0625C12.3751 14.3733 12.6265 14.6251 12.9374 14.6251H15.1875C15.4984 14.6251 15.75 14.3733 15.75 14.0625C15.75 13.7516 15.4984 13.4999 15.1875 13.4999Z" fill="#1267FB"/>
</svg>
