<svg width="18" height="14" viewBox="0 0 18 14" fill="none" xmlns="http://www.w3.org/2000/svg">
<path d="M16.7884 0H1.21155C0.54348 0 0 0.594111 0 1.32434V12.6757C0 13.4059 0.54348 14 1.21155 14H16.7884C17.4565 14 18 13.4059 18 12.6757V1.32434C18 0.594111 17.4565 0 16.7884 0ZM16.9615 12.6756C16.9615 12.78 16.8839 12.8648 16.7884 12.8648H1.21155C1.1161 12.8648 1.03848 12.78 1.03848 12.6756V6.81079H16.9615V12.6756ZM16.9615 5.67564H1.03844V3.78375H16.9615V5.67564H16.9615ZM16.9615 2.64864H1.03844V1.3243C1.03844 1.21996 1.11607 1.13511 1.21152 1.13511H16.7884C16.8839 1.13511 16.9615 1.21996 16.9615 1.3243V2.64864H16.9615Z" fill="#A4AAB3"/>
<path d="M15.2308 10.2162H12.4616C12.1748 10.2162 11.9424 10.4703 11.9424 10.7837C11.9424 11.0972 12.1749 11.3513 12.4616 11.3513H15.2308C15.5176 11.3513 15.75 11.0972 15.75 10.7837C15.75 10.4703 15.5176 10.2162 15.2308 10.2162Z" fill="#A4AAB3"/>
</svg>
