<svg width="20" height="20" viewBox="0 0 20 20" fill="none" xmlns="http://www.w3.org/2000/svg">
<path d="M20.0002 10.0002C20.0002 4.47685 15.523 0 10.0003 0C4.47726 0 0 4.47685 0 10.0002C0 15.5228 4.47726 20 10.0003 20C15.523 20 20.0002 15.5228 20.0002 10.0002Z" fill="#548EF5"/>
<path d="M12.7078 14.4936C12.6519 14.4117 12.5447 14.3826 12.4551 14.425C11.4642 14.8941 10.3395 15.3901 10.1188 15.4334C10.1132 15.4284 10.1044 15.4194 10.0928 15.4037C10.0629 15.3632 10.0484 15.3102 10.0484 15.2418C10.0484 14.6813 10.4714 12.9762 11.3057 10.1741C12.0092 7.81971 12.0905 7.33224 12.0905 7.17039C12.0905 6.92055 11.9949 6.70945 11.8138 6.55986C11.6418 6.418 11.4015 6.34613 11.0995 6.34613C10.5973 6.34613 10.0152 6.5368 9.32 6.92906C8.6463 7.3093 7.89496 7.95334 7.08698 8.84327C7.02373 8.91296 7.01712 9.01717 7.07106 9.09432C7.12507 9.17151 7.22524 9.2009 7.31235 9.16543C7.59602 9.04966 9.02159 8.46568 9.22939 8.33516C9.39954 8.2285 9.54683 8.17436 9.6672 8.17436C9.67151 8.17436 9.67522 8.17452 9.67832 8.17476C9.67977 8.18274 9.68114 8.19492 9.68114 8.21237C9.68114 8.3352 9.65587 8.4806 9.60633 8.64381C8.39154 12.5797 7.80103 14.9926 7.80103 16.0203C7.80103 16.3831 7.90185 16.6751 8.10062 16.8881C8.30318 17.1055 8.5764 17.2157 8.91271 17.2157C9.27111 17.2157 9.7073 17.066 10.2462 16.7581C10.7676 16.4601 11.5635 15.8046 12.6794 14.754C12.7517 14.686 12.7637 14.5755 12.7078 14.4936Z" fill="white"/>
<path d="M12.6687 3.09054C12.4702 2.88733 12.2161 2.7843 11.9137 2.7843C11.5372 2.7843 11.2093 2.93309 10.9392 3.22655C10.6734 3.51517 10.5386 3.86933 10.5386 4.27917C10.5386 4.60298 10.6379 4.87132 10.8336 5.0767C11.0321 5.28519 11.2827 5.39088 11.5784 5.39088C11.9395 5.39088 12.2657 5.23375 12.5478 4.92385C12.8249 4.61938 12.9655 4.26143 12.9655 3.85994C12.9655 3.55141 12.8657 3.29257 12.6687 3.09054Z" fill="white"/>
</svg>
