<svg width="16" height="16" viewBox="0 0 16 16" fill="none" xmlns="http://www.w3.org/2000/svg">
<g clip-path="url(#clip0)">
<path d="M8.05175 3.40641C6.86892 3.40641 5.90635 4.36898 5.90635 5.55181C5.90635 6.73464 6.86892 7.69721 8.05175 7.69721C9.23458 7.69721 10.1971 6.73464 10.1971 5.55181C10.1971 4.36898 9.23458 3.40641 8.05175 3.40641ZM8.05175 6.91281C7.30138 6.91281 6.69075 6.30218 6.69075 5.55181C6.69075 4.80144 7.30138 4.19081 8.05175 4.19081C8.80212 4.19081 9.41275 4.80144 9.41275 5.55181C9.41275 6.30218 8.80212 6.91281 8.05175 6.91281Z" fill="#818283" stroke="#818283" stroke-width="0.2"/>
<path d="M12.5639 9.58421L8.08235 16.0569L8.00014 16.1757L7.91792 16.0569L3.42964 9.57515C2.57616 8.43667 2.21443 6.93326 2.31199 5.46954C2.4096 4.00522 2.96761 2.57002 3.96719 1.57058L12.5639 9.58421ZM12.5639 9.58421C13.4207 8.44127 13.7842 6.93565 13.6874 5.47074C13.5907 4.00525 13.0327 2.57002 12.0331 1.57058C10.956 0.493477 9.52331 -0.1 8.00014 -0.1C6.47667 -0.1 5.0443 0.493477 3.9672 1.57057L12.5639 9.58421ZM11.9288 9.12414L11.9288 9.1241L11.9266 9.12721L8.00013 14.7976L4.06723 9.11815L4.06729 9.11811L4.06502 9.11508C3.32221 8.12468 3.00113 6.81115 3.08537 5.52455C3.16961 4.23788 3.65848 2.98862 4.52207 2.12518L4.52208 2.12517C5.45123 1.19602 6.68605 0.6844 8.00014 0.6844C9.31422 0.6844 10.5491 1.19602 11.4785 2.12518C12.3421 2.98862 12.8309 4.23785 12.9144 5.52561C12.9978 6.81328 12.6751 8.12913 11.9288 9.12414Z" fill="#818283" stroke="#818283" stroke-width="0.2"/>
</g>
<defs>
<clipPath id="clip0">
<rect width="16" height="16" fill="white"/>
</clipPath>
</defs>
</svg>
