<svg width="20" height="20" viewBox="0 0 20 20" fill="none" xmlns="http://www.w3.org/2000/svg">
<path d="M15.6278 17.8627C16.4866 18.2374 18.8599 19.3149 19.7031 19.6583C19.7968 19.7052 20.0154 19.6896 19.9842 19.4866C19.7968 17.4567 18.657 5.82414 18.454 3.76305C18.4227 3.46638 18.329 3.41952 18.1104 3.34145C17.439 3.09161 15.8152 2.51389 15.1437 2.27967C14.9095 2.18598 14.769 2.18598 14.5191 2.27967C13.473 2.57633 10.1628 3.59126 10.1628 3.59126C10.1628 3.59126 6.71202 2.54509 5.63465 2.24843C5.40043 2.17036 5.27554 2.15474 5.01008 2.26405C4.32306 2.48265 2.73038 3.07599 2.04336 3.32583C1.76231 3.43514 1.73107 3.56006 1.69983 3.74742C1.4813 5.76166 0.232149 17.4411 0.0135434 19.4866C-0.00207694 19.7208 0.200908 19.7052 0.388273 19.6427C1.32514 19.268 3.69848 18.2374 4.54166 17.8939C4.71341 17.8159 4.88519 17.769 5.16624 17.8939C6.11872 18.2843 8.91366 19.549 9.8349 19.9238C10.0379 20.0175 10.2253 20.0331 10.4595 19.9238C11.3807 19.5334 14.082 18.2843 14.9876 17.8783C15.1594 17.7847 15.4248 17.769 15.6278 17.8627Z" fill="#F4F0D3"/>
<path d="M5.4317 2.20159C5.30678 2.18597 5.18186 2.20159 5.01011 2.26403C4.3231 2.48264 2.73041 3.07597 2.0434 3.32582C1.76235 3.43512 1.73111 3.56004 1.69987 3.74741C1.4813 5.76164 0.232149 17.4411 0.0135434 19.4866C-0.00207693 19.7208 0.200908 19.7052 0.388273 19.6427C1.32514 19.268 3.69848 18.2374 4.54166 17.8939C4.66658 17.847 4.77589 17.8002 4.94763 17.8315C4.94767 17.8315 5.4317 2.20159 5.4317 2.20159ZM14.7534 2.20159C14.691 2.21721 14.6285 2.23283 14.5504 2.26403C13.5043 2.57632 10.319 3.54438 10.1784 3.59124V19.9862C10.2721 19.9862 10.3814 19.955 10.4907 19.9081C11.412 19.5178 14.1132 18.2686 15.0188 17.8627C15.0813 17.8314 15.1594 17.8158 15.2374 17.8002C15.2374 17.8003 14.7534 2.20159 14.7534 2.20159Z" fill="#E8E4C8"/>
<path d="M7.30545 18.8152L10.0379 16.0827L12.8173 18.8621C13.395 18.5966 13.9571 18.3312 14.4099 18.1282L4.43246 8.16629L9.27286 3.32585C8.77321 3.16972 8.11739 2.98232 7.49286 2.79495L3.27699 7.01082L1.5438 5.27764C1.48136 5.87097 1.40326 6.58923 1.3252 7.38555L8.88251 14.9429L5.71281 18.1126C6.15002 18.2999 6.72774 18.5497 7.30545 18.8152Z" fill="#EFC75E"/>
<path d="M5.2756 7.32311L5.35366 4.93414L3.27695 6.99524L1.5438 5.27763C1.48136 5.87097 1.40326 6.58923 1.3252 7.38555L5.1663 11.2266L5.22874 8.96257L4.44804 8.18187L5.2756 7.32311ZM10.1629 16.2232L12.8017 18.862C13.3794 18.5966 13.9415 18.3311 14.3943 18.1281L10.1629 13.8967V16.2232Z" fill="#E3BD59"/>
<path d="M12.5047 0C15.003 0 17.0328 2.02985 17.0328 4.54374C17.0328 4.5906 17.0172 5.76165 16.6269 6.58921C15.7056 8.72837 13.4884 10.9924 12.7545 11.7263C12.5672 11.898 12.4891 11.9293 12.2549 11.7107C11.5054 10.9768 9.3194 8.74395 8.39815 6.62041C8.07024 5.99584 7.97656 4.653 7.97656 4.5437C7.9766 2.02985 10.0065 0 12.5047 0Z" fill="#E2574C"/>
<path d="M12.5052 2.18597C11.2093 2.18597 10.1631 3.23214 10.1631 4.52812C10.1631 5.82409 11.2093 6.87026 12.5052 6.87026C13.8012 6.87026 14.8474 5.82409 14.8474 4.52812C14.8474 3.23214 13.8012 2.18597 12.5052 2.18597ZM12.5052 5.93343C11.7245 5.93343 11.1 5.30886 11.1 4.52816C11.1 3.74745 11.7245 3.12288 12.5052 3.12288C13.2859 3.12288 13.9105 3.74745 13.9105 4.52816C13.9105 5.30886 13.2859 5.93343 12.5052 5.93343Z" fill="white"/>
</svg>
