<svg width="18" height="18" viewBox="0 0 18 18" fill="none" xmlns="http://www.w3.org/2000/svg">
<path d="M12.1641 6.36328C11.2152 6.36328 10.3189 6.59229 9.52734 6.99792V2.14453C9.52734 1.76351 9.32298 1.04537 7.95449 0.516445C7.09291 0.18341 5.96595 0 4.78125 0C2.52151 0 0 0.71325 0 2.14453V12.6914C0 14.0762 2.40529 14.8008 4.78125 14.8008C5.52449 14.8008 6.24519 14.7318 6.8934 14.6C7.81256 16.6049 9.8293 18 12.1641 18C15.3713 18 18 15.3704 18 12.1641C18 8.96551 15.382 6.36328 12.1641 6.36328ZM4.78125 1.05469C7.10613 1.05469 8.47266 1.80918 8.47266 2.14453C8.47266 2.45482 7.17855 3.19922 4.78125 3.19922C2.38029 3.19922 1.05469 2.44786 1.05469 2.14453C1.05469 1.83252 2.39702 1.05469 4.78125 1.05469ZM1.05469 3.51527C1.97708 4.00328 3.38411 4.25391 4.78125 4.25391C5.95747 4.25391 7.43738 4.07 8.47266 3.52477V4.25391C8.47266 4.5642 7.17855 5.30859 4.78125 5.30859C2.41196 5.30859 1.05469 4.56915 1.05469 4.25391V3.51527ZM1.05469 5.62489C1.97708 6.11276 3.38428 6.36328 4.78125 6.36328C5.95747 6.36328 7.43738 6.17938 8.47266 5.63414V6.36328C8.47266 6.67357 7.17855 7.41797 4.78125 7.41797C2.38029 7.41797 1.05469 6.66661 1.05469 6.36328V5.62489ZM4.78125 13.7461C2.41196 13.7461 1.05469 13.0067 1.05469 12.6914V11.9528C1.97708 12.4408 3.38411 12.6914 4.78125 12.6914C5.32849 12.6914 5.87029 12.6531 6.37815 12.5796C6.40255 12.9271 6.45729 13.2662 6.53977 13.5943C5.99815 13.6941 5.40025 13.7461 4.78125 13.7461ZM6.40048 11.509C5.89468 11.5928 5.34255 11.6367 4.78125 11.6367C2.38029 11.6367 1.05469 10.8854 1.05469 10.582V9.8434C1.97708 10.3314 3.38411 10.582 4.78125 10.582C5.42078 10.582 6.05028 10.5292 6.62808 10.43C6.5192 10.7768 6.44242 11.1377 6.40048 11.509ZM4.78125 9.52734C2.41196 9.52734 1.05469 8.7879 1.05469 8.47266V7.73402C1.97708 8.22203 3.38411 8.47266 4.78125 8.47266C5.96978 8.47266 7.09499 8.29617 7.94953 7.97572C8.08815 7.92373 8.21447 7.86976 8.33073 7.81439C7.86962 8.22122 7.47355 8.69998 7.16013 9.23302C6.48067 9.42321 5.64546 9.52734 4.78125 9.52734ZM12.1641 16.9453C9.54538 16.9453 7.41797 14.7976 7.41797 12.1641C7.41797 9.54707 9.54707 7.41797 12.1641 7.41797C14.8004 7.41797 16.9453 9.54707 16.9453 12.1641C16.9453 14.8005 14.8004 16.9453 12.1641 16.9453Z" fill="#A4AAB3"/>
<path d="M12.1993 11.6016C11.9085 11.6016 11.6719 11.365 11.6719 11.0742C11.6719 10.8618 11.7983 10.671 11.9939 10.5882C12.23 10.4882 12.5127 10.5735 12.7694 10.8223C12.9786 11.0249 13.3124 11.0197 13.5151 10.8105C13.7178 10.6013 13.7125 10.2675 13.5033 10.0648C13.2652 9.83419 13.0006 9.67117 12.7266 9.57916V8.96484C12.7266 8.67361 12.4905 8.4375 12.1993 8.4375C11.908 8.4375 11.6719 8.67361 11.6719 8.96484V9.58257C11.026 9.81239 10.6172 10.4141 10.6172 11.0742C10.6172 11.9466 11.3269 12.6562 12.1993 12.6562C12.49 12.6562 12.7266 12.8928 12.7266 13.1836C12.7266 13.4046 12.5872 13.6038 12.3797 13.6794C12.109 13.7781 11.7936 13.6443 11.5147 13.3122C11.3274 13.0892 10.9948 13.0603 10.7717 13.2476C10.5487 13.4349 10.5197 13.7675 10.707 13.9906C10.9921 14.33 11.324 14.5627 11.6719 14.6799V15.293C11.6719 15.5842 11.908 15.8203 12.1993 15.8203C12.4905 15.8203 12.7266 15.5842 12.7266 15.293V14.6752C12.7313 14.6735 12.736 14.6721 12.7407 14.6704C13.3631 14.4437 13.7813 13.8462 13.7813 13.1836C13.7813 12.3113 13.0716 11.6016 12.1993 11.6016Z" fill="#A4AAB3"/>
</svg>
