<svg width="100" height="24" viewBox="0 0 100 24" fill="none" xmlns="http://www.w3.org/2000/svg">
<path d="M65.7539 19.5811L68.4345 4.50256H72.623L70.0262 19.5811H65.7539Z" fill="#3C58BF"/>
<path d="M65.7539 19.5811L69.1885 4.50256H72.623L70.0262 19.5811H65.7539Z" fill="#293688"/>
<path d="M85.1878 4.67016C84.3501 4.33508 83.0098 4 81.3344 4C77.146 4 74.1303 6.09424 74.1303 9.10994C74.1303 11.3717 76.2245 12.5445 77.8999 13.2984C79.5753 14.0523 80.0779 14.555 80.0779 15.2251C80.0779 16.2303 78.7376 16.733 77.5648 16.733C75.8894 16.733 74.968 16.4817 73.5439 15.8953L72.9575 15.644L72.3711 19.0785C73.3763 19.4974 75.2193 19.9162 77.146 19.9162C81.5857 19.9162 84.5177 17.822 84.5177 14.6387C84.5177 12.8796 83.4287 11.5393 80.9156 10.4503C79.4077 9.69633 78.4863 9.27748 78.4863 8.52355C78.4863 7.8534 79.2402 7.18324 80.9156 7.18324C82.3397 7.18324 83.3449 7.43455 84.0988 7.76963L84.5177 7.93717L85.1878 4.67016Z" fill="#3C58BF"/>
<path d="M85.1878 4.67016C84.3501 4.33508 83.0098 4 81.3344 4C77.146 4 74.8842 6.09424 74.8842 9.10994C74.8842 11.3717 76.2245 12.5445 77.8999 13.2984C79.5753 14.0523 80.0779 14.555 80.0779 15.2251C80.0779 16.2303 78.7376 16.733 77.5648 16.733C75.8894 16.733 74.968 16.4817 73.5439 15.8953L72.9575 15.644L72.3711 19.0785C73.3763 19.4974 75.2193 19.9162 77.146 19.9162C81.5857 19.9162 84.5177 17.822 84.5177 14.6387C84.5177 12.8796 83.4287 11.5393 80.9156 10.4503C79.4077 9.69633 78.4863 9.27748 78.4863 8.52355C78.4863 7.8534 79.2402 7.18324 80.9156 7.18324C82.3397 7.18324 83.3449 7.43455 84.0988 7.76963L84.5177 7.93717L85.1878 4.67016Z" fill="#293688"/>
<path d="M92.3904 4.50256C91.3852 4.50256 90.6312 4.58633 90.2124 5.59157L83.9297 19.5811H88.4532L89.2909 17.068H94.6522L95.1548 19.5811H99.1757L95.6574 4.50256H92.3904ZM90.4637 14.5549C90.715 13.801 92.1391 10.1151 92.1391 10.1151C92.1391 10.1151 92.4742 9.19366 92.7255 8.60727L92.9768 10.0314C92.9768 10.0314 93.8145 13.801 93.982 14.6387H90.4637V14.5549Z" fill="#3C58BF"/>
<path d="M93.3956 4.50256C92.3904 4.50256 91.6365 4.58633 91.2176 5.59157L83.9297 19.5811H88.4532L89.2909 17.068H94.6522L95.1548 19.5811H99.1757L95.6574 4.50256H93.3956ZM90.4637 14.5549C90.7988 13.7172 92.1391 10.1151 92.1391 10.1151C92.1391 10.1151 92.4742 9.19366 92.7255 8.60727L92.9768 10.0314C92.9768 10.0314 93.8145 13.801 93.982 14.6387H90.4637V14.5549Z" fill="#293688"/>
<path d="M58.0444 15.0576L57.6256 12.8795C56.8717 10.3665 54.4423 7.60207 51.7617 6.26176L55.5313 19.6649H60.0549L66.8402 4.58636H62.3167L58.0444 15.0576Z" fill="#3C58BF"/>
<path d="M58.0444 15.0576L57.6256 12.8795C56.8717 10.3665 54.4423 7.60207 51.7617 6.26176L55.5313 19.6649H60.0549L66.8402 4.58636H63.1544L58.0444 15.0576Z" fill="#293688"/>
<path d="M46.4023 4.50256L47.1563 4.6701C52.5175 5.92665 56.2034 9.10989 57.6275 12.8795L56.1196 5.75911C55.8683 4.75387 55.1144 4.50256 54.1929 4.50256H46.4023Z" fill="#FFBC00"/>
<path d="M46.4023 4.50256C51.7636 5.75911 56.2034 9.02612 57.6275 12.7957L56.2034 6.84811C55.9521 5.84288 55.1144 5.25649 54.1929 5.25649L46.4023 4.50256Z" fill="#F7981D"/>
<path d="M46.4023 4.50256C51.7636 5.75911 56.2034 9.02612 57.6275 12.7957L56.6222 9.52873C56.3709 8.5235 56.0358 7.51827 54.8631 7.09942L46.4023 4.50256Z" fill="#ED7C00"/>
<path d="M62.2351 14.555L59.3869 11.7068L58.0466 14.8901L57.7115 12.7958C56.9576 10.2827 54.5283 7.51835 51.8477 6.17804L55.6173 19.5812H60.1408L62.2351 14.555Z" fill="#051244"/>
<path d="M70.0262 19.5812L66.4241 15.8953L65.7539 19.5812H70.0262Z" fill="#051244"/>
<path d="M79.659 14.3875C79.9941 14.7225 80.1617 14.9738 80.0779 15.3089C80.0779 16.3142 78.7376 16.8168 77.5648 16.8168C75.8894 16.8168 74.968 16.5655 73.5439 15.9791L72.9575 15.7278L72.3711 19.1623C73.3763 19.5812 75.2193 20 77.146 20C79.8266 20 82.0046 19.2461 83.2611 17.9058L79.659 14.3875Z" fill="#051244"/>
<path d="M84.5195 19.5812H88.4567L89.2944 17.0681H94.6556L95.1583 19.5812H99.1792L97.7551 13.466L92.7289 8.60736L92.9803 9.94767C92.9803 9.94767 93.8179 13.7173 93.9855 14.555H90.4672C90.8022 13.7173 92.1426 10.1152 92.1426 10.1152C92.1426 10.1152 92.4776 9.19375 92.7289 8.60736" fill="#051244"/>
<path d="M40 12C40 18.6032 34.6667 24 28 24C21.3968 24 16 18.6032 16 12C16 5.39682 21.3333 0 27.9365 0C34.6667 0 40 5.39682 40 12Z" fill="#FFB600"/>
<path d="M28 0C34.6032 0 40 5.39682 40 12C40 18.6032 34.6667 24 28 24C21.3968 24 16 18.6032 16 12" fill="#F7981D"/>
<path d="M28 0C34.6032 0 40 5.39682 40 12C40 18.6032 34.6667 24 28 24" fill="#FF8500"/>
<path d="M11.873 0C5.33333 0.063492 0 5.39682 0 12C0 18.6032 5.33333 24 12 24C15.1111 24 17.9047 22.7936 20.0635 20.8889C20.5079 20.5079 20.8889 20.0635 21.2698 19.619H18.7936C18.4762 19.2381 18.1587 18.7936 17.9047 18.4127H22.1587C22.4127 18.0317 22.6666 17.5873 22.8571 17.1428H17.2063C17.0159 16.7619 16.8254 16.3174 16.6984 15.873H23.3016C23.6825 14.6667 23.9365 13.3968 23.9365 12.0635C23.9365 11.1746 23.8095 10.3492 23.6825 9.5238H16.3174C16.3809 9.07936 16.5079 8.69841 16.6349 8.25396H23.2381C23.1111 7.80952 22.9206 7.36507 22.7301 6.98412H17.1428C17.3333 6.53968 17.5873 6.15872 17.8413 5.71428H22.0952C21.8412 5.26984 21.5238 4.82539 21.1428 4.44444H18.7936C19.1746 4 19.5555 3.61904 20 3.23809C17.9047 1.26984 15.0476 0.126984 11.9365 0.126984C11.9365 -1.22994e-07 11.9365 0 11.873 0Z" fill="#FF5050"/>
<path d="M0 12C0 18.6032 5.33333 24 12 24C15.1111 24 17.9047 22.7937 20.0635 20.8889C20.5079 20.5079 20.8889 20.0635 21.2698 19.6191H18.7936C18.4762 19.2381 18.1587 18.7937 17.9047 18.4127H22.1587C22.4127 18.0318 22.6666 17.5873 22.8571 17.1429H17.2063C17.0159 16.7619 16.8254 16.3175 16.6984 15.873H23.3016C23.6825 14.6667 23.9365 13.3968 23.9365 12.0635C23.9365 11.1746 23.8095 10.3492 23.6825 9.52383H16.3174C16.3809 9.07939 16.5079 8.69844 16.6349 8.25399H23.2381C23.1111 7.80955 22.9206 7.3651 22.7301 6.98415H17.1428C17.3333 6.53971 17.5873 6.15876 17.8413 5.71431H22.0952C21.8412 5.26987 21.5238 4.82542 21.1428 4.44447H18.7936C19.1746 4.00003 19.5555 3.61908 20 3.23812C17.9047 1.26987 15.0476 0.127014 11.9365 0.127014H11.873" fill="#E52836"/>
<path d="M12.002 24C15.1131 24 17.9067 22.7937 20.0655 20.8889C20.5099 20.5079 20.8909 20.0635 21.2718 19.6191H18.7956C18.4782 19.2381 18.1607 18.7937 17.9067 18.4127H22.1607C22.4147 18.0318 22.6686 17.5873 22.8591 17.1429H17.2083C17.0179 16.7619 16.8274 16.3175 16.7004 15.873H23.3036C23.6845 14.6667 23.9385 13.3968 23.9385 12.0635C23.9385 11.1746 23.8115 10.3492 23.6845 9.52383H16.3194C16.3829 9.07939 16.5099 8.69844 16.6369 8.25399H23.2401C23.1131 7.80955 22.9226 7.3651 22.7321 6.98415H17.1448C17.3353 6.53971 17.5893 6.15876 17.8432 5.71431H22.0972C21.8432 5.26987 21.5258 4.82542 21.1448 4.44447H18.7956C19.1766 4.00003 19.5575 3.61908 20.002 3.23812C17.9067 1.26987 15.0496 0.127014 11.9385 0.127014H11.875" fill="#CB2026"/>
<path d="M16.2553 15.0476L16.4458 13.9683C16.3823 13.9683 16.2553 14.0318 16.1283 14.0318C15.6839 14.0318 15.6204 13.7778 15.6839 13.6508L16.0649 11.4286H16.7633L16.9537 10.2222H16.3188L16.4458 9.46033H15.176C15.176 9.46033 14.4141 13.6508 14.4141 14.1587C14.4141 14.9206 14.8585 15.2381 15.4299 15.2381C15.8109 15.2381 16.1283 15.1111 16.2553 15.0476Z" fill="white"/>
<path d="M16.6992 13.0159C16.6992 14.7937 17.9056 15.2382 18.9214 15.2382C19.8738 15.2382 20.2548 15.0477 20.2548 15.0477L20.5087 13.8413C20.5087 13.8413 19.8103 14.1588 19.1754 14.1588C17.7786 14.1588 18.0326 13.1429 18.0326 13.1429H20.6357C20.6357 13.1429 20.8262 12.3175 20.8262 12.0001C20.8262 11.1747 20.3818 10.1588 18.9849 10.1588C17.6516 10.0318 16.6992 11.4286 16.6992 13.0159ZM18.9214 11.1747C19.6199 11.1747 19.4929 12.0001 19.4929 12.0636H18.096C18.096 12.0001 18.223 11.1747 18.9214 11.1747Z" fill="white"/>
<path d="M26.9882 15.0476L27.2421 13.6508C27.2421 13.6508 26.6072 13.9683 26.1628 13.9683C25.2739 13.9683 24.8929 13.2699 24.8929 12.508C24.8929 10.9842 25.6548 10.1588 26.5437 10.1588C27.1786 10.1588 27.6866 10.5397 27.6866 10.5397L27.877 9.20638C27.877 9.20638 27.1151 8.88892 26.4167 8.88892C24.9564 8.88892 23.4961 10.1588 23.4961 12.5715C23.4961 14.1588 24.258 15.2381 25.7818 15.2381C26.2897 15.2381 26.9882 15.0476 26.9882 15.0476Z" fill="white"/>
<path d="M9.26817 10.0318C8.37928 10.0318 7.74436 10.2858 7.74436 10.2858L7.55388 11.3651C7.55388 11.3651 8.12531 11.1112 8.95071 11.1112C9.39515 11.1112 9.7761 11.1747 9.7761 11.5556C9.7761 11.8096 9.71261 11.8731 9.71261 11.8731C9.71261 11.8731 9.33166 11.8731 9.14118 11.8731C8.06182 11.8731 6.85547 12.3175 6.85547 13.7778C6.85547 14.9207 7.61737 15.1747 8.06182 15.1747C8.9507 15.1747 9.33166 14.6032 9.39515 14.6032L9.33166 15.1112H10.4745L10.9824 11.6191C10.9824 10.0953 9.71261 10.0318 9.26817 10.0318ZM9.52213 12.8889C9.52213 13.0794 9.39515 14.0953 8.63325 14.0953C8.25229 14.0953 8.12531 13.7778 8.12531 13.5874C8.12531 13.2699 8.31579 12.8254 9.26817 12.8254C9.45864 12.8889 9.52213 12.8889 9.52213 12.8889Z" fill="white"/>
<path d="M12.1908 15.1746C12.5082 15.1746 14.0955 15.2381 14.0955 13.5238C14.0955 11.9365 12.5717 12.254 12.5717 11.6191C12.5717 11.3016 12.8257 11.1746 13.2701 11.1746C13.4606 11.1746 14.159 11.2381 14.159 11.2381L14.3495 10.0952C14.3495 10.0952 13.9051 9.96826 13.1432 9.96826C12.1908 9.96826 11.2384 10.3492 11.2384 11.6191C11.2384 13.0794 12.8257 12.9524 12.8257 13.5238C12.8257 13.9048 12.3813 13.9683 12.0638 13.9683C11.4924 13.9683 10.9209 13.7778 10.9209 13.7778L10.7305 14.9206C10.794 15.0476 11.1114 15.1746 12.1908 15.1746Z" fill="white"/>
<path d="M37.5253 9.01593L37.2713 10.7302C37.2713 10.7302 36.7634 10.0953 36.065 10.0953C34.9221 10.0953 33.9062 11.4921 33.9062 13.1429C33.9062 14.1588 34.4142 15.2381 35.4936 15.2381C36.2555 15.2381 36.6999 14.7302 36.6999 14.7302L36.6364 15.1747H37.9062L38.8586 9.07942L37.5253 9.01593ZM36.9539 12.381C36.9539 13.0794 36.6364 13.9683 35.938 13.9683C35.4935 13.9683 35.2396 13.5874 35.2396 12.9524C35.2396 11.9366 35.684 11.3016 36.2555 11.3016C36.6999 11.3016 36.9539 11.6191 36.9539 12.381Z" fill="white"/>
<path d="M2.35088 15.1112L3.11278 10.5397L3.23977 15.1112H4.12866L5.77945 10.5397L5.08104 15.1112H6.41437L7.43024 9.01593H5.335L4.06516 12.762L4.00167 9.01593H2.1604L1.14453 15.1112H2.35088Z" fill="white"/>
<path d="M22.0335 15.1112C22.4145 13.016 22.478 11.3017 23.3669 11.6191C23.4939 10.7937 23.6843 10.4763 23.8113 10.1588C23.8113 10.1588 23.7478 10.1588 23.5574 10.1588C22.9859 10.1588 22.5415 10.9207 22.5415 10.9207L22.6685 10.2223H21.4621L20.6367 15.1747H22.0335V15.1112Z" fill="white"/>
<path d="M29.9088 10.0318C29.0199 10.0318 28.385 10.2858 28.385 10.2858L28.1945 11.3651C28.1945 11.3651 28.7659 11.1112 29.5913 11.1112C30.0358 11.1112 30.4167 11.1747 30.4167 11.5556C30.4167 11.8096 30.3532 11.8731 30.3532 11.8731C30.3532 11.8731 29.9723 11.8731 29.7818 11.8731C28.7024 11.8731 27.4961 12.3175 27.4961 13.7778C27.4961 14.9207 28.258 15.1747 28.7024 15.1747C29.5913 15.1747 29.9723 14.6032 30.0358 14.6032L29.9723 15.1112H31.1151L31.6231 11.6191C31.6866 10.0953 30.3532 10.0318 29.9088 10.0318ZM30.2262 12.8889C30.2262 13.0794 30.0993 14.0953 29.3374 14.0953C28.9564 14.0953 28.8294 13.7778 28.8294 13.5874C28.8294 13.2699 29.0199 12.8254 29.9723 12.8254C30.1628 12.8889 30.1628 12.8889 30.2262 12.8889Z" fill="white"/>
<path d="M32.7015 15.1112C33.0825 13.016 33.146 11.3017 34.0348 11.6191C34.1618 10.7937 34.3523 10.4763 34.4793 10.1588C34.4793 10.1588 34.4158 10.1588 34.2253 10.1588C33.6539 10.1588 33.2094 10.9207 33.2094 10.9207L33.3364 10.2223H32.1301L31.3047 15.1747H32.7015V15.1112Z" fill="white"/>
<path d="M14.2891 14.1587C14.2891 14.9206 14.7335 15.2381 15.3049 15.2381C15.7494 15.2381 16.1303 15.1111 16.2573 15.0476L16.4478 13.9683C16.3843 13.9683 16.2573 14.0318 16.1303 14.0318C15.6859 14.0318 15.6224 13.7778 15.6859 13.6508L16.0668 11.4286H16.7653L16.9557 10.2222H16.3208L16.4478 9.46033" fill="#DCE5E5"/>
<path d="M17.3359 13.0159C17.3359 14.7937 17.9074 15.2382 18.9232 15.2382C19.8756 15.2382 20.2566 15.0477 20.2566 15.0477L20.5105 13.8413C20.5105 13.8413 19.8121 14.1588 19.1772 14.1588C17.7804 14.1588 18.0343 13.1429 18.0343 13.1429H20.6375C20.6375 13.1429 20.828 12.3175 20.828 12.0001C20.828 11.1747 20.3836 10.1588 18.9867 10.1588C17.6534 10.0318 17.3359 11.4286 17.3359 13.0159ZM18.9232 11.1747C19.6216 11.1747 19.7486 12.0001 19.7486 12.0636H18.0978C18.0978 12.0001 18.2248 11.1747 18.9232 11.1747Z" fill="#DCE5E5"/>
<path d="M26.986 15.0476L27.24 13.6508C27.24 13.6508 26.6051 13.9683 26.1607 13.9683C25.2718 13.9683 24.8908 13.2699 24.8908 12.508C24.8908 10.9842 25.6527 10.1588 26.5416 10.1588C27.1765 10.1588 27.6845 10.5397 27.6845 10.5397L27.8749 9.20638C27.8749 9.20638 27.113 8.88892 26.4146 8.88892C24.9543 8.88892 24.1289 10.1588 24.1289 12.5715C24.1289 14.1588 24.2559 15.2381 25.7797 15.2381C26.2876 15.2381 26.986 15.0476 26.986 15.0476Z" fill="#DCE5E5"/>
<path d="M7.55388 11.4287C7.55388 11.4287 8.12531 11.1747 8.95071 11.1747C9.39515 11.1747 9.7761 11.2382 9.7761 11.6191C9.7761 11.8731 9.71261 11.9366 9.71261 11.9366C9.71261 11.9366 9.33166 11.9366 9.14118 11.9366C8.06182 11.9366 6.85547 12.381 6.85547 13.8414C6.85547 14.9842 7.61737 15.2382 8.06182 15.2382C8.9507 15.2382 9.33166 14.6667 9.39515 14.6667L9.33166 15.1747H10.4745L10.9824 11.6826C10.9824 10.2223 9.71261 10.1588 9.20467 10.1588L7.55388 11.4287ZM10.1571 12.889C10.1571 13.0794 9.39515 14.0953 8.63325 14.0953C8.25229 14.0953 8.12531 13.7779 8.12531 13.5874C8.12531 13.2699 8.31579 12.8255 9.26817 12.8255C9.45864 12.889 10.1571 12.889 10.1571 12.889Z" fill="#DCE5E5"/>
<path d="M10.793 15.0476C10.793 15.0476 11.1739 15.1746 12.2533 15.1746C12.5707 15.1746 14.158 15.2381 14.158 13.5238C14.158 11.9365 12.6342 12.254 12.6342 11.6191C12.6342 11.3016 12.8882 11.1746 13.3326 11.1746C13.5231 11.1746 14.2215 11.2381 14.2215 11.2381L14.412 10.0952C14.412 10.0952 13.9676 9.96826 13.2057 9.96826C12.2533 9.96826 11.9358 10.3492 11.9358 11.6191C11.9358 13.0794 12.8882 12.9524 12.8882 13.5238C12.8882 13.9048 12.4438 13.9683 12.1263 13.9683" fill="#DCE5E5"/>
<path d="M37.2699 10.7302C37.2699 10.7302 36.762 10.0953 36.0636 10.0953C34.9207 10.0953 34.5398 11.4921 34.5398 13.1429C34.5398 14.1588 34.4128 15.2381 35.4921 15.2381C36.254 15.2381 36.6985 14.7302 36.6985 14.7302L36.635 15.1746H37.9048L38.8572 9.07941L37.2699 10.7302ZM37.2064 12.381C37.2064 13.0794 36.635 13.9683 35.9366 13.9683C35.4921 13.9683 35.2382 13.5873 35.2382 12.9524C35.2382 11.9365 35.6826 11.3016 36.254 11.3016C36.6985 11.3016 37.2064 11.6191 37.2064 12.381Z" fill="#DCE5E5"/>
<path d="M2.35088 15.1112L3.11278 10.5397L3.23977 15.1112H4.12866L5.77945 10.5397L5.08104 15.1112H6.41437L7.43024 9.01593H5.84294L4.06516 12.762L4.00167 9.01593H3.30326L1.14453 15.1112H2.35088Z" fill="#DCE5E5"/>
<path d="M20.6992 15.1112H22.0326C22.4135 13.016 22.477 11.3017 23.3659 11.6191C23.4929 10.7937 23.6833 10.4763 23.8103 10.1588C23.8103 10.1588 23.7468 10.1588 23.5564 10.1588C22.9849 10.1588 22.5405 10.9207 22.5405 10.9207L22.6675 10.2223" fill="#DCE5E5"/>
<path d="M28.1945 11.4287C28.1945 11.4287 28.7659 11.1747 29.5913 11.1747C30.0358 11.1747 30.4167 11.2382 30.4167 11.6191C30.4167 11.8731 30.3532 11.9366 30.3532 11.9366C30.3532 11.9366 29.9723 11.9366 29.7818 11.9366C28.7024 11.9366 27.4961 12.381 27.4961 13.8414C27.4961 14.9842 28.258 15.2382 28.7024 15.2382C29.5913 15.2382 29.9723 14.6667 30.0358 14.6667L29.9723 15.1747H31.1151L31.6231 11.6826C31.6231 10.2223 30.3532 10.1588 29.8453 10.1588L28.1945 11.4287ZM30.7977 12.889C30.7977 13.0794 30.0358 14.0953 29.2739 14.0953C28.8929 14.0953 28.7659 13.7779 28.7659 13.5874C28.7659 13.2699 28.9564 12.8255 29.9088 12.8255C30.1628 12.889 30.7977 12.889 30.7977 12.889Z" fill="#DCE5E5"/>
<path d="M31.3672 15.1112H32.7005C33.0815 13.016 33.145 11.3017 34.0338 11.6191C34.1608 10.7937 34.3513 10.4763 34.4783 10.1588C34.4783 10.1588 34.4148 10.1588 34.2243 10.1588C33.6529 10.1588 33.2085 10.9207 33.2085 10.9207L33.3354 10.2223" fill="#DCE5E5"/>
</svg>
