<svg width="16" height="16" viewBox="0 0 16 16" fill="none" xmlns="http://www.w3.org/2000/svg">
<g clip-path="url(#clip0)">
<path d="M12.3982 10.1182L12.3985 10.1184L15.6371 12.2781L12.3982 10.1182ZM12.3982 10.1182C11.9438 9.81752 11.3345 9.91644 10.9985 10.3455L10.9983 10.3458M12.3982 10.1182L10.9983 10.3458M10.9983 10.3458L10.0549 11.5587L10.0549 11.5587M10.9983 10.3458L10.0549 11.5587M10.0549 11.5587L10.0542 11.5597M10.0549 11.5587L10.0542 11.5597M10.0542 11.5597C9.96304 11.6799 9.79731 11.7148 9.66542 11.6415L9.66514 11.6413M10.0542 11.5597L9.66514 11.6413M9.66514 11.6413L9.48569 11.5424L9.48527 11.5422M9.66514 11.6413L9.48527 11.5422M9.48527 11.5422L9.48269 11.5408C8.89565 11.2208 8.16336 10.8217 6.68169 9.33946C5.2005 7.85774 4.80029 7.12486 4.48035 6.53895L4.47863 6.53579L4.47854 6.53564M9.48527 11.5422L4.47854 6.53564M4.47854 6.53564L4.38014 6.35619L4.38015 6.35618M4.47854 6.53564L4.38015 6.35618M4.38015 6.35618L4.37959 6.35519M4.38015 6.35618L4.37959 6.35519M4.37959 6.35519C4.30529 6.22327 4.33951 6.05677 4.45983 5.96482L4.45983 5.96483M4.37959 6.35519L4.45983 5.96483M4.45983 5.96483L4.46051 5.96429M4.45983 5.96483L4.46051 5.96429M4.46051 5.96429L5.67267 5.02118L5.67294 5.02097M4.46051 5.96429L5.67294 5.02097M5.67294 5.02097C6.10179 4.68496 6.20085 4.07596 5.90056 3.62136L5.90032 3.62099M5.67294 5.02097L5.90032 3.62099M5.90032 3.62099L3.74057 0.382426C3.43265 -0.0807446 2.81489 -0.219787 2.33821 0.0667443C2.3382 0.0667497 2.33819 0.0667552 2.33818 0.0667606L0.984307 0.880033C0.536715 1.14331 0.208336 1.56957 0.0679974 2.06954L0.0678441 2.0701M5.90032 3.62099L0.0678441 2.0701M0.0678441 2.0701C-0.433316 3.89614 -0.039899 6.99824 4.49029 11.529L4.49029 11.529L0.0678441 2.0701ZM13.9489 15.9505L13.948 15.9507C13.531 16.0635 13.1007 16.1197 12.6687 16.1179C12.6685 16.1179 12.6684 16.1179 12.6682 16.1179L12.6687 16.0179L13.9489 15.9505ZM13.9489 15.9505C14.449 15.8103 14.8753 15.4819 15.1384 15.0342M13.9489 15.9505L15.1384 15.0342M15.1384 15.0342C15.1385 15.0341 15.1386 15.0339 15.1387 15.0337M15.1384 15.0342L15.1387 15.0337M15.1387 15.0337L15.9525 13.6812C15.9525 13.6811 15.9525 13.6811 15.9525 13.6811C16.2394 13.2044 16.1005 12.5863 15.6372 12.2782L15.1387 15.0337ZM15.3217 13.3044L15.3216 13.3045L14.5091 14.6588L14.5085 14.6598C14.3421 14.9446 14.072 15.1541 13.7547 15.2443C12.1646 15.6807 9.33433 15.3356 5.009 11.0103C0.683655 6.68492 0.338602 3.8549 0.774958 2.26456C0.865335 1.94685 1.07506 1.67634 1.36025 1.50964L1.36025 1.50965L1.36123 1.50906L2.71553 0.69659L2.71564 0.696523C2.85677 0.611605 3.03972 0.652767 3.13089 0.789908L3.13094 0.789983L4.30419 2.55144L4.30422 2.55148L5.28875 4.02811C5.28878 4.02817 5.28882 4.02822 5.28886 4.02828C5.37787 4.16306 5.34861 4.34362 5.22158 4.44342C5.22152 4.44347 5.22145 4.44352 5.22139 4.44357L4.00992 5.38593C4.00981 5.38602 4.00969 5.38611 4.00958 5.3862C3.60145 5.69854 3.48488 6.26335 3.7361 6.71175C3.73615 6.71185 3.73621 6.71196 3.73627 6.71206L3.83197 6.88595C3.832 6.88599 3.83202 6.88604 3.83205 6.88609C4.17679 7.51835 4.60604 8.30385 6.16036 9.85791C7.71477 11.412 8.50002 11.8413 9.13201 12.186L9.30616 12.282C9.30627 12.282 9.30637 12.2821 9.30647 12.2821C9.75485 12.5333 10.3197 12.4168 10.6321 12.0086C10.6321 12.0085 10.6322 12.0084 10.6323 12.0083L11.5746 10.7969C11.5747 10.7968 11.5747 10.7968 11.5747 10.7967C11.6746 10.6697 11.8551 10.6404 11.99 10.7294C11.9901 10.7294 11.9901 10.7295 11.9902 10.7295L15.2282 12.8891L15.2284 12.8892C15.3656 12.9803 15.4067 13.1633 15.3217 13.3044Z" fill="#818283" stroke="#818283" stroke-width="0.2"/>
</g>
<defs>
<clipPath id="clip0">
<rect width="16" height="16" fill="white"/>
</clipPath>
</defs>
</svg>
