<svg width="10" height="15" viewBox="0 0 10 15" fill="none" xmlns="http://www.w3.org/2000/svg">
<path d="M5.00003 2.85959C3.88958 2.85959 2.98621 3.73669 2.98621 4.8148C2.98621 5.89294 3.88961 6.77002 5.00003 6.77002C6.11046 6.77002 7.01386 5.89291 7.01386 4.8148C7.01386 3.73669 6.11049 2.85959 5.00003 2.85959Z" fill="#A4AAB3"/>
<path d="M5 0.0355835C2.24299 0.0355835 -1.03138e-07 2.21329 -1.03138e-07 4.89006C-1.03138e-07 5.98495 0.791084 7.78942 2.35125 10.2533C3.49193 12.0547 4.64875 13.5751 4.66029 13.5902L5 14.0356L5.33971 13.5902C5.35125 13.5751 6.50807 12.0547 7.64875 10.2533C9.20892 7.78942 10 5.98495 10 4.89006C10 2.21329 7.75701 0.0355835 5 0.0355835ZM5 7.59083C3.42341 7.59083 2.14079 6.34551 2.14079 4.81483C2.14079 3.28413 3.42344 2.03884 5 2.03884C6.57656 2.03884 7.85921 3.28416 7.85921 4.81483C7.85921 6.34551 6.57659 7.59083 5 7.59083Z" fill="#A4AAB3"/>
</svg>
