<svg width="14" height="15" viewBox="0 0 14 15" fill="none" xmlns="http://www.w3.org/2000/svg">
<path d="M13.0797 2.86196C13.6544 2.09274 13.9983 1.2941 14 0.723528C13.9993 0.53876 13.9623 0.394368 13.8917 0.286806C13.8843 0.273652 13.864 0.239224 13.8282 0.205299C13.7925 0.169933 13.7605 0.151038 13.7536 0.147217C13.6408 0.0719103 13.4957 0.0355835 13.3109 0.0355835C12.7417 0.0365443 11.9428 0.380276 11.1734 0.955878C10.5514 1.42129 9.92945 2.07672 9.06843 2.98434C8.92237 3.13828 8.76866 3.30012 8.60611 3.46984L6.93835 2.97L6.94336 2.96522C7.01267 2.89517 7.05213 2.79885 7.05117 2.70418C7.05213 2.60426 7.01173 2.50793 6.94217 2.43862L6.64098 2.13696C6.57142 2.06691 6.47532 2.02676 6.3759 2.02676C6.2755 2.02676 6.1818 2.06549 6.11175 2.13625L5.66117 2.58708L5.42259 2.51585C5.474 2.45058 5.50243 2.36908 5.50147 2.28876C5.50243 2.1874 5.46322 2.09299 5.39272 2.02294L5.09009 1.72032C5.02101 1.65101 4.92539 1.61132 4.82501 1.61132C4.72509 1.61132 4.63162 1.6503 4.5623 1.7208L4.14878 2.1341L2.45304 1.62614C2.41504 1.61491 2.37487 1.60894 2.33184 1.60894C2.21138 1.61038 2.09974 1.65508 2.01824 1.73587L1.42207 2.33227C1.3544 2.39991 1.31641 2.49146 1.31714 2.57823C1.31499 2.70611 1.38574 2.82419 1.49905 2.8849L5.06502 4.87704C5.08248 4.88684 5.13292 4.92415 5.15156 4.94279L6.16819 5.95918C5.21728 6.96099 4.37012 7.93126 3.70993 8.77529C3.64825 8.85371 3.58992 8.93018 3.53255 9.00597L0.773816 8.75546C0.760434 8.75379 0.745359 8.75257 0.726235 8.75257C0.599777 8.7552 0.476202 8.80519 0.384424 8.89385L0.106414 9.17161C0.0378098 9.2388 -0.000918998 9.32962 4.17859e-05 9.41734C-0.00210854 9.55121 0.0789176 9.67502 0.200594 9.72928L2.14133 10.651C2.15806 10.6594 2.20156 10.6902 2.21568 10.7043L2.37679 10.8642C2.32635 11.0062 2.30078 11.1293 2.29934 11.2374C2.29886 11.382 2.34548 11.5058 2.43465 11.595L2.44158 11.601L2.44348 11.6024C2.53503 11.6911 2.65359 11.7363 2.80036 11.7363C2.90603 11.7346 3.02793 11.7095 3.1704 11.6593L3.3339 11.8226C3.34657 11.836 3.37692 11.8785 3.38482 11.8955L4.30463 13.8319C4.36081 13.9555 4.48199 14.0356 4.61393 14.0356H4.61583C4.70715 14.0356 4.7944 13.999 4.86108 13.9321L5.14577 13.6464C5.23014 13.5575 5.27987 13.4349 5.28177 13.3056C5.28177 13.2898 5.28106 13.2776 5.28058 13.2709L5.02936 10.5021C5.1049 10.4452 5.18139 10.3867 5.26002 10.3255C6.10526 9.66431 7.07576 8.81642 8.07564 7.86696L9.093 8.88528C9.10949 8.90104 9.14797 8.9515 9.15922 8.97252L11.1475 12.532C11.2083 12.647 11.3252 12.718 11.4547 12.718C11.5472 12.718 11.6352 12.6814 11.7026 12.6136L12.303 12.0136C12.381 11.9321 12.4247 11.8214 12.4259 11.7004C12.4259 11.6598 12.4202 11.6204 12.4097 11.5833L11.9017 9.8871L12.315 9.47309C12.3846 9.40399 12.424 9.30791 12.424 9.2092C12.424 9.10999 12.3855 9.01677 12.3155 8.94576L12.0124 8.64291C11.9431 8.57334 11.8472 8.53367 11.7485 8.53367C11.6648 8.53367 11.5831 8.56165 11.5193 8.61209L11.4482 8.37448L11.8993 7.92342C11.9686 7.85385 12.0081 7.75775 12.0081 7.65879C12.0081 7.55912 11.9696 7.46567 11.8993 7.39563L11.5976 7.09394C11.5281 7.02341 11.4315 6.9835 11.3323 6.9835C11.2326 6.9835 11.136 7.02389 11.0679 7.09346L11.0648 7.09632L10.5652 5.42879C10.7378 5.26433 10.9015 5.10775 11.0581 4.96027C11.9625 4.10208 12.6155 3.48249 13.0797 2.86196Z" fill="#A4AAB3"/>
</svg>
