<svg width="46" height="46" viewBox="0 0 46 46" fill="none" xmlns="http://www.w3.org/2000/svg">
<circle cx="23" cy="23" r="22.25" stroke="#FBAA1C" stroke-width="1.5"/>
<path d="M29.6686 16.2309V15.0475C29.6686 13.9185 28.75 13 27.6211 13C26.4921 13 25.5736 13.9185 25.5736 15.0475V16.2309H20.4264V15.0475C20.4264 13.9185 19.5079 13 18.3789 13C17.25 13 16.3314 13.9185 16.3314 15.0475V16.2309H13V33H33V16.2309H29.6686ZM26.7455 15.0475C26.7455 14.5647 27.1383 14.1719 27.6211 14.1719C28.1039 14.1719 28.4967 14.5647 28.4967 15.0475V16.2309H26.7455V15.0475ZM17.5033 15.0475C17.5033 14.5647 17.8961 14.1719 18.3789 14.1719C18.8617 14.1719 19.2545 14.5647 19.2545 15.0475V16.2309H17.5033V15.0475ZM31.8281 17.4027V20.8665H14.1719V17.4027H31.8281ZM14.1719 31.8281V22.0384H31.8281V31.8281H14.1719Z" fill="#FBAA1C"/>
<path d="M15.3438 30.6562H30.6562V23.2103H15.3438V30.6562ZM16.5156 27.5192H18.1719V29.4844H16.5156V27.5192ZM25 27.5192H26.6562V29.4844H25V27.5192ZM23.8281 29.4844H22.1719V27.5192H23.8281V29.4844ZM25 26.3473V24.3822H26.6562V26.3473H25ZM23.8281 26.3473H22.1719V24.3822H23.8281V26.3473ZM21 26.3473H19.3437V24.3822H21V26.3473ZM21 27.5192V29.4844H19.3437V27.5192H21ZM27.8281 29.4844V27.5192H29.4844V29.4844H27.8281ZM29.4844 26.3473H27.8281V24.3822H29.4844V26.3473ZM18.1719 24.3822V26.3473H16.5156V24.3822H18.1719Z" fill="#FBAA1C"/>
</svg>
