<svg width="46" height="46" viewBox="0 0 46 46" fill="none" xmlns="http://www.w3.org/2000/svg">
<circle cx="23" cy="23" r="22.25" stroke="#FBAA1C" stroke-width="1.5"/>
<path d="M30.0441 33.5938V15.5876H28.1696V12.542H23.7013V11H22.2951V12.542H17.8269V15.5876H15.9523V33.5938H13.4023V35H32.5941V33.5938H30.0441ZM19.2331 13.9483H26.7633V15.5876H19.2331V13.9483ZM25.8253 33.5938H23.7013V28.4549H25.8253V33.5938ZM22.2951 33.5938H20.1711V28.4549H22.2951V33.5938ZM27.2316 33.5938V27.0486H18.7648V33.5938H17.3586V16.9938H28.6378V33.5938H27.2316Z" fill="#FBAA1C"/>
<path d="M18.7656 18.4158H20.1719V19.8221H18.7656V18.4158Z" fill="#FBAA1C"/>
<path d="M25.8242 18.4158H27.2305V19.8221H25.8242V18.4158Z" fill="#FBAA1C"/>
<path d="M22.2969 18.4158H23.7031V19.8221H22.2969V18.4158Z" fill="#FBAA1C"/>
<path d="M18.7656 21.2441H20.1719V22.6503H18.7656V21.2441Z" fill="#FBAA1C"/>
<path d="M25.8242 21.2441H27.2305V22.6503H25.8242V21.2441Z" fill="#FBAA1C"/>
<path d="M22.2969 21.2441H23.7031V22.6503H22.2969V21.2441Z" fill="#FBAA1C"/>
<path d="M18.7656 24.0724H20.1719V25.4787H18.7656V24.0724Z" fill="#FBAA1C"/>
<path d="M25.8242 24.0724H27.2305V25.4787H25.8242V24.0724Z" fill="#FBAA1C"/>
<path d="M22.2969 24.0724H23.7031V25.4787H22.2969V24.0724Z" fill="#FBAA1C"/>
</svg>
