<svg width="24" height="24" viewBox="0 0 24 24" fill="none" xmlns="http://www.w3.org/2000/svg">
<path d="M11.668 0.95C8.4418 0.95 5.81719 3.57462 5.81719 6.80078C5.81719 10.0269 8.4418 12.6516 11.668 12.6516C14.8941 12.6516 17.5188 10.0269 17.5188 6.80078C17.5188 3.57462 14.8941 0.95 11.668 0.95ZM11.668 11.2625C9.20782 11.2625 7.20625 9.26093 7.20625 6.80078C7.20625 4.34063 9.20782 2.33906 11.668 2.33906C14.1281 2.33906 16.1297 4.34063 16.1297 6.80078C16.1297 9.26093 14.1281 11.2625 11.668 11.2625Z" fill="#FBAA1C" stroke="#FBAA1C" stroke-width="0.1"/>
<path d="M18.9209 16.3561C17.3235 14.7342 15.2054 13.8406 12.957 13.8406H10.3789C8.1306 13.8406 6.01244 14.7342 4.41506 16.3561C2.82555 17.97 1.95 20.1007 1.95 22.3555C1.95 22.739 2.26096 23.05 2.64453 23.05H20.6914C21.075 23.05 21.3859 22.739 21.3859 22.3555C21.3859 20.1007 20.5104 17.97 18.9209 16.3561ZM19.9637 21.6609H3.37224C3.71816 18.0559 6.72906 15.2297 10.3789 15.2297H12.957C16.6069 15.2297 19.6178 18.0559 19.9637 21.6609Z" fill="#FBAA1C" stroke="#FBAA1C" stroke-width="0.1"/>
</svg>
