<svg width="46" height="46" viewBox="0 0 46 46" fill="none" xmlns="http://www.w3.org/2000/svg">
<circle cx="23" cy="23" r="22.25" stroke="#FBAA1C" stroke-width="1.5"/>
<path d="M33.4746 15.5938H12.5254C11.6702 15.5938 11 16.2639 11 17.1192V28.8904C11 29.7456 11.6702 30.4158 12.5254 30.4158H33.4745C34.3301 30.4158 35 29.7458 35 28.8904V17.1192C35 16.2639 34.3298 15.5938 33.4746 15.5938ZM33.4746 28.8904H12.5254L12.5137 17.1202C12.5137 17.1202 12.5173 17.1192 12.5254 17.1192H33.4745V28.8904H33.4746Z" fill="#FBAA1C"/>
<path d="M15.3992 16.3562V17.2206C15.3992 18.7069 14.1903 19.9158 12.7043 19.9158H11.8398V21.4412H12.7043C15.0313 21.4412 16.9246 19.5482 16.9246 17.2206V16.3562H15.3992Z" fill="#FBAA1C"/>
<path d="M33.2948 19.8904C31.8088 19.8904 30.5996 18.6815 30.5996 17.1954V16.331H29.0742V17.1954C29.0742 19.5224 30.9678 21.4158 33.2948 21.4158H34.1592V19.8904H33.2948Z" fill="#FBAA1C"/>
<path d="M33.2987 24.5683C30.9714 24.5683 29.0781 26.4617 29.0781 28.7887V29.6531H30.6033V28.7887C30.6033 27.3027 31.8124 26.0938 33.2985 26.0938H34.1629V24.5683H33.2987Z" fill="#FBAA1C"/>
<path d="M12.7043 24.5683H11.8398V26.0938H12.7043C14.1903 26.0938 15.3992 27.3027 15.3992 28.7887V29.6531H16.9246V28.7887C16.9246 26.4614 15.0313 24.5683 12.7043 24.5683Z" fill="#FBAA1C"/>
<path d="M23.866 23.8819C23.8406 23.8056 23.7643 23.7548 23.688 23.6785C23.6118 23.6277 23.51 23.5768 23.4338 23.526C23.3829 23.5006 23.3575 23.5006 23.3321 23.4751C23.3067 23.4751 23.3067 23.4751 23.2812 23.4497V24.9751C23.4846 24.9497 23.5863 24.8735 23.7134 24.7717C23.866 24.6446 23.9422 24.4667 23.9422 24.187C23.9423 24.0598 23.9168 23.9582 23.866 23.8819Z" fill="#FBAA1C"/>
<path d="M22.9996 18.7971C20.6861 18.7971 18.8047 20.6785 18.8047 22.9921C18.8047 25.3056 20.6861 27.187 22.9996 27.187C25.3132 27.187 27.1946 25.3056 27.1946 22.9921C27.1946 20.6785 25.3132 18.7971 22.9996 18.7971ZM24.7793 24.848C24.6776 25.0768 24.5505 25.2548 24.3979 25.3819C24.2454 25.5344 24.042 25.6362 23.8386 25.7124C23.6606 25.7887 23.4827 25.8141 23.2793 25.8395V26.348H22.6691V25.8395C22.4403 25.8141 22.2623 25.7887 22.0589 25.7124C21.8301 25.6362 21.6268 25.509 21.4742 25.3565C21.3216 25.204 21.1945 25.0006 21.0928 24.7972C21.0165 24.5684 20.9657 24.3141 20.9657 24.0345V23.9582H21.9572V24.0345C21.9572 24.3395 22.0081 24.5938 22.1352 24.7463C22.2369 24.8735 22.364 24.9751 22.6437 25.0006V23.348C22.5165 23.3226 22.4149 23.2718 22.3131 23.2209C22.2623 23.1955 22.2115 23.1701 22.1606 23.1701C21.9572 23.0938 21.7792 22.9921 21.6013 22.865C21.4488 22.7379 21.2962 22.5599 21.1945 22.382C21.0928 22.1786 21.042 21.9498 21.042 21.6701C21.042 21.4159 21.0928 21.1871 21.1945 21.0091C21.2962 20.8057 21.4233 20.6532 21.5759 20.526C21.7285 20.3989 21.9318 20.2972 22.1352 20.2464C22.3132 20.1955 22.4403 20.1447 22.6437 20.1447V19.6616H23.2538V20.1446C23.4318 20.1446 23.5843 20.1955 23.7369 20.2463C23.9403 20.2971 24.1183 20.3988 24.2708 20.5259C24.4233 20.6531 24.5504 20.8056 24.6267 21.009C24.703 21.2124 24.7538 21.4412 24.7538 21.6954V21.7717H23.7623V21.6954C23.7623 21.4666 23.686 21.2886 23.5843 21.1615C23.508 21.0598 23.4063 21.009 23.2284 20.9835V22.4073C23.3555 22.4581 23.4826 22.4835 23.5843 22.5344C23.6352 22.5598 23.686 22.5853 23.7368 22.5853C23.9402 22.6615 24.1436 22.7632 24.2961 22.9158C24.4741 23.0429 24.6012 23.2208 24.7029 23.3988C24.8046 23.6022 24.8555 23.831 24.8555 24.1107C24.9318 24.3904 24.881 24.6446 24.7793 24.848Z" fill="#FBAA1C"/>
<path d="M22.2619 21.0852C22.1602 21.1869 22.1094 21.3649 22.1094 21.5937C22.1094 21.6954 22.1348 21.7971 22.1602 21.848C22.2111 21.9242 22.2619 21.9751 22.3128 22.0513C22.389 22.1022 22.4653 22.153 22.5416 22.1785C22.5924 22.2039 22.6178 22.2039 22.6432 22.2293H22.6686V20.9327C22.4653 20.9327 22.3636 20.9836 22.2619 21.0852Z" fill="#FBAA1C"/>
</svg>
