<svg width="16" height="11" viewBox="0 0 16 11" fill="none" xmlns="http://www.w3.org/2000/svg">
<path d="M0.00012207 9.17563C0.0322247 9.77819 0.530904 10.257 1.14151 10.257H14.1185C14.7498 10.257 15.2616 9.74519 15.2616 9.11387V6.92365H0.00012207V9.17563Z" fill="#73AF00"/>
<path d="M14.1185 0.256958H1.14151C0.530904 0.256958 0.0322247 0.735726 0.00012207 1.33828V3.5903H15.2616V1.40008C15.2616 0.768753 14.7498 0.256958 14.1185 0.256958Z" fill="#82AFFF"/>
<path d="M15.2616 3.59039H0.00012207V6.92377H15.2616V3.59039Z" fill="#FF4B55"/>
<path d="M7.99068 6.34831C7.40013 6.34831 6.92104 5.86925 6.92104 5.27813C6.92104 4.6881 7.4001 4.20796 7.99068 4.20796C8.21042 4.20796 8.41305 4.27553 8.58191 4.3899C8.60775 4.40743 8.63726 4.37342 8.61562 4.35091C8.36324 4.08855 8.00606 3.92845 7.61004 3.94195C6.92965 3.96517 6.36638 4.51068 6.32289 5.19008C6.27308 5.96827 6.88926 6.61497 7.65648 6.61497C8.03438 6.61497 8.374 6.45699 8.61658 6.20437C8.63798 6.18208 8.60841 6.14857 8.58283 6.16595C8.41377 6.28065 8.21081 6.34831 7.99068 6.34831Z" fill="#F5F5F5"/>
<path d="M8.92699 4.6194L9.03797 4.93142L9.33708 4.78924C9.35962 4.77851 9.38314 4.80203 9.37241 4.82456L9.23019 5.12368L9.54222 5.23465C9.56574 5.243 9.56574 5.27626 9.54222 5.28461L9.23019 5.39558L9.37241 5.6947C9.38314 5.71724 9.35962 5.74076 9.33708 5.73002L9.03797 5.58784L8.92699 5.8999C8.91865 5.92341 8.88538 5.92341 8.87704 5.8999L8.76606 5.58787L8.46694 5.73005C8.44441 5.74078 8.42089 5.71727 8.43162 5.69473L8.5738 5.39561L8.26178 5.28464C8.23826 5.27629 8.23826 5.24303 8.26178 5.23468L8.5738 5.12371L8.43162 4.82459C8.42089 4.80206 8.44441 4.77854 8.46694 4.78927L8.76606 4.93145L8.87704 4.61943C8.88541 4.59594 8.91865 4.59594 8.92699 4.6194Z" fill="#F5F5F5"/>
</svg>
