<svg width="19" height="13" viewBox="0 0 19 13" fill="none" xmlns="http://www.w3.org/2000/svg">
<path d="M0.00012207 10.9043C0.00012207 11.6618 0.614238 12.276 1.37184 12.276H16.9442C17.7018 12.276 18.3159 11.6619 18.3159 10.9043V9.74966H0.00012207V10.9043Z" fill="#C8414B"/>
<path d="M16.9442 0.276001H1.37184C0.614238 0.276001 0.00012207 0.890117 0.00012207 1.64772V2.80233H18.3159V1.64772C18.3159 0.890117 17.7018 0.276001 16.9442 0.276001Z" fill="#C8414B"/>
<path d="M18.3159 2.80244H0.00012207V9.74993H18.3159V2.80244Z" fill="#FFD250"/>
<path d="M7.73702 6.276L8.00478 5.07113C8.02946 4.96016 7.945 4.85492 7.83131 4.85492H7.64272C7.52907 4.85492 7.44464 4.9602 7.46925 5.07113L7.73702 6.276Z" fill="#C8414B"/>
<path d="M8.05284 5.64424H7.42126V8.32829H8.05284V5.64424Z" fill="#F5F5F5"/>
<path d="M8.21056 5.32874H7.26318V5.64454H8.21056V5.32874Z" fill="#FAB446"/>
<path d="M8.21074 6.276H6.63171V6.59181H8.21074V6.276Z" fill="#C8414B"/>
<path d="M8.21068 7.53914L7.26331 7.22337V6.90756L8.21068 7.22337V7.53914Z" fill="#C8414B"/>
<path d="M3.00008 6.276L3.26784 5.07113C3.29252 4.96016 3.20806 4.85492 3.09438 4.85492H2.90578C2.79213 4.85492 2.7077 4.9602 2.73232 5.07113L3.00008 6.276Z" fill="#C8414B"/>
<path d="M4.10536 5.32863C3.93096 5.32863 3.78955 5.47004 3.78955 5.64443V7.69706C3.78955 8.08072 4.14764 8.80234 5.3685 8.80234C6.58936 8.80234 6.94745 8.08076 6.94745 7.69706V5.64443C6.94745 5.47004 6.80604 5.32863 6.63165 5.32863H4.10536Z" fill="#F5F5F5"/>
<path d="M5.3685 6.90756H3.78955V5.64442C3.78955 5.47002 3.93096 5.32861 4.10536 5.32861H5.3685V6.90756Z" fill="#C8414B"/>
<path d="M5.36853 6.90756H6.94748V7.69704C6.94748 8.13308 6.59404 8.48651 6.15801 8.48651C5.72197 8.48651 5.36853 8.13308 5.36853 7.69704V6.90756Z" fill="#C8414B"/>
<path d="M3.78955 6.90758H5.3685V7.69705C5.3685 8.13309 5.01506 8.48653 4.57903 8.48653C4.14299 8.48653 3.78955 8.13309 3.78955 7.69705V6.90758Z" fill="#FAB446"/>
<path d="M5.05274 8.32504V6.90753H4.73694V8.47056C4.85442 8.44674 4.96056 8.39473 5.05274 8.32504Z" fill="#C8414B"/>
<path d="M4.42115 8.47059V6.90756H4.10535V8.32507C4.19757 8.39476 4.30371 8.44677 4.42115 8.47059Z" fill="#C8414B"/>
<path d="M5.05285 6.276H4.10547V6.59181H5.05285V6.276Z" fill="#FFB441"/>
<path d="M5.05285 5.64426H4.10547V5.96006H5.05285V5.64426Z" fill="#FAB446"/>
<path d="M4.89476 5.83209H4.26318V6.40418H4.89476V5.83209Z" fill="#FAB446"/>
<path d="M3.31578 5.64424H2.6842V8.32829H3.31578V5.64424Z" fill="#F5F5F5"/>
<path d="M3.47374 8.1709H2.52637V8.4867H3.47374V8.1709Z" fill="#FAB446"/>
<path d="M3.47374 5.32874H2.52637V5.64454H3.47374V5.32874Z" fill="#FAB446"/>
<path d="M3.6318 8.48642H2.36865V8.80222H3.6318V8.48642Z" fill="#5064AA"/>
<path d="M8.36864 8.1709H7.42126V8.4867H8.36864V8.1709Z" fill="#FAB446"/>
<path d="M8.36849 8.48642H7.10535V8.80222H8.36849V8.48642Z" fill="#5064AA"/>
<path d="M6.31602 5.01285H4.42126V5.32865H6.31602V5.01285Z" fill="#FAB446"/>
<path d="M5.52662 4.06558H5.21082V5.01296H5.52662V4.06558Z" fill="#FFB441"/>
<path d="M5.05277 4.53914C4.79156 4.53914 4.5791 4.32665 4.5791 4.06547C4.5791 3.80425 4.79159 3.5918 5.05277 3.5918C5.31399 3.5918 5.52644 3.80429 5.52644 4.06547C5.52648 4.32665 5.31399 4.53914 5.05277 4.53914ZM5.05277 3.90757C4.96567 3.90757 4.89487 3.97832 4.89487 4.06547C4.89487 4.15258 4.96563 4.22337 5.05277 4.22337C5.13992 4.22337 5.21067 4.15261 5.21067 4.06547C5.21067 3.97836 5.13992 3.90757 5.05277 3.90757Z" fill="#F5F5F5"/>
<path d="M5.68436 4.53914C5.42315 4.53914 5.21069 4.32665 5.21069 4.06547C5.21069 3.80425 5.42319 3.5918 5.68436 3.5918C5.94558 3.5918 6.15804 3.80429 6.15804 4.06547C6.15804 4.32665 5.94554 4.53914 5.68436 4.53914ZM5.68436 3.90757C5.59726 3.90757 5.52646 3.97832 5.52646 4.06547C5.52646 4.15258 5.59722 4.22337 5.68436 4.22337C5.77147 4.22337 5.84227 4.15261 5.84227 4.06547C5.84223 3.97836 5.77147 3.90757 5.68436 3.90757Z" fill="#F5F5F5"/>
<path d="M6.31596 4.85497C6.05474 4.85497 5.84229 4.64247 5.84229 4.38129C5.84229 4.12008 6.05478 3.90762 6.31596 3.90762C6.57717 3.90762 6.78963 4.12012 6.78963 4.38129C6.78963 4.64247 6.57714 4.85497 6.31596 4.85497ZM6.31596 4.22339C6.22885 4.22339 6.15805 4.29415 6.15805 4.38129C6.15805 4.4684 6.22881 4.5392 6.31596 4.5392C6.40306 4.5392 6.47386 4.46844 6.47386 4.38129C6.47386 4.29415 6.40306 4.22339 6.31596 4.22339Z" fill="#F5F5F5"/>
<path d="M4.42118 4.85497C4.15997 4.85497 3.94751 4.64247 3.94751 4.38129C3.94751 4.12008 4.16 3.90762 4.42118 3.90762C4.6824 3.90762 4.89485 4.12012 4.89485 4.38129C4.89489 4.64247 4.6824 4.85497 4.42118 4.85497ZM4.42118 4.22339C4.33407 4.22339 4.26328 4.29415 4.26328 4.38129C4.26328 4.4684 4.33404 4.5392 4.42118 4.5392C4.50832 4.5392 4.57908 4.4684 4.57908 4.38126C4.57908 4.29415 4.50832 4.22339 4.42118 4.22339Z" fill="#F5F5F5"/>
<path d="M6.31594 7.53914V7.69704C6.31594 7.78412 6.2451 7.85495 6.15803 7.85495C6.07096 7.85495 6.00013 7.78412 6.00013 7.69704V7.53914H6.31594ZM6.6317 7.22337H5.68433V7.69704C5.68433 7.95826 5.89682 8.17072 6.158 8.17072C6.41921 8.17072 6.63167 7.95822 6.63167 7.69704V7.22337H6.6317Z" fill="#FAB446"/>
<path d="M6.15797 6.59181C5.98357 6.59181 5.84216 6.4504 5.84216 6.276V5.9602C5.84216 5.7858 5.98357 5.64439 6.15797 5.64439C6.33236 5.64439 6.47377 5.7858 6.47377 5.9602V6.276C6.47377 6.4504 6.33236 6.59181 6.15797 6.59181Z" fill="#FFA0D2"/>
<path d="M5.36857 7.38107C5.63017 7.38107 5.84224 7.169 5.84224 6.9074C5.84224 6.6458 5.63017 6.43373 5.36857 6.43373C5.10697 6.43373 4.8949 6.6458 4.8949 6.9074C4.8949 7.169 5.10697 7.38107 5.36857 7.38107Z" fill="#5064AA"/>
<path d="M5.52662 3.43384H5.21082V4.38122H5.52662V3.43384Z" fill="#FAB446"/>
<path d="M4.42115 5.01285L4.10535 4.69705L4.29033 4.51207C4.57626 4.22613 4.96411 4.06548 5.36853 4.06548C5.77294 4.06548 6.16076 4.22613 6.44673 4.51207L6.63171 4.69705L6.31591 5.01285H4.42115Z" fill="#C8414B"/>
<path d="M5.36847 4.85487C5.45568 4.85487 5.52638 4.78417 5.52638 4.69696C5.52638 4.60976 5.45568 4.53906 5.36847 4.53906C5.28127 4.53906 5.21057 4.60976 5.21057 4.69696C5.21057 4.78417 5.28127 4.85487 5.36847 4.85487Z" fill="#FFD250"/>
<path d="M4.73676 4.85487C4.82397 4.85487 4.89466 4.78417 4.89466 4.69696C4.89466 4.60976 4.82397 4.53906 4.73676 4.53906C4.64955 4.53906 4.57886 4.60976 4.57886 4.69696C4.57886 4.78417 4.64955 4.85487 4.73676 4.85487Z" fill="#FFD250"/>
<path d="M5.99982 4.85487C6.08703 4.85487 6.15772 4.78417 6.15772 4.69696C6.15772 4.60976 6.08703 4.53906 5.99982 4.53906C5.91261 4.53906 5.84192 4.60976 5.84192 4.69696C5.84192 4.78417 5.91261 4.85487 5.99982 4.85487Z" fill="#FFD250"/>
<path d="M4.10539 6.276H2.52637V6.59181H4.10539V6.276Z" fill="#C8414B"/>
<path d="M2.52649 7.53914L3.47383 7.22337V6.90756L2.52649 7.22337V7.53914Z" fill="#C8414B"/>
</svg>
