<svg width="16" height="11" viewBox="0 0 16 11" fill="none" xmlns="http://www.w3.org/2000/svg">
<path d="M15 10.3116H0.26317C0.117842 10.3116 0 10.1937 0 10.0484V0.574754C0 0.429426 0.117842 0.311584 0.26317 0.311584H15C15.1453 0.311584 15.2632 0.429426 15.2632 0.574754V10.0484C15.2631 10.1938 15.1453 10.3116 15 10.3116Z" fill="#F5F5F5"/>
<path d="M15.2631 1.08085H-6.10352e-05V0.574754C-6.10352e-05 0.429426 0.117781 0.311584 0.263109 0.311584H14.9999C15.1453 0.311584 15.2631 0.429426 15.2631 0.574754L15.2631 1.08085Z" fill="#FF4B55"/>
<path d="M15.2631 3.38849H-6.10352e-05V4.15773H15.2631V3.38849Z" fill="#FF4B55"/>
<path d="M15.2631 1.84998H-6.10352e-05V2.61921H15.2631V1.84998Z" fill="#FF4B55"/>
<path d="M15.2631 5.69621H0.263109C0.117781 5.69621 -6.10352e-05 5.57837 -6.10352e-05 5.43304V4.92694H15.2631V5.69621Z" fill="#FF4B55"/>
<path d="M15.2631 8.00409H-6.10352e-05V8.77333H15.2631V8.00409Z" fill="#FF4B55"/>
<path d="M14.9999 10.3116H0.263109C0.117781 10.3116 -6.10352e-05 10.1938 -6.10352e-05 10.0484V9.54236H15.2631V10.0485C15.2631 10.1938 15.1452 10.3116 14.9999 10.3116Z" fill="#FF4B55"/>
<path d="M15.2631 6.46558H-6.10352e-05V7.23481H15.2631V6.46558Z" fill="#FF4B55"/>
<path d="M6.84208 0.312622H0.26317C0.117842 0.312622 0 0.430434 0 0.575762V5.43403C0 5.57935 0.117842 5.6972 0.26317 5.6972H6.84211C6.98744 5.6972 7.10528 5.57935 7.10528 5.43403V0.575762C7.10525 0.430434 6.98741 0.312622 6.84208 0.312622Z" fill="#41479B"/>
<path d="M0.738963 0.91577L0.797213 1.09046L0.981354 1.09186C1.0052 1.09207 1.01507 1.12248 0.995902 1.13664L0.847772 1.24604L0.90334 1.4216C0.910554 1.44432 0.884648 1.46316 0.865241 1.44926L0.715442 1.34221L0.565643 1.44929C0.546236 1.46316 0.52039 1.44434 0.527545 1.42163L0.583112 1.24607L0.434982 1.13667C0.415814 1.12248 0.425681 1.0921 0.44953 1.09189L0.633671 1.09049L0.691921 0.9158C0.699434 0.893143 0.731391 0.893143 0.738963 0.91577Z" fill="#F5F5F5"/>
<path d="M0.738963 1.82944L0.797213 2.00414L0.981354 2.00554C1.0052 2.00574 1.01507 2.03615 0.995902 2.05031L0.847772 2.15972L0.90334 2.33527C0.910554 2.35799 0.884648 2.37683 0.865241 2.36294L0.715442 2.25589L0.565643 2.36297C0.546236 2.37683 0.52039 2.35802 0.527545 2.3353L0.583112 2.15975L0.434982 2.05034C0.415814 2.03615 0.425681 2.00577 0.44953 2.00557L0.633671 2.00416L0.691921 1.82947C0.699434 1.80685 0.731391 1.80685 0.738963 1.82944Z" fill="#F5F5F5"/>
<path d="M0.738963 2.74326L0.797213 2.91795L0.981354 2.91935C1.0052 2.91956 1.01507 2.94997 0.995902 2.96413L0.847772 3.07354L0.90334 3.24909C0.910554 3.27181 0.884648 3.29065 0.865241 3.27676L0.715442 3.16971L0.565643 3.27679C0.546236 3.29065 0.52039 3.27184 0.527545 3.24912L0.583112 3.07357L0.434982 2.96416C0.415814 2.94997 0.425681 2.91959 0.44953 2.91938L0.633671 2.91798L0.691921 2.74329C0.699434 2.72067 0.731391 2.72067 0.738963 2.74326Z" fill="#F5F5F5"/>
<path d="M0.738963 3.6571L0.797213 3.83179L0.981354 3.8332C1.0052 3.8334 1.01507 3.86381 0.995902 3.87797L0.847772 3.98738L0.90334 4.16293C0.910554 4.18565 0.884648 4.20449 0.865241 4.1906L0.715442 4.08355L0.565643 4.19063C0.546236 4.20449 0.52039 4.18568 0.527545 4.16296L0.583112 3.98741L0.434982 3.878C0.415814 3.86381 0.425681 3.83343 0.44953 3.83322L0.633671 3.83182L0.691921 3.65713C0.699434 3.63448 0.731391 3.63448 0.738963 3.6571Z" fill="#F5F5F5"/>
<path d="M0.738963 4.57094L0.797213 4.74563L0.981354 4.74704C1.0052 4.74724 1.01507 4.77765 0.995902 4.79181L0.847772 4.90122L0.90334 5.07677C0.910554 5.09949 0.884648 5.11833 0.865241 5.10444L0.715442 4.99739L0.565643 5.10447C0.546236 5.11833 0.52039 5.09952 0.527545 5.0768L0.583112 4.90125L0.434982 4.79184C0.415814 4.77765 0.425681 4.74727 0.44953 4.74707L0.633671 4.74566L0.691921 4.57097C0.699434 4.54829 0.731391 4.54829 0.738963 4.57094Z" fill="#F5F5F5"/>
<path d="M1.44831 1.36363L1.50656 1.53832L1.69071 1.53972C1.71455 1.53993 1.72442 1.57034 1.70525 1.5845L1.55712 1.6939L1.61269 1.86946C1.6199 1.89217 1.594 1.91101 1.57459 1.89712L1.42479 1.79004L1.27499 1.89712C1.25559 1.91098 1.22974 1.89217 1.2369 1.86946L1.29246 1.6939L1.14433 1.5845C1.12516 1.57031 1.13503 1.53993 1.15888 1.53972L1.34302 1.53832L1.40127 1.36363C1.40875 1.34103 1.44077 1.34103 1.44831 1.36363Z" fill="#F5F5F5"/>
<path d="M1.44831 2.27747L1.50656 2.45216L1.69071 2.45356C1.71455 2.45377 1.72442 2.48418 1.70525 2.49834L1.55712 2.60774L1.61269 2.7833C1.6199 2.80601 1.594 2.82485 1.57459 2.81096L1.42479 2.70388L1.27499 2.81096C1.25559 2.82482 1.22974 2.80604 1.2369 2.7833L1.29246 2.60774L1.14433 2.49834C1.12516 2.48415 1.13503 2.45377 1.15888 2.45356L1.34302 2.45216L1.40127 2.27747C1.40875 2.25484 1.44077 2.25484 1.44831 2.27747Z" fill="#F5F5F5"/>
<path d="M1.44831 3.19129L1.50656 3.36598L1.69071 3.36738C1.71455 3.36759 1.72442 3.39799 1.70525 3.41215L1.55712 3.52156L1.61269 3.69712C1.6199 3.71983 1.594 3.73867 1.57459 3.72478L1.42479 3.6177L1.27499 3.72478C1.25559 3.73864 1.22974 3.71983 1.2369 3.69712L1.29246 3.52156L1.14433 3.41215C1.12516 3.39796 1.13503 3.36759 1.15888 3.36738L1.34302 3.36598L1.40127 3.19129C1.40875 3.16866 1.44077 3.16866 1.44831 3.19129Z" fill="#F5F5F5"/>
<path d="M1.44831 4.10514L1.50656 4.27983L1.69071 4.28124C1.71455 4.28144 1.72442 4.31185 1.70525 4.32601L1.55712 4.43542L1.61269 4.61097C1.6199 4.63369 1.594 4.65253 1.57459 4.63864L1.42479 4.53156L1.27499 4.63864C1.25559 4.6525 1.22974 4.63369 1.2369 4.61097L1.29246 4.43542L1.14433 4.32601C1.12516 4.31182 1.13503 4.28144 1.15888 4.28124L1.34302 4.27983L1.40127 4.10514C1.40875 4.08255 1.44077 4.08255 1.44831 4.10514Z" fill="#F5F5F5"/>
<path d="M2.15754 0.91559L2.21579 1.09028L2.39993 1.09168C2.42378 1.09189 2.43365 1.1223 2.41448 1.13646L2.26635 1.24586L2.32192 1.42142C2.32913 1.44414 2.30323 1.46298 2.28382 1.44908L2.13402 1.342L1.98422 1.44908C1.96482 1.46295 1.93897 1.44414 1.94612 1.42142L2.00169 1.24586L1.85356 1.13646C1.83439 1.12227 1.84426 1.09189 1.86811 1.09168L2.05225 1.09028L2.1105 0.91559C2.11801 0.892964 2.15 0.892964 2.15754 0.91559Z" fill="#F5F5F5"/>
<path d="M2.15754 1.82945L2.21579 2.00414L2.39993 2.00554C2.42378 2.00575 2.43365 2.03616 2.41448 2.05032L2.26635 2.15972L2.32192 2.33528C2.32913 2.35799 2.30323 2.37683 2.28382 2.36294L2.13402 2.25586L1.98422 2.36294C1.96482 2.3768 1.93897 2.35799 1.94612 2.33528L2.00169 2.15972L1.85356 2.05032C1.83439 2.03613 1.84426 2.00575 1.86811 2.00554L2.05225 2.00414L2.1105 1.82945C2.11801 1.80685 2.15 1.80685 2.15754 1.82945Z" fill="#F5F5F5"/>
<path d="M2.15754 2.74327L2.21579 2.91796L2.39993 2.91936C2.42378 2.91957 2.43365 2.94997 2.41448 2.96413L2.26635 3.07354L2.32192 3.2491C2.32913 3.27181 2.30323 3.29065 2.28382 3.27676L2.13402 3.16968L1.98422 3.27676C1.96482 3.29062 1.93897 3.27181 1.94612 3.2491L2.00169 3.07354L1.85356 2.96413C1.83439 2.94994 1.84426 2.91957 1.86811 2.91936L2.05225 2.91796L2.1105 2.74327C2.11801 2.72067 2.15 2.72067 2.15754 2.74327Z" fill="#F5F5F5"/>
<path d="M2.15754 3.65711L2.21579 3.8318L2.39993 3.8332C2.42378 3.83341 2.43365 3.86381 2.41448 3.87797L2.26635 3.98738L2.32192 4.16294C2.32913 4.18565 2.30323 4.20449 2.28382 4.1906L2.13402 4.08352L1.98422 4.1906C1.96482 4.20446 1.93897 4.18565 1.94612 4.16294L2.00169 3.98738L1.85356 3.87797C1.83439 3.86378 1.84426 3.83341 1.86811 3.8332L2.05225 3.8318L2.1105 3.65711C2.11801 3.63448 2.15 3.63448 2.15754 3.65711Z" fill="#F5F5F5"/>
<path d="M2.15754 4.57095L2.21579 4.74564L2.39993 4.74704C2.42378 4.74725 2.43365 4.77766 2.41448 4.79182L2.26635 4.90122L2.32192 5.07678C2.32913 5.09949 2.30323 5.11833 2.28382 5.10444L2.13402 4.99736L1.98422 5.10444C1.96482 5.1183 1.93897 5.09949 1.94612 5.07678L2.00169 4.90122L1.85356 4.79182C1.83439 4.77763 1.84426 4.74725 1.86811 4.74704L2.05225 4.74564L2.1105 4.57095C2.11801 4.54829 2.15 4.54829 2.15754 4.57095Z" fill="#F5F5F5"/>
<path d="M2.86689 1.36363L2.92514 1.53832L3.10928 1.53972C3.13313 1.53993 3.143 1.57034 3.12383 1.5845L2.9757 1.6939L3.03127 1.86946C3.03848 1.89217 3.01258 1.91101 2.99317 1.89712L2.84337 1.79004L2.69357 1.89712C2.67417 1.91098 2.64832 1.89217 2.65547 1.86946L2.71104 1.6939L2.56291 1.5845C2.54374 1.57031 2.55361 1.53993 2.57746 1.53972L2.7616 1.53832L2.81985 1.36363C2.82733 1.34103 2.85935 1.34103 2.86689 1.36363Z" fill="#F5F5F5"/>
<path d="M2.86689 2.27747L2.92514 2.45216L3.10928 2.45356C3.13313 2.45377 3.143 2.48418 3.12383 2.49834L2.9757 2.60774L3.03127 2.7833C3.03848 2.80601 3.01258 2.82485 2.99317 2.81096L2.84337 2.70388L2.69357 2.81096C2.67417 2.82482 2.64832 2.80604 2.65547 2.7833L2.71104 2.60774L2.56291 2.49834C2.54374 2.48415 2.55361 2.45377 2.57746 2.45356L2.7616 2.45216L2.81985 2.27747C2.82733 2.25484 2.85935 2.25484 2.86689 2.27747Z" fill="#F5F5F5"/>
<path d="M2.86689 3.19129L2.92514 3.36598L3.10928 3.36738C3.13313 3.36759 3.143 3.39799 3.12383 3.41215L2.9757 3.52156L3.03127 3.69712C3.03848 3.71983 3.01258 3.73867 2.99317 3.72478L2.84337 3.6177L2.69357 3.72478C2.67417 3.73864 2.64832 3.71983 2.65547 3.69712L2.71104 3.52156L2.56291 3.41215C2.54374 3.39796 2.55361 3.36759 2.57746 3.36738L2.7616 3.36598L2.81985 3.19129C2.82733 3.16866 2.85935 3.16866 2.86689 3.19129Z" fill="#F5F5F5"/>
<path d="M2.86689 4.10514L2.92514 4.27983L3.10928 4.28124C3.13313 4.28144 3.143 4.31185 3.12383 4.32601L2.9757 4.43542L3.03127 4.61097C3.03848 4.63369 3.01258 4.65253 2.99317 4.63864L2.84337 4.53156L2.69357 4.63864C2.67417 4.6525 2.64832 4.63369 2.65547 4.61097L2.71104 4.43542L2.56291 4.32601C2.54374 4.31182 2.55361 4.28144 2.57746 4.28124L2.7616 4.27983L2.81985 4.10514C2.82733 4.08255 2.85935 4.08255 2.86689 4.10514Z" fill="#F5F5F5"/>
<path d="M3.57615 0.915651L3.6344 1.09034L3.81854 1.09174C3.84239 1.09195 3.85226 1.12236 3.83309 1.13652L3.68496 1.24593L3.74053 1.42148C3.74774 1.4442 3.72184 1.46304 3.70243 1.44915L3.5526 1.34207L3.4028 1.44915C3.38339 1.46301 3.35755 1.4442 3.3647 1.42148L3.42027 1.24593L3.27214 1.13652C3.25297 1.12233 3.26284 1.09195 3.28669 1.09174L3.47083 1.09034L3.52908 0.915651C3.53662 0.893025 3.56861 0.893025 3.57615 0.915651Z" fill="#F5F5F5"/>
<path d="M3.57615 1.82945L3.6344 2.00414L3.81854 2.00554C3.84239 2.00575 3.85226 2.03616 3.83309 2.05032L3.68496 2.15972L3.74053 2.33528C3.74774 2.35799 3.72184 2.37683 3.70243 2.36294L3.5526 2.25586L3.4028 2.36294C3.38339 2.3768 3.35755 2.35799 3.3647 2.33528L3.42027 2.15972L3.27214 2.05032C3.25297 2.03613 3.26284 2.00575 3.28669 2.00554L3.47083 2.00414L3.52908 1.82945C3.53662 1.80685 3.56861 1.80685 3.57615 1.82945Z" fill="#F5F5F5"/>
<path d="M3.57615 2.74327L3.6344 2.91796L3.81854 2.91936C3.84239 2.91957 3.85226 2.94997 3.83309 2.96413L3.68496 3.07354L3.74053 3.2491C3.74774 3.27181 3.72184 3.29065 3.70243 3.27676L3.5526 3.16968L3.4028 3.27676C3.38339 3.29062 3.35755 3.27181 3.3647 3.2491L3.42027 3.07354L3.27214 2.96413C3.25297 2.94994 3.26284 2.91957 3.28669 2.91936L3.47083 2.91796L3.52908 2.74327C3.53662 2.72067 3.56861 2.72067 3.57615 2.74327Z" fill="#F5F5F5"/>
<path d="M3.57615 3.65711L3.6344 3.8318L3.81854 3.8332C3.84239 3.83341 3.85226 3.86381 3.83309 3.87797L3.68496 3.98738L3.74053 4.16294C3.74774 4.18565 3.72184 4.20449 3.70243 4.1906L3.5526 4.08352L3.4028 4.1906C3.38339 4.20446 3.35755 4.18565 3.3647 4.16294L3.42027 3.98738L3.27214 3.87797C3.25297 3.86378 3.26284 3.83341 3.28669 3.8332L3.47083 3.8318L3.52908 3.65711C3.53662 3.63448 3.56861 3.63448 3.57615 3.65711Z" fill="#F5F5F5"/>
<path d="M3.57615 4.57095L3.6344 4.74564L3.81854 4.74704C3.84239 4.74725 3.85226 4.77766 3.83309 4.79182L3.68496 4.90122L3.74053 5.07678C3.74774 5.09949 3.72184 5.11833 3.70243 5.10444L3.5526 4.99736L3.4028 5.10444C3.38339 5.1183 3.35755 5.09949 3.3647 5.07678L3.42027 4.90122L3.27214 4.79182C3.25297 4.77763 3.26284 4.74725 3.28669 4.74704L3.47083 4.74564L3.52908 4.57095C3.53662 4.54829 3.56861 4.54829 3.57615 4.57095Z" fill="#F5F5F5"/>
<path d="M4.28547 1.36363L4.34372 1.53832L4.52786 1.53972C4.55171 1.53993 4.56158 1.57034 4.54241 1.5845L4.39428 1.6939L4.44985 1.86946C4.45706 1.89217 4.43116 1.91101 4.41175 1.89712L4.26195 1.79004L4.11215 1.89712C4.09274 1.91098 4.0669 1.89217 4.07405 1.86946L4.12962 1.6939L3.98149 1.5845C3.96232 1.57031 3.97219 1.53993 3.99604 1.53972L4.18018 1.53832L4.23843 1.36363C4.24597 1.34103 4.27793 1.34103 4.28547 1.36363Z" fill="#F5F5F5"/>
<path d="M4.28547 2.27747L4.34372 2.45216L4.52786 2.45356C4.55171 2.45377 4.56158 2.48418 4.54241 2.49834L4.39428 2.60774L4.44985 2.7833C4.45706 2.80601 4.43116 2.82485 4.41175 2.81096L4.26195 2.70388L4.11215 2.81096C4.09274 2.82482 4.0669 2.80604 4.07405 2.7833L4.12962 2.60774L3.98149 2.49834C3.96232 2.48415 3.97219 2.45377 3.99604 2.45356L4.18018 2.45216L4.23843 2.27747C4.24597 2.25484 4.27793 2.25484 4.28547 2.27747Z" fill="#F5F5F5"/>
<path d="M4.28547 3.19129L4.34372 3.36598L4.52786 3.36738C4.55171 3.36759 4.56158 3.39799 4.54241 3.41215L4.39428 3.52156L4.44985 3.69712C4.45706 3.71983 4.43116 3.73867 4.41175 3.72478L4.26195 3.6177L4.11215 3.72478C4.09274 3.73864 4.0669 3.71983 4.07405 3.69712L4.12962 3.52156L3.98149 3.41215C3.96232 3.39796 3.97219 3.36759 3.99604 3.36738L4.18018 3.36598L4.23843 3.19129C4.24597 3.16866 4.27793 3.16866 4.28547 3.19129Z" fill="#F5F5F5"/>
<path d="M4.28547 4.10514L4.34372 4.27983L4.52786 4.28124C4.55171 4.28144 4.56158 4.31185 4.54241 4.32601L4.39428 4.43542L4.44985 4.61097C4.45706 4.63369 4.43116 4.65253 4.41175 4.63864L4.26195 4.53156L4.11215 4.63864C4.09274 4.6525 4.0669 4.63369 4.07405 4.61097L4.12962 4.43542L3.98149 4.32601C3.96232 4.31182 3.97219 4.28144 3.99604 4.28124L4.18018 4.27983L4.23843 4.10514C4.24597 4.08255 4.27793 4.08255 4.28547 4.10514Z" fill="#F5F5F5"/>
<path d="M4.99482 0.915651L5.05307 1.09034L5.23721 1.09174C5.26106 1.09195 5.27093 1.12236 5.25176 1.13652L5.10363 1.24593L5.1592 1.42148C5.16641 1.4442 5.14051 1.46304 5.1211 1.44915L4.9713 1.34207L4.8215 1.44915C4.8021 1.46301 4.77625 1.4442 4.7834 1.42148L4.83897 1.24593L4.69084 1.13652C4.67167 1.12233 4.68154 1.09195 4.70539 1.09174L4.88953 1.09034L4.94778 0.915651C4.95526 0.893025 4.98728 0.893025 4.99482 0.915651Z" fill="#F5F5F5"/>
<path d="M4.99482 1.82945L5.05307 2.00414L5.23721 2.00554C5.26106 2.00575 5.27093 2.03616 5.25176 2.05032L5.10363 2.15972L5.1592 2.33528C5.16641 2.35799 5.14051 2.37683 5.1211 2.36294L4.9713 2.25586L4.8215 2.36294C4.8021 2.3768 4.77625 2.35799 4.7834 2.33528L4.83897 2.15972L4.69084 2.05032C4.67167 2.03613 4.68154 2.00575 4.70539 2.00554L4.88953 2.00414L4.94778 1.82945C4.95526 1.80685 4.98728 1.80685 4.99482 1.82945Z" fill="#F5F5F5"/>
<path d="M4.99482 2.74327L5.05307 2.91796L5.23721 2.91936C5.26106 2.91957 5.27093 2.94997 5.25176 2.96413L5.10363 3.07354L5.1592 3.2491C5.16641 3.27181 5.14051 3.29065 5.1211 3.27676L4.9713 3.16968L4.8215 3.27676C4.8021 3.29062 4.77625 3.27181 4.7834 3.2491L4.83897 3.07354L4.69084 2.96413C4.67167 2.94994 4.68154 2.91957 4.70539 2.91936L4.88953 2.91796L4.94778 2.74327C4.95526 2.72067 4.98728 2.72067 4.99482 2.74327Z" fill="#F5F5F5"/>
<path d="M4.99482 3.65711L5.05307 3.8318L5.23721 3.8332C5.26106 3.83341 5.27093 3.86381 5.25176 3.87797L5.10363 3.98738L5.1592 4.16294C5.16641 4.18565 5.14051 4.20449 5.1211 4.1906L4.9713 4.08352L4.8215 4.1906C4.8021 4.20446 4.77625 4.18565 4.7834 4.16294L4.83897 3.98738L4.69084 3.87797C4.67167 3.86378 4.68154 3.83341 4.70539 3.8332L4.88953 3.8318L4.94778 3.65711C4.95526 3.63448 4.98728 3.63448 4.99482 3.65711Z" fill="#F5F5F5"/>
<path d="M4.99482 4.57095L5.05307 4.74564L5.23721 4.74704C5.26106 4.74725 5.27093 4.77766 5.25176 4.79182L5.10363 4.90122L5.1592 5.07678C5.16641 5.09949 5.14051 5.11833 5.1211 5.10444L4.9713 4.99736L4.8215 5.10444C4.8021 5.1183 4.77625 5.09949 4.7834 5.07678L4.83897 4.90122L4.69084 4.79182C4.67167 4.77763 4.68154 4.74725 4.70539 4.74704L4.88953 4.74564L4.94778 4.57095C4.95526 4.54829 4.98728 4.54829 4.99482 4.57095Z" fill="#F5F5F5"/>
<path d="M5.70405 1.36363L5.7623 1.53832L5.94644 1.53972C5.97029 1.53993 5.98016 1.57034 5.96099 1.5845L5.81286 1.6939L5.86843 1.86946C5.87564 1.89217 5.84974 1.91101 5.83033 1.89712L5.68053 1.79004L5.53073 1.89712C5.51132 1.91098 5.48548 1.89217 5.49263 1.86946L5.5482 1.6939L5.40007 1.5845C5.3809 1.57031 5.39077 1.53993 5.41462 1.53972L5.59876 1.53832L5.65701 1.36363C5.66452 1.34103 5.69654 1.34103 5.70405 1.36363Z" fill="#F5F5F5"/>
<path d="M5.70405 2.27747L5.7623 2.45216L5.94644 2.45356C5.97029 2.45377 5.98016 2.48418 5.96099 2.49834L5.81286 2.60774L5.86843 2.7833C5.87564 2.80601 5.84974 2.82485 5.83033 2.81096L5.68053 2.70388L5.53073 2.81096C5.51132 2.82482 5.48548 2.80604 5.49263 2.7833L5.5482 2.60774L5.40007 2.49834C5.3809 2.48415 5.39077 2.45377 5.41462 2.45356L5.59876 2.45216L5.65701 2.27747C5.66452 2.25484 5.69654 2.25484 5.70405 2.27747Z" fill="#F5F5F5"/>
<path d="M5.70405 3.19129L5.7623 3.36598L5.94644 3.36738C5.97029 3.36759 5.98016 3.39799 5.96099 3.41215L5.81286 3.52156L5.86843 3.69712C5.87564 3.71983 5.84974 3.73867 5.83033 3.72478L5.68053 3.6177L5.53073 3.72478C5.51132 3.73864 5.48548 3.71983 5.49263 3.69712L5.5482 3.52156L5.40007 3.41215C5.3809 3.39796 5.39077 3.36759 5.41462 3.36738L5.59876 3.36598L5.65701 3.19129C5.66452 3.16866 5.69654 3.16866 5.70405 3.19129Z" fill="#F5F5F5"/>
<path d="M5.70405 4.10514L5.7623 4.27983L5.94644 4.28124C5.97029 4.28144 5.98016 4.31185 5.96099 4.32601L5.81286 4.43542L5.86843 4.61097C5.87564 4.63369 5.84974 4.65253 5.83033 4.63864L5.68053 4.53156L5.53073 4.63864C5.51132 4.6525 5.48548 4.63369 5.49263 4.61097L5.5482 4.43542L5.40007 4.32601C5.3809 4.31182 5.39077 4.28144 5.41462 4.28124L5.59876 4.27983L5.65701 4.10514C5.66452 4.08255 5.69654 4.08255 5.70405 4.10514Z" fill="#F5F5F5"/>
<path d="M6.4134 0.91559L6.47165 1.09028L6.65579 1.09168C6.67964 1.09189 6.68951 1.1223 6.67034 1.13646L6.52221 1.24586L6.57778 1.42142C6.58499 1.44414 6.55909 1.46298 6.53968 1.44908L6.38988 1.342L6.24008 1.44908C6.22067 1.46295 6.19483 1.44414 6.20198 1.42142L6.25755 1.24586L6.10942 1.13646C6.09025 1.12227 6.10012 1.09189 6.12397 1.09168L6.30811 1.09028L6.36636 0.91559C6.37387 0.892964 6.40583 0.892964 6.4134 0.91559Z" fill="#F5F5F5"/>
<path d="M6.4134 1.82945L6.47165 2.00414L6.65579 2.00554C6.67964 2.00575 6.68951 2.03616 6.67034 2.05032L6.52221 2.15972L6.57778 2.33528C6.58499 2.35799 6.55909 2.37683 6.53968 2.36294L6.38988 2.25586L6.24008 2.36294C6.22067 2.3768 6.19483 2.35799 6.20198 2.33528L6.25755 2.15972L6.10942 2.05032C6.09025 2.03613 6.10012 2.00575 6.12397 2.00554L6.30811 2.00414L6.36636 1.82945C6.37387 1.80685 6.40583 1.80685 6.4134 1.82945Z" fill="#F5F5F5"/>
<path d="M6.4134 2.74327L6.47165 2.91796L6.65579 2.91936C6.67964 2.91957 6.68951 2.94997 6.67034 2.96413L6.52221 3.07354L6.57778 3.2491C6.58499 3.27181 6.55909 3.29065 6.53968 3.27676L6.38988 3.16968L6.24008 3.27676C6.22067 3.29062 6.19483 3.27181 6.20198 3.2491L6.25755 3.07354L6.10942 2.96413C6.09025 2.94994 6.10012 2.91957 6.12397 2.91936L6.30811 2.91796L6.36636 2.74327C6.37387 2.72067 6.40583 2.72067 6.4134 2.74327Z" fill="#F5F5F5"/>
<path d="M6.4134 3.65711L6.47165 3.8318L6.65579 3.8332C6.67964 3.83341 6.68951 3.86381 6.67034 3.87797L6.52221 3.98738L6.57778 4.16294C6.58499 4.18565 6.55909 4.20449 6.53968 4.1906L6.38988 4.08352L6.24008 4.1906C6.22067 4.20446 6.19483 4.18565 6.20198 4.16294L6.25755 3.98738L6.10942 3.87797C6.09025 3.86378 6.10012 3.83341 6.12397 3.8332L6.30811 3.8318L6.36636 3.65711C6.37387 3.63448 6.40583 3.63448 6.4134 3.65711Z" fill="#F5F5F5"/>
<path d="M6.4134 4.57095L6.47165 4.74564L6.65579 4.74704C6.67964 4.74725 6.68951 4.77766 6.67034 4.79182L6.52221 4.90122L6.57778 5.07678C6.58499 5.09949 6.55909 5.11833 6.53968 5.10444L6.38988 4.99736L6.24008 5.10444C6.22067 5.1183 6.19483 5.09949 6.20198 5.07678L6.25755 4.90122L6.10942 4.79182C6.09025 4.77763 6.10012 4.74725 6.12397 4.74704L6.30811 4.74564L6.36636 4.57095C6.37387 4.54829 6.40583 4.54829 6.4134 4.57095Z" fill="#F5F5F5"/>
</svg>
