<svg xmlns="http://www.w3.org/2000/svg" xmlns:xlink="http://www.w3.org/1999/xlink" viewBox="0 0 800 1200">
  <defs>
    <style>
      .cls-1, .cls-10, .cls-15 {
        fill: none;
      }

      .cls-2 {
        clip-path: url(#clip-path);
      }

      .cls-3 {
        fill: url(#Безымянный_градиент_9);
      }

      .cls-4 {
        fill: url(#Безымянный_градиент_6);
      }

      .cls-5 {
        fill: #001342;
      }

      .cls-6 {
        fill: #f76801;
      }

      .cls-7 {
        fill: #011340;
      }

      .cls-8 {
        fill: #0a2e7f;
      }

      .cls-9 {
        fill: #7ab1ee;
      }

      .cls-10, .cls-12, .cls-15 {
        stroke: #000;
        stroke-miterlimit: 10;
      }

      .cls-10 {
        stroke-width: 1.02347px;
      }

      .cls-11 {
        fill: url(#Безымянный_градиент_22);
      }

      .cls-12 {
        fill: #026ace;
        stroke-width: 0.58282px;
      }

      .cls-13 {
        fill: #042e7f;
      }

      .cls-14 {
        fill: #76ace8;
      }

      .cls-15 {
        stroke-width: 1.03195px;
      }
    </style>
    <clipPath id="clip-path">
      <rect class="cls-1" x="-3.28719" width="803.4011" height="1200"/>
    </clipPath>
    <linearGradient id="Безымянный_градиент_9" data-name="Безымянный градиент 9" x1="549.04349" y1="747.56389" x2="549.04349" y2="375.70658" gradientUnits="userSpaceOnUse">
      <stop offset="0" stop-color="#006ad8"/>
      <stop offset="0.10793" stop-color="#025fc8"/>
      <stop offset="0.32075" stop-color="#064cad"/>
      <stop offset="0.53841" stop-color="#093f9a"/>
      <stop offset="0.76191" stop-color="#0a388f"/>
      <stop offset="1" stop-color="#0b358b"/>
    </linearGradient>
    <linearGradient id="Безымянный_градиент_6" data-name="Безымянный градиент 6" x1="409.3497" y1="-1.99387" x2="409.3497" y2="948.44854" gradientUnits="userSpaceOnUse">
      <stop offset="0" stop-color="#fcab2e"/>
      <stop offset="0.08543" stop-color="#fcb135"/>
      <stop offset="0.3779" stop-color="#fdc248"/>
      <stop offset="0.67906" stop-color="#fdcd53"/>
      <stop offset="1" stop-color="#fdd057"/>
    </linearGradient>
    <linearGradient id="Безымянный_градиент_22" data-name="Безымянный градиент 22" x1="410.68029" y1="842.74366" x2="410.68029" y2="1223.35186" gradientUnits="userSpaceOnUse">
      <stop offset="0" stop-color="#f03e00"/>
      <stop offset="0" stop-color="#f14400"/>
      <stop offset="0.35942" stop-color="#f24700"/>
      <stop offset="0.66702" stop-color="#f45200"/>
      <stop offset="0.95467" stop-color="#f76301"/>
      <stop offset="1" stop-color="#f86701"/>
    </linearGradient>
  </defs>
  <title>Illustration1</title>
  <g id="Слой_6" data-name="Слой 6">
    <g class="cls-2">
      <path class="cls-3" d="M824.47118,747.56389s-283.06431-20.93566-394.05-45.85908-156.80541-53.83457-156.80541-53.83457S589.26306,474.40329,624.90066,457.45537s199.57052-81.74879,199.57052-81.74879Z"/>
      <path class="cls-4" d="M821.72353,408.77435,823.75558-1.99387H-3.28719l-1.769,950.44241L664.503,942.4373l155.45152,1.00188,3.80105-152.95095s-319.03124-21.03935-375.92853-26.04872-173.73994-15.0281-201.17257-30.05621-35.5608-25.04684-30.48069-37.06933,85.34594-71.133,200.15654-122.22859S821.72353,408.77435,821.72353,408.77435Z"/>
      <polygon class="cls-5" points="-15.331 840.671 555.77 866.592 557.777 944.353 -16.335 948.34 -15.331 840.671"/>
      <polygon class="cls-6" points="821.748 876.639 776.247 875.31 775.578 943.102 822.417 945.096 821.748 876.639"/>
      <polygon class="cls-7" points="668.964 874.867 776.917 875.532 775.997 943.185 668.518 942.659 668.964 874.867"/>
      <g>
        <polygon class="cls-8" points="-23.361 836.684 547.74 862.604 549.747 940.365 -24.365 944.353 -23.361 836.684"/>
        <polygon class="cls-8" points="-22.023 836.019 549.078 861.939 551.086 939.7 -23.026 943.688 -22.023 836.019"/>
        <path class="cls-9" d="M549.60808,881.00109,527.28527,879.598l.11151,23.4834-.18315-.00834-.15143-28.45978-21.87927-1.85388-1.87478-.47228-23.531,10.96629-.55759,1.9939-23.1136.21759-.975-2.87608-23.531.22151L428.89,884.04949l-21.0442,6.73631.0047.28912-.77828-.01407-.11859-12.7921-23.531-1.9939-48.06575,5.64931-23.531.22151-.89217-.50976-.47962-.02179.8142-2.34845-23.531.22151-.43073.50957-23.32332,7.466-.89217-7.9982-.14529-.0066.81445-4.51231-23.531-1.9939-.89217,5.43465-.16352-.00741.83262-10.41189-23.531-1.9939-.89216,11.3351-.16736-.0076.83645-11.65977-23.531,10.96629-.89217-.377-.46621-.02116.80072,2.392-23.531.22157-1.61705.38774-.47066-.02136,1.53-3.24644-23.531.22157,1.29526,4.1595-.1243-.0056-1.394-3.71082-23.531,7.53239.31972.14556-.7658-.03474-.44609-.00006-23.531-1.99384.00332-4.86867-.11482-.00523-.11157-.11082-23.531-1.99383-48.40033,9.96937-47.95418.22151-.33458,58.85162L551.03,940.31881Zm-262.89689-.46457.38428-.29012-.2504.29622Z"/>
        <g>
          <g>
            <g>
              <g>
                <line class="cls-10" x1="-0.16459" y1="837.01126" x2="-0.16459" y2="943.93271"/>
                <line class="cls-10" x1="25.26229" y1="838.20205" x2="25.26229" y2="943.98809"/>
              </g>
              <g>
                <line class="cls-10" x1="50.70312" y1="839.39284" x2="50.68918" y2="943.65578"/>
                <line class="cls-10" x1="76.11606" y1="840.52823" x2="76.11606" y2="943.76654"/>
              </g>
            </g>
            <g>
              <g>
                <line class="cls-10" x1="101.54294" y1="841.74672" x2="101.54294" y2="943.65578"/>
                <line class="cls-10" x1="126.96982" y1="842.96519" x2="126.96982" y2="943.32347"/>
              </g>
              <g>
                <line class="cls-10" x1="152.3967" y1="844.18367" x2="152.3967" y2="942.99116"/>
                <line class="cls-10" x1="177.82358" y1="845.18062" x2="177.82358" y2="942.65883"/>
              </g>
            </g>
          </g>
          <g>
            <g>
              <g>
                <line class="cls-10" x1="203.25046" y1="846.28832" x2="203.25046" y2="942.21576"/>
                <line class="cls-10" x1="228.67734" y1="847.50679" x2="228.67734" y2="942.4373"/>
              </g>
              <g>
                <line class="cls-10" x1="254.10422" y1="848.83604" x2="254.10422" y2="942.10499"/>
                <line class="cls-10" x1="279.53111" y1="850.05452" x2="279.53111" y2="942.10499"/>
              </g>
            </g>
            <g>
              <g>
                <line class="cls-10" x1="304.95799" y1="851.16223" x2="304.95799" y2="941.99421"/>
                <line class="cls-10" x1="330.38487" y1="852.38071" x2="330.38487" y2="941.44037"/>
              </g>
              <g>
                <line class="cls-10" x1="355.81175" y1="853.37765" x2="355.81175" y2="941.44037"/>
                <line class="cls-10" x1="381.23863" y1="854.59612" x2="381.23863" y2="941.21882"/>
              </g>
            </g>
          </g>
          <g>
            <g>
              <g>
                <line class="cls-10" x1="406.66551" y1="855.70382" x2="406.66551" y2="941.44037"/>
                <line class="cls-10" x1="432.09239" y1="856.92231" x2="432.09239" y2="940.77574"/>
              </g>
              <g>
                <line class="cls-10" x1="457.51927" y1="858.03001" x2="457.51927" y2="940.5542"/>
                <line class="cls-10" x1="482.94615" y1="859.13772" x2="482.94615" y2="940.66498"/>
              </g>
            </g>
            <g>
              <line class="cls-10" x1="508.37304" y1="860.46697" x2="508.37304" y2="940.44343"/>
              <line class="cls-10" x1="533.79992" y1="861.4639" x2="533.79992" y2="940.5542"/>
            </g>
          </g>
        </g>
        <path class="cls-5" d="M526.94135,886.66421l-21.87926-1.85388-1.87478-.47228-23.531,10.96629-.55759,1.9939-23.1136.21758-.975-2.87607-23.531.22151-2.70985,1.23916-21.0442,6.73631.0047.28912-.77828-.01407-.11859-12.7921-23.531-1.9939-48.06575,5.64931-23.531.22151-.89217-.50976-.47962-.02179.8142-2.34845-23.531.22151-.43073.50957-23.32332,7.466-.89217-7.9982-.14529-.0066.81445-4.51231-23.531-1.9939-.31045-.02024-.16353-.00741.25091-4.957-22.77126-2.0077h-.29275l-.43911-.02077-.25093-.29769-23.531,10.96629-.89217-.377-.4662-.02116.80072,2.392-23.531.22157-1.61705.38773-.47066-.02135,1.53005-3.24644-23.531.22157.01623.43484-.1243-.0056-.115.01384-23.531,7.53239.31972.14556-.76581-.03474-.44608-.00006-23.531-1.99384.00332-4.86867-.11482-.00523-.11157-.11082-23.531-1.99383-48.40033,9.96937-47.95418.22151-.33458,58.85162L551.253,952.162l-1.22672-58.99-22.86185-1.52309m-240.57408.93852.38428-.29012-.2504.29622Z"/>
      </g>
      <path class="cls-11" d="M34.24116,1087.699c-48.629-20.87758-36.42957-30.14407-19.22677-39.18731s28.33418-15.072,168.99284-38.18242,637.51793-48.23048,637.51793-48.23048l-1.012-7.03359-190.066,4.88685.5994-106.57441-238.20971-10.634,154.5687,14.6217.635,104.70551L-.16458,976.166-.13,1060.5697l.06669,162.78216H820.85055l.67461-49.24s-155.83769-14.06725-291.43674-22.10566S93.71538,1113.23262,34.24116,1087.699Z"/>
      <g>
        <polygon class="cls-7" points="668.978 875.199 778.589 875.862 777.655 943.268 668.525 942.744 668.978 875.199"/>
        <rect class="cls-12" x="762.92211" y="876.70393" width="14.95253" height="65.94146"/>
        <rect class="cls-12" x="748.2742" y="876.91244" width="14.95253" height="65.94146"/>
        <g>
          <path class="cls-13" d="M743.35961,922.83958c-.46052-8.34172-3.22364-15.36633-3.22364-23.70811s.921-22.83.921-22.83l-72.30174-.87807-.16339,23.82884,16.05134,2.6233,18.88136-3.5123,18.8813,3.95134v23.70811l-53.88091-.439v-16.569l-.23022,33.58174h74.14382S743.82013,931.18137,743.35961,922.83958Z"/>
          <polygon class="cls-13" points="668.525 899.241 668.525 909.015 668.592 899.252 668.525 899.241"/>
          <polygon class="cls-14" points="721.945 902.525 703.64 898.325 683.377 902.034 669.331 899.634 669.331 892.435 683.031 895.38 694.429 893.635 708.302 892.708 722.061 896.253 721.945 902.525"/>
        </g>
        <line class="cls-15" x1="735.18534" y1="876.61757" x2="735.18534" y2="942.43376"/>
        <line class="cls-15" x1="721.71512" y1="876.61757" x2="721.71512" y2="942.43376"/>
        <line class="cls-15" x1="708.24489" y1="926.14185" x2="708.24489" y2="941.77925"/>
        <line class="cls-15" x1="708.24489" y1="875.96306" x2="708.24489" y2="899.52527"/>
        <line class="cls-15" x1="694.77467" y1="926.03276" x2="694.77467" y2="941.77925"/>
        <line class="cls-15" x1="694.77467" y1="875.96306" x2="694.77467" y2="900.17979"/>
        <line class="cls-15" x1="683.03139" y1="925.8146" x2="683.03139" y2="942.10651"/>
        <line class="cls-15" x1="683.03139" y1="901.81604" x2="683.03139" y2="876.29032"/>
        <line class="cls-15" x1="669.56117" y1="876.29032" x2="669.56117" y2="942.10651"/>
      </g>
    </g>
  </g>
</svg>
