<svg xmlns="http://www.w3.org/2000/svg" xmlns:xlink="http://www.w3.org/1999/xlink" viewBox="0 0 800 1200">
  <defs>
    <style>
      .cls-1 {
        fill: none;
      }

      .cls-2 {
        fill: url(#Безымянный_градиент_37);
      }

      .cls-3 {
        clip-path: url(#clip-path);
      }

      .cls-4 {
        fill: url(#Безымянный_градиент_9);
      }

      .cls-5 {
        fill: url(#Безымянный_градиент_6);
      }

      .cls-6 {
        fill: #f76801;
      }

      .cls-7 {
        fill: url(#Безымянный_градиент_22);
      }

      .cls-8 {
        clip-path: url(#clip-path-2);
      }

      .cls-9 {
        fill: #fdfdfe;
      }

      .cls-10 {
        fill: #7cb3ec;
      }

      .cls-11 {
        fill: #f8fffa;
      }

      .cls-12 {
        fill: #fffffb;
      }

      .cls-13 {
        fill: #2c55a2;
      }

      .cls-14 {
        fill: url(#Безымянный_градиент_40);
      }

      .cls-15 {
        fill: #7db2ed;
      }

      .cls-16 {
        fill: #001340;
      }

      .cls-17 {
        fill: url(#Безымянный_градиент_40-2);
      }

      .cls-18 {
        fill: #fff;
      }

      .cls-19 {
        fill: #031951;
      }

      .cls-20 {
        fill: #00133f;
      }
    </style>
    <linearGradient id="Безымянный_градиент_37" data-name="Безымянный градиент 37" x1="761.75459" y1="1221.3925" x2="39.01452" y2="-30.43001" gradientUnits="userSpaceOnUse">
      <stop offset="0" stop-color="#fdd057"/>
      <stop offset="0.16152" stop-color="#fdca52"/>
      <stop offset="0.3866" stop-color="#fcb743"/>
      <stop offset="0.64909" stop-color="#fa9a2b"/>
      <stop offset="0.93774" stop-color="#f87109"/>
      <stop offset="1" stop-color="#f86701"/>
    </linearGradient>
    <clipPath id="clip-path">
      <rect class="cls-1" x="-823.28719" width="803.4011" height="1200"/>
    </clipPath>
    <linearGradient id="Безымянный_градиент_9" data-name="Безымянный градиент 9" x1="-270.95651" y1="747.56389" x2="-270.95651" y2="375.70658" gradientUnits="userSpaceOnUse">
      <stop offset="0" stop-color="#006ad8"/>
      <stop offset="0.10793" stop-color="#025fc8"/>
      <stop offset="0.32075" stop-color="#064cad"/>
      <stop offset="0.53841" stop-color="#093f9a"/>
      <stop offset="0.76191" stop-color="#0a388f"/>
      <stop offset="1" stop-color="#0b358b"/>
    </linearGradient>
    <linearGradient id="Безымянный_градиент_6" data-name="Безымянный градиент 6" x1="-410.6503" y1="-1.99387" x2="-410.6503" y2="948.44854" gradientUnits="userSpaceOnUse">
      <stop offset="0" stop-color="#fcab2e"/>
      <stop offset="0.08543" stop-color="#fcb135"/>
      <stop offset="0.3779" stop-color="#fdc248"/>
      <stop offset="0.67906" stop-color="#fdcd53"/>
      <stop offset="1" stop-color="#fdd057"/>
    </linearGradient>
    <linearGradient id="Безымянный_градиент_22" data-name="Безымянный градиент 22" x1="-409.31971" y1="842.74366" x2="-409.31971" y2="1223.35186" gradientUnits="userSpaceOnUse">
      <stop offset="0" stop-color="#f03e00"/>
      <stop offset="0" stop-color="#f14400"/>
      <stop offset="0.35942" stop-color="#f24700"/>
      <stop offset="0.66702" stop-color="#f45200"/>
      <stop offset="0.95467" stop-color="#f76301"/>
      <stop offset="1" stop-color="#f86701"/>
    </linearGradient>
    <clipPath id="clip-path-2">
      <rect class="cls-1" x="-2.29336" y="-7.01528" width="805.35584" height="1206.51341"/>
    </clipPath>
    <linearGradient id="Безымянный_градиент_40" data-name="Безымянный градиент 40" x1="673.27483" y1="808.31371" x2="673.27483" y2="-12.5395" gradientUnits="userSpaceOnUse">
      <stop offset="0" stop-color="#0a2f80"/>
      <stop offset="0.14539" stop-color="#082a75"/>
      <stop offset="0.70588" stop-color="#02194f"/>
      <stop offset="1" stop-color="#001340"/>
    </linearGradient>
    <linearGradient id="Безымянный_градиент_40-2" x1="274.57071" y1="963.12953" x2="274.57071" y2="395.91073" xlink:href="#Безымянный_градиент_40"/>
  </defs>
  <title>Illustration2</title>
  <g id="Слой_4" data-name="Слой 4">
    <rect class="cls-2" x="-2.29336" y="-6.58089" width="805.35584" height="1204.12427"/>
  </g>
  <g id="Слой_6" data-name="Слой 6">
    <g class="cls-3">
      <path class="cls-4" d="M4.47118,747.56389s-283.06431-20.93566-394.05-45.85908-156.80541-53.83457-156.80541-53.83457,315.64725-173.46695,351.28485-190.41487S4.47118,375.70658,4.47118,375.70658Z"/>
      <path class="cls-5" d="M1.72353,408.77435,3.75558-1.99387H-823.28719l-1.769,950.44241L-155.497,942.4373-.04547,943.43918,3.75558,790.48823s-319.03124-21.03935-375.92853-26.04872-173.73994-15.0281-201.17257-30.05621-35.5608-25.04684-30.48069-37.06933,85.34594-71.133,200.15654-122.22859S1.72353,408.77435,1.72353,408.77435Z"/>
      <polygon class="cls-6" points="1.748 876.639 -43.753 875.31 -44.422 943.102 2.417 945.096 1.748 876.639"/>
      <path class="cls-7" d="M-785.75884,1087.699c-48.629-20.87758-36.42957-30.14407-19.22677-39.18731s28.33418-15.072,168.99284-38.18242S1.52516,962.09877,1.52516,962.09877l-1.012-7.03359-190.066,4.88685.5994-106.57441-238.20971-10.634,154.5687,14.6217.635,104.70551L-820.16458,976.166l.0346,84.40369.06669,162.78216H.85055l.67461-49.24s-155.83769-14.06725-291.43674-22.10566S-726.28462,1113.23262-785.75884,1087.699Z"/>
    </g>
  </g>
  <g id="Слой_7" data-name="Слой 7">
    <g class="cls-8">
      <path class="cls-9" d="M702.08485,738.92109s-2.634,71.46253-8.16836,93.32868c-1.43007,5.65019-8.16836,19.76373-8.16836,19.76373l21.304-1.17365Z"/>
      <polygon class="cls-9" points="721.292 763.955 722.782 850.421 770.136 850.916 770.136 770.668 721.292 763.955"/>
      <path class="cls-10" d="M720.62923,764.83353s8.60181,14.0542,21.2178,18.44614a150.04957,150.04957,0,0,0,25.232,6.14871l.57345-20.64211Z"/>
      <path class="cls-11" d="M625.37313,386.35827l18.87553,1.97637s-11.92138,397.25079-12.91483,407.13265-11.92139,56.32661-15.89518,60.27935-19.869,7.90549-19.869,7.90549,6.95414,0,11.92139-20.75191,15.89518-391.32167,15.89518-391.32167Z"/>
      <path class="cls-11" d="M659.15039,398.2165l18.87553,1.97637s-11.92138,397.2508-12.91483,407.13266-11.92139,56.3266-15.89518,60.27935-19.869,7.90548-19.869,7.90548,6.95414,0,11.92139-20.7519S657.1635,463.43678,657.1635,463.43678Z"/>
      <path class="cls-12" d="M372.21384,898.92031s31.79036-7.90549,59.60693-34.25712,62.25613-89.59553,68.87912-126.48781,14.57058-117.26474,18.54438-280.64484,10.59678-345.20633,10.59678-345.20633L535.13945,6.9177,565.60521,2.965,531.16565,636.72161s0,130.44056-21.19357,180.50865-74.17751,65.87907-79.47591,68.51424S372.21384,898.92031,372.21384,898.92031Z"/>
      <polygon class="cls-13" points="764.562 770.763 764.783 846.743 812.91 848.5 812.91 708.836 764.562 770.763"/>
      <path class="cls-14" d="M818.64951-7.26917,527.90015-12.5395l175.5093,773.42028s22.51817,7.90549,41.06255,9.22307l18.54438,1.31758,1.32459,36.89228,51.65934-25.034L818.62308.61865Z"/>
      <path class="cls-15" d="M528.82461-8.91615l39.73795-2.96456L544.71979,237.14218s-8.941-135.38149-10.92794-158.10977S528.82461-8.91615,528.82461-8.91615Z"/>
      <path class="cls-16" d="M579.77565,230.99805s5.29839,648.25005,9.27219,654.838,11.92138,13.17581,11.92138,13.17581-6.623,6.58791-18.54438,9.22307-71.52831,5.27033-71.52831,5.27033L501.62434,772.524s27.81657-152.83945,29.14117-205.5427S541.36229,369.3441,538.7131,333.7694s26.492-308.314,26.492-308.314Z"/>
      <path class="cls-17" d="M-16.5098,395.91073S76.87439,621.21715,162.311,729.91762,319.2759,899.88562,372.92214,893.9565s107.29247-39.52744,129.14835-122.53507l63.58072,112.65321s-176.83389,11.85824-309.956,33.59833S-.61462,963.12953-.61462,963.12953Z"/>
      <path class="cls-18" d="M-3.26381,951.93008s548.2329-75.66324,613.7306-90.03472c60.04846-13.17582,200.67666-18.22655,200.67666-18.22655l-.77268,362.88388-813.193.1098Z"/>
      <polygon class="cls-10" points="817.987 996.069 -8.562 1096.864 -5.251 1206.223 813.351 1206.223 817.987 996.069"/>
      <path class="cls-10" d="M-8.67259,1028.6792l823.90022-80.37246V911.41446S518.07605,931.17818,476.24082,914.379c-46.16418-18.53747-13.57714-28.328-13.57714-28.328L53.69392,943.36581l-58.28233,8.56427Z"/>
      <polygon class="cls-10" points="812.247 868.044 571.502 868.868 583.257 866.891 812.247 860.139 812.247 868.044"/>
      <polygon class="cls-10" points="798.56 856.625 587.838 866.068 587.783 864.366 600.753 857.943 809.157 847.841 811.806 857.503 798.56 856.625"/>
      <path class="cls-19" d="M641.48447,382.18593S618.63515,698.40546,620.622,752.7557s-3.97379,82.01944-11.92138,92.88949-9.93449,11.85823-13.90828,7.90548a77.30481,77.30481,0,0,1-7.9476-9.88186l-1.54536,21.7401,15.45365-6.58791s48.01669-2.96456,49.67244-3.62335,3.3115-3.62335,3.3115-3.62335l-9.27219-328.07777Z"/>
      <path class="cls-20" d="M649.54244,855.30745l21.63511-.43919s-6.18146-176.99511-6.18146-184.90059-.88306-68.075.44153-70.71021-3.97379-61.92632-3.97379-61.92632-6.18146,83.886-6.623,97.06183-.44154,77.7373-.44154,100.13618-2.64919,82.12924-3.53226,92.6699-2.20766,14.0542-2.20766,14.0542Z"/>
      <polygon class="cls-20" points="668.902 854.649 687.073 852.231 682.162 641.384 673.322 592.058 663.009 589.156 668.902 854.649"/>
      <path class="cls-20" d="M702.52638,850.91551l6.29184-.98819s-2.42843-96.29324-3.09073-97.94021-3.97379-11.85824-3.97379-11.85824Z"/>
      <path class="cls-19" d="M814.28586,643.69333l-1.68556,18.30628L682.4618,625.51017s72.91736,10.93784,85.05995,12.1722S814.28586,643.69333,814.28586,643.69333Z"/>
      <path class="cls-19" d="M816.2705,603.593l-1.16637,22.35006L670.93956,591.233s80.42142,7.90522,93.79171,8.50889S816.2705,603.593,816.2705,603.593Z"/>
      <path class="cls-19" d="M812.89485,543.56225l-1.19948,22.97528L663.53893,530.86172s82.64867,8.12346,96.38928,8.74353S812.89485,543.56225,812.89485,543.56225Z"/>
      <path class="cls-19" d="M815.976,406.80276l-.45109,32.17836L634.6841,401.4009s100.36869,4.51868,117.0235,4.25S815.976,406.80276,815.976,406.80276Z"/>
      <path class="cls-15" d="M653.99916,530.12137l18.72376-1.39684L654.62007,648.008s2.65574-65.73781,1.71956-76.44694S653.99916,530.12137,653.99916,530.12137Z"/>
      <path class="cls-15" d="M667.35552,587.05593l14.86035-1.10862-14.36755,94.6708s2.10777-52.17363,1.36475-60.67307S667.35552,587.05593,667.35552,587.05593Z"/>
      <path class="cls-15" d="M677.62116,623.71885l12.21115-.911-11.8062,77.79357s1.732-42.87249,1.12145-49.85671S677.62116,623.71885,677.62116,623.71885Z"/>
      <path class="cls-15" d="M699.0907,741.81246l7.46467-.55688-7.21713,47.55518s1.05877-26.20794.68554-30.47739S699.0907,741.81246,699.0907,741.81246Z"/>
      <path class="cls-15" d="M621.76726,398.26415l26.89212-2.00623-19.20668,170.06s-2.97932-93.15475-4.32392-108.5358S621.76726,398.26415,621.76726,398.26415Z"/>
    </g>
  </g>
</svg>
