<svg xmlns="http://www.w3.org/2000/svg" xmlns:xlink="http://www.w3.org/1999/xlink" viewBox="0 0 800 1200">
  <defs>
    <style>
      .cls-1 {
        fill: none;
      }

      .cls-2 {
        clip-path: url(#clip-path);
      }

      .cls-3 {
        fill: url(#Безымянный_градиент_51);
      }

      .cls-4 {
        clip-path: url(#clip-path-2);
      }

      .cls-5 {
        fill: url(#Безымянный_градиент_50);
      }

      .cls-6 {
        fill: #fffffb;
      }

      .cls-7 {
        fill: url(#Безымянный_градиент_22);
      }

      .cls-8 {
        fill: url(#Безымянный_градиент_51-2);
      }

      .cls-9 {
        fill: url(#Безымянный_градиент_37);
      }

      .cls-10 {
        fill: url(#Безымянный_градиент_37-2);
      }

      .cls-11 {
        fill: url(#Безымянный_градиент_37-3);
      }

      .cls-12 {
        fill: url(#Безымянный_градиент_37-4);
      }

      .cls-13 {
        fill: url(#Безымянный_градиент_35);
      }

      .cls-14 {
        fill: #7cb3ec;
      }

      .cls-15 {
        fill: url(#Безымянный_градиент_40);
      }

      .cls-16 {
        fill: url(#Безымянный_градиент_6);
      }

      .cls-17 {
        fill: url(#Безымянный_градиент_6-2);
      }

      .cls-18 {
        fill: url(#Безымянный_градиент_51-3);
      }

      .cls-19 {
        fill: url(#Безымянный_градиент_51-4);
      }

      .cls-20 {
        fill: url(#Безымянный_градиент_6-3);
      }
    </style>
    <clipPath id="clip-path">
      <rect class="cls-1" x="-1056.86303" y="-30.47225" width="805.35584" height="1206.51341"/>
    </clipPath>
    <linearGradient id="Безымянный_градиент_51" data-name="Безымянный градиент 51" x1="23.5079" y1="705.97264" x2="161.76161" y2="945.43509" gradientUnits="userSpaceOnUse">
      <stop offset="0" stop-color="#f03e00"/>
      <stop offset="0" stop-color="#f14400"/>
      <stop offset="1" stop-color="#f14500"/>
    </linearGradient>
    <clipPath id="clip-path-2">
      <rect class="cls-1" x="-0.09223" y="0.23576" width="800" height="1200"/>
    </clipPath>
    <linearGradient id="Безымянный_градиент_50" data-name="Безымянный градиент 50" x1="401.01186" y1="1213.67004" x2="401.01186" y2="-8.65781" gradientUnits="userSpaceOnUse">
      <stop offset="0" stop-color="#006ad8"/>
      <stop offset="0.20142" stop-color="#0166d2"/>
      <stop offset="0.45819" stop-color="#035bc3"/>
      <stop offset="0.74364" stop-color="#0749a9"/>
      <stop offset="1" stop-color="#0b358b"/>
    </linearGradient>
    <linearGradient id="Безымянный_градиент_22" data-name="Безымянный градиент 22" x1="216.7018" y1="380.668" x2="517.00731" y2="900.81239" gradientUnits="userSpaceOnUse">
      <stop offset="0" stop-color="#f03e00"/>
      <stop offset="0" stop-color="#f14400"/>
      <stop offset="0.35942" stop-color="#f24700"/>
      <stop offset="0.66702" stop-color="#f45200"/>
      <stop offset="0.95467" stop-color="#f76301"/>
      <stop offset="1" stop-color="#f86701"/>
    </linearGradient>
    <linearGradient id="Безымянный_градиент_51-2" x1="173.35389" y1="591.03968" x2="327.63693" y2="858.26574" xlink:href="#Безымянный_градиент_51"/>
    <linearGradient id="Безымянный_градиент_37" data-name="Безымянный градиент 37" x1="50.48707" y1="789.8216" x2="497.69436" y2="789.8216" gradientTransform="matrix(0.82225, 0.56913, -0.56913, 0.82225, 449.31506, 44.14543)" gradientUnits="userSpaceOnUse">
      <stop offset="0" stop-color="#fdd057"/>
      <stop offset="0.16152" stop-color="#fdca52"/>
      <stop offset="0.3866" stop-color="#fcb743"/>
      <stop offset="0.64909" stop-color="#fa9a2b"/>
      <stop offset="0.93774" stop-color="#f87109"/>
      <stop offset="1" stop-color="#f86701"/>
    </linearGradient>
    <linearGradient id="Безымянный_градиент_37-2" x1="73.41071" y1="891.63228" x2="520.618" y2="891.63228" xlink:href="#Безымянный_градиент_37"/>
    <linearGradient id="Безымянный_градиент_37-3" x1="82.02947" y1="608.70797" x2="529.23677" y2="608.70797" xlink:href="#Безымянный_градиент_37"/>
    <linearGradient id="Безымянный_градиент_37-4" x1="118.61772" y1="333.17018" x2="565.82502" y2="333.17018" gradientTransform="matrix(0.98671, 0.6745, -0.73453, 1.04898, 521.99298, -40.08126)" xlink:href="#Безымянный_градиент_37"/>
    <linearGradient id="Безымянный_градиент_35" data-name="Безымянный градиент 35" x1="-1.29954" y1="952.5484" x2="806.66263" y2="952.5484" gradientUnits="userSpaceOnUse">
      <stop offset="0" stop-color="#fff"/>
      <stop offset="1" stop-color="#ccc"/>
    </linearGradient>
    <linearGradient id="Безымянный_градиент_40" data-name="Безымянный градиент 40" x1="390.30148" y1="1200.14971" x2="390.30148" y2="1054.19525" gradientUnits="userSpaceOnUse">
      <stop offset="0" stop-color="#0a2f80"/>
      <stop offset="0.14539" stop-color="#082a75"/>
      <stop offset="0.70588" stop-color="#02194f"/>
      <stop offset="1" stop-color="#001340"/>
    </linearGradient>
    <linearGradient id="Безымянный_градиент_6" data-name="Безымянный градиент 6" x1="147.91282" y1="928.71134" x2="378.57299" y2="928.71134" gradientUnits="userSpaceOnUse">
      <stop offset="0" stop-color="#fcab2e"/>
      <stop offset="0.08543" stop-color="#fcb135"/>
      <stop offset="0.3779" stop-color="#fdc248"/>
      <stop offset="0.67906" stop-color="#fdcd53"/>
      <stop offset="1" stop-color="#fdd057"/>
    </linearGradient>
    <linearGradient id="Безымянный_градиент_6-2" x1="-1.29954" y1="1019.76998" x2="100.34731" y2="1019.76998" xlink:href="#Безымянный_градиент_6"/>
    <linearGradient id="Безымянный_градиент_51-3" x1="311.57453" y1="442.32172" x2="478.34203" y2="731.1715" xlink:href="#Безымянный_градиент_51"/>
    <linearGradient id="Безымянный_градиент_51-4" x1="541.17273" y1="192.3757" x2="718.16744" y2="498.93954" xlink:href="#Безымянный_градиент_51"/>
    <linearGradient id="Безымянный_градиент_6-3" x1="533.95701" y1="627.51623" x2="776.14285" y2="627.51623" gradientTransform="matrix(1.16795, 0.11017, -0.10625, 1.12643, -24.96218, -147.22733)" xlink:href="#Безымянный_градиент_6"/>
  </defs>
  <title>Illustration3</title>
  <g id="Слой_7" data-name="Слой 7">
    <g class="cls-2">
      <path class="cls-3" d="M-101.14226,777.93944S35.42413,881.58918,85.11811,896.08258,226.838,912.33275,268.80175,883.346,179.3526,747.63507,163.89226,733.14168s30.28937,42.64346,2.57672,58.41277c-35.89009,20.42251-42.7,15.37178-114.48019,19.76372C-14.14637,815.36471-101.14226,777.93944-101.14226,777.93944Z"/>
    </g>
    <g class="cls-4">
      <rect class="cls-5" x="-7.42849" y="-8.65781" width="816.88071" height="1222.32785"/>
      <path class="cls-6" d="M358.37394,298.35967s200.68738,26.06329,268.45195,23.457,221.538-10.42531,281.48359-31.27595,54.73292-93.82787,54.73292-93.82787,33.88229,75.58356-2.60633,125.10382-265.84561,75.58356-333.61018,86.00888-205.9-36.48861-205.9-36.48861Z"/>
      <path class="cls-6" d="M143.35175,538.75s138.16178,17.50411,184.81381,15.7537,152.51625-7.00165,193.78535-21.00494,37.68048-63.01481,37.68048-63.01481,23.326,50.76193-1.7943,84.01975-183.0195,50.76193-229.67153,57.76357-141.7504-24.50575-141.7504-24.50575Z"/>
      <path class="cls-6" d="M26.06692,682.09808S132.1177,699.6022,167.92706,697.85179s117.069-7.00165,148.74655-21.00494S345.59655,613.832,345.59655,613.832s17.90468,50.76193-1.37728,84.01975-140.48286,50.76193-176.29221,57.76357S59.12171,731.1096,59.12171,731.1096Z"/>
      <path class="cls-6" d="M-23.71182,790.81312S82.339,808.31724,118.14832,806.56682s117.06905-7.00164,148.74655-21.00493,28.92295-63.01481,28.92295-63.01481,17.90467,50.76193-1.37729,84.01974S153.95767,857.32875,118.14832,864.3304,9.343,839.82464,9.343,839.82464Z"/>
      <path class="cls-6" d="M-14.33119,861.93483S91.71959,879.43894,127.529,877.68853,244.598,870.68688,276.2755,856.68359s28.92295-63.01481,28.92295-63.01481,17.90467,50.76193-1.37729,84.01975S163.3383,928.45046,127.529,935.4521,18.7236,910.94634,18.7236,910.94634Z"/>
      <path class="cls-7" d="M808.29158,732.63934,802.42734,341.6899s-138.787,19.54747-197.42946,23.457-117.28483-11.72848-144.6513-23.457-101.64685-43.00444-101.64685-43.00444l37.1402,115.33008s66.4614,21.50222,99.6921,41.04969,74.2804,41.0497,66.46141,64.50666-25.41171,35.18545-86.00888,46.91393-195.40011,8.6229-227.94524,1.629C210.13894,559.97,143.026,538.57638,143.026,538.57638l31.92753,74.82338s60.59717,23.457,97.73736,43.00444,54.73293,23.457,48.86868,37.14019-41.04969,13.68323-76.23514,15.638-132.92281,1.95475-146.606,1.95475S24.438,677.90641,24.438,677.90641l15.638,58.64242s54.73292,17.59273,86.00887,33.2307,39.09495,27.36646,27.36647,31.276S-4.88325,806.91973-4.88325,806.91973l1.95475,31.276s35.18545,5.86425,33.2307,19.54748S-3.58008,876.63905-3.58008,876.63905l2.60633,180.48832Z"/>
      <path class="cls-8" d="M23.46059,677.58062s161.158,102.51563,219.80046,116.85045,167.23948,16.07236,216.75974-12.59726S354.46444,647.60783,336.22014,633.273s35.74361,42.17688,3.04072,57.77364c-42.35286,20.19905-50.389,15.20359-135.09475,19.54747C126.12192,714.5964,23.46059,677.58062,23.46059,677.58062Z"/>
      <path class="cls-9" d="M404.63629,983.17277l-19.54747,7.819S295.55337,904.24852,252.166,865.23635C174.6277,795.517,39.09856,750.55785,39.09856,750.55785L38.447,726.4493s147.173,54.98362,227.40226,122.49749C303.12719,880.31662,404.63629,983.17277,404.63629,983.17277Z"/>
      <path class="cls-10" d="M365.54135,1079.93275l-19.54748,7.819s-89.53544-86.74323-132.92281-125.7554C135.53276,892.277.00362,847.31784.00362,847.31784L-.648,823.20929S146.525,878.19291,226.7543,945.70678C264.03225,977.0766,365.54135,1079.93275,365.54135,1079.93275Z"/>
      <path class="cls-11" d="M533.6496,852.20471l-19.54747,7.819s-89.53544-86.74323-132.92281-125.7554C303.641,664.549,168.11188,619.58979,168.11188,619.58979l-.65158-24.10855s147.17294,54.98362,227.40225,122.49749C432.14051,749.34855,533.6496,852.20471,533.6496,852.20471Z"/>
      <path class="cls-12" d="M829.90279,699.1519l-24.36247,10.57437S699.14667,605.40609,647.462,558.62108c-92.36662-83.61031-257.07487-133.90085-257.07487-133.90085l.22117-30.02119s178.59768,62.29126,274.366,143.03861C709.47236,575.25631,829.90279,699.1519,829.90279,699.1519Z"/>
      <g>
        <polygon class="cls-13" points="806.663 704.947 806.663 1077.652 -1.3 1200.15 -1.3 1043.77 806.663 704.947"/>
        <polygon class="cls-14" points="751.93 727.427 633.528 1091.72 611.188 1093.942 727.356 736.312 751.93 727.427"/>
        <polygon class="cls-14" points="544.944 814.847 450.599 1130.116 432.654 1132.059 525.205 822.619 544.944 814.847"/>
        <polygon class="cls-14" points="407.894 872.241 320.189 1148.757 303.641 1150.441 389.813 879.68 407.894 872.241"/>
        <polygon class="cls-14" points="306.935 914.465 228.564 1169.198 213.723 1170.805 290.772 921.381 306.935 914.465"/>
        <polygon class="cls-14" points="228.6 947.281 162.708 1167.233 150.193 1168.588 214.917 953.037 228.6 947.281"/>
        <polygon class="cls-14" points="176.637 969.109 112.552 1184.043 100.347 1185.364 163.279 974.702 176.637 969.109"/>
        <polygon class="cls-14" points="130.212 988.44 67.592 1198.703 55.388 1200.025 116.908 994.141 130.212 988.44"/>
        <polygon class="cls-14" points="90.804 1005.091 28.497 1213.364 16.293 1214.685 77.379 1010.376 90.804 1005.091"/>
      </g>
      <polygon class="cls-15" points="809.269 1054.195 806.663 1200.15 -28.666 1200.15 809.269 1054.195"/>
      <path class="cls-16" d="M147.91282,774.99219S237.8312,907.163,260.31079,944.81628s35.18545,111.96886,44.95918,130.79548S344.36492,1200.462,344.36492,1200.462l34.20807.99087s-66.4614-211.05634-68.41615-240.78259.97738-95.124,1.95475-108.00536,13.24884-182.2517,13.24884-182.2517l-25.7375-14.44341s5.647,12.39239,1.73755,49.05476-10.75111,204.12022-18.5701,209.07459-11.72848-5.94525-39.09494-38.64412-70.3709-86.99681-70.3709-86.99681Z"/>
      <path class="cls-17" d="M49.84967,843.95133s.65159,147.36622,2.60633,171.80056,8.79637,60.59716,13.68323,80.14463,34.20808,109.46585,34.20808,109.46585L75.913,1204.385S44.637,1085.14541,36.818,1070.48481.6552,1005.97815.6552,1005.97815l-1.95474-39.09494,32.25332,53.75555s-2.93212-137.80968-3.90949-151.49291-.65158-34.96826-.65158-34.96826Z"/>
      <path class="cls-18" d="M143.35181,539.44516S308.41929,641.96079,367.0617,656.2956s190.69645,29.104,240.21672.43439S585.6133,524.45876,567.369,510.124s8.75724,29.36242-23.94565,44.95918c-42.35286,20.19906-114.16528,35.81207-200.25293,28.66962C293.55164,579.636,152.44629,539.637,143.35181,539.44516Z"/>
      <path class="cls-19" d="M357.88525,298.19677s182.613,123.48355,248.241,139.06182,187.16128,17.46655,242.58047-13.69,2.0053-129.58288-18.4123-145.16115,9.80042,31.90943-26.79809,48.85912c-47.398,21.95119-127.61,36.82136-224.10741,31.15654C492.09257,353.29843,357.88525,298.19677,357.88525,298.19677Z"/>
      <path class="cls-20" d="M581.713,481.05691s96.20464,114.708,125.073,140.31824,100.63481,85.19633,100.63481,85.19633L801.48137,786.997S715.69922,701.4411,683.4162,659.66372,543.74232,493.97291,544.40071,486.99277,557.5621,475.25779,581.713,481.05691Z"/>
    </g>
  </g>
</svg>
