<svg xmlns="http://www.w3.org/2000/svg" xmlns:xlink="http://www.w3.org/1999/xlink" viewBox="0 0 800 1200">
  <defs>
    <style>
      .cls-1 {
        fill: none;
      }

      .cls-2 {
        clip-path: url(#clip-path);
      }

      .cls-3 {
        fill: url(#Безымянный_градиент_50);
      }

      .cls-4 {
        fill: url(#Безымянный_градиент_5);
      }

      .cls-5 {
        fill: url(#Безымянный_градиент_6);
      }

      .cls-6 {
        fill: url(#Безымянный_градиент_40);
      }

      .cls-7 {
        fill: url(#Безымянный_градиент_7);
      }

      .cls-8 {
        fill: url(#Безымянный_градиент_10);
      }

      .cls-9 {
        fill: url(#Безымянный_градиент_10-2);
      }

      .cls-10 {
        fill: url(#Безымянный_градиент_10-3);
      }

      .cls-11 {
        fill: url(#Безымянный_градиент_10-4);
      }

      .cls-12 {
        fill: url(#Безымянный_градиент_10-5);
      }

      .cls-13 {
        fill: url(#Безымянный_градиент_10-6);
      }

      .cls-14 {
        fill: url(#Безымянный_градиент_10-7);
      }

      .cls-15 {
        fill: url(#Безымянный_градиент_10-8);
      }

      .cls-16 {
        fill: url(#Безымянный_градиент_10-9);
      }

      .cls-17 {
        fill: url(#Безымянный_градиент_10-10);
      }

      .cls-18 {
        fill: #fffffb;
      }

      .cls-19 {
        fill: url(#Безымянный_градиент_22);
      }
    </style>
    <clipPath id="clip-path">
      <rect class="cls-1" x="0.06903" y="-0.41583" width="800" height="1200"/>
    </clipPath>
    <linearGradient id="Безымянный_градиент_50" data-name="Безымянный градиент 50" x1="409.82467" y1="1224.09536" x2="409.82467" y2="1.76751" gradientUnits="userSpaceOnUse">
      <stop offset="0" stop-color="#006ad8"/>
      <stop offset="0.20142" stop-color="#0166d2"/>
      <stop offset="0.45819" stop-color="#035bc3"/>
      <stop offset="0.74364" stop-color="#0749a9"/>
      <stop offset="1" stop-color="#0b358b"/>
    </linearGradient>
    <linearGradient id="Безымянный_градиент_5" data-name="Безымянный градиент 5" x1="-14.64054" y1="295.94678" x2="821.99126" y2="295.94678" gradientUnits="userSpaceOnUse">
      <stop offset="0" stop-color="#fcab2e"/>
      <stop offset="0.36091" stop-color="#fcb539"/>
      <stop offset="0.99699" stop-color="#fdd057"/>
      <stop offset="1" stop-color="#fdd057"/>
    </linearGradient>
    <linearGradient id="Безымянный_градиент_6" data-name="Безымянный градиент 6" x1="-9.42788" y1="880.22275" x2="844.14506" y2="880.22275" gradientUnits="userSpaceOnUse">
      <stop offset="0" stop-color="#fcab2e"/>
      <stop offset="0.08543" stop-color="#fcb135"/>
      <stop offset="0.3779" stop-color="#fdc248"/>
      <stop offset="0.67906" stop-color="#fdcd53"/>
      <stop offset="1" stop-color="#fdd057"/>
    </linearGradient>
    <linearGradient id="Безымянный_градиент_40" data-name="Безымянный градиент 40" x1="623.91021" y1="263.17422" x2="801.14063" y2="263.17422" gradientUnits="userSpaceOnUse">
      <stop offset="0" stop-color="#0a2f80"/>
      <stop offset="0.14539" stop-color="#082a75"/>
      <stop offset="0.70588" stop-color="#02194f"/>
      <stop offset="1" stop-color="#001340"/>
    </linearGradient>
    <linearGradient id="Безымянный_градиент_7" data-name="Безымянный градиент 7" x1="6.2101" y1="324.42296" x2="884.54317" y2="324.42296" gradientUnits="userSpaceOnUse">
      <stop offset="0" stop-color="#fcab2e"/>
      <stop offset="0.01965" stop-color="#fcae32"/>
      <stop offset="0.13064" stop-color="#fdbe43"/>
      <stop offset="0.26828" stop-color="#fdc84e"/>
      <stop offset="0.46206" stop-color="#fdce55"/>
      <stop offset="1" stop-color="#fdd057"/>
    </linearGradient>
    <linearGradient id="Безымянный_градиент_10" data-name="Безымянный градиент 10" x1="631.48932" y1="768.21386" x2="956.26829" y2="768.21386" gradientUnits="userSpaceOnUse">
      <stop offset="0" stop-color="#fcab2e"/>
      <stop offset="0.29846" stop-color="#fcaf33"/>
      <stop offset="0.64606" stop-color="#fcbc41"/>
      <stop offset="1" stop-color="#fdd057"/>
    </linearGradient>
    <linearGradient id="Безымянный_градиент_10-2" x1="529.84246" y1="819.03728" x2="854.62144" y2="819.03728" xlink:href="#Безымянный_градиент_10"/>
    <linearGradient id="Безымянный_градиент_10-3" x1="433.40827" y1="860.73856" x2="758.18724" y2="860.73856" xlink:href="#Безымянный_градиент_10"/>
    <linearGradient id="Безымянный_градиент_10-4" x1="356.89748" y1="903.26727" x2="674.78469" y2="903.26727" xlink:href="#Безымянный_градиент_10"/>
    <linearGradient id="Безымянный_градиент_10-5" x1="283.81584" y1="947.53478" x2="608.59481" y2="947.53478" xlink:href="#Безымянный_градиент_10"/>
    <linearGradient id="Безымянный_градиент_10-6" x1="216.05127" y1="982.72023" x2="540.83025" y2="982.72023" xlink:href="#Безымянный_градиент_10"/>
    <linearGradient id="Безымянный_градиент_10-7" x1="150.89303" y1="1030.93732" x2="475.67201" y2="1030.93732" xlink:href="#Безымянный_градиент_10"/>
    <linearGradient id="Безымянный_градиент_10-8" x1="62.27783" y1="1075.24493" x2="387.0568" y2="1075.24493" xlink:href="#Безымянный_градиент_10"/>
    <linearGradient id="Безымянный_градиент_10-9" x1="-12.00257" y1="1120.20411" x2="312.77641" y2="1120.20411" xlink:href="#Безымянный_градиент_10"/>
    <linearGradient id="Безымянный_градиент_10-10" x1="-80.69024" y1="1157.20855" x2="244.08873" y2="1157.20855" xlink:href="#Безымянный_градиент_10"/>
    <linearGradient id="Безымянный_градиент_22" data-name="Безымянный градиент 22" x1="285.08737" y1="1090.68386" x2="801.14063" y2="1090.68386" gradientUnits="userSpaceOnUse">
      <stop offset="0" stop-color="#f03e00"/>
      <stop offset="0" stop-color="#f14400"/>
      <stop offset="0.35942" stop-color="#f24700"/>
      <stop offset="0.66702" stop-color="#f45200"/>
      <stop offset="0.95467" stop-color="#f76301"/>
      <stop offset="1" stop-color="#f86701"/>
    </linearGradient>
  </defs>
  <title>Illustration4</title>
  <g id="Слой_7" data-name="Слой 7">
    <g class="cls-2">
      <rect class="cls-3" x="1.38432" y="1.76751" width="816.88071" height="1222.32785"/>
      <path class="cls-4" d="M-14.64054-4.89085h836.6318V596.78441S742.181,466.46793,574.30422,370.03373,202.77365,166.74,100.94675,125.03875L-.88014,83.33748Z"/>
      <polygon class="cls-5" points="-6.674 1030.778 844.145 556.386 827.624 1204.059 -9.428 1204.059 -6.674 1030.778"/>
      <path class="cls-6" d="M623.91021,114.61343l143.34813-2.60633,31.276,46.91394,2.60633,255.4203S715.13175,286.63119,678.64313,221.473,623.91021,114.61343,623.91021,114.61343Z"/>
      <path class="cls-7" d="M6.2101,44.24253s8.15571,2.539,22.14048,6.86361c67.40914,20.8452,270.25157,83.17555,347.95832,102.60224,93.82787,23.457,127.71015,36.48861,187.65573,99.04052S657.7925,390.88437,657.7925,390.88437l153.77344,213.719,72.97723-39.09495L603.05958,101.58178Z"/>
      <g>
        <path class="cls-8" d="M631.48932,664.61226s3.01571.93885,8.18682,2.53793c24.92571,7.70788,99.93024,30.75561,128.66366,37.939,34.69449,8.67362,47.22306,13.4923,69.389,36.622s34.69449,51.078,34.69449,51.078l56.86042,79.02634,26.9846-14.456-104.08347-171.545Z"/>
        <path class="cls-9" d="M529.84246,715.43568s3.01572.93886,8.18683,2.53794c24.92571,7.70788,99.93024,30.75561,128.66366,37.939,34.69449,8.67362,47.22306,13.4923,69.389,36.622s34.69449,51.078,34.69449,51.078l56.86041,79.02633,26.98461-14.456L750.538,736.63787Z"/>
        <path class="cls-10" d="M433.40827,757.137s3.01571.93885,8.18683,2.53793c24.9257,7.70788,99.93023,30.75561,128.66366,37.939,34.69449,8.67362,47.223,13.4923,69.389,36.622s34.69449,51.078,34.69449,51.078l56.86041,79.02634,26.9846-14.456-104.08347-171.545Z"/>
        <path class="cls-11" d="M365.00573,800.83823s-11.98429-1.06115-6.81318.53794c24.92571,7.70787,99.93023,30.75561,128.66366,37.939,34.69449,8.67363,47.22305,13.49231,69.389,36.622s34.69449,51.078,34.69449,51.078l56.86041,79.02634,26.9846-14.456-89.08345-169.545Z"/>
        <path class="cls-12" d="M283.81584,843.93318s3.01572.93885,8.18683,2.53793c24.9257,7.70788,99.93023,30.75561,128.66366,37.939,34.69449,8.67362,47.22305,13.4923,69.389,36.622S524.7498,972.11,524.7498,972.11l56.86041,79.02634,26.9846-14.456-104.08346-171.545Z"/>
        <path class="cls-13" d="M216.05127,879.11863s3.01572.93885,8.18683,2.53793c24.92571,7.70788,99.93023,30.75561,128.66366,37.939,34.69449,8.67362,47.22306,13.4923,69.389,36.622s34.69449,51.078,34.69449,51.078l56.86041,79.02634,26.98461-14.456-104.08347-171.545Z"/>
        <path class="cls-14" d="M150.893,927.33572s3.01572.93886,8.18683,2.53794c24.92571,7.70788,99.93023,30.75561,128.66366,37.939,34.69449,8.67362,47.22306,13.4923,69.389,36.622s34.69449,51.078,34.69449,51.078l56.86041,79.02634,26.98461-14.456-104.08347-171.545Z"/>
        <path class="cls-15" d="M62.27783,971.64333s3.01571.93885,8.18682,2.53793c24.92571,7.70788,99.93024,30.75561,128.66366,37.939,34.69449,8.67362,47.22306,13.4923,69.389,36.622s34.69449,51.078,34.69449,51.078l56.86042,79.02634,26.9846-14.456-104.08347-171.545Z"/>
        <path class="cls-16" d="M-12.00257,1016.60251s3.01572.93886,8.18683,2.53794c24.92571,7.70788,99.93023,30.75561,128.66366,37.939,34.69449,8.67362,47.22306,13.4923,69.389,36.622s34.69449,51.078,34.69449,51.078l56.86041,79.02633,26.98461-14.456-104.08347-171.545Z"/>
        <path class="cls-17" d="M-80.69024,1053.607s3.01571.93885,8.18682,2.53793c24.92571,7.70788,99.93024,30.75561,128.66366,37.939,34.69449,8.67362,47.22306,13.4923,69.389,36.622s34.69449,51.078,34.69449,51.078l56.86042,79.02634,26.9846-14.456-104.08347-171.545Z"/>
      </g>
      <polygon class="cls-18" points="805.05 593.526 603.711 292.495 730.77 306.179 881.285 552.477 805.05 593.526"/>
      <polygon class="cls-18" points="587.422 252.749 596.544 272.296 720.344 289.238 703.403 263.174 587.422 252.749"/>
      <path class="cls-18" d="M-9.42788,1019.0098S376.1619,777.17314,502.06431,721.56244,802.44379,575.93377,802.44379,575.93377l11.72848,35.18545S533.99184,738.82937,457.10512,775.318c-76.27473,36.19818-173.25536,93.83479-225.7733,126.0812C171.16989,938.33905-1.60889,1037.25411-1.60889,1037.25411Z"/>
      <polygon class="cls-19" points="801.141 979.915 801.141 1201.453 285.087 1195.242 801.141 979.915"/>
      <path class="cls-18" d="M-10.07946,1174.17154S400.42215,957.96079,532.44277,898.99422,848.05456,763.5895,848.05456,763.5895l-2.06282,233.68233S530.38,1117.38892,447.86706,1147.96418s-113.45522,43.67894-113.45522,43.67894L-5.95381,1198.195Z"/>
    </g>
  </g>
</svg>
