<svg xmlns="http://www.w3.org/2000/svg" xmlns:xlink="http://www.w3.org/1999/xlink" viewBox="0 0 800 1200">
  <defs>
    <style>
      .cls-1 {
        fill: none;
      }

      .cls-2 {
        clip-path: url(#clip-path);
      }

      .cls-3 {
        fill: url(#Безымянный_градиент_23);
      }

      .cls-4 {
        fill: #fff;
      }

      .cls-5 {
        fill: url(#Безымянный_градиент_28);
      }

      .cls-6 {
        fill: #75aae4;
      }
    </style>
    <clipPath id="clip-path">
      <rect class="cls-1" x="0.10811" y="0.23576" width="800" height="1200"/>
    </clipPath>
    <linearGradient id="Безымянный_градиент_23" data-name="Безымянный градиент 23" x1="325.82771" y1="631.96986" x2="325.82771" y2="1.2381" gradientUnits="userSpaceOnUse">
      <stop offset="0" stop-color="#fdd057"/>
      <stop offset="0.31307" stop-color="#fcb33f"/>
      <stop offset="0.99048" stop-color="#f86802"/>
      <stop offset="1" stop-color="#f86701"/>
    </linearGradient>
    <radialGradient id="Безымянный_градиент_28" data-name="Безымянный градиент 28" cx="382.51538" cy="482.1059" r="435.4065" gradientTransform="translate(0.22851 -8.07311) scale(1.05051 1.07959)" gradientUnits="userSpaceOnUse">
      <stop offset="0" stop-color="#001649"/>
      <stop offset="0.25027" stop-color="#01184e"/>
      <stop offset="0.56675" stop-color="#041f5e"/>
      <stop offset="0.91753" stop-color="#092b78"/>
      <stop offset="1" stop-color="#0a2e7f"/>
    </radialGradient>
  </defs>
  <title>Illustration5</title>
  <g id="Слой_7" data-name="Слой 7">
    <g class="cls-2">
      <polygon class="cls-3" points="-10.389 1.238 -21.466 631.97 673.121 611.119 -10.389 1.238"/>
      <polygon points="-6.479 611.119 318.009 603.3 304.325 618.938 -16.253 636.531 -6.479 611.119"/>
      <path class="cls-4" d="M464.61476,530.97458s-44.95918-3.90949-127.05856,29.32121-129.01332,78.18989-129.01332,78.18989l469.13933,35.18545L640.542,568.11478Z"/>
      <path class="cls-5" d="M-4.52456,65.74475S241.7205,365.1823,323.873,443.011c74.28039,70.3709,156.03018,124.17748,221.93291,160.13768,57.59594,31.42755,162.22427,65.4202,162.22427,65.4202s-312.12771,16.88263-431.22908,25.32395S-2.47109,721.32707-2.47109,721.32707L1.63585,947.13228s256.684,37.98593,394.26659,52.75823,408.64089,29.54461,408.64089,29.54461L808.65027-4.62615H-4.52456Z"/>
      <path class="cls-6" d="M527.16667,636.53093s-72.54284-66.89579-118.588-78.18989-68.199-3.4751-79.49305-.86877-64.72386,32.57912-82.09939,48.2171-30.84156,26.49768-30.84156,26.49768-49.08588.43439-49.52027,1.73755,49.08588,2.17194,53.42976,2.60633,215.45658,3.47511,221.538,3.04072S527.16667,636.53093,527.16667,636.53093Z"/>
    </g>
  </g>
</svg>
