<svg xmlns="http://www.w3.org/2000/svg" xmlns:xlink="http://www.w3.org/1999/xlink" viewBox="0 0 956.89 902.57"><defs><radialGradient id="Безымянный_градиент_240" cx="522.29" cy="67.28" r="2.64" gradientUnits="userSpaceOnUse"><stop offset="0" stop-color="#fff"/><stop offset="0.46" stop-color="#b6c5da"/><stop offset="0.81" stop-color="#7684c0"/><stop offset="0.86" stop-color="#717fbd"/><stop offset="0.92" stop-color="#6371b3"/><stop offset="0.99" stop-color="#4c59a3"/><stop offset="1" stop-color="#4754a0"/></radialGradient><radialGradient id="Безымянный_градиент_240-2" cx="823.29" cy="52.28" r="2.64" xlink:href="#Безымянный_градиент_240"/><radialGradient id="Безымянный_градиент_243" cx="421.32" cy="80.27" r="2.64" gradientUnits="userSpaceOnUse"><stop offset="0" stop-color="#b6c5da"/><stop offset="0.46" stop-color="#7684c0"/><stop offset="0.61" stop-color="#717fbd"/><stop offset="0.78" stop-color="#6371b3"/><stop offset="0.97" stop-color="#4c59a3"/><stop offset="1" stop-color="#4754a0"/></radialGradient><radialGradient id="Безымянный_градиент_243-2" cx="379.95" cy="94.28" r="2.31" xlink:href="#Безымянный_градиент_243"/><radialGradient id="Безымянный_градиент_243-3" cx="240.95" cy="48.28" r="2.31" xlink:href="#Безымянный_градиент_243"/><radialGradient id="Безымянный_градиент_240-3" cx="459.46" cy="57.19" r="1.86" xlink:href="#Безымянный_градиент_240"/><radialGradient id="Безымянный_градиент_259" cx="472.15" cy="110.9" r="2.64" gradientUnits="userSpaceOnUse"><stop offset="0" stop-color="#9799cc"/><stop offset="0.58" stop-color="#7684c0" stop-opacity="0.4"/><stop offset="0.67" stop-color="#7280bd" stop-opacity="0.37"/><stop offset="0.77" stop-color="#6773b5" stop-opacity="0.3"/><stop offset="0.88" stop-color="#545fa7" stop-opacity="0.18"/><stop offset="1" stop-color="#394294" stop-opacity="0"/><stop offset="1" stop-color="#394294" stop-opacity="0"/></radialGradient><radialGradient id="Безымянный_градиент_259-2" cx="429.15" cy="226.9" r="2.64" xlink:href="#Безымянный_градиент_259"/><radialGradient id="Безымянный_градиент_250" cx="329.48" cy="94.64" r="2.64" gradientUnits="userSpaceOnUse"><stop offset="0.12" stop-color="#fff"/><stop offset="0.58" stop-color="#b6c5da"/><stop offset="0.79" stop-color="#7684c0"/><stop offset="0.85" stop-color="#717fbd"/><stop offset="0.92" stop-color="#6371b3"/><stop offset="0.99" stop-color="#4c59a3"/><stop offset="1" stop-color="#4754a0"/></radialGradient><radialGradient id="Безымянный_градиент_250-2" cx="258.48" cy="270.64" r="2.64" xlink:href="#Безымянный_градиент_250"/><radialGradient id="Безымянный_градиент_250-3" cx="131.48" cy="59.64" r="2.64" xlink:href="#Безымянный_градиент_250"/><radialGradient id="Безымянный_градиент_254" cx="277.36" cy="137.65" r="2.64" gradientUnits="userSpaceOnUse"><stop offset="0" stop-color="#b6c5da"/><stop offset="0.3" stop-color="#7684c0"/><stop offset="0.42" stop-color="#717fbd"/><stop offset="0.56" stop-color="#6371b3"/><stop offset="0.7" stop-color="#4c59a3"/><stop offset="0.73" stop-color="#4754a0"/></radialGradient><radialGradient id="Безымянный_градиент_254-2" cx="187.36" cy="153.65" r="2.64" xlink:href="#Безымянный_градиент_254"/><linearGradient id="Безымянный_градиент_6" x1="278.03" y1="1002.55" x2="679.52" y2="-100.55" gradientUnits="userSpaceOnUse"><stop offset="0.37" stop-color="#3b5ea2"/><stop offset="1" stop-color="#0d285b"/></linearGradient><linearGradient id="Безымянный_градиент_16" x1="476.55" y1="83.67" x2="476.55" y2="586" gradientUnits="userSpaceOnUse"><stop offset="0.21" stop-color="#9b96c0"/><stop offset="0.34" stop-color="#9b96c0"/><stop offset="0.46" stop-color="#a499bf"/><stop offset="0.66" stop-color="#bba1bd"/><stop offset="0.9" stop-color="#e1afb9"/><stop offset="1" stop-color="#f2b5b7"/></linearGradient><clipPath id="clip-path" transform="translate(4.28 -0.5)"><path d="M519.65,67.28a2.64,2.64,0,1,0,2.64-2.65,2.64,2.64,0,0,0-2.64,2.65" fill="url(#Безымянный_градиент_240)"/></clipPath><radialGradient id="Безымянный_градиент_240-5" cx="169.02" cy="724.18" r="1" gradientTransform="matrix(2.64, 0, 0, -2.64, 80.43, 1979.02)" xlink:href="#Безымянный_градиент_240"/><clipPath id="clip-path-2" transform="translate(4.28 -0.5)"><path d="M820.65,52.28a2.64,2.64,0,1,0,2.64-2.65,2.64,2.64,0,0,0-2.64,2.65" fill="url(#Безымянный_градиент_240-2)"/></clipPath><radialGradient id="Безымянный_градиент_240-7" cx="283.06" cy="729.86" r="1" gradientTransform="matrix(2.64, 0, 0, -2.64, 80.43, 1979.02)" xlink:href="#Безымянный_градиент_240"/><clipPath id="clip-path-3" transform="translate(4.28 -0.5)"><path d="M457.59,57.19a1.87,1.87,0,1,0,1.87-1.86,1.87,1.87,0,0,0-1.87,1.86" fill="url(#Безымянный_градиент_240-3)"/></clipPath><radialGradient id="Безымянный_градиент_240-9" cx="145.22" cy="728" r="0.71" gradientTransform="matrix(2.64, 0, 0, -2.64, 80.43, 1979.02)" xlink:href="#Безымянный_градиент_240"/><clipPath id="clip-path-4" transform="translate(4.28 -0.5)"><path d="M469.51,110.9a2.64,2.64,0,1,0,2.64-2.64,2.64,2.64,0,0,0-2.64,2.64" fill="url(#Безымянный_градиент_259)"/></clipPath><radialGradient id="Безымянный_градиент_259-4" cx="150.03" cy="707.66" r="1" gradientTransform="matrix(2.64, 0, 0, -2.64, 80.43, 1979.02)" xlink:href="#Безымянный_градиент_259"/><clipPath id="clip-path-5" transform="translate(4.28 -0.5)"><path d="M426.51,226.9a2.64,2.64,0,1,0,2.64-2.64,2.64,2.64,0,0,0-2.64,2.64" fill="url(#Безымянный_градиент_259-2)"/></clipPath><radialGradient id="Безымянный_градиент_259-6" cx="133.74" cy="663.73" r="1" gradientTransform="matrix(2.64, 0, 0, -2.64, 80.43, 1979.02)" xlink:href="#Безымянный_градиент_259"/><clipPath id="clip-path-6" transform="translate(4.28 -0.5)"><path d="M326.84,94.64A2.64,2.64,0,1,0,329.48,92a2.64,2.64,0,0,0-2.64,2.64" fill="url(#Безымянный_градиент_250)"/></clipPath><radialGradient id="Безымянный_градиент_250-5" cx="95.98" cy="713.81" r="1" gradientTransform="matrix(2.64, 0, 0, -2.64, 80.43, 1979.02)" xlink:href="#Безымянный_градиент_250"/><clipPath id="clip-path-7" transform="translate(4.28 -0.5)"><path d="M255.84,270.64a2.64,2.64,0,1,0,2.64-2.64,2.64,2.64,0,0,0-2.64,2.64" fill="url(#Безымянный_градиент_250-2)"/></clipPath><radialGradient id="Безымянный_градиент_250-7" cx="69.08" cy="647.16" r="1" gradientTransform="matrix(2.64, 0, 0, -2.64, 80.43, 1979.02)" xlink:href="#Безымянный_градиент_250"/><clipPath id="clip-path-8" transform="translate(4.28 -0.5)"><path d="M128.84,59.64A2.64,2.64,0,1,0,131.48,57a2.64,2.64,0,0,0-2.64,2.64" fill="url(#Безымянный_градиент_250-3)"/></clipPath><radialGradient id="Безымянный_градиент_250-9" cx="20.96" cy="727.07" r="1" gradientTransform="matrix(2.64, 0, 0, -2.64, 80.43, 1979.02)" xlink:href="#Безымянный_градиент_250"/><clipPath id="clip-path-9" transform="translate(4.28 -0.5)"><path d="M274.72,137.65a2.64,2.64,0,1,0,2.64-2.64,2.64,2.64,0,0,0-2.64,2.64" fill="url(#Безымянный_градиент_254)"/></clipPath><radialGradient id="Безымянный_градиент_254-4" cx="76.23" cy="697.53" r="1" gradientTransform="matrix(2.64, 0, 0, -2.64, 80.43, 1979.02)" xlink:href="#Безымянный_градиент_254"/><clipPath id="clip-path-10" transform="translate(4.28 -0.5)"><path d="M184.72,153.65a2.64,2.64,0,1,0,2.64-2.64,2.64,2.64,0,0,0-2.64,2.64" fill="url(#Безымянный_градиент_254-2)"/></clipPath><radialGradient id="Безымянный_градиент_254-6" cx="42.13" cy="691.47" r="1" gradientTransform="matrix(2.64, 0, 0, -2.64, 80.43, 1979.02)" xlink:href="#Безымянный_градиент_254"/><clipPath id="clip-path-11" transform="translate(4.28 -0.5)"><path d="M418.68,80.27a2.64,2.64,0,1,0,2.64-2.64,2.64,2.64,0,0,0-2.64,2.64" fill="url(#Безымянный_градиент_243)"/></clipPath><radialGradient id="Безымянный_градиент_243-5" cx="130.77" cy="719.26" r="1" gradientTransform="matrix(2.64, 0, 0, -2.64, 80.43, 1979.02)" xlink:href="#Безымянный_градиент_243"/><clipPath id="clip-path-12" transform="translate(4.28 -0.5)"><path d="M377.64,94.28A2.31,2.31,0,1,0,380,92a2.3,2.3,0,0,0-2.31,2.31" fill="url(#Безымянный_градиент_243-2)"/></clipPath><radialGradient id="Безымянный_градиент_243-7" cx="115.1" cy="713.95" r="0.87" gradientTransform="matrix(2.64, 0, 0, -2.64, 80.43, 1979.02)" xlink:href="#Безымянный_градиент_243"/><clipPath id="clip-path-13" transform="translate(4.28 -0.5)"><path d="M238.64,48.28A2.31,2.31,0,1,0,241,46a2.3,2.3,0,0,0-2.31,2.31" fill="url(#Безымянный_градиент_243-3)"/></clipPath><radialGradient id="Безымянный_градиент_243-9" cx="62.44" cy="731.37" r="0.87" gradientTransform="matrix(2.64, 0, 0, -2.64, 80.43, 1979.02)" xlink:href="#Безымянный_градиент_243"/><clipPath id="clip-path-14" transform="translate(4.28 -0.5)"><path d="M584.45,114.52a1.3,1.3,0,1,0,1.3-1.3,1.3,1.3,0,0,0-1.3,1.3" fill="none"/></clipPath><radialGradient id="Безымянный_градиент_34" cx="204.46" cy="769.02" r="0.78" gradientTransform="matrix(1.67, 0, 0, -1.67, 249.57, 1395.03)" gradientUnits="userSpaceOnUse"><stop offset="0" stop-color="#fff"/><stop offset="1" stop-color="#acbed6"/><stop offset="1" stop-color="#acbed6"/></radialGradient><clipPath id="clip-path-15" transform="translate(4.28 -0.5)"><path d="M799.45,170.52a1.3,1.3,0,1,0,1.3-1.3,1.3,1.3,0,0,0-1.3,1.3" fill="none"/></clipPath><radialGradient id="Безымянный_градиент_34-2" cx="333.59" cy="735.4" r="0.78" xlink:href="#Безымянный_градиент_34"/><clipPath id="clip-path-16" transform="translate(4.28 -0.5)"><path d="M622.45,270.52a1.3,1.3,0,1,0,1.3-1.3,1.3,1.3,0,0,0-1.3,1.3" fill="none"/></clipPath><radialGradient id="Безымянный_градиент_34-3" cx="227.29" cy="675.37" r="0.78" xlink:href="#Безымянный_градиент_34"/><clipPath id="clip-path-17" transform="translate(4.28 -0.5)"><path d="M542.45,244.52a1.3,1.3,0,1,0,1.3-1.3,1.3,1.3,0,0,0-1.3,1.3" fill="none"/></clipPath><radialGradient id="Безымянный_градиент_34-4" cx="179.24" cy="690.98" r="0.78" xlink:href="#Безымянный_градиент_34"/><clipPath id="clip-path-18" transform="translate(4.28 -0.5)"><path d="M714.45,82.52a1.3,1.3,0,1,0,1.3-1.3,1.3,1.3,0,0,0-1.3,1.3" fill="none"/></clipPath><radialGradient id="Безымянный_градиент_34-5" cx="282.54" cy="788.23" r="0.78" xlink:href="#Безымянный_градиент_34"/><clipPath id="clip-path-19" transform="translate(4.28 -0.5)"><path d="M911.45,46.52a1.3,1.3,0,1,0,1.3-1.3,1.3,1.3,0,0,0-1.3,1.3" fill="none"/></clipPath><radialGradient id="Безымянный_градиент_34-6" cx="400.85" cy="809.84" r="0.78" xlink:href="#Безымянный_градиент_34"/><linearGradient id="Безымянный_градиент_20" x1="481.96" y1="430.56" x2="340.14" y2="676.21" gradientUnits="userSpaceOnUse"><stop offset="0" stop-color="#6589bf"/><stop offset="0.3" stop-color="#7684c0"/><stop offset="0.42" stop-color="#717fbd"/><stop offset="0.56" stop-color="#6371b3"/><stop offset="0.7" stop-color="#4c59a3"/><stop offset="0.73" stop-color="#4754a0"/></linearGradient><linearGradient id="Безымянный_градиент_56" x1="660.81" y1="712.32" x2="792.4" y2="350.78" gradientUnits="userSpaceOnUse"><stop offset="0.24" stop-color="#3b5ea2"/><stop offset="1" stop-color="#6b8cc2"/></linearGradient><linearGradient id="Безымянный_градиент_81" x1="378.2" y1="647" x2="378.2" y2="548" gradientUnits="userSpaceOnUse"><stop offset="0.05" stop-color="#385d9f"/><stop offset="1" stop-color="#2b4d96"/></linearGradient><linearGradient id="Безымянный_градиент_24" x1="220.27" y1="435.86" x2="79.4" y2="679.84" gradientUnits="userSpaceOnUse"><stop offset="0" stop-color="#304581"/><stop offset="0.3" stop-color="#41538b"/><stop offset="0.49" stop-color="#425390"/><stop offset="0.71" stop-color="#47549e"/><stop offset="0.73" stop-color="#4754a0"/></linearGradient><linearGradient id="Безымянный_градиент_77" x1="892.65" y1="578.86" x2="836.94" y2="675.36" gradientTransform="translate(-350.71 597.28) rotate(-36.86)" gradientUnits="userSpaceOnUse"><stop offset="0.02" stop-color="#304581" stop-opacity="0.5"/><stop offset="0.73" stop-color="#434ca8" stop-opacity="0.5"/></linearGradient><linearGradient id="Безымянный_градиент_86" x1="704.5" y1="725" x2="704.5" y2="572" gradientUnits="userSpaceOnUse"><stop offset="0.05" stop-color="#14254f"/><stop offset="1" stop-color="#02377b"/></linearGradient><linearGradient id="Безымянный_градиент_89" x1="606.48" y1="520.98" x2="289.85" y2="1069.4" gradientUnits="userSpaceOnUse"><stop offset="0.21" stop-color="#97b0d7"/><stop offset="0.35" stop-color="#98abd2"/><stop offset="0.51" stop-color="#9c9cc5"/><stop offset="0.55" stop-color="#9d97c0"/><stop offset="0.68" stop-color="#b39fbe"/><stop offset="0.96" stop-color="#ebb2b8"/><stop offset="1" stop-color="#f2b5b7"/></linearGradient><linearGradient id="Безымянный_градиент_100" x1="49" y1="668.25" x2="902.15" y2="668.25" gradientUnits="userSpaceOnUse"><stop offset="0" stop-color="#97b0d7"/><stop offset="0.12" stop-color="#9cb1d7"/><stop offset="0.26" stop-color="#abb5d7"/><stop offset="0.42" stop-color="#c4bbd6"/><stop offset="0.58" stop-color="#e6c4d5"/><stop offset="0.66" stop-color="#f9c9d5"/></linearGradient><linearGradient id="Безымянный_градиент_100-2" x1="580" y1="794.28" x2="841.09" y2="794.28" xlink:href="#Безымянный_градиент_100"/><linearGradient id="Безымянный_градиент_89-2" x1="590.39" y1="704.69" x2="578.46" y2="637.02" xlink:href="#Безымянный_градиент_89"/><linearGradient id="Безымянный_градиент_89-3" x1="575.73" y1="713.51" x2="561.89" y2="635.03" xlink:href="#Безымянный_градиент_89"/><linearGradient id="Безымянный_градиент_56-2" x1="-0.56" y1="848.1" x2="209.31" y2="848.1" xlink:href="#Безымянный_градиент_56"/><linearGradient id="Безымянный_градиент_117" x1="1207.03" y1="735.13" x2="1227.79" y2="852.86" gradientTransform="matrix(-1, 0, 0, 1, 1350.85, 0)" gradientUnits="userSpaceOnUse"><stop offset="0" stop-color="#313f5c"/><stop offset="0.7" stop-color="#3b5ea2"/><stop offset="0.8" stop-color="#4e70ad"/><stop offset="0.91" stop-color="#5c7db5"/><stop offset="1" stop-color="#6182b8"/></linearGradient><linearGradient id="Безымянный_градиент_117-2" x1="1204.68" y1="687.97" x2="1293.77" y2="794.14" xlink:href="#Безымянный_градиент_117"/><linearGradient id="Безымянный_градиент_117-3" x1="1198.39" y1="615.29" x2="1292.91" y2="727.93" xlink:href="#Безымянный_градиент_117"/><linearGradient id="Безымянный_градиент_152" x1="1214.31" y1="575.38" x2="1289.82" y2="665.37" gradientTransform="matrix(-1, 0, 0, 1, 1350.85, 0)" gradientUnits="userSpaceOnUse"><stop offset="0" stop-color="#313f5c"/><stop offset="0.37" stop-color="#37558e"/><stop offset="0.37" stop-color="#37558e"/><stop offset="0.47" stop-color="#4d6ca5"/><stop offset="0.55" stop-color="#5a7ab3"/><stop offset="0.63" stop-color="#5e7fb8"/><stop offset="0.98" stop-color="#ecb3af"/></linearGradient><linearGradient id="Безымянный_градиент_117-4" x1="1216.54" y1="531.11" x2="1280.16" y2="606.92" xlink:href="#Безымянный_градиент_117"/><linearGradient id="Безымянный_градиент_56-3" x1="1216.8" y1="483.47" x2="1264.46" y2="566.02" gradientTransform="matrix(-1, 0, 0, 1, 1350.85, 0)" xlink:href="#Безымянный_градиент_56"/><linearGradient id="Безымянный_градиент_152-2" x1="1221.8" y1="447.28" x2="1264.52" y2="521.27" xlink:href="#Безымянный_градиент_152"/><linearGradient id="Безымянный_градиент_152-3" x1="1224.44" y1="380.29" x2="1257.66" y2="437.83" xlink:href="#Безымянный_градиент_152"/><linearGradient id="Безымянный_градиент_152-4" x1="1232.98" y1="328.35" x2="1262.25" y2="328.35" xlink:href="#Безымянный_градиент_152"/><radialGradient id="Безымянный_градиент_215" cx="403.28" cy="822.38" r="7.7" gradientUnits="userSpaceOnUse"><stop offset="0.2" stop-color="#ce2e52"/><stop offset="1" stop-color="#a33b34"/></radialGradient><radialGradient id="Безымянный_градиент_215-2" cx="432.9" cy="855.85" r="8.79" xlink:href="#Безымянный_градиент_215"/><radialGradient id="Безымянный_градиент_215-3" cx="371.32" cy="875.56" r="7.85" xlink:href="#Безымянный_градиент_215"/><radialGradient id="Безымянный_градиент_215-4" cx="247.93" cy="1314.44" r="7.85" gradientTransform="translate(87.95 -465.73)" xlink:href="#Безымянный_градиент_215"/><radialGradient id="Безымянный_градиент_215-5" cx="230.4" cy="1347.69" r="7.85" gradientTransform="translate(101.85 -461.57)" xlink:href="#Безымянный_градиент_215"/><radialGradient id="Безымянный_градиент_215-6" cx="-89.16" cy="-67.5" r="7.85" gradientTransform="translate(377.54 969.48) rotate(90)" xlink:href="#Безымянный_градиент_215"/><radialGradient id="Безымянный_градиент_215-7" cx="-2007.12" cy="1481.98" r="7.85" gradientTransform="translate(-1349.2 -1282.57) rotate(-90)" xlink:href="#Безымянный_градиент_215"/><radialGradient id="Безымянный_градиент_215-8" cx="-2021.3" cy="1152.4" r="7.85" gradientTransform="translate(-1898.7 1927.81) rotate(180)" xlink:href="#Безымянный_градиент_215"/><radialGradient id="Безымянный_градиент_215-9" cx="-1998.41" cy="1162.69" r="6.71" gradientTransform="translate(-1899.31 1929.28) rotate(180)" xlink:href="#Безымянный_градиент_215"/><radialGradient id="Безымянный_градиент_215-10" cx="-1998.86" cy="1102.16" r="6.71" gradientTransform="translate(-1895.46 1929.13) rotate(180)" xlink:href="#Безымянный_градиент_215"/><radialGradient id="Безымянный_градиент_215-11" cx="-2009.44" cy="1452.44" r="6.71" gradientTransform="translate(-1307.76 -1184.88) rotate(-90)" xlink:href="#Безымянный_градиент_215"/></defs><g id="Слой_2" data-name="Слой 2"><rect x="1.78" width="954" height="902" fill="url(#Безымянный_градиент_6)"/><path d="M.5,384.11V105.65s54.06-48.33,104-1.64,30.3,114.66,51.59,128.58,39.73,7,44.64,25-27.85,64.71,4.91,66.34,59.79-38.49,93.37-23.75,42.59,50,50,50,19.66-26.21,48.32-6.55,50,50.78,51.6,76.17,37.68,72.07,59,54.05,2.46-100.74,68-123.67,86.82,6.55,95.83,19.66-.82,59,21.29,50,21.3-39.31,46.68-39.31,31.13,22.93,45.05,11.46,6.55-50.78,24.57-52.41,21.3,25.38,28.67,14.74-2.46-55.7,13.92-68S863.34,260,857.6,215s4.1-77,25.39-95,69.62-19.66,69.62-19.66V586H2.55Z" transform="translate(4.28 -0.5)" fill="url(#Безымянный_градиент_16)"/><path d="M519.65,67.28a2.64,2.64,0,1,0,2.64-2.65,2.64,2.64,0,0,0-2.64,2.65" transform="translate(4.28 -0.5)" fill="url(#Безымянный_градиент_240)"/><g clip-path="url(#clip-path)"><rect x="523.92" y="64.13" width="5.28" height="5.28" fill="url(#Безымянный_градиент_240-5)"/></g><path d="M820.65,52.28a2.64,2.64,0,1,0,2.64-2.65,2.64,2.64,0,0,0-2.64,2.65" transform="translate(4.28 -0.5)" fill="url(#Безымянный_градиент_240-2)"/><g clip-path="url(#clip-path-2)"><rect x="824.92" y="49.13" width="5.28" height="5.28" fill="url(#Безымянный_градиент_240-7)"/></g><path d="M457.59,57.19a1.87,1.87,0,1,0,1.87-1.86,1.87,1.87,0,0,0-1.87,1.86" transform="translate(4.28 -0.5)" fill="url(#Безымянный_градиент_240-3)"/><g clip-path="url(#clip-path-3)"><rect x="461.87" y="54.83" width="3.73" height="3.73" fill="url(#Безымянный_градиент_240-9)"/></g><path d="M469.51,110.9a2.64,2.64,0,1,0,2.64-2.64,2.64,2.64,0,0,0-2.64,2.64" transform="translate(4.28 -0.5)" fill="url(#Безымянный_градиент_259)"/><g clip-path="url(#clip-path-4)"><rect x="473.79" y="107.76" width="5.28" height="5.28" fill="url(#Безымянный_градиент_259-4)"/></g><path d="M426.51,226.9a2.64,2.64,0,1,0,2.64-2.64,2.64,2.64,0,0,0-2.64,2.64" transform="translate(4.28 -0.5)" fill="url(#Безымянный_градиент_259-2)"/><g clip-path="url(#clip-path-5)"><rect x="430.79" y="223.76" width="5.28" height="5.28" fill="url(#Безымянный_градиент_259-6)"/></g><path d="M326.84,94.64A2.64,2.64,0,1,0,329.48,92a2.64,2.64,0,0,0-2.64,2.64" transform="translate(4.28 -0.5)" fill="url(#Безымянный_градиент_250)"/><g clip-path="url(#clip-path-6)"><rect x="331.12" y="91.5" width="5.28" height="5.28" fill="url(#Безымянный_градиент_250-5)"/></g><path d="M255.84,270.64a2.64,2.64,0,1,0,2.64-2.64,2.64,2.64,0,0,0-2.64,2.64" transform="translate(4.28 -0.5)" fill="url(#Безымянный_градиент_250-2)"/><g clip-path="url(#clip-path-7)"><rect x="260.12" y="267.5" width="5.28" height="5.28" fill="url(#Безымянный_градиент_250-7)"/></g><path d="M128.84,59.64A2.64,2.64,0,1,0,131.48,57a2.64,2.64,0,0,0-2.64,2.64" transform="translate(4.28 -0.5)" fill="url(#Безымянный_градиент_250-3)"/><g clip-path="url(#clip-path-8)"><rect x="133.12" y="56.5" width="5.28" height="5.28" fill="url(#Безымянный_градиент_250-9)"/></g><path d="M274.72,137.65a2.64,2.64,0,1,0,2.64-2.64,2.64,2.64,0,0,0-2.64,2.64" transform="translate(4.28 -0.5)" fill="url(#Безымянный_градиент_254)"/><g clip-path="url(#clip-path-9)"><rect x="278.99" y="134.51" width="5.28" height="5.28" fill="url(#Безымянный_градиент_254-4)"/></g><path d="M184.72,153.65a2.64,2.64,0,1,0,2.64-2.64,2.64,2.64,0,0,0-2.64,2.64" transform="translate(4.28 -0.5)" fill="url(#Безымянный_градиент_254-2)"/><g clip-path="url(#clip-path-10)"><rect x="188.99" y="150.51" width="5.28" height="5.28" fill="url(#Безымянный_градиент_254-6)"/></g><path d="M418.68,80.27a2.64,2.64,0,1,0,2.64-2.64,2.64,2.64,0,0,0-2.64,2.64" transform="translate(4.28 -0.5)" fill="url(#Безымянный_градиент_243)"/><g clip-path="url(#clip-path-11)"><rect x="422.96" y="77.13" width="5.28" height="5.28" fill="url(#Безымянный_градиент_243-5)"/></g><path d="M377.64,94.28A2.31,2.31,0,1,0,380,92a2.3,2.3,0,0,0-2.31,2.31" transform="translate(4.28 -0.5)" fill="url(#Безымянный_градиент_243-2)"/><g clip-path="url(#clip-path-12)"><rect x="381.92" y="91.47" width="4.62" height="4.62" fill="url(#Безымянный_градиент_243-7)"/></g><path d="M238.64,48.28A2.31,2.31,0,1,0,241,46a2.3,2.3,0,0,0-2.31,2.31" transform="translate(4.28 -0.5)" fill="url(#Безымянный_градиент_243-3)"/><g clip-path="url(#clip-path-13)"><rect x="242.92" y="45.47" width="4.62" height="4.62" fill="url(#Безымянный_градиент_243-9)"/></g><g clip-path="url(#clip-path-14)"><rect x="588.72" y="112.72" width="2.6" height="2.6" fill="url(#Безымянный_градиент_34)"/></g><g clip-path="url(#clip-path-15)"><rect x="803.72" y="168.72" width="2.6" height="2.6" fill="url(#Безымянный_градиент_34-2)"/></g><g clip-path="url(#clip-path-16)"><rect x="626.72" y="268.72" width="2.6" height="2.6" fill="url(#Безымянный_градиент_34-3)"/></g><g clip-path="url(#clip-path-17)"><rect x="546.72" y="242.72" width="2.6" height="2.6" fill="url(#Безымянный_градиент_34-4)"/></g><g clip-path="url(#clip-path-18)"><rect x="718.72" y="80.72" width="2.6" height="2.6" fill="url(#Безымянный_градиент_34-5)"/></g><g clip-path="url(#clip-path-19)"><rect x="915.72" y="44.72" width="2.6" height="2.6" fill="url(#Безымянный_градиент_34-6)"/></g><path d="M118,500s89-92,189-95,168,10,242,69S708,600,708,600l-486,8Z" transform="translate(4.28 -0.5)" fill="url(#Безымянный_градиент_20)"/><path d="M398.55,424.58c2.81-1.76,196.68,90.06,196.68,90.06L579.33,555s-191.38-13.9-202-17.88S208.6,433.9,208.6,433.9s5.38-2.8,16.66-8.73C251.45,411.42,288,406.7,288,406.7s66.22,30.46,98,38.4,66.22,25.83,68.2,23.18S393.25,427.89,398.55,424.58Z" transform="translate(4.28 -0.5)" fill="#5972ac" opacity="0.3"/><path d="M951,692.5v-284s-237,123-295,142-228,24-228,24l8,56Z" transform="translate(4.28 -0.5)" fill="url(#Безымянный_градиент_56)"/><path d="M136,549.1c1-6.19,299,16.11,316,8.68S613,559,620,559s-82,60.72-82,60.72L412,647,144,607.34Z" transform="translate(4.28 -0.5)" fill="url(#Безымянный_градиент_81)"/><path d="M561.37,547.7s-155-64.23-168.87-60.92-4,10.59-28.47,7.28-143.8-66.77-143.8-66.77-17.72,9.12-19,11.11,124.43,68.24,140.32,80.83S409.72,549,426.28,549,561.37,547.7,561.37,547.7Z" transform="translate(4.28 -0.5)" fill="#4369a6" opacity="0.7"/><path d="M0,333s158,53,211,103S323,537,346,568s39,67,39,67L0,634Z" transform="translate(4.28 -0.5)" fill="url(#Безымянный_градиент_24)"/><path d="M700,609c25.22-8.87,125.9-40.22,123-48-2.23-6-170.7,35.8-167.9,26.2S951,496,951,496l-1,58s-116.14,48.08-200,75c-27.64,8.87-276.6,38.2-267,26S663.67,621.77,700,609Z" transform="translate(4.28 -0.5)" fill="url(#Безымянный_градиент_77)"/><path d="M951,725,458,639s101-14,126-22,205,10,252-7,115-38,115-38Z" transform="translate(4.28 -0.5)" fill="url(#Безымянный_градиент_86)"/><path d="M-4.28,609s413.53,37.43,520.59,39.31S947,717.58,947,717.58V901H-1.83S-1.75,606.12-4.28,609Z" transform="translate(4.28 -0.5)" fill="url(#Безымянный_градиент_89)"/><g id="Слой_3" data-name="Слой 3"><polygon points="598.28 660.5 598.28 607.5 553.28 505.5 521.28 602.5 520.28 653.5 598.28 660.5" fill="#56162e"/><polygon points="707.28 672.5 707.28 620.5 598.28 608.5 598.28 660.5 707.28 672.5" fill="#e12226"/><path d="M514,602c1.41,1.41,4,0,4,0l31-94s-1-8-3-5-32,93-32,93S512,600,514,602Z" transform="translate(4.28 -0.5)" fill="#b595b8"/><polygon points="617.28 513.5 617.28 497.5 599.28 495.5 599.28 508.5 617.28 513.5" fill="#4e1f36"/><rect x="591.28" y="495.5" width="9" height="14" fill="#2c101f"/><path d="M606,485s5-1,5,0v9h-5Z" transform="translate(4.28 -0.5)" fill="#502740"/><path d="M598,485s5-1,5,0v9h-5Z" transform="translate(4.28 -0.5)" fill="#502740"/><path d="M590,485s5-1,5,0v9h-5Z" transform="translate(4.28 -0.5)" fill="#502740"/><path d="M594.08,610s127,18,127,16-58-107-60-108-115-16-115-15S592.08,609,594.08,610Z" transform="translate(4.28 -0.5)" fill="#f8dcc3"/><path d="M585.94,494c.64-.71,1.82-1,10-1s16.42-1,18.25,1,0,3-.91,4-26.46-1-26.46-1S584.12,496,585.94,494Z" transform="translate(4.28 -0.5)" fill="#fff4ff"/><path d="M542,610h18v48l-19-2S542.41,609.59,542,610Z" transform="translate(4.28 -0.5)" fill="#9a98c4"/><g opacity="0.8"><polygon points="551.76 585.04 551.29 556.5 561.28 556.5 561.28 585.46 551.76 585.04" fill="#1f071a"/><path d="M556,558v26.91l-7.53-.33L548,558h8m2-2H546l.5,30.5,11.5.5V556Z" transform="translate(4.28 -0.5)" fill="#9386c4"/></g><g opacity="0.8"><polygon points="578.76 641.04 578.29 612.5 588.28 612.5 588.28 641.46 578.76 641.04" fill="#1f071a"/><path d="M583,614v26.91l-7.53-.33L575,614h8m2-2H573l.5,30.5,11.5.5V612Z" transform="translate(4.28 -0.5)" fill="#9386c4"/></g><g opacity="0.8"><polygon points="528.68 636.96 528.29 613.5 536.28 613.5 536.28 637.29 528.68 636.96" fill="#1f071a"/><path d="M531,615v21.74l-5.61-.24L525,615h6m2-2H523l.42,25.42,9.58.41V613Z" transform="translate(4.28 -0.5)" fill="#9386c4"/></g></g><path d="M49,614.76s442.24,26,496,32.24,353.42,52.14,357,62-59.3,14.69-105,12-61.66-9.48-66.14-10.37-90.5-23.3-95-19.71S627.07,701.73,576,708s-442.78-73.53-468.76-76.22S49,614.76,49,614.76Z" transform="translate(4.28 -0.5)" fill="url(#Безымянный_градиент_100)"/><path d="M580,764c13-7,169,1,208,17s58,32,52,44-119-31-167-37S580,764,580,764Z" transform="translate(4.28 -0.5)" fill="url(#Безымянный_градиент_100-2)"/><path d="M530,645.57S546,672,568,672s32,5,42,9,24,16,24,16l4-6s-20-16-33-18-32-3-44-9c-21.63-10.82-25.56-18-25.56-18Z" transform="translate(4.28 -0.5)" fill="url(#Безымянный_градиент_89-2)"/><path d="M511,644s10,34,27,38c21.42,5,35,2,45,6s41,17,41,17l2-4s-35-19-48-21-32,.93-39-4c-17-12-22.24-31.54-22.24-31.54Z" transform="translate(4.28 -0.5)" fill="url(#Безымянный_градиент_89-3)"/><path d="M89.34,897.05l11.15-562.29S106,397.85,106,401.51s4.4,495.54,4.4,495.54Z" transform="translate(4.28 -0.5)" fill="#2f405b"/><path d="M159,896.23l50.3-3.66-96.93-96.93L-.56,827.45l.26,72.27,56.92.25,26.49-38.49S74.88,899,77.63,899s55.78,4.58,56.69-1.82,1.83-46.64,1.83-46.64Z" transform="translate(4.28 -0.5)" fill="url(#Безымянный_градиент_56-2)"/><path d="M-.19,811.83l16.55,22.22L52,780.1l-7.31,51.2,136.25.92s-30.18-58.53-25.6-58.53,42.06,57.61,46.63,56.7,64.93,0,64-3.66-131.68-93.27-131.68-93.27L52,729.8-.19,767.15S-.49,808.84-.19,811.83Z" transform="translate(4.28 -0.5)" fill="url(#Безымянный_градиент_117)"/><path d="M-.19,746.08s46.73,8.41,47.64,4.75,14.63-29.26,14.63-29.26-2.74,29.26,0,30.18,46.64.91,46.64.91V701.45s11,48.47,16.46,49.38,30.18,2.75,30.18,2.75l-11-32.92s22.86,31.09,27.44,30.17,31.09-5.48,28.34-8.23-75-72.24-75-72.24L65.74,664Z" transform="translate(4.28 -0.5)" fill="url(#Безымянный_градиент_117-2)"/><path d="M226.68,677.68c-3.77,0-46.63,7.31-48.46,3.65s-12.81-20.11-12.81-20.11v20.11l-15.54,1.83S131.58,642.93,127,642.93s9.14,38.4,4.57,40.23-86.87,5.49-86.87,0,9.14-35.66,6.4-36.57-24.69,35.66-29.26,33.83-20.4,1.93-21.32-.81c-.29-.89,0-34.15,0-34.15l67-38.2L127,609.09S228.51,677.68,226.68,677.68Z" transform="translate(4.28 -0.5)" fill="url(#Безымянный_градиент_117-3)"/><path d="M189.19,620.07s-34.75,1.82-37.49.91-11-6.4-11-6.4-8.23,10.06-14.63,10.06-21.94-20.12-21.94-20.12-4.58,19.2-10.06,19.2-32.92-.91-32.92-.91,8.23-32,4.57-31.09-15.55,30.17-18.29,30.17S8.13,621,8.13,621s81.38-60.35,84.13-60.35,27.43,4.57,32,10.06S189.19,617.32,189.19,620.07Z" transform="translate(4.28 -0.5)" fill="url(#Безымянный_градиент_152)"/><path d="M177.3,569.77c-4.57.92-34.75,4.57-37.49.92S116,532.28,115.12,535s11.89,38.41,9.14,40.24-53-1.83-53-1.83l10-29.26S59.34,570.69,52,571.6s-25.6-1.83-25.6-1.83S83,522.55,96.83,522.22C135.24,521.3,177.3,569.77,177.3,569.77Z" transform="translate(4.28 -0.5)" fill="url(#Безымянный_градиент_117-4)"/><path d="M102.32,534.74s-23.78,4.46-23.78,1.12,7.32-31.17,7.32-31.17l-22,33.39-20.12,3.34,54.87-76.81s21,8.9,22,12.24,37.49,54.55,40.23,57.89-36.58,6.68-38.4,1.12-12.81-23.38-12.81-23.38Z" transform="translate(4.28 -0.5)" fill="url(#Безымянный_градиент_56-3)"/><path d="M64.82,499.36H48.36s50.3-65.84,54.87-66.76,48.47,63.1,48.47,63.1-11.89,6.4-13.72,3.66l-14.63-21.95s4.57,20.12,1.83,19.2-6.4,0-10.06-1.82-13.72-26.52-13.72-26.52-5.48,22.86-7.31,22.86-13.72,5.48-14.63,2.74,2.74-19.2,2.74-19.2Z" transform="translate(4.28 -0.5)" fill="url(#Безымянный_градиент_152-2)"/><path d="M73.05,426.2l28.35-60.35s32.92,63.09,30.18,63.09S116,424.37,116,424.37s-.91-13.71-4.57-15.54,1.83,15.54-2.74,15.54-17.38,1.83-17.38-1.83S93.17,407,93.17,407l-8.23,17.37Z" transform="translate(4.28 -0.5)" fill="url(#Безымянный_градиент_152-3)"/><path d="M117.86,350.3s-11.89-6.4-17.37-4.57-11.89,7.32-11.89,7.32l11.89-49.39S116,349.39,117.86,350.3Z" transform="translate(4.28 -0.5)" fill="url(#Безымянный_градиент_152-4)"/><path d="M229.35,899.75s-27.09-109-32.51-111.39S.56,725.14.56,725.14L0,745.61s32.51,10.24,30.7,12-31.91-2.41-31.91-2.41l3,15,60.81-1.2s106,40.94,106.57,43.95S188,900,188,900Z" transform="translate(4.28 -0.5)" fill="#24254e"/><path d="M120.38,717.17c.4-6.82.69-18.93.9-31.75,2.75-2.09,5.52-4.16,8.17-6.36a28.91,28.91,0,0,0,7.7-9.73c1.86-3.81,3.26-7.83,5-11.69a126.25,126.25,0,0,1,6.19-11.88c1.24-2.08,2.53-4.13,3.89-6.14,1-1.45,2.47-4.6,4.47-4.81,1.62-.16,1.64-2.71,0-2.54a6.1,6.1,0,0,0-4.25,2.63c-1.33,1.69-2.51,3.52-3.69,5.33a125.06,125.06,0,0,0-6.88,12c-2,4-3.66,8.06-5.33,12.18s-3.64,8.06-6.92,11.2a89.81,89.81,0,0,1-8.32,6.82c.18-11.23.31-22.71.41-31.42a48.92,48.92,0,0,0,3.53-12.84c.94-6.1,1.53-12.24,2.83-18.29.33-1.55.7-3.09,1.08-4.63a1.1,1.1,0,0,0,1.1-.35q9.87-10.29,19.31-21,4.65-5.24,9.18-10.58c2.66-3.13,6.06-6.53,7.39-10.51.45-1.34-1.52-2.08-2.23-.94a55.8,55.8,0,0,1-3.53,5.5c-1.3,1.66-2.7,3.26-4.07,4.87q-4.46,5.25-9,10.4-8.37,9.45-17.07,18.59c2.62-9.48,6-18.76,9.16-28.08,2.17-6.39,4.38-12.85,5.91-19.43a1.06,1.06,0,0,0,.4-.79c0-.39,0-.78,0-1.16a1.25,1.25,0,0,0-2.44-.34c-1.66,6.21-3.39,12.35-5.41,18.45s-4.17,12.14-6.19,18.23-3.88,12.19-5.34,18.41c-1.41,6-2.2,12-3,18.15-.38,2.88-.83,5.79-1.5,8.64,0-3,.09-5.15.13-6.26.31-8.72,0-76.91,0-76.91h-9l-.48,55.57c-4.94-12.17-6.78-25.54-11.23-37.9a70.68,70.68,0,0,0-5.79-12.48,1.34,1.34,0,0,0-2.31,1.35c8.63,14.37,10,31.46,15.71,46.95a74,74,0,0,0,3.57,8.17l-.57,65.79L85.26,612.22l-4.94-152c1.08-4.32,2.28-9.13,3.53-14.16a45.16,45.16,0,0,0,2.25-4.38c1-2.05,1.86-4.12,3-6.09a28.51,28.51,0,0,1,4.61-5.94c1.84-1.87,3.81-3.63,5.52-5.63a34.86,34.86,0,0,0,4.53-7c2.59-5.08,5.24-10.09,8.3-14.92a135.57,135.57,0,0,1,11.59-15.68c1-1.19-.7-2.92-1.72-1.73A136.54,136.54,0,0,0,103.13,413a65.59,65.59,0,0,1-3.88,7.26,39.43,39.43,0,0,1-5.33,6.07,45.94,45.94,0,0,0-5,5.6,31,31,0,0,0-2.72,4.75c5.13-20.53,10.57-42.1,12.48-49.13a.82.82,0,0,0,.9-.43c5.31-9.09,10.14-18.45,15.08-27.74l14.82-27.88c2.8-5.26,5.84-10.45,8.37-15.83a1.19,1.19,0,0,0-2.05-1.2c-2.7,4.54-5,9.36-7.5,14l-7.35,13.84c-4.93,9.3-9.89,18.58-14.8,27.9-2,3.82-4,7.64-6,11.5,2.32-9.91,7.57-34.58,12.6-58.89q7.89-9.47,15.7-19c5.69-6.95,11.56-13.88,15.62-21.95.74-1.48-1.48-2.79-2.23-1.3-4,8-9.84,14.93-15.47,21.87q-6.35,7.84-12.65,15.72c5.64-27.39,10.75-53,10.75-55a5.5,5.5,0,0,0-.21-1.51c7.33-11.85,14.93-23.71,19.63-36.89.53-1.5-1.85-2.14-2.38-.65-4.43,12.48-11.6,23.82-18.45,35.12a9.64,9.64,0,0,0-2.56-2.42c-.12-8.65-.34-17.3-.58-25.94q-.21-7.2-.41-14.39c-.06-2.31-.12-4.63-.19-6.94a41,41,0,0,0-.33-7.19c-.23-1-2-1.12-2.2,0a41.13,41.13,0,0,0,.06,7.19c.07,2.31.13,4.63.2,6.94q.21,7.2.43,14.39c.24,8.33.51,16.65.86,25a4.16,4.16,0,0,0-2,0s-3.27,24.52-7.35,32.69a63.5,63.5,0,0,0-3,9.29c0-.27-.1-.54-.14-.82a119,119,0,0,1-1.12-14c-.11-4.51.31-9.07-.37-13.55s-2.37-8.67-3.51-13a103.55,103.55,0,0,1-2.88-15.82c-.14-1.36-2.29-1.38-2.15,0A107.44,107.44,0,0,0,98,254.52c1,4.5,2.66,8.84,3.66,13.33,1,4.29.66,8.64.66,13a102.09,102.09,0,0,1-13.4-30.09,1,1,0,0,0-2,.55,94,94,0,0,0,15.21,33.47,1.15,1.15,0,0,0,.27.27q.19,5.34.87,10.64c.32,2.58.67,5.24,1.14,7.86-5.32,20.67-12.66,54.77-15.08,60.22-2,4.41-6.86,31.18-10.47,51.89l-1-29.83s-.83-23.33-2.08-50.82A92.78,92.78,0,0,0,81,320.74c.85-2.89,1.68-5.79,2.67-8.64.49-1.42,1-2.83,1.59-4.21s1.59-2.84,1.87-4.3a1.38,1.38,0,0,0-2.29-1.34,13.11,13.11,0,0,0-2.19,4.07c-.56,1.31-1.08,2.62-1.55,4-1,2.91-1.89,5.87-2.73,8.84-.92,3.24-1.79,6.5-2.85,9.68-1.79-38.24-4.34-81.56-6.62-81.1l-.39.05c0-.31.06-.63.08-.94q.56-7.53.85-15.07c.38-10,.35-20,0-29.94-.06-1.54-2.45-1.55-2.41,0q.39,13.23,0,26.48-.21,6.56-.61,13.1-.21,3.21-.46,6.42v0a47.69,47.69,0,0,1-7.53-1.15c-.42-.88-.87-1.75-1.27-2.61q-1.31-2.82-2.67-5.63-2.84-5.83-5.85-11.57c-4-7.66-8.21-15.21-12.42-22.76-.67-1.2-2.49-.13-1.83,1.07,4.08,7.53,8.16,15.06,12.1,22.67,1.95,3.77,3.86,7.56,5.7,11.38q1.35,2.81,2.66,5.64c.37.8.7,1.64,1,2.47.13,5,.63,24.18,1.33,49.8-1.62-3.95-3.32-7.85-5.13-11.72A257.12,257.12,0,0,0,39.61,262a1.11,1.11,0,0,0-1.91,1.12c4.35,7.61,8.4,15.41,12.07,23.37q2.74,6,5.26,12.08,1.22,3,2.37,6c.37,13.36.78,28.15,1.22,43.39C52,338.36,44.17,327.2,42,324.52c-.5-.59-1.49-1.84-2.84-3.56,0-.36-.09-.72-.13-1.09-.14-1.26-.3-2.52-.46-3.78q-.45-3.46-1-6.93-1.15-7.41-2.73-14.75a254,254,0,0,0-8-28.66c-.49-1.43-2.76-.82-2.28.63a270.08,270.08,0,0,1,7.71,28.23c1,4.73,1.91,9.5,2.67,14.28.38,2.39.73,4.8,1,7.2,0,.34.08.68.13,1-11.51-14.86-35-45.7-35-45.7L.26,286.93S9.14,297.42,15,305.37l-2.32-1.66q-6.18-4.47-12.33-9c-1.23-.9-2.38,1.13-1.19,2q6.12,4.58,12.25,9.11c2.61,1.93,5.21,3.91,7.84,5.83a10.37,10.37,0,0,1,.64,1.38c1.27,3.82,27.78,42.77,39.48,59.86C61,428,62.87,482.16,64,492.07c2.45,21.25.82,50.68.82,50.68l-21.3-68.7c.41-1.64.73-3.3,1.06-5,.67-3.5,1.3-7,1.95-10.51s1.25-6.85,1.86-10.28q.47-2.57.92-5.14c.24-1.32.37-2.79.72-4.13l.13-.08a1.36,1.36,0,0,0-.83-2.37c-1.93-.05-1.92,2.65-2.15,3.94q-1.14,6.38-2.27,12.73c-.76,4.25-1.49,8.5-2.22,12.75-.2,1.17-.39,2.34-.58,3.52l-10-32.2L6.8,431.59s21.25,87.46,25.34,98.08,10.62,47.4,10.62,47.4L1.08,488.8.26,520.68S42,608.13,47.67,622.84s20.43,43.32,22.88,57.22S91,774.86,91.8,781.4s22.07,118.51,22.07,118.51H167Z" transform="translate(4.28 -0.5)" fill="#081a32"/><path d="M508.09,613.4a24.22,24.22,0,0,0-4.7,1.56l-4.67,1.66L489.39,620q-4.68,1.71-9.35,3.47c6.26-7.09,11.43-12.89,11.43-12.89l-2.18-12-3.45,3.67c.73-1.4,1.44-2.82,2.11-4.26,1.47-3.15,2.73-6.4,4.13-9.58.71-1.6,1.45-3.17,2.29-4.7s1.87-2.92,2.71-4.44a1.09,1.09,0,0,0-1.71-1.31c-2.45,2.3-3.93,5.76-5.27,8.79-1.44,3.24-2.72,6.55-4.2,9.78-2,4.32-4.19,8.55-6.59,12.66-14,14.84-38.17,40.16-41.24,41.7-3.81,1.9-2.62-5.37-3.36-7.22.64-1.24,1.33-2.46,2-3.68a89.34,89.34,0,0,0,5.07-9.76c1.41-3.32,2.58-6.74,3.92-10.09a44.1,44.1,0,0,1,5.75-10.69c.86-1.12-1-2.2-1.89-1.1-4.53,5.88-6.61,13.08-9.37,19.87a76.15,76.15,0,0,1-5.15,10,46.37,46.37,0,0,0-4.95,10.28,34.69,34.69,0,0,0-1,5.2c-9.48,21.37-28.69,68.38-30.79,73.42-2.72,6.54-58.84,99.17-63.75,101.34S358,768.6,365.06,758.79c4.38-6.07,8.56-19.44,11.1-28.76a90.54,90.54,0,0,0,5.35-32.81,1.05,1.05,0,0,0-2.1,0,91.08,91.08,0,0,1-3.18,25,24.53,24.53,0,0,0-4,6.5v0a109.18,109.18,0,0,0-2.46-13.42,119.29,119.29,0,0,0-9.7-26c-.72-1.4-2.81-.17-2.11,1.23A120,120,0,0,1,367,715.06a113.72,113.72,0,0,1,2.49,12.66,32.73,32.73,0,0,1,.33,6.23c-12.3,21.91-110.6,166.26-110.6,166.26l62.23.79s32.69-56.66,35.41-63.2c.33-.78,1.3-2.8,2.77-5.78,8.26-6.61,15.47-14.4,22.94-21.89,1.19-1.19,2.4-2.38,3.61-3.55,17.22-5.31,35.59-3.65,52.91-8.4a1.33,1.33,0,0,0-.7-2.56C422.64,800,405.7,798.5,390,803q3.86-3.62,7.85-7.08a1.2,1.2,0,0,0,.93-.52l.5-.72c4.23-3.62,8.55-7.14,13-10.51q4.34-3.28,8.78-6.42c3.08-2.17,6.28-4.19,9.32-6.44,1.22-.9.17-2.87-1.22-2.09a153.47,153.47,0,0,0-16.41,11.29q-3.86,2.89-7.61,5.9,12-16.85,24.37-33.35c2.25-3,4.53-5.95,6.8-8.91a1,1,0,0,0,1.13-.54c.41-.82.79-1.65,1.18-2.49.59-1.25-1.09-2.9-2.09-1.61q-16.15,20.78-31.25,42.35c-2.41,3.42-4.77,6.87-7.12,10.33l-.51.43c-9.93,8.51-18.89,17.92-28.12,27.17-2.34,2.35-4.73,4.66-7.19,6.88,13.54-27.1,47.74-94.15,56.67-114.7.77-1.78,1.63-3.61,2.54-5.47,6.85.58,13.72,1.11,20.61,1.53a179.62,179.62,0,0,1,14.11,13.76c3.81,4.15,8,8.54,14,9,1.73.13,1.73-2.58,0-2.7-5.57-.38-9.51-5.33-13-9.1s-7.15-7.29-11-10.7q3.11.18,6.21.31a1.13,1.13,0,0,0,1.22.3l.65-.22c6.65.27,13.29.41,19.93.36a55.64,55.64,0,0,0,14.32-1.66,1.44,1.44,0,0,0-.76-2.77c-8.29,2.25-17.14,1.59-25.63,1.35a164.78,164.78,0,0,0,17.38-7.65q6.19-3.18,12.13-6.87c2-1.25,4-2.54,5.92-3.87a42.58,42.58,0,0,0,5.63-4.12,1.3,1.3,0,0,0-1.56-2c-2,1.14-3.87,2.74-5.8,4s-3.69,2.46-5.56,3.63q-5.82,3.63-11.93,6.77A168,168,0,0,1,455,705.67q-6.23-.23-12.43-.53a1.22,1.22,0,0,0-.88,0c-2.11-.11-4.22-.22-6.33-.35q-6.28-.37-12.58-.84c12.22-23.9,33.46-52.25,35.41-55.18.44-.66,2.06-2.62,4.36-5.3a27.3,27.3,0,0,1,5.18-2.24,5.28,5.28,0,0,1,2.88-.33,15.61,15.61,0,0,1,2.17,1A14.34,14.34,0,0,0,478,643c3.83.22,7.63,0,11.46.49q2.91.33,5.79.92c1.92.4,4,1.25,5.92,1.31a1.22,1.22,0,0,0,.61-2.25c-1.78-1-4.29-1.31-6.3-1.7s-4-.69-6-.92-4.13-.36-6.2-.41-4.11.09-6.16-.12a11,11,0,0,1-2.84-.62c2.63-2,5.85-3.16,8.86-4.45l5.45-2.33,2.55-1.09a10.43,10.43,0,0,0,2.73-1.37,1.21,1.21,0,0,0-.85-2,9.69,9.69,0,0,0-2.84,1l-2.91,1.25L481.64,633c-3.44,1.48-6.95,2.84-9.85,5.28l-.18.18a8.09,8.09,0,0,0-5.23.54c3.14-3.62,6.8-7.8,10.36-11.83l13.53-5,9.33-3.37,4.67-1.66a25.37,25.37,0,0,0,4.68-1.78A1.12,1.12,0,0,0,508.09,613.4Z" transform="translate(4.28 -0.5)" fill="#081a32"/><ellipse cx="403.28" cy="822.38" rx="5.72" ry="9.26" fill="url(#Безымянный_градиент_215)"/><ellipse cx="432.9" cy="855.85" rx="6.53" ry="10.58" fill="url(#Безымянный_градиент_215-2)"/><ellipse cx="371.32" cy="875.56" rx="5.83" ry="9.45" fill="url(#Безымянный_градиент_215-3)"/><ellipse cx="335.89" cy="848.71" rx="5.83" ry="9.45" transform="translate(-292.04 189.85) rotate(-22.25)" fill="url(#Безымянный_градиент_215-4)"/><ellipse cx="332.25" cy="886.13" rx="5.83" ry="9.45" transform="translate(-306.48 191.26) rotate(-22.25)" fill="url(#Безымянный_градиент_215-5)"/><ellipse cx="445.04" cy="880.31" rx="9.45" ry="5.83" transform="translate(-426.33 425.67) rotate(-35.77)" fill="url(#Безымянный_градиент_215-6)"/><ellipse cx="132.77" cy="724.56" rx="9.45" ry="5.83" transform="translate(-599.45 737.24) rotate(-80.64)" fill="url(#Безымянный_градиент_215-7)"/><ellipse cx="122.6" cy="775.41" rx="5.83" ry="9.45" transform="translate(-44.79 8.87) rotate(-3.65)" fill="url(#Безымянный_градиент_215-8)"/><ellipse cx="99.1" cy="766.59" rx="4.99" ry="8.07" transform="translate(-44.27 7.35) rotate(-3.65)" fill="url(#Безымянный_градиент_215-9)"/><ellipse cx="103.41" cy="826.97" rx="4.99" ry="8.07" transform="translate(-48.1 7.75) rotate(-3.65)" fill="url(#Безымянный_градиент_215-10)"/><ellipse cx="144.68" cy="824.55" rx="8.07" ry="4.99" transform="translate(-687.15 782.14) rotate(-77.18)" fill="url(#Безымянный_градиент_215-11)"/><path d="M132.06,732.78c-.81,10.89-1.61,21.81-1.53,32.74,0,5.43.5,10.83.71,16.25s-.61,10.69-1.3,16c-1.37,10.73.18,21.32.43,32.06a110.07,110.07,0,0,1-1,15.92c-.65,5.36-1.19,10.73-1.58,16.12a313.49,313.49,0,0,0-.54,36.91c.05,1.21,1.94,1.22,1.89,0-.4-10.91-.32-21.84.32-32.73q.47-8.12,1.35-16.19c.58-5.37,1.39-10.72,1.5-16.13.23-10.73-1.76-21.43-.86-32.16.44-5.24,1.52-10.41,1.71-15.66.2-5.42-.53-10.84-.74-16.25-.48-12.31.22-24.63.9-36.92,0-.81-1.2-.8-1.25,0Z" transform="translate(4.28 -0.5)" fill="#4f5a91"/><path d="M123.08,785a107.1,107.1,0,0,0,.06,27.48c1,8.1,2.38,17.13,7.41,23.84.45.6,1.48,0,1-.61A35,35,0,0,1,127,824.49a103.2,103.2,0,0,1-2.33-12.92,120.68,120.68,0,0,1-.09-26.53c.1-1-1.36-.93-1.48,0Z" transform="translate(4.28 -0.5)" fill="#4f5a91"/><path d="M100.42,774.62c2.18,8.11,4.33,16.23,6.55,24.34l3.33,12.15a88.44,88.44,0,0,1,2.78,12.32c.5,4,.43,8.07.79,12.09s1.18,8.18,1.53,12.29a139,139,0,0,1-.52,24.48c-.82,9.21-2,18.42-2,27.68a1,1,0,0,0,1.89,0c0-16.47,3.6-32.8,2.7-49.28-.22-4.05-.85-8-1.39-12-.58-4.26-.58-8.55-.92-12.83-.65-8.19-3.35-16.14-5.52-24-2.54-9.21-5.14-18.41-7.72-27.6a.76.76,0,0,0-1.46.4Z" transform="translate(4.28 -0.5)" fill="#4f5a91"/><path d="M103.48,835.09c.94,6.28,1.53,12.77,3.18,18.92,1.38,5.16,3.85,10,8.18,13.32.92.7,1.82-.86.91-1.55-4.31-3.28-6.47-8.47-7.67-13.6-1.35-5.76-2.11-11.68-3.08-17.51-.17-1-1.67-.57-1.52.42Z" transform="translate(4.28 -0.5)" fill="#4f5a91"/><path d="M129.39,858a21.22,21.22,0,0,0,10.4-9.21,21.7,21.7,0,0,0,2.43-7.48c.44-3.07.28-6.25.85-9.3.21-1.11-1.51-1.28-1.48-.2a45.43,45.43,0,0,1-.83,8.38,24,24,0,0,1-2.3,7.4,19.86,19.86,0,0,1-9.71,8.89c-.85.37-.23,1.88.64,1.52Z" transform="translate(4.28 -0.5)" fill="#4f5a91"/><path d="M101.72,820.41l.32-.11a1,1,0,0,0,.43-.26.94.94,0,0,0,.26-.44.92.92,0,0,0,0-.52.94.94,0,0,0-.26-.44.91.91,0,0,0-.43-.26,1.19,1.19,0,0,0-.53,0,1,1,0,0,0-.44.26.92.92,0,0,0-.25.44l-.12.31a.82.82,0,0,0,0,.44.83.83,0,0,0,.22.37.82.82,0,0,0,.8.21Z" transform="translate(4.28 -0.5)" fill="#4f5a91"/><path d="M97.41,759.87h.23a1.26,1.26,0,0,0,.28,0l.24-.1a1,1,0,0,0,.36-.37,1,1,0,0,0,.14-.5,1,1,0,0,0-1-1h-.23a.65.65,0,0,0-.38.09.72.72,0,0,0-.33.21.69.69,0,0,0-.21.32.74.74,0,0,0-.08.39l0,.27a1.1,1.1,0,0,0,.26.44l.21.16a1,1,0,0,0,.5.14Z" transform="translate(4.28 -0.5)" fill="#4f5a91"/><path d="M121.66,767.88h.21a1.11,1.11,0,0,0,.59-.16,1.5,1.5,0,0,0,.25-.19.8.8,0,0,0,.22-.35.87.87,0,0,0,.1-.42l0-.29a1.05,1.05,0,0,0-.28-.48,1.5,1.5,0,0,0-.25-.19l-.27-.12-.29,0h-.24a.91.91,0,0,0-.43.1.77.77,0,0,0-.36.23.86.86,0,0,0-.23.36.88.88,0,0,0-.1.43l0,.3a1.23,1.23,0,0,0,.29.49l.23.17a1.1,1.1,0,0,0,.56.16Z" transform="translate(4.28 -0.5)" fill="#4f5a91"/><path d="M134.63,716.8l.26-.29a.72.72,0,0,0,.21-.31.86.86,0,0,0,.09-.39.85.85,0,0,0-.09-.38.75.75,0,0,0-.21-.32l-.2-.15a1,1,0,0,0-.5-.14l-.26,0a1,1,0,0,0-.44.25l-.28.26a.72.72,0,0,0-.21.33.86.86,0,0,0-.09.39.85.85,0,0,0,.09.38.72.72,0,0,0,.21.33l.2.16a1,1,0,0,0,.51.13l.27,0a1,1,0,0,0,.44-.26Z" transform="translate(4.28 -0.5)" fill="#4f5a91"/><path d="M147.54,819.47a1.5,1.5,0,0,0,0-3,1.5,1.5,0,0,0,0,3Z" transform="translate(4.28 -0.5)" fill="#4f5a91"/><path d="M339.09,858.16c1.93,7.44,3.62,14.92,5.2,22.43a21.18,21.18,0,0,0,1.52,4.85,32.9,32.9,0,0,0,3,4.68l3.46,4.88c1.09,1.54,2.1,3.18,3.33,4.61.56.66,1.59-.19,1.18-.91-.95-1.64-2.18-3.16-3.27-4.71l-3.31-4.69a34.55,34.55,0,0,1-2.89-4.48,21.14,21.14,0,0,1-1.59-5.35c-1.48-7.3-3.05-14.57-4.9-21.78a.9.9,0,0,0-1.73.47Z" transform="translate(4.28 -0.5)" fill="#4f5a91"/><path d="M369.43,899.64a26.28,26.28,0,0,0,.19-7.25,31.14,31.14,0,0,0-.61-3.45c-.13-.57-.28-1.14-.46-1.7s-.51-1.26-.66-1.9c-.28-1.14-2.11-.48-1.53.64a10,10,0,0,1,.54,1.71c.17.57.31,1.14.44,1.71a27.37,27.37,0,0,1,.54,3.24,32.69,32.69,0,0,1,0,6.78c-.09.9,1.44,1.11,1.58.22Z" transform="translate(4.28 -0.5)" fill="#4f5a91"/><path d="M337.22,894a20.47,20.47,0,0,1,3.81,2.72,23.23,23.23,0,0,1,1.63,1.66c.53.61,1,1.3,1.56,1.87a.77.77,0,0,0,1.2-.93,9.16,9.16,0,0,0-1.57-2.05,21.58,21.58,0,0,0-1.75-1.7,22,22,0,0,0-4.14-2.83c-.84-.44-1.57.8-.74,1.26Z" transform="translate(4.28 -0.5)" fill="#4f5a91"/><path d="M399,832.62c.26,18,7.5,34.83,10,52.47a77.52,77.52,0,0,1,.73,7.75c.1,2.55-.17,5.09-.1,7.63,0,.88,1.41,1.15,1.6.21a31,31,0,0,0,.34-6.53q-.06-3.37-.42-6.72A109.12,109.12,0,0,0,409,874.49c-2-8.83-4.65-17.53-6.39-26.43a87,87,0,0,1-1.75-15.44.89.89,0,0,0-1.78,0Z" transform="translate(4.28 -0.5)" fill="#4f5a91"/><path d="M416,859.93a99.62,99.62,0,0,0,2.2,22c1.16,5.27,3.3,10.92,8.31,13.64,1.16.63,2.19-1.15,1-1.77-4.78-2.56-6.56-8.12-7.61-13.1a104.07,104.07,0,0,1-2.2-20.75.87.87,0,0,0-1.73,0Z" transform="translate(4.28 -0.5)" fill="#4f5a91"/><path d="M427.52,867.29q-.34,8.15-.7,16.29c-.11,2.67-.25,5.33-.46,8-.1,1.28-.2,2.57-.35,3.86s-.52,2.88-.54,4.31a.94.94,0,0,0,1.84.25,18.38,18.38,0,0,0,.67-3.84c.17-1.37.32-2.73.42-4.1.21-2.74.27-5.49.37-8.24q.32-8.27.62-16.53c.05-1.21-1.82-1.2-1.87,0Z" transform="translate(4.28 -0.5)" fill="#4f5a91"/><path d="M434.92,900.6A34.23,34.23,0,0,0,440,887.42a1,1,0,0,0-.59-1.19,1,1,0,0,0-1.25.41,1.79,1.79,0,0,0-.22,1.08.86.86,0,0,0,1.45.6,1.86,1.86,0,0,0,.61-.9l-1.95-.54a32.75,32.75,0,0,1-4.86,12.71c-.71,1.09,1,2.1,1.74,1Z" transform="translate(4.28 -0.5)" fill="#4f5a91"/><path d="M745.76,766.58a62.92,62.92,0,0,1,8.12,2.83,54.09,54.09,0,0,1,14.27,9.52c9.26,8.53,15.44,19.76,19.22,31.67A121.23,121.23,0,0,1,792,832.66c.13,1,1.73,1,1.61,0-1.58-13.41-4.77-26.82-11.4-38.69-5.68-10.14-14-19.14-24.34-24.6a48.2,48.2,0,0,0-9.07-3.69c-3.28-.94-6.87-1.44-9.39-3.93a.7.7,0,0,0-1,1C740.4,764.8,743.07,765.78,745.76,766.58Z" transform="translate(4.28 -0.5)" fill="#4f5a91"/><path d="M891.44,799.29q-7.34,8.7-14.63,17.43a16.17,16.17,0,0,0-.81-3.66,38.73,38.73,0,0,0-1.45-3.84,16.7,16.7,0,0,0-2-3.74c-.52-.65-1.7.06-1.41.83.43,1.15,1.14,2.22,1.65,3.34s.94,2.25,1.33,3.4c.64,1.87,1.49,4.22.61,6.12l-1.29,1.53c-5.57,6.63-11.63,13.09-16.26,20.42-4.3,6.8-6.32,14.94-12.17,20.7-3.43,3.38-7.49,5.94-11.49,8.61a.66.66,0,0,0-.35.23c-1.91,1.28-3.79,2.58-5.57,4A38.84,38.84,0,0,0,816,890.87c-.35-5.87-1.65-11.61-5.34-16.4-2.83-3.67-6.63-6.49-10.48-9a72.37,72.37,0,0,0-12.59-6.63,57.08,57.08,0,0,0-27.95-4.21,140.42,140.42,0,0,0-15.19,3.08l-.62.14-.21-.07-.09,0-.31-.16c-.13-.07-.24-.15-.36-.23h0a1.07,1.07,0,0,1-.16-.14,3.57,3.57,0,0,1-.28-.27l-.14-.16c0-.06-.2-.18,0,0a2.44,2.44,0,0,1-.4-.68l0,0-.06-.17c0-.14-.07-.27-.1-.41h0c0-.08,0-.16,0-.24V855c0-.05,0-.33,0-.07a.86.86,0,1,0-1.7-.23,4.23,4.23,0,0,0,1.56,3.68c-4.17.9-8.37,1.67-12.6,2.23l-.56.07a9,9,0,0,1-4.32-.42,5.13,5.13,0,0,1-2.51-2.66,20.43,20.43,0,0,1-1.14-3.74,18,18,0,0,0-.56-1.9,4,4,0,0,0-1.09-1.91c-.48-.36-1,.15-1.07.61a3.56,3.56,0,0,0,.24,1.2c.09.35.17.69.25,1,.18.69.33,1.39.5,2.08a16.66,16.66,0,0,0,1.41,4.13,6.61,6.61,0,0,0,2,2.24c-2.52.2-5.06.31-7.59.33a15.37,15.37,0,0,1-9.39-9.81.85.85,0,0,0-1.63.45,16.61,16.61,0,0,0,6.77,9.29,76.55,76.55,0,0,1-16.56-2.35.75.75,0,0,0-.4,1.44,73.08,73.08,0,0,0,14.41,2.63,10.44,10.44,0,0,0-5,5.81c-.4,1.18,1.47,1.69,1.86.51,1.31-3.86,5-5.55,8.83-6.05h1c.53.17,1.07.33,1.63.45a.93.93,0,0,0,1-.47c2,0,4-.14,6-.31,10.16-.84,20-3.17,29.94-5.26a58.23,58.23,0,0,1,14.71-1.45,55.86,55.86,0,0,1,13.74,2.4,64.42,64.42,0,0,1,24.42,13.51,23.7,23.7,0,0,1,7.35,12.91c1.07,5.08.92,10.34.8,15.5a1,1,0,0,0,2,0c.08-1.68.15-3.4.17-5.12a.9.9,0,0,0,.13-.26,38.81,38.81,0,0,1,11.67-18.4,74.49,74.49,0,0,1,6.6-4.84,26.3,26.3,0,0,1,5.68,2.92,14.52,14.52,0,0,1,2.61,2.34,10.55,10.55,0,0,1,1,1.38c.32.52.53,1.13.86,1.65a.88.88,0,0,0,1.6-.68,8.93,8.93,0,0,0-2-3.43,15.74,15.74,0,0,0-2.93-2.66,21.26,21.26,0,0,0-5.13-2.63,78.26,78.26,0,0,0,9.1-6.69,31.68,31.68,0,0,0,6.74-8.57c1.91-3.52,3.34-7.28,5.26-10.8,4.1-7.53,10-14,15.51-20.52,6.66-8,13.36-15.95,20-23.95C893.48,799.69,892.21,798.39,891.44,799.29Z" transform="translate(4.28 -0.5)" fill="#4f5a91"/><path d="M905.12,746.14c5.7-.95,11.44,17.16,7.35,30.24s-22.88,27-22.88,27S900.21,747,905.12,746.14Z" transform="translate(4.28 -0.5)" fill="#091e53"/><path d="M861,747.78c5.2-5.21,17.16,18,17.16,27s-6.53,35.14-6.53,35.14S856.89,751.86,861,747.78Z" transform="translate(4.28 -0.5)" fill="#091e53"/><path d="M832.37,757.58c2.75-3.43,21.25,22.07,24.52,34.33S861,831.14,861,831.14,840.55,800.08,838.1,787,829.1,761.67,832.37,757.58Z" transform="translate(4.28 -0.5)" fill="#091e53"/><path d="M800.5,783.74c5.31-3.54,20.43,7.35,30.24,19.61s20.43,45.77,20.43,45.77-34.32-34.32-38.41-39.23S798.05,785.37,800.5,783.74Z" transform="translate(4.28 -0.5)" fill="#091e53"/><path d="M776,831.14c4.09-5.72,31.87,3.27,40,11.44s20.43,31.06,20.43,31.06S807,858.93,794,850.76A48.37,48.37,0,0,1,776,831.14Z" transform="translate(4.28 -0.5)" fill="#091e53"/><path d="M769.44,883.45c-7.1-14.19,18-14.71,24.52-13.89s22.89,9,22.89,9a80.16,80.16,0,0,1-22.07,8.17C782.52,889.17,773.53,891.62,769.44,883.45Z" transform="translate(4.28 -0.5)" fill="#091e53"/><path d="M931.27,849.12c11.21,2.81,1.63-20.43-16.35-27.79s-40.86-3.27-40.86-3.27,24.52,11.45,33.51,17.17S924.73,847.49,931.27,849.12Z" transform="translate(4.28 -0.5)" fill="#091e53"/><path d="M909.2,881.81c8.37-.83,10.63-15.52-.82-28.6S861,831.14,861,831.14s23.7,19.62,31.06,28.61S901,882.63,909.2,881.81Z" transform="translate(4.28 -0.5)" fill="#091e53"/><path d="M898.58,899.8s-4.09-27.79-17.17-37.6-30.24-13.08-30.24-13.08,18.8,29.43,22.89,36,8.17,14.72,8.17,14.72Z" transform="translate(4.28 -0.5)" fill="#091e53"/><path d="M843,877.73s17.16,10.62,20.43,18l3.27,7.36-18-1.64Z" transform="translate(4.28 -0.5)" fill="#091e53"/><path d="M755.55,898.16c4.08-4.9.81-17.16-4.91-23.7s-16.34-16.35-16.34-16.35,4.08,20.44,7.35,25.34S755.55,898.16,755.55,898.16Z" transform="translate(4.28 -0.5)" fill="#091e53"/><path d="M747.37,797.63c5.72-.82,10.63,13.08,9,25.34S740,858.11,740,858.11,730.21,800.08,747.37,797.63Z" transform="translate(4.28 -0.5)" fill="#091e53"/><path d="M700.79,801.72c6.19-5.58,16.34,15.53,17.16,24.52s3.27,30.24,3.27,30.24-18.8-29.43-19.62-36S692.61,809.07,700.79,801.72Z" transform="translate(4.28 -0.5)" fill="#091e53"/><path d="M664,814c4.75-5.85,17.16,3.27,23.7,11.44s18.8,29.42,18.8,29.42S653.38,827.05,664,814Z" transform="translate(4.28 -0.5)" fill="#091e53"/><path d="M643.57,854c1.58-7.9,19.62-8.18,29.43-4.09s23.7,9.81,23.7,9.81S640.31,870.37,643.57,854Z" transform="translate(4.28 -0.5)" fill="#091e53"/><path d="M704.06,866.29s-17.17,28.6-18,31.87,18.8,2.45,18.8,2.45S710.59,881,704.06,866.29Z" transform="translate(4.28 -0.5)" fill="#091e53"/><path d="M722.85,863.83s-6.53,12.26-6.53,18,2.45,18.8,2.45,18.8l15.53.82S731,873.64,722.85,863.83Z" transform="translate(4.28 -0.5)" fill="#091e53"/><path d="M744.58,721.65c5.29-5,9.38,10.76,9,17l-1.39,25S737.29,728.59,744.58,721.65Z" transform="translate(4.28 -0.5)" fill="#091e53"/><path d="M717.15,739c2-2.61,11.46,2.43,15.63,11.46S741.46,764,741.46,764,709.52,749.08,717.15,739Z" transform="translate(4.28 -0.5)" fill="#091e53"/><path d="M719.24,777.2c.11-5.31,29.51-5.55,31.94-8S718.89,793.17,719.24,777.2Z" transform="translate(4.28 -0.5)" fill="#091e53"/><path d="M774.1,741.44c6.77-2.79,4.51,13.19,1.73,19.1s-9,18.4-9,17.36S768.19,743.87,774.1,741.44Z" transform="translate(4.28 -0.5)" fill="#091e53"/><path d="M744.58,787.62c-2.62-2.22,1-7,8.68-10.07s17,3.12,17,3.12-9.38-4.16-13.89.7S749.1,791.44,744.58,787.62Z" transform="translate(4.28 -0.5)" fill="#091e53"/><path d="M763.68,801.16c2.27-3.51,14.24,2.43,17.71,6.25S792.5,823,792.5,823,759.86,807.06,763.68,801.16Z" transform="translate(4.28 -0.5)" fill="#091e53"/><path d="M792.15,783.1c4.24.17-1,16-1.73,21.18a52.58,52.58,0,0,0,.34,12.16S783.12,782.76,792.15,783.1Z" transform="translate(4.28 -0.5)" fill="#091e53"/></g></svg>