<svg id="Слой_1" data-name="Слой 1" xmlns="http://www.w3.org/2000/svg" xmlns:xlink="http://www.w3.org/1999/xlink" viewBox="0 0 955.01 902"><defs><linearGradient id="Безымянный_градиент_185" x1="477.76" y1="902" x2="477.76" gradientUnits="userSpaceOnUse"><stop offset="0.2" stop-color="#fff4d7"/><stop offset="0.48" stop-color="#fff2d4"/><stop offset="0.73" stop-color="#ffc598"/><stop offset="1" stop-color="#45698c"/></linearGradient><linearGradient id="Безымянный_градиент_198" x1="329.87" y1="433.95" x2="112.23" y2="188.93" gradientTransform="matrix(-0.99, -0.15, -0.15, 0.99, 1069.55, 27.25)" gradientUnits="userSpaceOnUse"><stop offset="0.27" stop-color="#fed5ac"/><stop offset="0.68" stop-color="#fff0d5"/></linearGradient><linearGradient id="Безымянный_градиент_175" x1="667" y1="457" x2="667" y2="188.85" gradientUnits="userSpaceOnUse"><stop offset="0.01" stop-color="#ffeace"/><stop offset="0.48" stop-color="#ffc69a"/><stop offset="0.58" stop-color="#f7c29d"/><stop offset="0.72" stop-color="#e1b7a4"/><stop offset="0.89" stop-color="#bea5b0"/><stop offset="1" stop-color="#a598b8"/></linearGradient><linearGradient id="Безымянный_градиент_175-2" x1="464.54" y1="521.58" x2="464.54" y2="225.87" xlink:href="#Безымянный_градиент_175"/><linearGradient id="Безымянный_градиент_190" x1="276.14" y1="308.13" x2="129.28" y2="562.49" gradientUnits="userSpaceOnUse"><stop offset="0" stop-color="#fefce8"/><stop offset="0.42" stop-color="#ffe7b5"/><stop offset="0.43" stop-color="#ffeab8"/><stop offset="1" stop-color="#fdbc87"/></linearGradient><linearGradient id="Безымянный_градиент_175-3" x1="439.5" y1="548.08" x2="439.5" y2="352.97" xlink:href="#Безымянный_градиент_175"/><linearGradient id="Безымянный_градиент_112" x1="246.05" y1="651.98" x2="295.01" y2="374.34" gradientUnits="userSpaceOnUse"><stop offset="0.1" stop-color="#324e6a"/><stop offset="0.4" stop-color="#45688c"/><stop offset="0.43" stop-color="#4f6b8b"/><stop offset="0.52" stop-color="#67728a"/><stop offset="0.58" stop-color="#707489"/><stop offset="0.81" stop-color="#c08e73"/><stop offset="1" stop-color="#feb37a"/></linearGradient><linearGradient id="Безымянный_градиент_71" x1="315" y1="363" x2="949" y2="363" gradientUnits="userSpaceOnUse"><stop offset="0" stop-color="#436183"/><stop offset="1" stop-color="#3a495a"/></linearGradient><linearGradient id="Безымянный_градиент_57" x1="926.1" y1="944.86" x2="267.78" y2="564.77" gradientUnits="userSpaceOnUse"><stop offset="0" stop-color="#5c7088"/><stop offset="0.61" stop-color="#ac826c"/><stop offset="1" stop-color="#cc8a6a"/></linearGradient><linearGradient id="Безымянный_градиент_30" x1="167.51" y1="873" x2="167.51" y2="457" gradientUnits="userSpaceOnUse"><stop offset="0" stop-color="#324e6a"/><stop offset="0.7" stop-color="#45688c"/><stop offset="0.71" stop-color="#46688c"/><stop offset="0.81" stop-color="#5d6f8a"/><stop offset="0.91" stop-color="#6b7389"/><stop offset="1" stop-color="#707489"/></linearGradient><linearGradient id="Безымянный_градиент_24" x1="119.03" y1="999.88" x2="487.29" y2="561" gradientUnits="userSpaceOnUse"><stop offset="0" stop-color="#43698c"/><stop offset="0.1" stop-color="#3f6284"/><stop offset="0.43" stop-color="#35506d"/><stop offset="0.73" stop-color="#2f455f"/><stop offset="1" stop-color="#2d415a"/></linearGradient><linearGradient id="Безымянный_градиент_24-2" x1="479" y1="843" x2="285" y2="843" xlink:href="#Безымянный_градиент_24"/><linearGradient id="Безымянный_градиент_60" x1="386" y1="726.9" x2="950" y2="726.9" gradientUnits="userSpaceOnUse"><stop offset="0" stop-color="#ffeab8"/><stop offset="1" stop-color="#feb379"/></linearGradient><linearGradient id="Безымянный_градиент_69" x1="488.88" y1="759.89" x2="946" y2="759.89" gradientUnits="userSpaceOnUse"><stop offset="0" stop-color="#ffe1ae"/><stop offset="0.53" stop-color="#ffeab8"/><stop offset="1" stop-color="#feb379"/></linearGradient><linearGradient id="Безымянный_градиент_114" x1="609.63" y1="324.57" x2="989.06" y2="391.48" gradientUnits="userSpaceOnUse"><stop offset="0" stop-color="#42648a"/><stop offset="0.29" stop-color="#3f5e82"/><stop offset="0.73" stop-color="#354f6c"/><stop offset="1" stop-color="#2e445c"/></linearGradient><linearGradient id="Безымянный_градиент_84" x1="762.5" y1="276" x2="762.5" y2="706" gradientUnits="userSpaceOnUse"><stop offset="0" stop-color="#42648a"/><stop offset="0.11" stop-color="#3f6084"/><stop offset="0.68" stop-color="#334c67"/><stop offset="1" stop-color="#2e445c"/></linearGradient><linearGradient id="Безымянный_градиент_83" x1="691.55" y1="403.06" x2="740.43" y2="680.28" gradientUnits="userSpaceOnUse"><stop offset="0.02" stop-color="#c4896d"/><stop offset="0.47" stop-color="#42648a"/><stop offset="1" stop-color="#2e445c"/></linearGradient><linearGradient id="Безымянный_градиент_84-2" x1="829.64" y1="362" x2="829.64" y2="804" xlink:href="#Безымянный_градиент_84"/><linearGradient id="Безымянный_градиент_90" x1="837.5" y1="807" x2="837.5" y2="529" gradientUnits="userSpaceOnUse"><stop offset="0" stop-color="#2d415a"/><stop offset="1" stop-color="#43688b"/></linearGradient><linearGradient id="Безымянный_градиент_85" x1="802.79" y1="390.96" x2="860.14" y2="716.17" gradientUnits="userSpaceOnUse"><stop offset="0.02" stop-color="#c4896d"/><stop offset="0.47" stop-color="#42648a"/><stop offset="1" stop-color="#43698d"/></linearGradient><linearGradient id="Безымянный_градиент_201" x1="236.42" y1="779.01" x2="393.32" y2="779.01" gradientUnits="userSpaceOnUse"><stop offset="0" stop-color="#313f5c"/><stop offset="0.31" stop-color="#33506c"/><stop offset="0.7" stop-color="#45688c"/><stop offset="0.71" stop-color="#46688c"/><stop offset="0.81" stop-color="#5d6f8a"/><stop offset="0.91" stop-color="#6b7389"/><stop offset="1" stop-color="#707489"/></linearGradient><linearGradient id="Безымянный_градиент_203" x1="306.26" y1="689.02" x2="323.42" y2="786.34" gradientUnits="userSpaceOnUse"><stop offset="0.26" stop-color="#313f5c"/><stop offset="0.7" stop-color="#45688c"/><stop offset="0.71" stop-color="#46688c"/><stop offset="0.81" stop-color="#5d6f8a"/><stop offset="0.91" stop-color="#6b7389"/><stop offset="1" stop-color="#707489"/></linearGradient><linearGradient id="Безымянный_градиент_205" x1="284.79" y1="656.36" x2="354.28" y2="739.17" gradientUnits="userSpaceOnUse"><stop offset="0.11" stop-color="#313f5c"/><stop offset="0.7" stop-color="#45688c"/><stop offset="0.71" stop-color="#46688c"/><stop offset="0.81" stop-color="#5d6f8a"/><stop offset="0.91" stop-color="#6b7389"/><stop offset="1" stop-color="#707489"/></linearGradient><linearGradient id="Безымянный_градиент_205-2" x1="280.52" y1="600.23" x2="362.59" y2="698.05" xlink:href="#Безымянный_градиент_205"/><linearGradient id="Безымянный_градиент_215" x1="292.16" y1="570.12" x2="350" y2="639.05" gradientUnits="userSpaceOnUse"><stop offset="0" stop-color="#313f5c"/><stop offset="0.37" stop-color="#45688c"/><stop offset="0.38" stop-color="#46688c"/><stop offset="0.47" stop-color="#5d6f8a"/><stop offset="0.56" stop-color="#6b7389"/><stop offset="0.63" stop-color="#707489"/><stop offset="0.98" stop-color="#ec9d6a"/></linearGradient><linearGradient id="Безымянный_градиент_218" x1="293.87" y1="536.21" x2="342.6" y2="594.28" gradientUnits="userSpaceOnUse"><stop offset="0" stop-color="#313f5c"/><stop offset="0.99" stop-color="#45688c"/></linearGradient><linearGradient id="Безымянный_градиент_223" x1="294.07" y1="499.72" x2="330.57" y2="562.95" gradientUnits="userSpaceOnUse"><stop offset="0" stop-color="#313f5c"/><stop offset="0.47" stop-color="#45688c"/><stop offset="0.92" stop-color="#46668b"/></linearGradient><linearGradient id="Безымянный_градиент_215-2" x1="297.9" y1="472" x2="330.63" y2="528.68" xlink:href="#Безымянный_градиент_215"/><linearGradient id="Безымянный_градиент_215-3" x1="299.92" y1="420.69" x2="325.37" y2="464.76" xlink:href="#Безымянный_градиент_215"/><linearGradient id="Безымянный_градиент_215-4" x1="306.47" y1="380.91" x2="328.88" y2="380.91" xlink:href="#Безымянный_градиент_215"/><linearGradient id="Безымянный_градиент_201-2" x1="579.42" y1="632.01" x2="736.32" y2="632.01" gradientTransform="matrix(-1, 0, 0, 1, 1350.85, 0)" xlink:href="#Безымянный_градиент_201"/><linearGradient id="Безымянный_градиент_203-2" x1="649.26" y1="542.02" x2="666.42" y2="639.34" gradientTransform="matrix(-1, 0, 0, 1, 1350.85, 0)" xlink:href="#Безымянный_градиент_203"/><linearGradient id="Безымянный_градиент_205-3" x1="627.79" y1="509.36" x2="697.28" y2="592.17" gradientTransform="matrix(-1, 0, 0, 1, 1350.85, 0)" xlink:href="#Безымянный_градиент_205"/><linearGradient id="Безымянный_градиент_205-4" x1="623.52" y1="453.23" x2="705.59" y2="551.05" gradientTransform="matrix(-1, 0, 0, 1, 1350.85, 0)" xlink:href="#Безымянный_градиент_205"/><linearGradient id="Безымянный_градиент_215-5" x1="635.16" y1="423.12" x2="693" y2="492.05" gradientTransform="matrix(-1, 0, 0, 1, 1350.85, 0)" xlink:href="#Безымянный_градиент_215"/><linearGradient id="Безымянный_градиент_218-2" x1="636.87" y1="389.21" x2="685.6" y2="447.28" gradientTransform="matrix(-1, 0, 0, 1, 1350.85, 0)" xlink:href="#Безымянный_градиент_218"/><linearGradient id="Безымянный_градиент_223-2" x1="637.07" y1="352.72" x2="673.57" y2="415.95" gradientTransform="matrix(-1, 0, 0, 1, 1350.85, 0)" xlink:href="#Безымянный_градиент_223"/><linearGradient id="Безымянный_градиент_215-6" x1="640.9" y1="325" x2="673.63" y2="381.68" gradientTransform="matrix(-1, 0, 0, 1, 1350.85, 0)" xlink:href="#Безымянный_градиент_215"/><linearGradient id="Безымянный_градиент_215-7" x1="642.92" y1="273.69" x2="668.37" y2="317.76" gradientTransform="matrix(-1, 0, 0, 1, 1350.85, 0)" xlink:href="#Безымянный_градиент_215"/><linearGradient id="Безымянный_градиент_215-8" x1="649.47" y1="233.91" x2="671.88" y2="233.91" gradientTransform="matrix(-1, 0, 0, 1, 1350.85, 0)" xlink:href="#Безымянный_градиент_215"/><linearGradient id="Безымянный_градиент_201-3" x1="80" y1="804.37" x2="304" y2="804.37" xlink:href="#Безымянный_градиент_201"/><linearGradient id="Безымянный_градиент_203-3" x1="179.71" y1="675.88" x2="204.21" y2="814.82" xlink:href="#Безымянный_градиент_203"/><linearGradient id="Безымянный_градиент_205-5" x1="149.05" y1="629.26" x2="248.26" y2="747.49" xlink:href="#Безымянный_градиент_205"/><linearGradient id="Безымянный_градиент_205-6" x1="142.96" y1="549.12" x2="260.13" y2="688.77" xlink:href="#Безымянный_градиент_205"/><linearGradient id="Безымянный_градиент_215-9" x1="159.58" y1="506.14" x2="242.15" y2="604.54" xlink:href="#Безымянный_градиент_215"/><linearGradient id="Безымянный_градиент_218-3" x1="162.02" y1="457.72" x2="231.59" y2="540.62" xlink:href="#Безымянный_градиент_218"/><linearGradient id="Безымянный_градиент_223-3" x1="162.3" y1="405.62" x2="214.42" y2="495.9" xlink:href="#Безымянный_градиент_223"/><linearGradient id="Безымянный_градиент_215-10" x1="167.77" y1="366.05" x2="214.49" y2="446.97" xlink:href="#Безымянный_градиент_215"/><linearGradient id="Безымянный_градиент_215-11" x1="170.65" y1="292.79" x2="206.98" y2="355.71" xlink:href="#Безымянный_градиент_215"/><linearGradient id="Безымянный_градиент_215-12" x1="180" y1="236" x2="212" y2="236" xlink:href="#Безымянный_градиент_215"/></defs><rect x="2.51" width="950.5" height="902" fill="url(#Безымянный_градиент_185)"/><path d="M950,225c-17-14.64-46.65-91.07-106.13-71.54s-59,57-64.37,66.32-20.72,17.16-32.3,13.44S718.36,230,704,245s-31.61,15.56-44.87,9.56-20.89-9.14-36.61-5.4S578.44,274,575.29,281.66,699.07,402,699.07,402L951,398" transform="translate(3.01 1.5)" fill="url(#Безымянный_градиент_198)"/><path d="M484,228s37-42,51-39S850,349,850,349L685,457,520,326Z" transform="translate(3.01 1.5)" fill="url(#Безымянный_градиент_175)"/><path d="M281,452c0-2,159-210,169-216s38-11,42-10S644,426,648,433s-130,80-149,88S281,452,281,452Z" transform="translate(3.01 1.5)" fill="url(#Безымянный_градиент_175-2)"/><path d="M2,489V334s12-11,33-4,30,22,49,10,73-96,129-68,50,65,54,75,18,20,30,18,29,1,41,18,29,20,43,16,22-6,37,0,40,31,42,39S320,539,320,539Z" transform="translate(3.01 1.5)" fill="url(#Безымянный_градиент_190)"/><path d="M236,471s27-24,45-31,50-14,50-14,4-20,7-21,4,21,4,21,39,0,46-2,32-17,32-17l5-38s0,35,3,33,8-3,9-5,4-43,6-44,6,39,6,39,28-22,39-22,30,6,30,6,3-22,5-23,2,24,5,26,48,18,57,19,58,25,58,25S458,542,449,546s-113,1-113,1Z" transform="translate(3.01 1.5)" fill="url(#Безымянный_градиент_175-3)"/><path d="M0,483l36-33.31,7-55.86,10,40.82,15-72,6,49.42s50-40.83,54-43,37,20.41,37,20.41L174,353l6,44.05,73,44.05s11-64.46,14-64.46,11,70.91,11,70.91l8-30.09,6,37.61,78,40.82s5-45.12,9-45.12,10,53.72,10,53.72l6,5.37,7-30.08L406,512l14,8.59s3-19.34,5-20.41,1,24.71,1,24.71l100,36.53,6,33.31L25,613S-1,485.15,0,483Z" transform="translate(3.01 1.5)" fill="url(#Безымянный_градиент_112)"/><path d="M315,577,475,474l9-54,12,40,8-2,4-31,5,21,65-41,13-67s7,51,9,51,11-50,11-50l8,34s44-25,46-29,15-91,18-94,16,73,16,73,124-87,128-90,122-86,122-86V549s-299,11-303,11S315,577,315,577Z" transform="translate(3.01 1.5)" fill="url(#Безымянный_градиент_71)"/><path d="M952,735V900H417.59L283.72,666,274,554H679.94s44.26,119,75.57,135S952,735,952,735Z" transform="translate(3.01 1.5)" fill="url(#Безымянный_градиент_57)"/><path d="M336,669c-1.37-1.37-71.9-44.32-148.08-90.55L172,490l-11.81,71.63-37.94-23L117,494l-7.74,36.75-.44-.27L100,457l-6.34,64.3C40.13,488.88-1,464-1,464L0,873l31-6S339,672,336,669Z" transform="translate(3.01 1.5)" fill="url(#Безымянный_градиент_30)"/><path d="M275,556c6.83,1.52,142,11,158,13s81,7,77,12-86,36-86,36-39,26-41,32,5,44,17,52,46,49,42,56-31,41-31,41l67,102H0V861s37.38-88.46,59-117c25-33,80-86,97-103S266,554,275,556Z" transform="translate(3.01 1.5)" fill="url(#Безымянный_градиент_24)"/><path d="M421,786s15,40,24,56,34,58,34,58H285s23-36.29,55-64C373.81,806.76,416.89,786,421,786Z" transform="translate(3.01 1.5)" fill="url(#Безымянный_градиент_24-2)"/><path d="M599,900H950V863S682,733,641,715s-117-55-111-83,96-26,101-54-245-24-245-24,193,12,193,22-98.22,26.35-128,53c-19,17-29,24,2,73S599,900,599,900Z" transform="translate(3.01 1.5)" fill="url(#Безымянный_градиент_60)"/><path d="M748,899S509,738,496,698s-5-70-1-75,29,0,29,0-17,8,2,26S946,899,946,899Z" transform="translate(3.01 1.5)" fill="url(#Безымянный_градиент_69)"/><path d="M114.67,719.21c2.45,0,22.55,30.89,25,30.4s34.81,0,34.32-2c-.37-1.49-41.26-29.81-60.64-43.16l-4.57-13.71S121,707.45,123.49,707s16.67-3,15.2-4.42c-1.18-1.18-26.58-25.62-36.39-35.06-.75-6-4.73-18.38-2.83-18.38,2.45,0,12.25,21.57,12.25,21.57l8.34-1V658.91s5.88,8.82,6.86,10.78,24-2,26-2c.78,0-33-22.92-47.23-32.57.71-.73,1.14-1.26,1.14-1.26a46.9,46.9,0,0,0,5.89,3.43c1.47.49,20.1-.49,20.1-.49,0-1.47-32.26-23.46-34.8-26.46-1-5.42-5.31-18-4.92-19.14.49-1.47,11.77,17.16,13.24,19.13s17.65,0,20.1-.5a109.54,109.54,0,0,0-19-16.65c5.48-.25,10.9-1.19,10.13-2.13-1.19-1.44-14.22-19.65-19.44-27.53-.34-1.78-.66-3.21-.66-3.21l7.84,11.77c1,1.47,7.36-2,7.36-2s-18.37-26.79-24.34-32.69c0-2,0-3.82-.06-5.5.52,0,1-.05,1.35-.05,2.45,0-.49-9.32,1.47-8.34s2.45,8.34,2.45,8.34,6.87,2.45,8.34,2.45c1.24,0-11.2-24.22-15.06-31.67-.4-4.71-.81-9.5-1.11-13.07,3.1-.5,8.81,2.57,8.81,2.57-1-.49-9.31-25-9.31-25l-6.38,26.48a24.52,24.52,0,0,1,6.28-3.88l-.21,12.44L70.54,532.9l6.37-1,4.42-9.32s-1,6.37-1,8.33c0,1,1.93,1.26,4.1,1.23l-.11,6.29c-7.19,7.69-27,33.67-27,33.67h8.83l9.31-13.24A82.31,82.31,0,0,0,73.9,568L54.85,594.68l10.79-1.8L77.4,575s-2.28,8.68-3.36,13.59c-11.66,7.24-28.51,21.3-28.51,21.3s9.81,1.48,13.73,1S75,596.15,75,596.15l-5.39,15.69,1,.06c-13.33,9.51-34.79,25.43-34.79,25.43s18,.45,20.79.49c-15.5,11-41.73,29.86-41.39,30.89.49,1.47,25.5-.49,27.95.49s14.22-18.63,15.69-18.14-3.43,16.67-3.43,19.61c0,.39.75.68,2,.91L29.84,705s7.87,1.16,15.11,1.9c-18.49,14.65-48.3,38.84-48,42.22l43.15,2.46,19.12-28.93L55.34,750.1l14.48.1L33.77,782l27.94,3.44,14.22-19.13S71.52,786.39,73,786.39c.44,0,3.34.22,7.19.44L79.85,806H91.13s-.07-7-.19-18.77c6.46.07,12.23-.29,12.45-1.82.49-3.44,1-25,1-25l12.26,24.52,27-2-32.48-32.48,17.28.11S112.22,719.21,114.67,719.21ZM64.29,695.9l-2-.09c1.34-2.56,2.4-4.54,2.4-4.54S64.47,693.29,64.29,695.9Zm25.55-14.63c.56,2.37,2.3,9.72,4.21,16l-4-.18C90,691.84,89.9,686.57,89.84,681.27Zm-1-96.42,0-1.68,1.32-4s2.28,3.69,4.24,7.21A37.73,37.73,0,0,0,88.85,584.85ZM57.68,637c2.28-3.23,7.25-14.93,8.94-15.35,1.09-.27.2,4.92-.79,9.59C64.1,632.44,61.22,634.48,57.68,637Z" transform="translate(3.01 1.5)" fill="#3b5272"/><path d="M569,555s18-28,34-49,21-29,21-29,15-89,17-92,6,58,9,55,10-96,13-97,8,71,10,68,63-74,64-76,16-125,16-125,9,93,11,89,27-34,38-45,35-28,35-28,6-63,9-64,7,54,9,53,11-71,11-71,6,60,8,57,28-22,39-28,37-26,37-26V613s-285-62-316-59S569,555,569,555Z" transform="translate(3.01 1.5)" fill="url(#Безымянный_градиент_114)"/><path d="M935,346.34c2.25,0-1.26,28.11,1,27.66s3.45-9.2,3-11c-.34-1.37,12.59-17.93-5.2-30.18l-4.19-12.59s11.25,15.31,13.5,14.86,7.24-1.74,5.89-3.09c-1.09-1.09-16.34-24.49-25.34-33.15-.69-5.53-4.35-16.87-2.6-16.87,2.25,0,11.25,19.8,11.25,19.8l7.65-.9V291s5.4,8.1,6.3,9.9S947.14,298,949,298c.71,0-9.16-20-22.24-28.82.65-.67,1-1.16,1-1.16a43.29,43.29,0,0,0,5.4,3.16c1.35.45,18.45-.45,18.45-.45,0-1.35-29.61-21.55-31.94-24.3-.89-5-4.88-16.48-4.51-17.56.45-1.35,10.8,15.75,12.15,17.55s16.2,0,18.45-.45a100.17,100.17,0,0,0-17.4-15.29c5-.23,10-1.09,9.3-2-1.09-1.33-13.05-18-17.84-25.27-.32-1.64-.61-3-.61-3l7.2,10.81c.9,1.35,6.75-1.8,6.75-1.8s-16.86-24.59-22.34-30c0-1.82,0-3.51,0-5,.48,0,.9-.05,1.24-.05,2.25,0-.45-8.55,1.35-7.65s2.25,7.65,2.25,7.65,6.3,2.25,7.65,2.25c1.14,0-10.28-22.23-13.83-29.07-.36-4.32-.74-8.71-1-12,2.85-.47,8.1,2.35,8.1,2.35C915.66,137.5,908,115,908,115l-5.85,24.3a22.55,22.55,0,0,1,5.76-3.56l-.19,11.42L894.5,175.31l5.85-.9,4-8.55s-.9,5.85-.9,7.65c0,1,1.77,1.15,3.76,1.12l-.09,5.78c-6.6,7.06-24.82,30.91-24.82,30.91h8.1L899,199.16a76.59,76.59,0,0,0-1.41,8.37L880.1,232l9.9-1.64,10.8-16.44s-2.09,8-3.09,12.48C887,233.06,871.55,246,871.55,246s9,1.35,12.6.9,14.4-13.5,14.4-13.5l-4.95,14.4.89.06c-12.24,8.73-31.94,23.35-31.94,23.35s16.5.41,19.08.44c-14.22,10.11-38.3,27.41-38,28.36.45,1.35,23.41-.45,25.66.45s13.05-17.1,14.4-16.65-3.15,15.3-3.15,18c0,.35.69.62,1.87.83l-25.27,30.68s7.22,1.06,13.87,1.75c-17,13.44-44.34,35.64-44,38.75L866.6,376l17.55-26.55-3.6,25.2,13.29.09L860.75,404l25.65,3.15,13.05-17.56S895.4,408,896.75,408c.41,0,3.07.2,6.6.4l-.3,17.6h10.36s-.07-6.41-.18-17.23c5.93.06,11.23-.27,11.43-1.67.45-3.15.9-23,.9-23l11.25,22.51L940,406l-8.25-31,15.86.1S932.76,346.34,935,346.34Zm-46.24-21.4-1.88-.08c1.24-2.36,2.21-4.18,2.21-4.18S888.93,322.54,888.77,324.94Zm23.45-13.43c.51,2.18,2.11,8.92,3.86,14.64l-3.71-.16Q912.3,318.82,912.22,311.51ZM911.31,223v-1.55l1.21-3.68s2.09,3.4,3.88,6.62A33.63,33.63,0,0,0,911.31,223ZM882.7,270.86c2.1-3,6.65-13.7,8.2-14.09,1-.25.19,4.52-.72,8.8Z" transform="translate(3.01 1.5)" fill="#264159"/><path d="M785.32,706c-4-1-210.32-79-210.32-79S793.25,420,828,389,950,276,950,276V689L785.32,701Z" transform="translate(3.01 1.5)" fill="url(#Безымянный_градиент_84)"/><path d="M845,376,725,683s-152-51-152-55S817,393,845,376Z" transform="translate(3.01 1.5)" fill="url(#Безымянный_градиент_83)"/><path d="M709.27,713s140.11-207,162.4-238S950,362,950,362V804L725,738" transform="translate(3.01 1.5)" fill="url(#Безымянный_градиент_84-2)"/><path d="M857,529c1,4,79,205,79,210s14,68,14,68L725,740Z" transform="translate(3.01 1.5)" fill="url(#Безымянный_градиент_90)"/><path d="M950,365v50L725,740s-17-22-17-26S932.17,382,950,365Z" transform="translate(3.01 1.5)" fill="url(#Безымянный_градиент_85)"/><path d="M327.48,846l-7.7-460.19s-4.21,48.33-4.21,51.14S311.37,846,311.37,846Z" transform="translate(3.01 1.5)" fill="#2f405b"/><path d="M275,815.88l-38.53-2.8,74.25-74.25,82.65,72.85-39.92,4.9-20.32-27.32S339.39,818,337.29,818s-42.73,3.5-43.43-1.4-1.4-35.72-1.4-35.72Z" transform="translate(3.01 1.5)" fill="url(#Безымянный_градиент_201)"/><path d="M445.85,764.75l-61.63,3.5L356.9,726.93l5.6,39.22-104.36.7S281.25,722,277.75,722,245.53,766.15,242,765.45s-49.73,0-49-2.8S293.86,691.2,293.86,691.2l63-2.8S446.55,757.75,445.85,764.75Z" transform="translate(3.01 1.5)" fill="url(#Безымянный_градиент_203)"/><path d="M398.92,701.71s-37.82,5.6-38.52,2.8-11.21-22.41-11.21-22.41,2.1,22.41,0,23.11-35.72.7-35.72.7V666.69s-8.4,37.12-12.61,37.82-23.11,2.1-23.11,2.1l8.4-25.21s-17.51,23.81-21,23.11-23.81-4.2-21.71-6.3,57.43-55.34,57.43-55.34l45.53-4.9Z" transform="translate(3.01 1.5)" fill="url(#Безымянный_градиент_205)"/><path d="M223.12,648.48c2.88,0,35.72,5.6,37.12,2.8s9.8-15.41,9.8-15.41v15.41l11.91,1.4s14-30.82,17.51-30.82-7,29.42-3.5,30.82,66.54,4.2,66.54,0-7-27.32-4.9-28S376.51,652,380,650.58s39.23,1.4,39.93-.7S345,594.54,345,594.54L299.46,596S221.71,648.48,223.12,648.48Z" transform="translate(3.01 1.5)" fill="url(#Безымянный_градиент_205-2)"/><path d="M251.83,604.35s26.62,1.4,28.72.7,8.41-4.9,8.41-4.9,6.3,7.7,11.2,7.7S317,592.44,317,592.44s3.51,14.71,7.71,14.71,25.21-.7,25.21-.7-6.3-24.51-3.5-23.81,11.91,23.11,14,23.11,30.12-.7,30.12-.7-62.34-46.23-64.44-46.23-21,3.5-24.52,7.71S251.83,602.25,251.83,604.35Z" transform="translate(3.01 1.5)" fill="url(#Безымянный_градиент_215)"/><path d="M260.94,565.83c3.5.7,26.62,3.5,28.72.7s18.21-29.42,18.91-27.32-9.11,29.42-7,30.82,40.63-1.4,40.63-1.4l-7.71-22.42s16.81,20.32,22.42,21,19.61-1.4,19.61-1.4-43.34-36.17-53.93-36.43C293.16,528.7,260.94,565.83,260.94,565.83Z" transform="translate(3.01 1.5)" fill="url(#Безымянный_градиент_218)"/><path d="M318.37,539s18.22,3.41,18.22.85S331,516,331,516l16.81,25.58,15.41,2.56-42-58.83s-16.11,6.82-16.81,9.38S275.65,536.44,273.55,539s28,5.11,29.41.85,9.81-17.91,9.81-17.91Z" transform="translate(3.01 1.5)" fill="url(#Безымянный_градиент_223)"/><path d="M347.09,511.89H359.7s-38.52-50.43-42-51.13-37.12,48.33-37.12,48.33,9.11,4.9,10.51,2.8l11.2-16.81s-3.5,15.41-1.4,14.71,4.91,0,7.71-1.4,10.5-20.31,10.5-20.31,4.21,17.51,5.61,17.51,10.5,4.2,11.21,2.1S333.78,493,333.78,493Z" transform="translate(3.01 1.5)" fill="url(#Безымянный_градиент_215-2)"/><path d="M340.79,455.86l-21.72-46.23S293.86,458,296,458s11.91-3.5,11.91-3.5.7-10.51,3.5-11.91-1.4,11.91,2.1,11.91,13.31,1.4,13.31-1.4-1.4-11.91-1.4-11.91l6.3,13.31Z" transform="translate(3.01 1.5)" fill="url(#Безымянный_градиент_215-3)"/><path d="M306.47,397.72s9.1-4.9,13.31-3.5,9.1,5.6,9.1,5.6L319.78,362S307.87,397,306.47,397.72Z" transform="translate(3.01 1.5)" fill="url(#Безымянный_градиент_215-4)"/><path d="M680.37,699l7.7-460.19s4.2,48.33,4.2,51.14S696.48,699,696.48,699Z" transform="translate(3.01 1.5)" fill="#2f405b"/><path d="M732.9,668.88l38.52-2.8-74.24-74.25-82.65,72.85,39.92,4.9,20.31-27.32s-6.3,28.72-4.2,28.72,42.73,3.5,43.43-1.4,1.4-35.72,1.4-35.72Z" transform="translate(3.01 1.5)" fill="url(#Безымянный_градиент_201-2)"/><path d="M562,617.75l61.64,3.5L651,579.93l-5.61,39.22,104.37.7S726.59,575,730.1,575s32.22,44.13,35.72,43.43,49.73,0,49-2.8S714,544.2,714,544.2l-63-2.8S561.29,610.75,562,617.75Z" transform="translate(3.01 1.5)" fill="url(#Безымянный_градиент_203-2)"/><path d="M608.92,554.71s37.83,5.6,38.53,2.8,11.2-22.41,11.2-22.41-2.1,22.41,0,23.11,35.72.7,35.72.7V519.69s8.41,37.12,12.61,37.82,23.12,2.1,23.12,2.1l-8.41-25.21s17.51,23.81,21,23.11,23.82-4.2,21.72-6.3S707,495.87,707,495.87L661.45,491Z" transform="translate(3.01 1.5)" fill="url(#Безымянный_градиент_205-3)"/><path d="M784.73,501.48c-2.89,0-35.72,5.6-37.12,2.8s-9.81-15.41-9.81-15.41v15.41l-11.91,1.4s-14-30.82-17.51-30.82,7,29.42,3.51,30.82-66.55,4.2-66.55,0,7-27.32,4.91-28S631.34,505,627.83,503.58s-39.22,1.4-39.92-.7,75-55.34,75-55.34L708.38,449S786.13,501.48,784.73,501.48Z" transform="translate(3.01 1.5)" fill="url(#Безымянный_градиент_205-4)"/><path d="M756,457.35s-26.61,1.4-28.71.7-8.41-4.9-8.41-4.9-6.3,7.7-11.21,7.7-16.81-15.41-16.81-15.41-3.5,14.71-7.7,14.71-25.22-.7-25.22-.7,6.31-24.51,3.5-23.81-11.9,23.11-14,23.11-30.12-.7-30.12-.7,62.34-46.23,64.44-46.23,21,3.5,24.51,7.71S756,455.25,756,457.35Z" transform="translate(3.01 1.5)" fill="url(#Безымянный_градиент_215-5)"/><path d="M746.91,418.83c-3.5.7-26.62,3.5-28.72.7S700,390.11,699.28,392.21s9.1,29.42,7,30.82-40.62-1.4-40.62-1.4l7.7-22.42s-16.81,20.32-22.41,21-19.61-1.4-19.61-1.4,43.33-36.17,53.93-36.43C714.69,381.7,746.91,418.83,746.91,418.83Z" transform="translate(3.01 1.5)" fill="url(#Безымянный_градиент_218-2)"/><path d="M689.47,392s-18.21,3.41-18.21.85,5.6-23.88,5.6-23.88l-16.81,25.58-15.41,2.56,42-58.83s16.11,6.82,16.81,9.38S732.2,389.44,734.3,392s-28,5.11-29.42.85-9.8-17.91-9.8-17.91Z" transform="translate(3.01 1.5)" fill="url(#Безымянный_градиент_223-2)"/><path d="M660.75,364.89h-12.6s38.52-50.43,42-51.13,37.13,48.33,37.13,48.33-9.11,4.9-10.51,2.8l-11.21-16.81s3.5,15.41,1.4,14.71-4.9,0-7.7-1.4-10.51-20.31-10.51-20.31-4.2,17.51-5.6,17.51-10.51,4.2-11.21,2.1,2.1-14.71,2.1-14.71Z" transform="translate(3.01 1.5)" fill="url(#Безымянный_градиент_215-6)"/><path d="M667.06,308.86l21.71-46.23S714,311,711.89,311s-11.91-3.5-11.91-3.5-.7-10.51-3.5-11.91,1.4,11.91-2.11,11.91-13.3,1.4-13.3-1.4,1.4-11.91,1.4-11.91l-6.31,13.31Z" transform="translate(3.01 1.5)" fill="url(#Безымянный_градиент_215-7)"/><path d="M701.38,250.72s-9.11-4.9-13.31-3.5-9.1,5.6-9.1,5.6l9.1-37.82S700,250,701.38,250.72Z" transform="translate(3.01 1.5)" fill="url(#Безымянный_градиент_215-8)"/><path d="M210,900,199,243s-6,69-6,73-6,584-6,584Z" transform="translate(3.01 1.5)" fill="#2f405b"/><path d="M135,857l-55-4L186,747,304,851l-57,7-29-39s9,41,6,41-61,5-62-2-2-51-2-51Z" transform="translate(3.01 1.5)" fill="url(#Безымянный_градиент_201-3)"/><path d="M379,784l-88,5-39-59,8,56-149,1s33-64,28-64-46,63-51,62-71,0-70-4S162,679,162,679l90-4S380,774,379,784Z" transform="translate(3.01 1.5)" fill="url(#Безымянный_градиент_203-3)"/><path d="M312,694s-54,8-55,4-16-32-16-32,3,32,0,33-51,1-51,1V644s-12,53-18,54-33,3-33,3l12-36s-25,34-30,33-34-6-31-9,82-79,82-79l65-7Z" transform="translate(3.01 1.5)" fill="url(#Безымянный_градиент_205-5)"/><path d="M61,618c4.12,0,51,8,53,4s14-22,14-22v22l17,2s20-44,25-44-10,42-5,44,95,6,95,0-10-39-7-40,27,39,32,37,56,2,57-1-107-79-107-79l-65,2S59,618,61,618Z" transform="translate(3.01 1.5)" fill="url(#Безымянный_градиент_205-6)"/><path d="M102,555s38,2,41,1,12-7,12-7,9,11,16,11,24-22,24-22,5,21,11,21,36-1,36-1-9-35-5-34,17,33,20,33,43-1,43-1-89-66-92-66-30,5-35,11S102,552,102,555Z" transform="translate(3.01 1.5)" fill="url(#Безымянный_градиент_215-9)"/><path d="M115,500c5,1,38,5,41,1s26-42,27-39-13,42-10,44,58-2,58-2l-11-32s24,29,32,30,28-2,28-2-61.87-51.64-77-52C161,447,115,500,115,500Z" transform="translate(3.01 1.5)" fill="url(#Безымянный_градиент_218-3)"/><path d="M197,461.7s26,4.87,26,1.21-8-34.08-8-34.08l24,36.52L261,469l-60-84s-23,9.74-24,13.39S136,458,133,461.7s40,7.3,42,1.21,14-25.56,14-25.56Z" transform="translate(3.01 1.5)" fill="url(#Безымянный_градиент_223-3)"/><path d="M238,423h18s-55-72-60-73-53,69-53,69,13,7,15,4l16-24s-5,22-2,21,7,0,11-2,15-29,15-29,6,25,8,25,15,6,16,3-3-21-3-21Z" transform="translate(3.01 1.5)" fill="url(#Безымянный_градиент_215-10)"/><path d="M229,343l-31-66s-36,69-33,69,17-5,17-5,1-15,5-17-2,17,3,17,19,2,19-2-2-17-2-17l9,19Z" transform="translate(3.01 1.5)" fill="url(#Безымянный_градиент_215-11)"/><path d="M180,260s13-7,19-5,13,8,13,8l-13-54S182,259,180,260Z" transform="translate(3.01 1.5)" fill="url(#Безымянный_градиент_215-12)"/></svg>