<svg xmlns="http://www.w3.org/2000/svg" xmlns:xlink="http://www.w3.org/1999/xlink" viewBox="0 0 951.63 901"><defs><linearGradient id="Безымянный_градиент_23" x1="475.5" y1="901" x2="475.5" gradientUnits="userSpaceOnUse"><stop offset="0" stop-color="#f3f6df"/><stop offset="0.79" stop-color="#eff3de"/><stop offset="1" stop-color="#78a5ce"/></linearGradient><linearGradient id="Безымянный_градиент_34" x1="392.4" y1="130.41" x2="392.4" y2="76.51" gradientUnits="userSpaceOnUse"><stop offset="0" stop-color="#cadbd9"/><stop offset="0.53" stop-color="#b0c5da"/><stop offset="1" stop-color="#96aedb"/></linearGradient><linearGradient id="Безымянный_градиент_36" x1="819.48" y1="225.41" x2="819.48" y2="171.51" gradientUnits="userSpaceOnUse"><stop offset="0" stop-color="#eff3de"/><stop offset="0.33" stop-color="#d5dfdd"/><stop offset="1" stop-color="#96aedb"/></linearGradient><linearGradient id="Безымянный_градиент_17" y1="590.09" x2="950" y2="590.09" gradientUnits="userSpaceOnUse"><stop offset="0" stop-color="#b4cbe9"/><stop offset="0.95" stop-color="#fff"/></linearGradient><linearGradient id="Безымянный_градиент_98" x1="425.44" y1="501" x2="425.44" y2="309.85" gradientUnits="userSpaceOnUse"><stop offset="0" stop-color="#bfc5de" stop-opacity="0.8"/><stop offset="1" stop-color="#9ab2d3" stop-opacity="0.1"/></linearGradient><linearGradient id="Безымянный_градиент_56" x1="277.91" y1="567.53" x2="490" y2="567.53" gradientUnits="userSpaceOnUse"><stop offset="0" stop-color="#8d96c3"/><stop offset="0.16" stop-color="#8793c1"/><stop offset="0.36" stop-color="#768bbb"/><stop offset="0.6" stop-color="#5a7eb2"/><stop offset="0.86" stop-color="#336ca5"/><stop offset="1" stop-color="#1b619d"/></linearGradient><linearGradient id="Безымянный_градиент_89" x1="362" y1="633" x2="383" y2="633" gradientUnits="userSpaceOnUse"><stop offset="0" stop-color="#19486d"/><stop offset="1" stop-color="#1b619d"/></linearGradient><linearGradient id="Безымянный_градиент_89-2" x1="364" xlink:href="#Безымянный_градиент_89"/><linearGradient id="Безымянный_градиент_89-3" x1="476" x2="497" xlink:href="#Безымянный_градиент_89"/><linearGradient id="Безымянный_градиент_89-4" x1="478" x2="497" xlink:href="#Безымянный_градиент_89"/><linearGradient id="Безымянный_градиент_3" y1="769.25" x2="950" y2="769.25" gradientUnits="userSpaceOnUse"><stop offset="0" stop-color="#76a7d7"/><stop offset="1" stop-color="#fbfcfd"/></linearGradient><linearGradient id="Безымянный_градиент_13" x1="1" y1="747.5" x2="398.57" y2="747.5" gradientUnits="userSpaceOnUse"><stop offset="0.07" stop-color="#184193"/><stop offset="0.82" stop-color="#6487bf"/></linearGradient><linearGradient id="Безымянный_градиент_110" x1="363.5" y1="639.51" x2="363.5" y2="656" gradientUnits="userSpaceOnUse"><stop offset="0" stop-color="#f4cc90"/><stop offset="1" stop-color="#a7c6e5"/></linearGradient><linearGradient id="Безымянный_градиент_111" x1="368.44" y1="639" x2="368.44" y2="658" gradientUnits="userSpaceOnUse"><stop offset="0" stop-color="#76a7d7"/><stop offset="1" stop-color="#acc9e6"/></linearGradient></defs><g id="Слой_2" data-name="Слой 2"><rect x="1" width="949" height="901" fill="url(#Безымянный_градиент_23)"/><path d="M214,113c-2.31-13.84,85-29,99-32s49,16,56,15,65-23,79-19,106,29,117,35,4,14-1,14-125,6-135,4-116,0-139-4S215,119,214,113Z" transform="translate(1 1)" fill="url(#Безымянный_градиент_34)"/><path d="M690,208c-1.68-13.84,61.69-29,71.86-32s35.56,16,40.64,15,47.18-23,57.35-19,76.93,29,84.92,35,2.9,14-.73,14-90.73,6-98,4-84.19,0-100.89-4S690.71,214,690,208Z" transform="translate(1 1)" fill="url(#Безымянный_градиент_36)"/><path d="M809.82,232c0-2,31-47,49-64s35-33,43-29,29,18,30,23,3,14,9,17,9.18,3.14,9.18,3.14v33.78S843.82,241,835.82,241,809.82,232,809.82,232Z" transform="translate(1 1)" fill="#8ca5ca"/><path d="M664.82,313s7.54-1.88,18.61-4.86c28.43-7.65,80.2-22.5,87.39-31.14,10-12,35-40,43-48s80-75,85-70,16,24,27,31S950,198.4,950,198.4V411s-163.18-28-175.18-31-97-43-102-50S664.82,313,664.82,313Z" transform="translate(1 1)" fill="#7f9ab7"/><path d="M936,218s-2-12-2-16-22-12-25-13-6-28-10-31-26,36-29,43-13,13-20,17-36,7-36,7-52,49-64,57-84,23-88,23l27,27s55-1,61-2,83-45,87-47,9,9,10,13-35,57-34,60,23-15,35-23,26-11,32-16,37-12,42-15,28.63-13.43,28.63-13.43V229.18Z" transform="translate(1 1)" fill="#6386a0"/><path d="M923,337l23.1.05c.19,7,.48,23.59-1.1,25.95-2,3-21,17-27,20s-61,0-64,0c0,0,13,3,13,20s83.09,0,83.09,0V306S922,313,920,315C916.46,318.54,920,337,923,337Z" transform="translate(1 1)" fill="#6386a0"/><path d="M57,93c24-10,55-37,68-37s22,13,29,10,13-8,39,6,76,62,87,58,30,9,47,17,59,35,70,46,65,29,82,38,34,15,54,20,105,32,127,45,82,36,113,50,111,37,128,38,49,3,49,3v97L607,381,255,270,92,122Z" transform="translate(1 1)" fill="#bedde6"/><path d="M-1,147.44s81-80,107-86,32,4,41,13,28,2,36,13,29,21,45,36,27,45,27,45,35-5,48,9,70,87,71,83-8-26,4-26,16-7,30,3,55,58,55,53-3-34,1-32,76,52,85,52,86,4,107,16,111,111,113,108-16-51-10-49,56,52,109,56S950,448,950,448v97L0,530.44S-1,148.72-1,147.44Z" transform="translate(1 1)" fill="#8ca5ca"/><path d="M207,452c-3-4-2-85,20-78s32,19,33,10-32-35-19-38,95,19,132,17,75-5,70-13-7-41-7-41,56,69,75,69,16-19,35-10,88,54,99,51,0-19,15-19,60,49,75,56,79,41,80,52-14,16-14,16-593-8-593-12S207,452,207,452Z" transform="translate(1 1)" fill="#7f9ab6"/><path d="M0,178S101,78,115,79c0,0,21,32,33,35a27.89,27.89,0,0,1,17,12s-1,52,2,52,25-14,27-10-18,63-12,71,21,54,11,75-36,29-45,36-31,24-32,37-60,99-60,99L0,487S.77,178,0,178Z" transform="translate(1 1)" fill="#7f9ab6"/><path d="M138.44,511.47l6.62-3.37a2.91,2.91,0,0,0,.37-2.88c-.73-1.45-7-13.47-8.09-14.44S144,486.45,144,485s-2.94-3.37-4.05-4.81-7.36-9.14-7.36-9.14,7-.48,7-1.93-10.67-10.1-14-12.51-6.25-9.62-6.25-9.62l4,2.89s7.72,1.44,8.09,0-6.25-8.66-7.36-10.11,0-2.88-.37-4.81-6.25-6.25-6.25-7.22,5.89,1.45,6.25,0-7.35-12-8.09-13.47,2.94-1,3.31-1.92-2.57-2.89-3.68-4.81-2.94-9.63-2.94-9.63a.74.74,0,0,0-.17.28c-.12-1.38-.2-2.2-.2-2.2-1.84,3.37-.37,10.58-3.31,13.47s-4.78,5.29-2.94,6.26,3.31,2.88.36,5.29-5.51,6.25-4.41,6.25,2.57,4.81,1.1,6.74S95,445.08,94.66,447s2.94,6.25,2.57,7.7c-.12.5-1.59,1.7-3.45,3.2-3.39-3.18-9-7.65-11.22-9.28-3.31-2.4-6.25-9.62-6.25-9.62l4,2.89s7.72,1.44,8.09,0-6.25-8.66-7.36-10.11,0-2.88-.37-4.81-6.25-6.25-6.25-7.22,5.89,1.45,6.25,0-7.35-12-8.09-13.47,2.94-1,3.31-1.92-2.57-2.89-3.68-4.81-2.94-9.63-2.94-9.63a.74.74,0,0,0-.17.28C69,388.82,69,388,69,388c-1.84,3.37-.37,10.58-3.31,13.47s-4.78,5.29-2.94,6.26,3.31,2.88.36,5.29-5.51,6.25-4.41,6.25,2.57,4.81,1.1,6.74S52,437.08,51.66,439s2.94,6.25,2.57,7.7c-.15.6-2.23,2.21-4.6,4.13a4.85,4.85,0,0,0,.09-2c-.36-1.47-6.25-4.78-6.25-5.52s5.89,1.11,6.25,0-7.35-9.2-8.09-10.3,2.94-.73,3.31-1.47-2.57-2.21-3.68-3.68-2.94-7.36-2.94-7.36a.6.6,0,0,0-.17.21C38,419.62,38,419,38,419c-1.84,2.58-.37,8.09-3.31,10.3s-4.78,4.05-2.94,4.78,3.31,2.21.36,4.05-5.51,4.79-4.41,4.79,2.57,3.67,1.1,5.15S21,456.53,20.66,458s2.94,4.78,2.57,5.89-11.77,6.62-11.77,9.19,11,3.32,10.3,4.05-7,2.95-7,4.79,4.42,3.67,2.95,4-8.83,3.31-9.57,5.15.37,4.79-1.47,4.79-6.26,2.2-4.79,3.68,8.1-.74,6.63,1.1-7,2.94-6.63,4.78,3.68,2.21,2.58,4.42-4.78,3.31-3.68,5.88,4.05,4.42,3.31,7S1.53,526.43,5.21,529s8.46,7,14.71,7a66.71,66.71,0,0,0,7.76-.61l0,.24s6-.68,11.31-1.13c3.23,3.1,7.16,6.5,12,6.5a52.41,52.41,0,0,0,7.76-.8c0,.2,0,.32,0,.32s10.7-1.59,16.09-1.93c1.36.4,3,.87,4.49,1.29,3.67,3.37,8.45,9.12,14.69,9.12a52.41,52.41,0,0,0,7.76-.8c0,.2,0,.32,0,.32s10.7-1.59,16.09-1.93c3.38,1,8.34,2.41,9.3,2.41,1.47,0,6.62-2.41,7.35-2.89s11-.48,12.15-1.44,2.57-3.85,2.2-5.77-6.25-8.66-6.25-8.66,5.15,1.44,6.25,1,2.58-.48,2.21-1.93S138.44,511.47,138.44,511.47ZM52.76,464a7.76,7.76,0,0,1-1.53,1.13,13.28,13.28,0,0,1-3-2.77C50.79,463.1,53.11,463.56,52.76,464Z" transform="translate(1 1)" fill="#5683ba"/><path d="M473.71,588.34c1.11-.4,2.6-.4,2.23-1.59s-12.67-14.66-12.67-14.66l6.71-2.77a2.08,2.08,0,0,0,.37-2.38c-.74-1.19-7.08-11.09-8.2-11.88s6.71-3.57,6.71-4.76-3-2.77-4.1-4-7.45-7.53-7.45-7.53,7.08-.39,7.08-1.58-10.81-8.32-14.16-10.31-6.34-7.92-6.34-7.92l4.1,2.38s7.83,1.19,8.2,0-6.34-7.13-7.46-8.32,0-2.38-.37-4-6.33-5.15-6.33-5.94,6,1.19,6.33,0-7.45-9.9-8.2-11.09,3-.8,3.36-1.59-2.61-2.38-3.73-4-3-7.93-3-7.93a.6.6,0,0,0-.17.23c-.13-1.14-.2-1.81-.2-1.81-1.87,2.77-.38,8.72-3.36,11.09s-4.84,4.36-3,5.16,3.35,2.37.37,4.35-5.59,5.15-4.47,5.15,2.61,4,1.12,5.55-7.83,9.12-8.2,10.7a4.21,4.21,0,0,0,.82,2.5c-3.16-2.22-6.81-4.57-8.51-5.58-3.36-2-6.34-7.92-6.34-7.92l4.1,2.38s7.83,1.19,8.2,0-6.34-7.13-7.46-8.32,0-2.38-.37-4-6.33-5.15-6.33-5.94,6,1.19,6.33,0-7.45-9.9-8.2-11.09,3-.8,3.36-1.59-2.61-2.38-3.73-4-3-7.93-3-7.93a.6.6,0,0,0-.17.23c-.13-1.14-.2-1.81-.2-1.81-1.87,2.77-.38,8.72-3.36,11.09s-4.84,4.36-3,5.16,3.35,2.37.37,4.35a20.54,20.54,0,0,0-3.22,2.71c-3.46-2.6-8.83-6.09-11-7.39-3.36-2-6.34-7.92-6.34-7.92l4.1,2.38s7.83,1.19,8.2,0-6.34-7.13-7.46-8.32,0-2.38-.37-4-6.33-5.15-6.33-5.94,6,1.19,6.33,0-7.45-9.9-8.2-11.09,3-.8,3.36-1.59-2.61-2.38-3.73-4-3-7.93-3-7.93a.6.6,0,0,0-.17.23c-.13-1.14-.2-1.81-.2-1.81-1.87,2.77-.38,8.72-3.36,11.09s-4.84,4.36-3,5.16,3.35,2.37.37,4.35-5.59,5.15-4.47,5.15,2.61,4,1.12,5.55a97,97,0,0,0-7.56,9.47c-1.89-2-4.21-4.06-4.83-4.71-1.11-1.19,0-2.38-.37-4s-6.33-5.15-6.33-5.94,6,1.19,6.33,0-7.45-9.9-8.2-11.09,3-.8,3.36-1.59-2.61-2.38-3.73-4-3-7.93-3-7.93a.6.6,0,0,0-.17.23c-.13-1.14-.2-1.81-.2-1.81-1.87,2.77-.38,8.72-3.36,11.09s-4.84,4.36-3,5.16,3.35,2.37.37,4.35-5.59,5.15-4.47,5.15,2.61,4,1.12,5.55-7.83,9.12-8.2,10.7,3,5.15,2.61,6.34-11.93,7.13-11.93,9.91,11.18,3.56,10.44,4.35-7.08,3.17-7.08,5.15,4.47,4,3,4.36a30.81,30.81,0,0,0-3.86,1.57c-2.35-1.59-4.61-3-5.85-3.76-3.36-2-6.34-7.92-6.34-7.92l4.1,2.38s7.83,1.19,8.2,0-6.34-7.13-7.46-8.32,0-2.38-.37-4-6.33-5.15-6.33-5.94,6,1.19,6.33,0-7.45-9.9-8.2-11.09,3-.8,3.36-1.59-2.61-2.38-3.73-4-3-7.93-3-7.93a.6.6,0,0,0-.17.23c-.13-1.14-.2-1.81-.2-1.81-1.87,2.77-.38,8.72-3.36,11.09s-4.84,4.36-3,5.16,3.35,2.37.37,4.35-5.59,5.15-4.47,5.15,2.61,4,1.12,5.55-7.83,9.12-8.2,10.7c-.32,1.36,2.09,4.17,2.56,5.69a108.42,108.42,0,0,0-8.93-11.07c-2.27-2.4-4.29-9.62-4.29-9.62l2.78,2.89s5.29,1.44,5.55,0-4.29-8.66-5-10.11,0-2.88-.25-4.81-4.29-6.25-4.29-7.22,4,1.45,4.29,0-5.05-12-5.55-13.47,2-1,2.27-1.92-1.77-2.89-2.53-4.81-2-9.63-2-9.63a1,1,0,0,0-.11.28c-.09-1.38-.14-2.2-.14-2.2-1.26,3.37-.25,10.58-2.27,13.47s-3.28,5.29-2,6.26,2.27,2.88.26,5.29-3.79,6.25-3,6.25,1.76,4.81.75,6.74l0,.07c-.61-1-1.12-1.9-1.33-2.3-.76-1.44,0-2.88-.25-4.81s-4.29-6.25-4.29-7.22,4,1.45,4.29,0-5-12-5.55-13.47,2-1,2.27-1.92-1.77-2.89-2.53-4.81-2-9.63-2-9.63a1,1,0,0,0-.11.28c-.09-1.38-.14-2.2-.14-2.2-1.26,3.37-.25,10.58-2.27,13.47s-3.28,5.29-2,6.26,2.27,2.88.26,5.29-3.79,6.25-3,6.25,1.76,4.81.75,6.74-5.29,11.07-5.55,13c-.14,1.06.49,2.85,1,4.49a129.9,129.9,0,0,0-12.83-10.87c-3.31-2.4-6.25-9.62-6.25-9.62l4.05,2.89s7.72,1.44,8.09,0-6.25-8.66-7.36-10.11,0-2.88-.37-4.81-6.25-6.25-6.25-7.22,5.89,1.45,6.25,0-7.35-12-8.09-13.47,2.94-1,3.31-1.92-2.57-2.89-3.68-4.81-2.94-9.63-2.94-9.63a.74.74,0,0,0-.17.28c-.12-1.38-.2-2.2-.2-2.2-1.84,3.37-.37,10.58-3.31,13.47s-4.78,5.29-2.94,6.26,3.31,2.88.36,5.29-5.51,6.25-4.41,6.25,2.57,4.81,1.1,6.74-7.72,11.07-8.09,13,2.94,6.25,2.57,7.7-11.77,8.66-11.77,12,11,4.33,10.3,5.29-7,3.85-7,6.25,4.42,4.81,2.95,5.3-8.83,4.33-9.57,6.73.37,6.26-1.47,6.26-6.26,2.88-4.79,4.81,8.1-1,6.63,1.44-7,3.85-6.63,6.26,3.68,2.88,2.58,5.77-4.78,4.33-3.68,7.7,4.05,5.77,3.31,9.14-2.57,4.81,1.11,8.18,8.46,9.14,14.71,9.14a52.41,52.41,0,0,0,7.76-.8c0,.2,0,.32,0,.32s10.7-1.59,16.09-1.93c2.6.77,6.13,1.78,8,2.2-.54,2.62-1.26,4.1,1,7.07,2.53,3.37,5.81,9.14,10.1,9.14a25.18,25.18,0,0,0,5.32-.8c0,.2,0,.32,0,.32l.94-.2c2.48,3.41,5.66,8.68,9.76,8.68a25.18,25.18,0,0,0,5.32-.8c0,.2,0,.32,0,.32s7.34-1.59,11-1.93a42.56,42.56,0,0,0,6.38,2.41c1,0,4.54-2.41,5.05-2.89a1,1,0,0,1,.32-.12c2.08-.06,4.61-.32,7.11-.65,0,.17,0,.26,0,.26s10.84-1.31,16.3-1.58c3.42.82,8.45,2,9.42,2,1.49,0,6.7-2,7.45-2.38s11.18-.39,12.3-1.19,2.61-3.17,2.24-4.75-6.34-7.13-6.34-7.13,5.22,1.19,6.34.79,2.6-.4,2.23-1.59a35.26,35.26,0,0,0-3.54-4.43c3.51-.4,10.05-1.11,13.9-1.3,1.82.43,4.08,1,6,1.37a13.88,13.88,0,0,0,3,.57l.47,0h.45a65.26,65.26,0,0,0,7.87-.66c0,.17,0,.26,0,.26s5.58-.67,10.75-1.15c-1.62.82-3,1.63-2.84,2.66.37,2,3.73,2.38,2.61,4.76s-4.84,3.56-3.73,6.34,4.1,4.75,3.36,7.53-2.61,4,1.12,6.73,8.57,7.53,14.9,7.53a65.26,65.26,0,0,0,7.87-.66c0,.17,0,.26,0,.26s8.94-1.08,14.67-1.48c-.76,1.88-1.45,3.09,1.6,5.35,3.72,2.78,8.57,7.53,14.9,7.53a65.26,65.26,0,0,0,7.87-.66c0,.17,0,.26,0,.26s10.84-1.31,16.3-1.58c3.42.82,8.45,2,9.42,2,1.49,0,6.7-2,7.45-2.38s11.18-.39,12.3-1.19,2.61-3.17,2.24-4.75-6.34-7.13-6.34-7.13S472.59,588.74,473.71,588.34ZM267.05,503l-.56.36-.15-.27ZM242.8,472.6c-.2.46-.4.91-.59,1.36-.59-1.67-1-3-1-3Zm-16.75,5.15a2.75,2.75,0,0,1,.07.95c-.11.62-1.64,2.33-3.34,4.34-1.68-2.09-3.23-4-3.23-4S224.48,478.71,226.05,477.75Zm162.31,15.64c.48,1.28.62,3-.24,3.91l-.16.18-3.65-3.67S386.43,493.69,388.36,493.39Zm-47.37-17a47.44,47.44,0,0,0,6,.52c.81,1.38,1.75,2.78,1.55,3.44-.13.42-1.64,1.42-3.54,2.67l-1.76-1.09c-3.36-2-6.34-7.92-6.34-7.92Z" transform="translate(1 1)" fill="#5683ba"/><path d="M947.71,546.34c1.11-.4,2.6-.4,2.23-1.59s-12.67-14.66-12.67-14.66l6.71-2.77a2.08,2.08,0,0,0,.37-2.38c-.74-1.19-7.08-11.09-8.2-11.88s6.71-3.57,6.71-4.76-3-2.77-4.1-4-7.45-7.53-7.45-7.53,7.08-.39,7.08-1.58-10.81-8.32-14.16-10.31-6.34-7.92-6.34-7.92l4.1,2.38s7.83,1.19,8.2,0-6.34-7.13-7.46-8.32,0-2.38-.37-4-6.33-5.15-6.33-5.94,6,1.19,6.33,0-7.45-9.9-8.2-11.09,3-.8,3.36-1.59-2.61-2.38-3.73-4-3-7.93-3-7.93a.6.6,0,0,0-.17.23c-.13-1.14-.2-1.81-.2-1.81-1.87,2.77-.38,8.72-3.36,11.09s-4.84,4.36-3,5.16,3.35,2.37.37,4.35-5.59,5.15-4.47,5.15,2.61,4,1.12,5.55-6.87,8-8,10.22c-1.85-1.69-5.09-3.78-5.09-4.37,0-.79,6,1.19,6.33,0s-7.45-9.9-8.2-11.09,3-.8,3.36-1.59-2.61-2.38-3.73-4-3-7.93-3-7.93a.6.6,0,0,0-.17.23c-.13-1.14-.2-1.81-.2-1.81-1.87,2.77-.38,8.72-3.36,11.09s-4.84,4.36-3,5.16,3.35,2.37.37,4.35-5.59,5.15-4.47,5.15,2.61,4,1.12,5.55c-.62.65-2,2.32-3.56,4.16-2-2.43-4-4.82-4.4-5.4-.74-1.19,3-.8,3.36-1.59s-2.61-2.38-3.73-4-3-7.93-3-7.93a.6.6,0,0,0-.17.23c-.13-1.14-.2-1.81-.2-1.81-1.87,2.77-.38,8.72-3.36,11.09s-4.84,4.36-3,5.16,3.35,2.37.37,4.35-5.59,5.15-4.47,5.15,2.61,4,1.12,5.55-7.83,9.12-8.2,10.7,3,5.15,2.61,6.34-11.93,7.13-11.93,9.91,11.18,3.56,10.44,4.35-7.08,3.17-7.08,5.15,4.47,4,3,4.36a38.88,38.88,0,0,0-6.5,2.92c-1.51-1.79-3.13-3.48-3.13-3.48s4.65,1.19,5.64.79,2.33-.4,2-1.59-11.3-14.66-11.3-14.66l6-2.77a2.27,2.27,0,0,0,.34-2.38c-.67-1.19-6.32-11.09-7.31-11.88s6-3.57,6-4.76-2.66-2.77-3.66-4-6.64-7.53-6.64-7.53,6.31-.39,6.31-1.58S819,473.91,816,471.92s-5.65-7.92-5.65-7.92l3.65,2.38s7,1.19,7.31,0-5.65-7.13-6.64-8.32,0-2.38-.33-4-5.65-5.15-5.65-5.94,5.31,1.19,5.65,0-6.65-9.9-7.31-11.09,2.66-.8,3-1.59-2.33-2.38-3.32-4-2.66-7.93-2.66-7.93a.57.57,0,0,0-.15.23c-.12-1.14-.18-1.81-.18-1.81-1.67,2.77-.34,8.72-3,11.09s-4.32,4.36-2.66,5.16,3,2.37.33,4.35-5,5.15-4,5.15,2.33,4,1,5.55-7,9.12-7.31,10.7,2.66,5.15,2.33,6.34-10.63,7.13-10.63,9.91,10,3.56,9.3,4.35-6.31,3.17-6.31,5.15,4,4,2.66,4.36-8,3.57-8.64,5.55.33,5.15-1.33,5.15-5.65,2.38-4.32,4,7.31-.79,6,1.19-6.31,3.17-6,5.15,3.32,2.38,2.33,4.76-4.32,3.56-3.33,6.34,3.66,4.75,3,7.53-2.32,4,1,6.73,7.64,7.53,13.29,7.53a52.17,52.17,0,0,0,7-.66c0,.17,0,.26,0,.26S804.1,546.29,809,546a80,80,0,0,0,8.4,2c1.32,0,6-2,6.64-2.38a7.52,7.52,0,0,1,1.82-.24c-1,.76-1.6,1.66-.91,2.39,1.49,1.59,8.2-.79,6.71,1.19s-7.08,3.17-6.71,5.15,3.73,2.38,2.61,4.76-4.84,3.56-3.73,6.34,4.1,4.75,3.36,7.53-2.61,4,1.12,6.73,8.57,7.53,14.9,7.53a65.26,65.26,0,0,0,7.87-.66c0,.17,0,.26,0,.26s10.84-1.31,16.3-1.58c3.42.82,8.45,2,9.42,2,1.49,0,6.7-2,7.45-2.38s11.18-.39,12.3-1.19,2.61-3.17,2.24-4.75-6.34-7.13-6.34-7.13,5.22,1.19,6.34.79c.95-.34,2.15-.39,2.27-1.13a40.86,40.86,0,0,0,4.19-1.59c.75-.39,11.18-.39,12.3-1.19s2.61-3.17,2.24-4.75c-.21-.88-2.12-2.95-3.78-4.64l.37,0c3.42.82,8.45,2,9.42,2,1.49,0,6.7-2,7.45-2.38s11.18-.39,12.3-1.19,2.61-3.17,2.24-4.75-6.34-7.13-6.34-7.13S946.59,546.74,947.71,546.34Zm-53.46-66a11,11,0,0,1,1.26,2.45l-.78-.76A1.91,1.91,0,0,1,894.25,480.37Z" transform="translate(1 1)" fill="#5683ba"/><path d="M950,525s-257.46,7-354.25-9-373.22-3-440.08,0S0,522,0,522V645l950,27Z" transform="translate(1 1)" fill="url(#Безымянный_градиент_17)"/><path d="M873.18,456c-3.76,5.26-.75,16.53-6.76,21s-9.78,8.27-6,9.77,6.77,4.51.75,8.27-11.27,9.77-9,9.77,5.26,7.52,2.25,10.52-15.78,17.29-16.53,20.3,6,9.77,5.26,12-24,13.53-24,18.79,22.54,6.77,21,8.27-14.28,6-14.28,9.77,9,7.51,6,8.27-18,6.76-19.54,10.52.75,9.77-3,9.77-12.78,4.51-9.77,7.51,16.53-1.5,13.52,2.26-14.28,6-13.52,9.77,7.51,4.51,5.26,9-9.77,6.76-7.52,12,8.27,9,6.76,14.28-5.26,7.52,2.26,12.78S823.58,695,836.35,695s36.83-4.51,36.83-4.51,26.3-59.37,27.06-70.65-4.51-59.37-8.27-68.39-11.28-33.82-12-39.83S873.18,456,873.18,456Z" transform="translate(1 1)" fill="#476da3"/><path d="M872.43,462.76s-1.51,18.79-.75,23.3-.76,6.77-1.51,9,3.76,11.28,3,13.53-5.26,4.51-3,6.76,7.52,6.77,7.52,6.77-9,6.76-8.27,9.77-1.5,6.76,1.5,10.52,17.29,15,15,18.79-18,.75-16.54,6S892,586.77,892,589.78s-23.3-.75-23.3,7.52,24.8,21.79,24.8,24.05-.75,10.52-3.76,11.27-11.27-6-11.27-1.5,3.76,6,3,9-7.52,9-6.77,11.27,3,4.51.75,4.51-15,4.51-14.28,6.76,3,15.79,1.51,16.54-8.27,2.25-9,6-1.5,9-1.5,9,33.06-3.76,38.33-3,36.07-9,36.07-9-3.76-45.84-5.26-50.35,1.5-27.06-1.5-33.82S907,576.25,907,576.25V563.47s-18.79-17.28-20.29-20.29-1.51-9.77-1.51-9.77l13.53,3s-9-19.54-12-21-7.52-10.52-6.77-12,5.26-6,5.26-6-9-10.53-9-12.78,1.5-8.27,1.5-9.77S872.43,462.76,872.43,462.76Z" transform="translate(1 1)" fill="#8ca5ca"/><path d="M873.93,459s3.76,12,6,15,8.27,6,7.52,7.51-8.27.76-6.77,3,17.29,18.79,16.54,21-12.78-1.5-12.78,0,12,8.27,12.78,11.28-1.5,5.26.75,7.51,15.78,13.53,15,15.79-16.53,0-16.53,0l-8.27-4.51s6,11.27,12.78,15,28.56,17.28,28.56,19.54-14.28,3-14.28,3,12.77,12,15,14.28,8.27,5.26,8.27,7.51-15.79,7.52-13.53,9,15,20.29,16.53,22.55-.75,4.51-.75,4.51l-13.53,5.26s21,21.37,21.71,23.62,1.59,6.44-.66,7.19-12.78-1.5-12.78-1.5,12,10.52,12.78,13.53-2.26,7.51-4.51,9-23.3,1.5-24.8,2.25S907,695,904,695s-25.55-5.26-25.55-5.26,24-.75,26.31-1.5,3-5.27,3-5.27,12-3,10.52-4.5-9.77-12.78-9.77-12.78,13.53-8.27,13.53-9-1.5-6.76-1.5-6.76-12-12-14.28-15.79-1.5-10.52-1.5-10.52,11.27-4.51,9.77-5.26-16.54-21-16.54-21,12.78-.76,13.53-2.26.75-9-2.26-9-21-16.53-20.29-18.79,14.28-6,14.28-6-16.53-10.52-19.54-21.8,0-12.77,2.26-12.77a58.42,58.42,0,0,1,6.76.75s-12.78-12.78-14.28-15-1.5-15-1.5-15l5.26-1.51s-10.52-5.26-9.77-7.51.75-9,2.25-10.52S871.68,460.51,873.93,459Z" transform="translate(1 1)" fill="#e9ebf5"/><path d="M764,388c-11,1-.57,16.3-6.58,21.57S745.24,419.25,749,421s9.17,5.24,3.15,9.62-11.27,11.41-9,11.41,5.26,8.77,2.25,12.28S729.61,474.49,728.86,478s6,11.41,5.26,14-24,15.79-24,21.93,22.54,7.9,21,9.65-14.28,7-14.28,11.41,9,8.77,6,9.65-18,7.9-19.54,12.28.75,11.41-3,11.41-12.78,5.26-9.77,8.77,16.53-1.75,13.52,2.63-14.28,7-13.52,11.41,7.51,5.26,5.26,10.53-9.77,7.89-7.52,14,8.27,10.52,6.76,16.67-5.26,8.77,2.26,14.91S714.58,664,727.35,664s36.83-5.26,36.83-5.26,26.3-69.32,27.06-82.48S786.73,507,783,496.42s-11.28-39.48-12-46.5S764,388,764,388Z" transform="translate(1 1)" fill="#476da3"/><path d="M764,388s-2.08,26.83-1.32,32.09-.76,7.9-1.51,10.53,3.76,13.16,3,15.8-5.26,5.26-3,7.89,7.52,7.9,7.52,7.9-9,7.89-8.27,11.4-1.5,7.9,1.5,12.29,17.29,17.54,15,21.93-18,.88-16.54,7S783,537.66,783,541.17s-23.3-.88-23.3,8.77,24.8,25.45,24.8,28.08-.75,12.28-3.76,13.16-11.27-7-11.27-1.76,3.76,7,3,10.53-7.52,10.53-6.77,13.16,3,5.27.75,5.27-15,5.26-14.28,7.89,3,18.43,1.51,19.31-8.27,2.63-9,7-1.5,10.53-1.5,10.53,33.06-4.38,38.33-3.51,36.07-10.53,36.07-10.53c3.31,1.24,15.05-15.57,8.46-30.08-5-11-11.79-32.08-16-36-4-3.73,16-10.1,13-18s-28-44-28-44,10.38-8.94,9-14c-1.91-7-18.5-16.49-20-20s-7.8-11.63-7.8-11.63,11.22,6.12,13.53,3.51C794.26,473.75,780,454.75,777,453s-6.81-11-6.06-12.73,6,.92,6.06-1.27c.16-4.35-9.81-18-9.81-20.66s1.5-9.65,1.5-11.41S764,388,764,388Z" transform="translate(1 1)" fill="#8ca5ca"/><path d="M454.18,351c-3.76,6.14-.75,19.3-6.76,24.57s-9.78,9.65-6,11.4,6.77,5.27.75,9.65-11.27,11.41-9,11.41,5.26,8.77,2.25,12.28S419.61,440.49,418.86,444s6,11.41,5.26,14S400.07,473.83,400.07,480s22.54,7.9,21,9.65-14.28,7-14.28,11.41,9,8.77,6,9.65-18,7.9-19.54,12.28.75,11.41-3,11.41-12.78,5.26-9.77,8.77,16.53-1.75,13.52,2.63-14.28,7-13.52,11.41,7.51,5.26,5.26,10.53-9.77,7.89-7.52,14,8.27,10.52,6.76,16.67-5.26,8.77,2.26,14.91S404.58,630,417.35,630s36.83-5.26,36.83-5.26,26.3-69.32,27.06-82.48S476.73,473,473,462.42s-11.28-39.48-12-46.5S454.18,351,454.18,351Z" transform="translate(1 1)" fill="#476da3"/><path d="M453.43,358.9s-1.51,21.93-.75,27.19-.76,7.9-1.51,10.53,3.76,13.16,3,15.8-5.26,5.26-3,7.89,7.52,7.9,7.52,7.9-9,7.89-8.27,11.4-1.5,7.9,1.5,12.29,17.29,17.54,15,21.93-18,.88-16.54,7S473,503.66,473,507.17s-23.3-.88-23.3,8.77,24.8,25.45,24.8,28.08-.75,12.28-3.76,13.16-11.27-7-11.27-1.76,3.76,7,3,10.53-7.52,10.53-6.77,13.16,3,5.27.75,5.27-15,5.26-14.28,7.89,3,18.43,1.51,19.31-8.27,2.63-9,7-1.5,10.53-1.5,10.53,33.06-4.38,38.33-3.51,36.07-10.53,36.07-10.53-3.76-53.51-5.26-58.78,1.5-31.58-1.5-39.48S488,491.38,488,491.38V476.46s-18.79-20.18-20.29-23.69-1.51-11.4-1.51-11.4l13.53,3.51s-9-22.81-12-24.57-7.52-12.28-6.77-14,5.26-7,5.26-7-9-12.28-9-14.91,1.5-9.65,1.5-11.41S453.43,358.9,453.43,358.9Z" transform="translate(1 1)" fill="#8ca5ca"/><path d="M454.93,354.51s3.76,14,6,17.55,8.27,7,7.52,8.77-8.27.88-6.77,3.51,17.29,21.93,16.54,24.57-12.78-1.76-12.78,0,12,9.65,12.78,13.16-1.5,6.14.75,8.77,15.78,15.79,15,18.42-8,5.74-8,5.74l-3,2s-7.78.16-1,4.55,28.56,20.18,28.56,22.81-14.28,3.51-14.28,3.51,12.77,14,15,16.67,8.27,6.14,8.27,8.77-15.79,8.77-13.53,10.53,15,23.69,16.53,26.32-.75,5.26-.75,5.26l-13.53,6.15s24.8,29.83,25.56,32.46-2.26,2.63-4.51,3.51-12.78-1.76-12.78-1.76,12,12.29,12.78,15.8-2.26,8.77-4.51,10.52-23.3,1.76-24.8,2.64S488,630,485,630s-25.55-6.14-25.55-6.14,24.05-.88,26.31-1.76,3-6.14,3-6.14,12-3.51,10.52-5.26-9.77-14.92-9.77-14.92S503,586.13,503,585.25s-1.5-7.89-1.5-7.89-12-14-14.28-18.43-1.5-12.28-1.5-12.28,11.27-5.26,9.77-6.14S479,515.94,479,515.94s12.78-.87,13.53-2.63.75-10.53-2.26-10.53-21-19.3-20.29-21.93,14.28-7,14.28-7-16.53-12.28-19.54-25.44,0-14.92,2.26-14.92a50.18,50.18,0,0,1,6.76.88s-12.78-14.92-14.28-17.55-1.5-17.55-1.5-17.55l5.26-1.75s-10.52-6.14-9.77-8.77.75-10.53,2.25-12.29S452.68,356.26,454.93,354.51Z" transform="translate(1 1)" fill="#e9ebf5"/><path d="M595,394c-3.76,6.14-3.57,2.3-9.58,7.57S568.24,411.25,572,413s14.17,5.24,8.15,9.62S559.75,444,562,444s12,9.49,9,13-26.25,13.49-27,17,18.87,7.41,18.12,10-24,15.79-24,21.93,22.54,7.9,21,9.65S556,523.61,556,528s-2.15,7.8-5.16,8.68-18,7.9-19.54,12.28.75,11.41-3,11.41-12.78,5.26-9.77,8.77,16.53-1.75,13.52,2.63-14.28,7-13.52,11.41,7.51,5.26,5.26,10.53-9.77,7.89-7.52,14,8.27,10.52,6.76,16.67-5.26,8.77,2.26,14.91S542.58,656,555.35,656s36.83-5.26,36.83-5.26,26.3-69.32,27.06-82.48S614.73,499,611,488.42s-11.28-39.48-12-46.5S595,394,595,394Z" transform="translate(1 1)" fill="#476da3"/><path d="M590.43,379.9s-1.51,21.93-.75,27.19-.76,7.9-1.51,10.53,3.76,13.16,3,15.8-5.26,5.26-3,7.89,7.52,7.9,7.52,7.9-9,7.89-8.27,11.4-1.5,7.9,1.5,12.29,17.29,17.54,15,21.93-18,.88-16.54,7S610,524.66,610,528.17,575,543.35,575,553s36.47,9.39,36.47,12-.75,12.28-3.76,13.16S585,571.74,585,577s15.2,6.44,14.45,10-7.52,10.53-6.77,13.16,3,5.27.75,5.27-28.18,2-27.43,4.62,16.16,21.7,14.66,22.58-8.27,2.63-9,7-1.5,10.53-1.5,10.53,33.06-4.38,38.33-3.51,36.07-10.53,36.07-10.53-3.76-53.51-5.26-58.78,1.5-31.58-1.5-39.48S625,512.38,625,512.38V497.46s-18.79-20.18-20.29-23.69-1.51-11.4-1.51-11.4l13.53,3.51s-9-22.81-12-24.57-7.52-12.28-6.77-14,5.26-7,5.26-7-9-12.28-9-14.91,1.5-9.65,1.5-11.41S590.43,379.9,590.43,379.9Z" transform="translate(1 1)" fill="#8ca5ca"/><path d="M592.93,380.51s3.76,14,6,17.55,8.27,7,7.52,8.77-8.27.88-6.77,3.51,17.29,21.93,16.54,24.57-12.78-1.76-12.78,0,12,9.65,12.78,13.16-1.5,6.14.75,8.77,8.77,11.53,8,14.16-9.52,4.26-9.52,4.26L618,482s-4.78,1.16,2,5.55,28.56,20.18,28.56,22.81-14.28,3.51-14.28,3.51,12.77,14,15,16.67,8.27,6.14,8.27,8.77-15.79,8.77-13.53,10.53,15,23.69,16.53,26.32-.75,5.26-.75,5.26l-13.53,6.15s24.8,29.83,25.56,32.46-2.26,2.63-4.51,3.51-12.78-1.76-12.78-1.76,12,12.29,12.78,15.8-2.26,8.77-4.51,10.52-23.3,1.76-24.8,2.64S626,656,623,656s-25.55-6.14-25.55-6.14,24-.88,26.31-1.76,3-6.14,3-6.14,12-3.51,10.52-5.26-9.77-14.92-9.77-14.92S641,612.13,641,611.25s-1.5-7.89-1.5-7.89-12-14-14.28-18.43-1.5-12.28-1.5-12.28,11.27-5.26,9.77-6.14S617,541.94,617,541.94s12.78-.87,13.53-2.63.75-10.53-2.26-10.53-21-19.3-20.29-21.93,14.28-7,14.28-7-16.53-12.28-19.54-25.44,0-14.92,2.26-14.92a50.18,50.18,0,0,1,6.76.88s-12.78-14.92-14.28-17.55-1.5-17.55-1.5-17.55l5.26-1.75s-10.52-6.14-9.77-8.77.75-10.53,2.25-12.29S590.68,382.26,592.93,380.51Z" transform="translate(1 1)" fill="#e9ebf5"/><path d="M666,398c-8,6-1.57,17.3-7.58,22.57s-9.78,9.65-6,11.4,6.77,5.27.75,9.65-11.27,11.41-9,11.41,5.26,8.77,2.25,12.28S630.61,485.49,629.86,489s6,11.41,5.26,14-24,15.79-24,21.93,22.54,7.9,21,9.65-14.28,7-14.28,11.41,9,8.77,6,9.65-18,7.9-19.54,12.28.75,11.41-3,11.41-12.78,5.26-9.77,8.77,16.53-1.75,13.52,2.63-14.28,7-13.52,11.41,7.51,5.26,5.26,10.53-9.77,7.89-7.52,14,8.27,10.52,6.76,16.67-5.26,8.77,2.26,14.91S615.58,675,628.35,675s36.83-5.26,36.83-5.26,26.3-69.32,27.06-82.48S687.73,518,684,507.42s-11.28-39.48-12-46.5S666,398,666,398Z" transform="translate(1 1)" fill="#476da3"/><path d="M665,401s-2.08,24.83-1.32,30.09-.76,7.9-1.51,10.53,3.76,13.16,3,15.8-5.26,5.26-3,7.89,7.52,7.9,7.52,7.9-9,7.89-8.27,11.4-1.5,7.9,1.5,12.29,17.29,17.54,15,21.93-18,.88-16.54,7S684,548.66,684,552.17s-23.3-.88-23.3,8.77,24.8,25.45,24.8,28.08-.75,12.28-3.76,13.16-11.27-7-11.27-1.76,3.76,7,3,10.53-7.52,10.53-6.77,13.16,3,5.27.75,5.27-15,5.26-14.28,7.89,3,18.43,1.51,19.31-8.27,2.63-9,7-1.5,10.53-1.5,10.53,33.06-4.38,38.33-3.51,36.07-10.53,36.07-10.53-3.76-53.51-5.26-58.78,1.5-31.58-1.5-39.48S699,536.38,699,536.38V521.46s-18.79-20.18-20.29-23.69-1.51-11.4-1.51-11.4l13.53,3.51s-9-22.81-12-24.57-7.52-12.28-6.77-14,5.26-7,5.26-7-9-12.28-9-14.91,1.5-9.65,1.5-11.41S665,401,665,401Z" transform="translate(1 1)" fill="#8ca5ca"/><path d="M665.93,399.51s3.76,14,6,17.55,8.27,7,7.52,8.77-8.27.88-6.77,3.51,17.29,21.93,16.54,24.57-12.78-1.76-12.78,0,12,9.65,12.78,13.16-1.5,6.14.75,8.77,15.78,15.79,15,18.42-16.53,0-16.53,0L680.21,489s6,13.16,12.78,17.55,28.56,20.18,28.56,22.81-14.28,3.51-14.28,3.51,12.77,14,15,16.67,8.27,6.14,8.27,8.77-15.79,8.77-13.53,10.53,15,23.69,16.53,26.32-.75,5.26-.75,5.26l-13.53,6.15s24.8,29.83,25.56,32.46-2.26,2.63-4.51,3.51-12.78-1.76-12.78-1.76,12,12.29,12.78,15.8-2.26,8.77-4.51,10.52-23.3,1.76-24.8,2.64S699,675,696,675s-25.55-6.14-25.55-6.14,24-.88,26.31-1.76,3-6.14,3-6.14,12-3.51,10.52-5.26-9.77-14.92-9.77-14.92S714,631.13,714,630.25s-1.5-7.89-1.5-7.89-12-14-14.28-18.43-1.5-12.28-1.5-12.28,11.27-5.26,9.77-6.14S690,560.94,690,560.94s12.78-.87,13.53-2.63.75-10.53-2.26-10.53-21-19.3-20.29-21.93,14.28-7,14.28-7-16.53-12.28-19.54-25.44,0-14.92,2.26-14.92a50.18,50.18,0,0,1,6.76.88s-12.78-14.92-14.28-17.55-1.5-17.55-1.5-17.55l5.26-1.75s-10.52-6.14-9.77-8.77.75-10.53,2.25-12.29S663.68,401.26,665.93,399.51Z" transform="translate(1 1)" fill="#e9ebf5"/><g id="Слой_3" data-name="Слой 3"><path d="M429,501a230,230,0,0,1-15-69c-2-38-9-118-3-122s11,74,13,70,3-29,5-30,4,39,5,37,6-34,8-33-8,147-8,147Z" transform="translate(1 1)" fill="url(#Безымянный_градиент_98)"/><rect x="423" y="506" width="20" height="17" fill="#e8dcbf"/><rect x="419" y="500" width="28" height="7" fill="#87a9bf"/><rect x="306" y="614" width="128" height="32" fill="#897879"/><path d="M470.4,561s-25.27,30-29.31,32c-3.49,1.72-7,16.07-7.87,20H433v32h93V607Z" transform="translate(1 1)" fill="#e6ddc3"/><path d="M490,521s-77-3-118-2-47,1-52,4-25,41-30,55-13,35-12,36,149,3,150,2S490,521,490,521Z" transform="translate(1 1)" fill="url(#Безымянный_градиент_56)"/><path d="M536,612s-11-24-13-27-34-54-34-54-38,47-40,50-16,32-16,32h85.19c3,2.46,4.81,4,4.81,4Zm-97.5-5.22c9.05-10,26.65-28.51,32.5-27.78,5.27.66,26.15,16.93,39.79,28Z" transform="translate(1 1)" fill="#7db0d7"/><path d="M429,617c-4-3,6-31,21-53s37-44,39-44,8-1,7,1-3,1-2,4,24,34,30,45,19,36,18,38-5,6-7,4-22-43-29-53-16-26-17-25-37,47-43,56-15,27-15,27Z" transform="translate(1 1)" fill="#fbffff"/><g opacity="0.58"><rect x="363" y="622" width="21" height="24" fill="#f4cc90"/><path d="M381,623v20H364V623h17m2-2H362v24h21V621Z" transform="translate(1 1)" fill="url(#Безымянный_градиент_89)"/><line x1="373" y1="624" x2="373" y2="645" fill="#7398d2" stroke="#0457aa" stroke-miterlimit="10" stroke-width="2"/><line x1="364" y1="633" x2="383" y2="633" fill="#7398d2" stroke-miterlimit="10" stroke-width="2" stroke="url(#Безымянный_градиент_89-2)"/></g><g opacity="0.58"><rect x="477" y="622" width="21" height="24" fill="#7398d2"/><path d="M495,623v20H478V623h17m2-2H476v24h21V621Z" transform="translate(1 1)" fill="url(#Безымянный_градиент_89-3)"/><line x1="487" y1="624" x2="487" y2="645" fill="#7398d2" stroke="#0457aa" stroke-miterlimit="10" stroke-width="2"/><line x1="478" y1="633" x2="497" y2="633" fill="#7398d2" stroke-miterlimit="10" stroke-width="2" stroke="url(#Безымянный_градиент_89-4)"/></g></g><path d="M0,639s448-2,553,2,397,30,397,30V900L0,899Z" transform="translate(1 1)" fill="url(#Безымянный_градиент_3)"/><path d="M1,855s74-36,143-48,157-17,186-27,51-39,82-46,143-41,154-61-55-33-55-33,41,11,40,23-104,44-141,55-48,27-84,40S139,770,80,781,1,801,1,801,2.67,855,1,855Z" transform="translate(1 1)" fill="url(#Безымянный_градиент_13)"/><path d="M0,711V675s16-5,26-5,46-14,49-13,171,32,169,36-76,19-95,16-46-2-52-1-38,10-47,4S0,711,0,711Z" transform="translate(1 1)" fill="#4878b8"/><path d="M159,384c-5,7-1,22-9,28s-13,11-8,13,9,6,1,11-15,13-12,13,7,10,3,14-21,23-22,27,8,13,7,16-32,18-32,25,30,9,28,11-19,8-19,13,12,10,8,11-24,9-26,14,1,13-4,13-17,6-13,10,22-2,18,3-19,8-18,13,10,6,7,12-13,9-10,16,11,12,9,19-7,10,3,17,23,19,40,19,49-6,49-6,35-79,36-94-6-79-11-91-15-45-16-53S159,384,159,384Z" transform="translate(1 1)" fill="#476da3"/><path d="M158,393s-2,25-1,31-1,9-2,12,5,15,4,18-7,6-4,9,10,9,10,9-12,9-11,13-2,9,2,14,23,20,20,25-24,1-22,8,30,26,30,30-31-1-31,10,33,29,33,32-1,14-5,15-15-8-15-2,5,8,4,12-10,12-9,15,4,6,1,6-20,6-19,9,4,21,2,22-11,3-12,8-2,12-2,12,44-5,51-4,48-12,48-12-5-61-7-67,2-36-2-45-17-29-17-29V527s-25-23-27-27-2-13-2-13l18,4s-12-26-16-28-10-14-9-16,7-8,7-8-12-14-12-17,2-11,2-13S158,393,158,393Z" transform="translate(1 1)" fill="#8ca5ca"/><path d="M160,388s5,16,8,20,11,8,10,10-11,1-9,4,23,25,22,28-17-2-17,0,16,11,17,15-2,7,1,10,21,18,20,21-22,0-22,0l-11-6s8,15,17,20,38,23,38,26-19,4-19,4,17,16,20,19,11,7,11,10-21,10-18,12,20,27,22,30-1,6-1,6l-18,7s33,34,34,37-3,3-6,4-17-2-17-2,16,14,17,18-3,10-6,12-31,2-33,3-16,6-20,6-34-7-34-7,32-1,35-2,4-7,4-7,16-4,14-6-13-17-13-17,18-11,18-12-2-9-2-9-16-16-19-21-2-14-2-14,15-6,13-7-22-28-22-28,17-1,18-3,1-12-3-12-28-22-27-25,19-8,19-8-22-14-26-29,0-17,3-17a77.54,77.54,0,0,1,9,1s-17-17-19-20-2-20-2-20l7-2s-14-7-13-10,1-12,3-14S157,390,160,388Z" transform="translate(1 1)" fill="#e9ebf5"/><path d="M763,389c2.63-1.05,2,2,3,5s2,16,5,19,8,8,11,9-3,3-5,3-8,0-7,1,5,4,6,5,6,7,8,12,0,7-1,7-1,3,2,6,9,9,9,11-10-2-10,0,2,8,6,8,9,0,12,2,1,3-1,4-13,2-11,4a120.36,120.36,0,0,0,11,10c4,3,9,6,9,9s-9,1-9,2,6,12,8,13,6,9,1,8-12,1-10,2,26,20,28,26,9,12,6,14-10,1-13,2,3,10,8,12,1,13,0,17,15,7,16,10-9,5-12,6,2,28-8,30a55.65,55.65,0,0,1-17,1c-1,0,1-15,2-21s-4-21-8-25-4-4,0-14,9-19,6-24-8-19-10-22-13-17-13-22,10-7,10-7-3-9-6-12-8-8-9-12-2-15-3-22a91.51,91.51,0,0,1-1-16c0-6,1-11-3-13s-7-5-7-8,2-4,2-7S758,391,763,389Z" transform="translate(1 1)" fill="#e9ebf5"/><polyline points="364.56 639.51 342 653 384.16 655.94 385 656 382.13 639.78 364.56 639.51" fill="url(#Безымянный_градиент_110)"/><polygon points="362.79 656.68 372 639 374.09 639.38 369 658 362.79 656.68" fill="url(#Безымянный_градиент_111)"/></g></svg>