<svg width="13" height="9" viewBox="0 0 13 9" fill="none" xmlns="http://www.w3.org/2000/svg">
<path d="M0.177037 4.90044L4.04562 8.76902C4.28165 9.00505 4.66445 9.00505 4.90048 8.76902C5.13656 8.53294 5.13656 8.15024 4.90048 7.91416L2.06379 5.07747L12.3955 5.07747C12.7293 5.07747 13 4.80682 13 4.47301C13 4.13924 12.7293 3.86854 12.3955 3.86854L2.06379 3.86854L4.90039 1.03185C5.13647 0.795772 5.13647 0.413072 4.90039 0.176992C4.7824 0.0590483 4.62765 -4.42455e-05 4.47296 -4.42524e-05C4.31826 -4.42594e-05 4.16357 0.0590483 4.04553 0.176992L0.177037 4.04558C-0.0590443 4.28166 -0.0590443 4.66436 0.177037 4.90044Z" fill="#231F20"/>
</svg>
