<svg width="24" height="24" viewBox="0 0 24 24" fill="none" xmlns="http://www.w3.org/2000/svg">
<g id="Iconly/Light/Camera">
<g id="Camera">
<path id="Stroke 1" fill-rule="evenodd" clip-rule="evenodd" d="M17.638 7.10987V7.10987C17.265 7.10987 16.927 6.89487 16.768 6.55887C16.481 5.95087 16.116 5.17387 15.9 4.75087C15.581 4.12187 15.064 3.75587 14.348 3.75087C14.336 3.74987 9.664 3.74987 9.652 3.75087C8.936 3.75587 8.42 4.12187 8.1 4.75087C7.885 5.17387 7.52 5.95087 7.233 6.55887C7.074 6.89487 6.735 7.10987 6.363 7.10987V7.10987C4.367 7.10987 2.75 8.72687 2.75 10.7219V16.6579C2.75 18.6519 4.367 20.2699 6.363 20.2699H17.638C19.633 20.2699 21.25 18.6519 21.25 16.6579V10.7219C21.25 8.72687 19.633 7.10987 17.638 7.10987Z" stroke="white" stroke-width="1.5" stroke-linecap="round" stroke-linejoin="round"/>
<path id="Stroke 3" fill-rule="evenodd" clip-rule="evenodd" d="M8.82237 13.3345C8.82137 15.0875 10.2524 16.5215 12.0024 16.5205C13.7494 16.5185 15.1764 15.0905 15.1794 13.3415C15.1824 11.5855 13.7564 10.1545 12.0044 10.1525C10.2424 10.1505 8.80837 11.6055 8.82237 13.3345Z" stroke="white" stroke-width="1.5" stroke-linecap="round" stroke-linejoin="round"/>
<path id="Fill 5" d="M16.9025 10.9951C16.8059 10.9852 16.7105 10.96 16.6036 10.9169C16.4847 10.8641 16.3818 10.7969 16.2823 10.6959C16.1035 10.5057 16 10.257 16 10.0005C16 9.86422 16.0279 9.72916 16.0823 9.60681C16.1368 9.48285 16.2014 9.37829 16.3182 9.26456C16.407 9.18719 16.498 9.12493 16.6224 9.07013C16.9913 8.92396 17.4301 9.0113 17.7043 9.28541C17.7865 9.36639 17.8557 9.46411 17.8941 9.54651L17.9169 9.60494C17.9721 9.72916 18 9.86422 18 10.0005C18 10.2622 17.8978 10.5043 17.7081 10.7058C17.5442 10.8708 17.3289 10.9723 17.0992 10.9951L17 11L16.9025 10.9951Z" fill="white"/>
</g>
</g>
</svg>
