<svg width="18" height="18" viewBox="0 0 18 18" fill="none" xmlns="http://www.w3.org/2000/svg">
<path d="M17.998 8.63577C17.9443 6.28099 16.978 4.0866 15.2776 2.45691C13.5796 0.82969 11.3496 -0.0419405 8.99907 0.00159292C6.64771 -0.0424899 4.41858 0.82969 2.72064 2.45691C1.02008 4.0866 0.0539705 6.28099 0.000137321 8.63564L0 8.64305V8.65047C0.0123596 11.0502 1.03986 13.3318 2.82377 14.9308V17.1065C2.82377 17.5288 3.11862 17.8966 3.5247 17.9812C3.58485 17.9937 3.64541 18 3.7057 18C3.86912 18 4.0298 17.9543 4.17125 17.866L5.91986 16.7735C6.90603 17.1189 7.93504 17.2939 8.98121 17.2939H8.9944C9.05235 17.295 9.10962 17.2955 9.16743 17.2955C11.4563 17.2954 13.6202 16.4268 15.2776 14.8385C16.978 13.2088 17.9443 11.0145 17.998 8.65981L17.9983 8.64772L17.998 8.63577ZM14.5472 14.0764C13.0497 15.5115 11.083 16.2793 9.0095 16.2383L9.00374 16.2382H8.99797C8.02499 16.2404 7.06739 16.0711 6.15319 15.7358C5.92714 15.653 5.68091 15.6783 5.47753 15.8053L3.87942 16.8036V14.8023C3.87942 14.579 3.78233 14.3665 3.613 14.2195C2.00062 12.8177 1.06884 10.7888 1.05579 8.65239C1.10495 6.58174 1.9553 4.65253 3.45109 3.21909C4.94839 1.78413 6.91564 1.0166 8.98863 1.05724L8.99907 1.05738L9.0095 1.05724C11.0826 1.01701 13.0497 1.78413 14.5472 3.21909C16.0416 4.6513 16.8919 6.57899 16.9423 8.64772C16.8919 10.7166 16.0416 12.6441 14.5472 14.0764Z" fill="#A4AAB3"/>
<path d="M12.8664 6.12677H5.13176C4.84035 6.12677 4.604 6.36298 4.604 6.65453C4.604 6.94608 4.84035 7.18242 5.13176 7.18242H12.8664C13.158 7.18242 13.3943 6.94608 13.3943 6.65453C13.3943 6.36298 13.158 6.12677 12.8664 6.12677Z" fill="#A4AAB3"/>
<path d="M12.8664 8.46164H5.13176C4.84035 8.46164 4.604 8.69798 4.604 8.9894C4.604 9.28095 4.84035 9.51729 5.13176 9.51729H12.8664C13.158 9.51729 13.3943 9.28095 13.3943 8.9894C13.3943 8.69798 13.158 8.46164 12.8664 8.46164Z" fill="#A4AAB3"/>
<path d="M12.8663 10.7965H9.0634C8.77199 10.7965 8.53564 11.0329 8.53564 11.3244C8.53564 11.6158 8.77199 11.8522 9.0634 11.8522H12.8663C13.1579 11.8522 13.3942 11.6158 13.3942 11.3244C13.3942 11.0329 13.1579 10.7965 12.8663 10.7965Z" fill="#A4AAB3"/>
</svg>
