<svg width="25" height="27" viewBox="0 0 25 27" fill="none" xmlns="http://www.w3.org/2000/svg">
<path d="M24.4954 7.69616L24.4954 7.69614L18.1263 1.07802L18.1263 1.07799C18.0168 0.964293 17.8657 0.9 17.7078 0.9H8.21514C7.09759 0.9 6.18848 1.8087 6.18848 2.92588V9.55386H2.44146C1.59143 9.55386 0.9 10.245 0.9 11.0949V18.309C0.9 19.1588 1.59143 19.85 2.44146 19.85H6.18848V24.0775C6.18848 25.193 7.09776 26.1 8.21514 26.1H22.6311C23.7484 26.1 24.6577 25.1935 24.6577 24.0786V8.09888C24.6577 7.94868 24.5995 7.80436 24.4954 7.69616ZM22.8204 7.63076H17.927V2.54602L22.8204 7.63076ZM2.44146 18.6885C2.23196 18.6885 2.06157 18.5181 2.06157 18.309V11.0949C2.06157 10.8858 2.23202 10.7154 2.44146 10.7154H15.424C15.6335 10.7154 15.8039 10.8858 15.8039 11.0949V18.309C15.8039 18.5181 15.6334 18.6885 15.424 18.6885H2.44146ZM23.4961 24.0786C23.4961 24.5521 23.1085 24.9385 22.631 24.9385H8.21514C7.73777 24.9385 7.35 24.5518 7.35 24.0775V19.85H15.424C16.274 19.85 16.9654 19.1588 16.9654 18.309V11.0949C16.9654 10.245 16.274 9.55386 15.424 9.55386H7.35V2.92588C7.35 2.4494 7.73811 2.06152 8.21514 2.06152H16.7654V8.21152C16.7654 8.53229 17.0254 8.79228 17.3461 8.79228H23.4961V24.0786Z" fill="white" stroke="white" stroke-width="0.2"/>
<path d="M6.55513 15.1346C6.71161 15.0259 6.83854 14.8774 6.93703 14.6925C7.03873 14.5016 7.08682 14.2713 7.08682 14.0061V14.006C7.08677 13.6611 7.00276 13.3699 6.82658 13.1408C6.65452 12.9172 6.43805 12.7689 6.17855 12.7009C6.00941 12.6556 5.66525 12.6356 5.16133 12.6356H3.82324H3.72324V12.7356V16.8653V16.9653H3.82324H4.65708H4.75708V16.8653V15.4075H5.20078C5.58025 15.4075 5.8763 15.3878 6.08507 15.3464L6.08507 15.3465L6.08692 15.346C6.24803 15.3109 6.40416 15.2397 6.55513 15.1346ZM6.55513 15.1346L6.49805 15.0525L6.55515 15.1346C6.55514 15.1346 6.55514 15.1346 6.55513 15.1346ZM5.11343 14.5061H4.75708V13.5342H5.05991C5.36193 13.5342 5.55255 13.5439 5.64135 13.5607L5.64135 13.5607L5.64214 13.5608C5.75663 13.5815 5.8482 13.6321 5.92092 13.7125L5.92094 13.7126C5.99025 13.7892 6.02754 13.8882 6.02754 14.0173V14.0174C6.02758 14.1213 6.00111 14.2082 5.95064 14.2821C5.8999 14.3563 5.82971 14.4117 5.73628 14.4481C5.69378 14.4647 5.62203 14.4799 5.51492 14.4904C5.40947 14.5008 5.27591 14.5061 5.11343 14.5061Z" fill="white" stroke="white" stroke-width="0.2"/>
<path d="M10.0072 12.7185L10.0069 12.7185C9.81291 12.6619 9.53962 12.6356 9.19297 12.6356H7.66895H7.56895V12.7356V16.8653V16.9653H7.66895H9.23804C9.55095 16.9653 9.80842 16.9359 10.0063 16.8733L10.0066 16.8732C10.2633 16.7909 10.4734 16.6743 10.6317 16.5201C10.8365 16.3213 10.9914 16.0638 11.0989 15.7513L11.0989 15.7513C11.1879 15.4921 11.2311 15.1876 11.2311 14.8399C11.2311 14.446 11.1853 14.1089 11.0905 13.8315C10.9962 13.5555 10.8577 13.3197 10.674 13.126C10.4891 12.9309 10.2662 12.7949 10.0072 12.7185ZM9.89912 15.8841L9.8991 15.8841C9.82388 15.9522 9.72713 16.0026 9.60534 16.0331L9.60489 16.0332C9.51464 16.0562 9.35732 16.0695 9.12534 16.0695H8.60278V13.5342H8.87744C9.21883 13.5342 9.43607 13.5477 9.53991 13.5712L9.53991 13.5712L9.54078 13.5714C9.68143 13.6019 9.79288 13.6592 9.87923 13.7408C9.96559 13.8223 10.0369 13.9398 10.0896 14.0994C10.1409 14.2552 10.169 14.4878 10.169 14.8033C10.169 15.1182 10.1411 15.3591 10.0889 15.5305C10.0349 15.7077 9.96907 15.8208 9.89912 15.8841Z" fill="white" stroke="white" stroke-width="0.2"/>
<path d="M14.6749 13.5342H14.7749V13.4342V12.7356V12.6356H14.6749H11.8438H11.7437V12.7356V16.8653V16.9653H11.8438H12.6776H12.7776V16.8653V15.2104H14.4016H14.5016V15.1104V14.4117V14.3117H14.4016H12.7776V13.5342H14.6749Z" fill="white" stroke="white" stroke-width="0.2"/>
</svg>
