<svg width="27" height="27" viewBox="0 0 27 27" fill="none" xmlns="http://www.w3.org/2000/svg">
<path d="M14.6861 11.4665V9.9415C14.6861 9.25312 14.8507 8.92465 15.9071 8.92465H17.199V6.38281H15.0208C12.3106 6.38281 11.4474 7.60024 11.4474 9.75747V11.4665H9.60461V14.0648H11.4474V21.7468H14.6861V14.0648H16.9319L17.2326 11.4665H14.6861Z" fill="#A4AAB3"/>
<path d="M13.346 0C5.97521 0 0 6.04416 0 13.5C0 20.9558 5.97521 27 13.346 27C20.7168 27 26.692 20.9558 26.692 13.5C26.692 6.04416 20.7168 0 13.346 0ZM22.1908 22.4468C19.8283 24.8366 16.6871 26.1527 13.346 26.1527C10.0049 26.1527 6.86375 24.8366 4.50123 22.4468C2.13871 20.057 0.837615 16.8797 0.837615 13.5C0.837615 10.1203 2.13871 6.94295 4.50123 4.55317C6.86375 2.16339 10.0049 0.84728 13.346 0.84728C16.6871 0.84728 19.8283 2.16339 22.1908 4.55317C24.5533 6.94295 25.8544 10.1203 25.8544 13.5C25.8544 16.8797 24.5533 20.057 22.1908 22.4468Z" fill="#A4AAB3"/>
</svg>
