<svg width="14" height="14" viewBox="0 0 14 14" fill="none" xmlns="http://www.w3.org/2000/svg">
<path d="M14 8.15754V5.84243L12.1018 5.4685C11.9984 5.12438 11.8603 4.79205 11.6894 4.47568L12.7482 2.88736L11.1126 1.2518L9.52432 2.31066C9.20798 2.13973 8.87559 2.00167 8.53147 1.89823L8.15754 0H5.84246L5.4685 1.8982C5.12441 2.00164 4.79205 2.1397 4.47565 2.31063L2.88739 1.2518L1.2518 2.88739L2.31066 4.47571C2.13976 4.79207 2.00167 5.12441 1.89823 5.46853L0 5.84246V8.15757L1.8982 8.53152C2.00164 8.87562 2.13973 9.20798 2.31063 9.52435L1.25177 11.1127L2.88736 12.7483L4.47565 11.6894C4.79202 11.8603 5.12441 11.9984 5.4685 12.1018L5.84246 14H8.15754L8.5315 12.1018C8.87562 11.9984 9.20795 11.8603 9.52435 11.6894L11.1126 12.7482L12.7482 11.1126L11.6894 9.52432C11.8603 9.20795 11.9984 8.87562 12.1018 8.5315L14 8.15754ZM11.6927 11.0081L11.0081 11.6927L9.55128 10.7214C8.81207 11.1695 8.5671 11.2548 7.82622 11.4378L7.48308 13.1797H6.51692L6.17378 11.4378C5.33069 11.2296 5.09734 11.1146 4.44872 10.7214L2.9919 11.6927L2.30735 11.0081L3.27857 9.55128C2.82743 8.80704 2.74381 8.56111 2.56216 7.82622L0.820312 7.48308V6.51695L2.56214 6.17381C2.74129 5.44893 2.82338 5.19961 3.27854 4.44875L2.30732 2.99193L2.99187 2.30737L4.44869 3.27857C5.19397 2.82685 5.44026 2.7434 6.17375 2.56216L6.51692 0.820312H7.48308L7.82622 2.56216C8.67095 2.77088 8.90405 2.88624 9.55128 3.27857L11.0081 2.30737L11.6927 2.99193L10.7214 4.44875C11.1686 5.18645 11.2544 5.43143 11.4378 6.17381L13.1797 6.51692V7.48305L11.4379 7.82619C11.2291 8.67095 11.1143 8.90315 10.7215 9.55125L11.6927 11.0081Z" fill="#1267FB"/>
<path d="M7 4.12891C5.41688 4.12891 4.12891 5.41688 4.12891 7C4.12891 8.58312 5.41688 9.87109 7 9.87109C8.58312 9.87109 9.87109 8.58312 9.87109 7C9.87109 5.41688 8.58312 4.12891 7 4.12891ZM7 9.05078C5.8692 9.05078 4.94922 8.1308 4.94922 7C4.94922 5.8692 5.8692 4.94922 7 4.94922C8.1308 4.94922 9.05078 5.8692 9.05078 7C9.05078 8.1308 8.1308 9.05078 7 9.05078Z" fill="#1267FB"/>
</svg>
