<svg width="18" height="18" viewBox="0 0 18 18" fill="none" xmlns="http://www.w3.org/2000/svg">
<path d="M17.7216 4.82711H13.1028V0.933294C13.1028 0.786486 12.9903 0.651245 12.8435 0.651245H5.8428C5.69614 0.651245 5.58626 0.786486 5.58626 0.933294V6.91504H2.50419C2.43627 6.91118 2.36998 6.9358 2.32105 6.98281C2.27196 7.02982 2.24468 7.09506 2.24557 7.16298V9.3826H0.289908C0.143249 9.3826 0.00578335 9.5082 0.00578335 9.65486V11.5743C0.00578335 11.5921 0 11.6105 0 11.6293C0 11.6483 0.00578335 11.6667 0.00578335 11.6845V13.3694C0.00578335 13.3872 0 13.4056 0 13.4244C0 13.4434 0.00578335 13.4618 0.00578335 13.4796V15.1641C0.00578335 15.1819 0 15.2005 0 15.2193C0 15.2383 0.00578335 15.2567 0.00578335 15.2745V17.0724C0.0130496 17.226 0.136427 17.3485 0.289908 17.3547H17.7216C17.8739 17.348 17.9954 17.2249 18 17.0725V5.08083C18 4.93403 17.8684 4.82711 17.7216 4.82711ZM12.5713 1.18272V16.8232H6.11773V7.22007C6.11773 7.20169 6.12411 7.18256 6.12411 7.16313C6.12411 7.1437 6.11773 7.12443 6.11773 7.10619V1.18272H12.5713ZM5.58626 13.1409H0.537257V11.8881H5.58626V13.1409ZM0.537257 13.6723H5.58626V14.9631H0.537257V13.6723ZM2.50419 9.91407C2.65099 9.91763 2.77304 9.80181 2.77704 9.65486V7.44651H5.58626V11.3566H0.537257V9.91407H2.50419ZM0.537257 15.4945H5.58626V16.8232H0.537257V15.4945ZM17.4685 16.8232H13.1028V5.35858H17.4685V16.8232Z" fill="#1267FB"/>
<path d="M13.8204 11.5085H14.8255C14.9723 11.5085 15.0913 11.3894 15.0913 11.2428C15.0913 11.096 14.9723 10.9771 14.8255 10.9771H13.8204C13.6736 10.9771 13.5547 11.096 13.5547 11.2428C13.5547 11.3894 13.6736 11.5085 13.8204 11.5085Z" fill="#1267FB"/>
<path d="M13.8204 13.3307H14.8255C14.9723 13.3307 15.0913 13.2116 15.0913 13.0649C15.0913 12.9181 14.9723 12.7992 14.8255 12.7992H13.8204C13.6736 12.7992 13.5547 12.9181 13.5547 13.0649C13.5547 13.2116 13.6736 13.3307 13.8204 13.3307Z" fill="#1267FB"/>
<path d="M14.8254 14.5834H13.8204C13.6736 14.5834 13.5547 14.7024 13.5547 14.8492C13.5547 14.9958 13.6736 15.1149 13.8204 15.1149H14.8255C14.9723 15.1149 15.0913 14.9958 15.0913 14.8492C15.0913 14.7024 14.9723 14.5834 14.8255 14.5834H14.8254Z" fill="#1267FB"/>
<path d="M11.0908 8.52055C11.2376 8.52055 11.3565 8.40148 11.3565 8.25482V7.10601C11.3565 6.9592 11.2376 6.84027 11.0908 6.84027C10.944 6.84027 10.8251 6.9592 10.8251 7.10601V8.25482C10.8251 8.40148 10.944 8.52055 11.0908 8.52055Z" fill="#1267FB"/>
<path d="M9.30663 8.52055C9.45344 8.52055 9.57237 8.40148 9.57237 8.25482V7.10601C9.57237 6.9592 9.45344 6.84027 9.30663 6.84027C9.15982 6.84027 9.04089 6.9592 9.04089 7.10601V8.25482C9.04089 8.40148 9.15982 8.52055 9.30663 8.52055Z" fill="#1267FB"/>
<path d="M7.52233 8.52055C7.66914 8.52055 7.78807 8.40148 7.78807 8.25482V7.10601C7.78807 6.9592 7.66914 6.84027 7.52233 6.84027C7.37552 6.84027 7.25659 6.9592 7.25659 7.10601V8.25482C7.25659 8.40148 7.37552 8.52055 7.52233 8.52055Z" fill="#1267FB"/>
<path d="M13.8204 7.94004H14.8255C14.9723 7.94004 15.0913 7.82097 15.0913 7.67431C15.0913 7.5275 14.9723 7.40857 14.8255 7.40857H13.8204C13.6736 7.40857 13.5547 7.5275 13.5547 7.67431C13.5547 7.82097 13.6736 7.94004 13.8204 7.94004Z" fill="#1267FB"/>
<path d="M13.8204 9.72422H14.8255C14.9723 9.72422 15.0913 9.60514 15.0913 9.45849C15.0913 9.31168 14.9723 9.19275 14.8255 9.19275H13.8204C13.6736 9.19275 13.5547 9.31168 13.5547 9.45849C13.5547 9.60514 13.6736 9.72422 13.8204 9.72422Z" fill="#1267FB"/>
<path d="M15.8528 11.5085H16.858C17.0047 11.5085 17.1238 11.3894 17.1238 11.2428C17.1238 11.096 17.0047 10.9771 16.858 10.9771H15.8528C15.706 10.9771 15.587 11.096 15.587 11.2428C15.587 11.3894 15.706 11.5085 15.8528 11.5085Z" fill="#1267FB"/>
<path d="M15.8528 13.3307H16.858C17.0047 13.3307 17.1238 13.2116 17.1238 13.0649C17.1238 12.9181 17.0047 12.7992 16.858 12.7992H15.8528C15.706 12.7992 15.587 12.9181 15.587 13.0649C15.587 13.2116 15.706 13.3307 15.8528 13.3307Z" fill="#1267FB"/>
<path d="M15.8528 15.1149H16.858C17.0047 15.1149 17.1238 14.9958 17.1238 14.8492C17.1238 14.7024 17.0047 14.5834 16.858 14.5834H15.8528C15.706 14.5834 15.587 14.7024 15.587 14.8492C15.587 14.9958 15.706 15.1149 15.8528 15.1149Z" fill="#1267FB"/>
<path d="M15.8528 7.94004H16.858C17.0047 7.94004 17.1238 7.82097 17.1238 7.67431C17.1238 7.5275 17.0047 7.40857 16.858 7.40857H15.8528C15.706 7.40857 15.587 7.5275 15.587 7.67431C15.587 7.82097 15.706 7.94004 15.8528 7.94004Z" fill="#1267FB"/>
<path d="M15.8528 9.72422H16.858C17.0047 9.72422 17.1238 9.60514 17.1238 9.45849C17.1238 9.31168 17.0047 9.19275 16.858 9.19275H15.8528C15.706 9.19275 15.587 9.31168 15.587 9.45849C15.587 9.60514 15.706 9.72422 15.8528 9.72422Z" fill="#1267FB"/>
<path d="M11.0908 5.48363C11.2376 5.48363 11.3565 5.36455 11.3565 5.21789V4.06908C11.3565 3.92227 11.2376 3.80334 11.0908 3.80334C10.944 3.80334 10.8251 3.92227 10.8251 4.06908V5.21789C10.8251 5.36455 10.944 5.48363 11.0908 5.48363Z" fill="#1267FB"/>
<path d="M9.30663 5.48363C9.45344 5.48363 9.57237 5.36455 9.57237 5.21789V4.06908C9.57237 3.92227 9.45344 3.80334 9.30663 3.80334C9.15982 3.80334 9.04089 3.92227 9.04089 4.06908V5.21789C9.04089 5.36455 9.15982 5.48363 9.30663 5.48363Z" fill="#1267FB"/>
<path d="M7.52233 5.48363C7.66914 5.48363 7.78807 5.36455 7.78807 5.21789V4.06908C7.78807 3.92227 7.66914 3.80334 7.52233 3.80334C7.37552 3.80334 7.25659 3.92227 7.25659 4.06908V5.21789C7.25659 5.36455 7.37552 5.48363 7.52233 5.48363Z" fill="#1267FB"/>
<path d="M11.0908 11.5576C11.2376 11.5576 11.3565 11.4385 11.3565 11.2919V10.1431C11.3565 9.99625 11.2376 9.87732 11.0908 9.87732C10.944 9.87732 10.8251 9.99625 10.8251 10.1431V11.2919C10.8251 11.4385 10.944 11.5576 11.0908 11.5576Z" fill="#1267FB"/>
<path d="M9.30663 11.5576C9.45344 11.5576 9.57237 11.4385 9.57237 11.2919V10.1431C9.57237 9.99625 9.45344 9.87732 9.30663 9.87732C9.15982 9.87732 9.04089 9.99625 9.04089 10.1431V11.2919C9.04089 11.4385 9.15982 11.5576 9.30663 11.5576Z" fill="#1267FB"/>
<path d="M7.52233 11.5576C7.66914 11.5576 7.78807 11.4385 7.78807 11.2919V10.1431C7.78807 9.99625 7.66914 9.87732 7.52233 9.87732C7.37552 9.87732 7.25659 9.99625 7.25659 10.1431V11.2919C7.25659 11.4385 7.37552 11.5576 7.52233 11.5576Z" fill="#1267FB"/>
<path d="M11.0908 14.5946C11.2376 14.5946 11.3565 14.4755 11.3565 14.3289V13.18C11.3565 13.0332 11.2376 12.9143 11.0908 12.9143C10.944 12.9143 10.8251 13.0332 10.8251 13.18V14.3289C10.8251 14.4755 10.944 14.5946 11.0908 14.5946Z" fill="#1267FB"/>
<path d="M9.30663 14.5946C9.45344 14.5946 9.57237 14.4755 9.57237 14.3289V13.18C9.57237 13.0332 9.45344 12.9143 9.30663 12.9143C9.15982 12.9143 9.04089 13.0332 9.04089 13.18V14.3289C9.04089 14.4755 9.15982 14.5946 9.30663 14.5946Z" fill="#1267FB"/>
<path d="M7.52233 14.5946C7.66914 14.5946 7.78807 14.4755 7.78807 14.3289V13.18C7.78807 13.0332 7.66914 12.9143 7.52233 12.9143C7.37552 12.9143 7.25659 13.0332 7.25659 13.18V14.3289C7.25659 14.4755 7.37552 14.5946 7.52233 14.5946Z" fill="#1267FB"/>
</svg>
