<svg width="30" height="30" viewBox="0 0 30 30" fill="none" xmlns="http://www.w3.org/2000/svg">
<circle cx="15" cy="15" r="14.25" stroke="#A4AAB3" stroke-width="1.5"/>
<g clip-path="url(#clip0)">
<path d="M19.5955 21.909V10.1658H18.373V8.1796H15.4589V7.17395H14.5418V8.1796H11.6278V10.1658H10.4052V21.909H8.74219V22.8261H21.2585V21.909H19.5955ZM12.5449 9.09672H17.4559V10.1658H12.5449V9.09672ZM16.8441 21.909H15.4589V18.5576H16.8441V21.909ZM14.5418 21.909H13.1566V18.5576H14.5418V21.909ZM17.7613 21.909V17.6405H12.2395V21.909H11.3224V11.083H18.6784V21.909H17.7613Z" fill="#A4AAB3"/>
<path d="M12.2422 12.0104H13.1593V12.9275H12.2422V12.0104Z" fill="#A4AAB3"/>
<path d="M16.8438 12.0104H17.7609V12.9275H16.8438V12.0104Z" fill="#A4AAB3"/>
<path d="M14.543 12.0104H15.4601V12.9275H14.543V12.0104Z" fill="#A4AAB3"/>
<path d="M12.2422 13.8549H13.1593V14.772H12.2422V13.8549Z" fill="#A4AAB3"/>
<path d="M16.8438 13.8549H17.7609V14.772H16.8438V13.8549Z" fill="#A4AAB3"/>
<path d="M14.543 13.8549H15.4601V14.772H14.543V13.8549Z" fill="#A4AAB3"/>
<path d="M12.2422 15.6995H13.1593V16.6166H12.2422V15.6995Z" fill="#A4AAB3"/>
<path d="M16.8438 15.6995H17.7609V16.6166H16.8438V15.6995Z" fill="#A4AAB3"/>
<path d="M14.543 15.6995H15.4601V16.6166H14.543V15.6995Z" fill="#A4AAB3"/>
</g>
<defs>
<clipPath id="clip0">
<rect width="15.6522" height="15.6522" fill="white" transform="translate(7.17578 7.17395)"/>
</clipPath>
</defs>
</svg>
