<svg width="16" height="16" viewBox="0 0 16 16" fill="none" xmlns="http://www.w3.org/2000/svg">
    <path d="M10.4005 0H5.60053C3.54719 0 1.86719 1.68 1.86719 3.73334V8.53334C1.86719 10.5867 3.54719 12.2667 5.60053 12.2667H6.48053C6.72053 12.2667 6.93387 12.48 6.93387 12.72V15.36C6.93387 15.6534 7.12053 15.8934 7.38722 15.9734C7.44053 16 7.52053 16 7.57387 16C7.78722 16 7.97387 15.8933 8.10722 15.7333L9.73387 13.4133C10.1605 12.7733 10.8005 12.32 11.5472 12.08C13.0939 11.5733 14.1339 10.16 14.1339 8.53334V3.73334C14.1339 1.68 12.4539 0 10.4005 0ZM13.6005 8.56C13.6005 9.94666 12.7205 11.1733 11.3872 11.6C10.5338 11.8933 9.81384 12.4 9.30719 13.12L7.65384 15.44C7.62719 15.4933 7.57384 15.4667 7.54719 15.4667C7.52053 15.44 7.46719 15.44 7.46719 15.36V12.72C7.46719 12.1867 7.01384 11.7333 6.48053 11.7333H5.60053C3.84053 11.7333 2.40053 10.2933 2.40053 8.53334V3.73334C2.40053 1.97334 3.84053 0.533344 5.60053 0.533344H10.4005C12.1605 0.533344 13.6005 1.97334 13.6005 3.73334V8.56Z" fill="#1CBE69"/>
    <path d="M9.3357 9.06664H9.06904V5.06663C9.06904 4.61329 8.72238 4.26663 8.26904 4.26663H7.20235C6.749 4.26663 6.40234 4.61329 6.40234 5.06663C6.40234 5.51998 6.749 5.86663 7.20235 5.86663H7.469V9.06664H7.20235C6.749 9.06664 6.40234 9.4133 6.40234 9.86664C6.40234 10.32 6.749 10.6666 7.20235 10.6666H9.3357C9.78904 10.6666 10.1357 10.32 10.1357 9.86664C10.1357 9.41333 9.78901 9.06664 9.3357 9.06664ZM9.3357 10.1333H7.20235C7.04235 10.1333 6.93569 10.0267 6.93569 9.86667C6.93569 9.70667 7.04235 9.60002 7.20235 9.60002H7.73569C7.89569 9.60002 8.00235 9.49336 8.00235 9.33336V5.59998C8.00235 5.43998 7.89569 5.33332 7.73569 5.33332H7.20235C7.04235 5.33332 6.93569 5.22666 6.93569 5.06666C6.93569 4.90666 7.04235 4.80001 7.20235 4.80001H8.26901C8.40235 4.80001 8.53566 4.90666 8.53566 5.06666V9.33333C8.53566 9.49333 8.64232 9.59999 8.80232 9.59999H9.33567C9.49567 9.59999 9.60232 9.70664 9.60232 9.86664C9.60232 10.0266 9.4957 10.1333 9.3357 10.1333Z" fill="#1CBE69"/>
    <path d="M8.00025 3.73335C8.58691 3.73335 9.06691 3.25335 9.06691 2.66669C9.06691 2.08004 8.58691 1.60004 8.00025 1.60004C7.41359 1.60004 6.93359 2.08004 6.93359 2.66669C6.93359 3.25335 7.41359 3.73335 8.00025 3.73335ZM8.00025 2.13335C8.29359 2.13335 8.53359 2.37335 8.53359 2.66669C8.53359 2.96004 8.29359 3.20004 8.00025 3.20004C7.70691 3.20004 7.46691 2.96004 7.46691 2.66669C7.46691 2.37335 7.70691 2.13335 8.00025 2.13335Z" fill="#1CBE69"/>
</svg>