<svg width="12" height="12" viewBox="0 0 12 12" fill="none" xmlns="http://www.w3.org/2000/svg">
<path d="M12.0001 6.00014C12.0001 2.68611 9.31381 0 6.00017 0C2.68635 0 0 2.68611 0 6.00014C0 9.31367 2.68635 12 6.00017 12C9.31381 12 12.0001 9.31367 12.0001 6.00014Z" fill="#548EF5"/>
<path d="M7.6246 8.69618C7.59106 8.64703 7.5267 8.62955 7.47296 8.65502C6.87841 8.93647 6.20362 9.23403 6.07118 9.26003C6.06784 9.25706 6.06254 9.25162 6.0556 9.24221C6.03765 9.2179 6.02892 9.18614 6.02892 9.1451C6.02892 8.80879 6.28276 7.78572 6.78334 6.10444C7.20541 4.69183 7.25422 4.39934 7.25422 4.30224C7.25422 4.15233 7.19682 4.02567 7.08818 3.93591C6.98498 3.8508 6.84078 3.80768 6.65963 3.80768C6.35829 3.80768 6.00904 3.92208 5.5919 4.15743C5.18768 4.38558 4.73688 4.772 4.25209 5.30596C4.21414 5.34778 4.21017 5.4103 4.24254 5.45659C4.27495 5.50291 4.33505 5.52054 4.38731 5.49926C4.55751 5.42979 5.41285 5.07941 5.53753 5.00109C5.63962 4.9371 5.728 4.90462 5.80022 4.90462C5.80281 4.90462 5.80503 4.90471 5.80689 4.90486C5.80777 4.90965 5.80859 4.91695 5.80859 4.92742C5.80859 5.00112 5.79342 5.08836 5.7637 5.18629C5.03483 7.54785 4.68052 8.99556 4.68052 9.61221C4.68052 9.82983 4.74101 10.005 4.86027 10.1329C4.98181 10.2633 5.14574 10.3294 5.34753 10.3294C5.56257 10.3294 5.82428 10.2396 6.1476 10.0548C6.46048 9.87605 6.93801 9.48276 7.60755 8.85237C7.65092 8.81157 7.65815 8.74533 7.6246 8.69618Z" fill="white"/>
<path d="M7.60131 1.85434C7.48219 1.73241 7.32977 1.67059 7.14833 1.67059C6.92243 1.67059 6.72568 1.75986 6.5636 1.93594C6.40412 2.10911 6.32324 2.32161 6.32324 2.56751C6.32324 2.7618 6.38281 2.92281 6.50028 3.04603C6.61933 3.17113 6.76969 3.23454 6.94715 3.23454C7.16381 3.23454 7.3595 3.14026 7.52875 2.95432C7.69506 2.77164 7.77939 2.55687 7.77939 2.31598C7.77942 2.13086 7.71951 1.97556 7.60131 1.85434Z" fill="white"/>
</svg>
