<svg width="16" height="16" viewBox="0 0 16 16" fill="none" xmlns="http://www.w3.org/2000/svg">
<path d="M7.9986 6.84692C9.77753 6.84692 11.2198 5.3142 11.2198 3.42348C11.2198 1.53272 10.7463 0 7.9986 0C5.25094 0 4.77734 1.53272 4.77734 3.42348C4.77734 5.3142 6.21958 6.84692 7.9986 6.84692Z" fill="#606060"/>
<path d="M14.0753 11.9359C14.0156 8.64219 13.524 7.70367 9.76206 7.10959C9.76206 7.10959 9.23251 7.70003 7.99822 7.70003C6.76394 7.70003 6.23429 7.10959 6.23429 7.10959C2.51338 7.69719 1.99187 8.62179 1.9233 11.8289C1.91767 12.0907 1.91507 12.1045 1.91406 12.0741C1.91429 12.1311 1.91457 12.2364 1.91457 12.4201C1.91457 12.4201 2.8102 14 7.99822 14C13.1862 14 14.0819 12.4201 14.0819 12.4201C14.0819 12.3021 14.082 12.22 14.0821 12.1642C14.0811 12.183 14.0791 12.1465 14.0753 11.9359Z" fill="#606060"/>
</svg>
