<svg width="13" height="19" viewBox="0 0 13 19" fill="none" xmlns="http://www.w3.org/2000/svg">
    <path d="M6.51296 0H6.48584C3.20458 0 0.535156 2.66853 0.535156 5.94854C0.535156 8.09858 1.51432 10.9361 3.44544 14.3825C4.87717 16.9375 6.32896 18.8943 6.3435 18.9138C6.38392 18.9681 6.44761 19 6.5151 19C6.51702 19 6.51898 19 6.5209 19C6.59053 18.998 6.6548 18.9624 6.69343 18.9044C6.70775 18.8827 8.1492 16.7059 9.5712 14.0435C11.4905 10.45 12.4637 7.7264 12.4637 5.94854C12.4636 2.66848 9.79413 0 6.51296 0ZM9.25972 6.09391C9.25972 7.616 8.02145 8.85423 6.49936 8.85423C4.9773 8.85423 3.73903 7.61596 3.73903 6.09391C3.73903 4.57186 4.9773 3.33359 6.49936 3.33359C8.02145 3.33359 9.25972 4.57186 9.25972 6.09391Z" fill="#FF4B55"/>
</svg>
