<svg width="15" height="16" viewBox="0 0 15 16" fill="none" xmlns="http://www.w3.org/2000/svg">
<path d="M14.4967 14.4659L14.4968 14.4659C14.6455 14.6209 14.6408 14.8672 14.4859 15.0163L14.4857 15.0165C14.4104 15.0887 14.3132 15.125 14.216 15.125C14.1143 15.125 14.0119 15.0854 13.9353 15.0055L14.4967 14.4659ZM14.4967 14.4659L10.6531 10.4686C11.6269 9.44935 12.2265 8.06884 12.2265 6.55073C12.2265 3.42086 9.6806 0.875 6.55073 0.875C3.42086 0.875 0.875 3.42086 0.875 6.55073C0.875 9.6806 3.42086 12.2265 6.55073 12.2265C7.88291 12.2265 9.10898 11.7646 10.078 10.9938L13.9351 15.0052L14.4967 14.4659ZM6.55073 11.4478C3.85048 11.4478 1.65364 9.25098 1.65364 6.55073C1.65364 3.85048 3.85048 1.65364 6.55073 1.65364C9.25098 1.65364 11.4478 3.85048 11.4478 6.55073C11.4478 9.25098 9.25072 11.4478 6.55073 11.4478Z" fill="#A4AAB3" stroke="#A4AAB3" stroke-width="0.25"/>
</svg>
