<svg width="16" height="16" viewBox="0 0 16 16" fill="none" xmlns="http://www.w3.org/2000/svg">
<mask id="path-1-outside-1" maskUnits="userSpaceOnUse" x="-0.999512" y="-0.982056" width="18" height="18" fill="black">
<rect fill="white" x="-0.999512" y="-0.982056" width="18" height="18"/>
<path d="M15.5817 12.3614L12.3431 10.2016C11.9321 9.92968 11.3811 10.0191 11.0773 10.4071L10.1339 11.6201C10.0126 11.78 9.79225 11.8263 9.61686 11.7289L9.43741 11.63C8.84252 11.3057 8.10232 10.902 6.61097 9.41016C5.11961 7.91827 4.71511 7.17752 4.39086 6.58372L4.29246 6.40427C4.19369 6.2289 4.23918 6.00758 4.39911 5.88537L5.61126 4.94225C5.99911 4.63837 6.0887 4.0876 5.81712 3.67648L3.65729 0.437789C3.37897 0.0191336 2.82057 -0.106544 2.3897 0.152467L1.0354 0.965998C0.609869 1.21617 0.297674 1.62132 0.164278 2.09657C-0.323403 3.87349 0.0434747 6.94019 4.561 11.4583C8.1546 15.0516 10.8299 16.0179 12.6687 16.0179C13.0918 16.0197 13.5134 15.9647 13.9219 15.8542C14.3972 15.721 14.8025 15.4087 15.0525 14.9831L15.8668 13.6296C16.1262 13.1986 16.0006 12.6399 15.5817 12.3614ZM15.4074 13.356L14.5949 14.7103C14.4154 15.0175 14.1239 15.2434 13.7816 15.3406C12.1412 15.791 9.27529 15.418 4.93828 11.081C0.601276 6.74396 0.228273 3.8783 0.678645 2.23765C0.776012 1.89493 1.00218 1.60311 1.30978 1.42331L2.66409 0.610838C2.85104 0.498347 3.0934 0.552874 3.21417 0.734547L4.38742 2.496L5.37216 3.97295C5.49009 4.15128 5.45134 4.3903 5.2831 4.52225L4.07066 5.46537C3.70169 5.7475 3.59633 6.258 3.8235 6.66315L3.91977 6.83808C4.26056 7.46309 4.68424 8.24062 6.23106 9.78719C7.77788 11.3337 8.55516 11.7574 9.1799 12.0982L9.35507 12.1947C9.76019 12.4219 10.2707 12.3165 10.5529 11.9476L11.496 10.7351C11.628 10.567 11.8669 10.5283 12.0453 10.6461L15.2837 12.8059C15.4655 12.9266 15.52 13.1691 15.4074 13.356Z"/>
</mask>
<path d="M15.5817 12.3614L12.3431 10.2016C11.9321 9.92968 11.3811 10.0191 11.0773 10.4071L10.1339 11.6201C10.0126 11.78 9.79225 11.8263 9.61686 11.7289L9.43741 11.63C8.84252 11.3057 8.10232 10.902 6.61097 9.41016C5.11961 7.91827 4.71511 7.17752 4.39086 6.58372L4.29246 6.40427C4.19369 6.2289 4.23918 6.00758 4.39911 5.88537L5.61126 4.94225C5.99911 4.63837 6.0887 4.0876 5.81712 3.67648L3.65729 0.437789C3.37897 0.0191336 2.82057 -0.106544 2.3897 0.152467L1.0354 0.965998C0.609869 1.21617 0.297674 1.62132 0.164278 2.09657C-0.323403 3.87349 0.0434747 6.94019 4.561 11.4583C8.1546 15.0516 10.8299 16.0179 12.6687 16.0179C13.0918 16.0197 13.5134 15.9647 13.9219 15.8542C14.3972 15.721 14.8025 15.4087 15.0525 14.9831L15.8668 13.6296C16.1262 13.1986 16.0006 12.6399 15.5817 12.3614ZM15.4074 13.356L14.5949 14.7103C14.4154 15.0175 14.1239 15.2434 13.7816 15.3406C12.1412 15.791 9.27529 15.418 4.93828 11.081C0.601276 6.74396 0.228273 3.8783 0.678645 2.23765C0.776012 1.89493 1.00218 1.60311 1.30978 1.42331L2.66409 0.610838C2.85104 0.498347 3.0934 0.552874 3.21417 0.734547L4.38742 2.496L5.37216 3.97295C5.49009 4.15128 5.45134 4.3903 5.2831 4.52225L4.07066 5.46537C3.70169 5.7475 3.59633 6.258 3.8235 6.66315L3.91977 6.83808C4.26056 7.46309 4.68424 8.24062 6.23106 9.78719C7.77788 11.3337 8.55516 11.7574 9.1799 12.0982L9.35507 12.1947C9.76019 12.4219 10.2707 12.3165 10.5529 11.9476L11.496 10.7351C11.628 10.567 11.8669 10.5283 12.0453 10.6461L15.2837 12.8059C15.4655 12.9266 15.52 13.1691 15.4074 13.356Z" fill="#818283"/>
<path d="M15.5817 12.3614L12.3431 10.2016C11.9321 9.92968 11.3811 10.0191 11.0773 10.4071L10.1339 11.6201C10.0126 11.78 9.79225 11.8263 9.61686 11.7289L9.43741 11.63C8.84252 11.3057 8.10232 10.902 6.61097 9.41016C5.11961 7.91827 4.71511 7.17752 4.39086 6.58372L4.29246 6.40427C4.19369 6.2289 4.23918 6.00758 4.39911 5.88537L5.61126 4.94225C5.99911 4.63837 6.0887 4.0876 5.81712 3.67648L3.65729 0.437789C3.37897 0.0191336 2.82057 -0.106544 2.3897 0.152467L1.0354 0.965998C0.609869 1.21617 0.297674 1.62132 0.164278 2.09657C-0.323403 3.87349 0.0434747 6.94019 4.561 11.4583C8.1546 15.0516 10.8299 16.0179 12.6687 16.0179C13.0918 16.0197 13.5134 15.9647 13.9219 15.8542C14.3972 15.721 14.8025 15.4087 15.0525 14.9831L15.8668 13.6296C16.1262 13.1986 16.0006 12.6399 15.5817 12.3614ZM15.4074 13.356L14.5949 14.7103C14.4154 15.0175 14.1239 15.2434 13.7816 15.3406C12.1412 15.791 9.27529 15.418 4.93828 11.081C0.601276 6.74396 0.228273 3.8783 0.678645 2.23765C0.776012 1.89493 1.00218 1.60311 1.30978 1.42331L2.66409 0.610838C2.85104 0.498347 3.0934 0.552874 3.21417 0.734547L4.38742 2.496L5.37216 3.97295C5.49009 4.15128 5.45134 4.3903 5.2831 4.52225L4.07066 5.46537C3.70169 5.7475 3.59633 6.258 3.8235 6.66315L3.91977 6.83808C4.26056 7.46309 4.68424 8.24062 6.23106 9.78719C7.77788 11.3337 8.55516 11.7574 9.1799 12.0982L9.35507 12.1947C9.76019 12.4219 10.2707 12.3165 10.5529 11.9476L11.496 10.7351C11.628 10.567 11.8669 10.5283 12.0453 10.6461L15.2837 12.8059C15.4655 12.9266 15.52 13.1691 15.4074 13.356Z" stroke="#818283" stroke-width="0.4" mask="url(#path-1-outside-1)"/>
</svg>
