<svg width="12" height="16" viewBox="0 0 12 16" fill="none" xmlns="http://www.w3.org/2000/svg">
<mask id="path-1-outside-1" maskUnits="userSpaceOnUse" x="3.00635" y="2.50641" width="6" height="6" fill="black">
<rect fill="white" x="3.00635" y="2.50641" width="6" height="6"/>
<path d="M6.05175 3.50641C4.92415 3.50641 4.00635 4.42421 4.00635 5.55181C4.00635 6.67941 4.92415 7.59721 6.05175 7.59721C7.17935 7.59721 8.09715 6.67941 8.09715 5.55181C8.09715 4.42421 7.17935 3.50641 6.05175 3.50641ZM6.05175 7.01281C5.24615 7.01281 4.59075 6.3574 4.59075 5.55181C4.59075 4.74621 5.24615 4.09081 6.05175 4.09081C6.85734 4.09081 7.51275 4.74621 7.51275 5.55181C7.51275 6.3574 6.85734 7.01281 6.05175 7.01281Z"/>
</mask>
<path d="M6.05175 3.50641C4.92415 3.50641 4.00635 4.42421 4.00635 5.55181C4.00635 6.67941 4.92415 7.59721 6.05175 7.59721C7.17935 7.59721 8.09715 6.67941 8.09715 5.55181C8.09715 4.42421 7.17935 3.50641 6.05175 3.50641ZM6.05175 7.01281C5.24615 7.01281 4.59075 6.3574 4.59075 5.55181C4.59075 4.74621 5.24615 4.09081 6.05175 4.09081C6.85734 4.09081 7.51275 4.74621 7.51275 5.55181C7.51275 6.3574 6.85734 7.01281 6.05175 7.01281Z" fill="#818283"/>
<path d="M6.05175 3.50641C4.92415 3.50641 4.00635 4.42421 4.00635 5.55181C4.00635 6.67941 4.92415 7.59721 6.05175 7.59721C7.17935 7.59721 8.09715 6.67941 8.09715 5.55181C8.09715 4.42421 7.17935 3.50641 6.05175 3.50641ZM6.05175 7.01281C5.24615 7.01281 4.59075 6.3574 4.59075 5.55181C4.59075 4.74621 5.24615 4.09081 6.05175 4.09081C6.85734 4.09081 7.51275 4.74621 7.51275 5.55181C7.51275 6.3574 6.85734 7.01281 6.05175 7.01281Z" stroke="#818283" stroke-width="0.4" mask="url(#path-1-outside-1)"/>
<mask id="path-2-outside-2" maskUnits="userSpaceOnUse" x="-0.603516" y="-1" width="13" height="18" fill="black">
<rect fill="white" x="-0.603516" y="-1" width="13" height="18"/>
<path d="M9.96237 1.64129C8.90402 0.582939 7.49678 0 6.00014 0C4.50319 0 3.09625 0.582939 2.0379 1.64129C0.0792859 3.59961 -0.164117 7.28426 1.51077 9.51666L6.00014 16L10.4828 9.52572C12.1644 7.28426 11.921 3.59961 9.96237 1.64129ZM10.0088 9.18414L6.00014 14.9732L1.98502 9.17508C0.465867 7.14955 0.683556 3.82198 2.45137 2.05446C3.39926 1.10656 4.65952 0.5844 6.00014 0.5844C7.34075 0.5844 8.60101 1.10656 9.5492 2.05446C11.317 3.82198 11.5347 7.14955 10.0088 9.18414Z"/>
</mask>
<path d="M9.96237 1.64129C8.90402 0.582939 7.49678 0 6.00014 0C4.50319 0 3.09625 0.582939 2.0379 1.64129C0.0792859 3.59961 -0.164117 7.28426 1.51077 9.51666L6.00014 16L10.4828 9.52572C12.1644 7.28426 11.921 3.59961 9.96237 1.64129ZM10.0088 9.18414L6.00014 14.9732L1.98502 9.17508C0.465867 7.14955 0.683556 3.82198 2.45137 2.05446C3.39926 1.10656 4.65952 0.5844 6.00014 0.5844C7.34075 0.5844 8.60101 1.10656 9.5492 2.05446C11.317 3.82198 11.5347 7.14955 10.0088 9.18414Z" fill="#818283"/>
<path d="M9.96237 1.64129C8.90402 0.582939 7.49678 0 6.00014 0C4.50319 0 3.09625 0.582939 2.0379 1.64129C0.0792859 3.59961 -0.164117 7.28426 1.51077 9.51666L6.00014 16L10.4828 9.52572C12.1644 7.28426 11.921 3.59961 9.96237 1.64129ZM10.0088 9.18414L6.00014 14.9732L1.98502 9.17508C0.465867 7.14955 0.683556 3.82198 2.45137 2.05446C3.39926 1.10656 4.65952 0.5844 6.00014 0.5844C7.34075 0.5844 8.60101 1.10656 9.5492 2.05446C11.317 3.82198 11.5347 7.14955 10.0088 9.18414Z" stroke="#818283" stroke-width="0.4" mask="url(#path-2-outside-2)"/>
</svg>
