<svg width="30" height="30" viewBox="0 0 30 30" fill="none" xmlns="http://www.w3.org/2000/svg">
<path d="M29.3767 22.4971L18.7791 3.01608C17.0764 0.149619 12.9258 0.145811 11.2209 3.01608L0.623841 22.4971C-1.11675 25.4261 0.990579 29.1352 4.40208 29.1352H25.5976C29.0062 29.1352 31.1173 25.4291 29.3767 22.4971ZM15 25.6196C14.031 25.6196 13.2422 24.8308 13.2422 23.8618C13.2422 22.8928 14.031 22.104 15 22.104C15.969 22.104 16.7578 22.8928 16.7578 23.8618C16.7578 24.8308 15.969 25.6196 15 25.6196ZM16.7578 18.5884C16.7578 19.5574 15.969 20.3462 15 20.3462C14.031 20.3462 13.2422 19.5574 13.2422 18.5884V9.79931C13.2422 8.83028 14.031 8.04149 15 8.04149C15.969 8.04149 16.7578 8.83028 16.7578 9.79931V18.5884Z" fill="#F9A61B"/>
</svg>
