<svg width="22" height="18" viewBox="0 0 22 18" fill="none" xmlns="http://www.w3.org/2000/svg">
<path d="M20.9867 16.0328L11.6975 0.627417C11.4627 0.238073 11.0412 0 10.5865 0C10.1318 0 9.71029 0.238031 9.47552 0.627417L0.186337 16.0328C-0.0552505 16.4335 -0.0624047 16.9333 0.167687 17.3407C0.397779 17.7481 0.829387 18 1.29726 18H19.8758C20.3436 18 20.7752 17.748 21.0053 17.3407C21.2354 16.9332 21.2283 16.4335 20.9867 16.0328ZM10.5934 5.32891C11.1269 5.32891 11.5784 5.62988 11.5784 6.16335C11.5784 7.79115 11.3868 10.1304 11.3868 11.7582C11.3868 12.1822 10.9217 12.36 10.5934 12.36C10.1557 12.36 9.78638 12.1822 9.78638 11.7582C9.78638 10.1304 9.59491 7.79115 9.59491 6.16335C9.59491 5.62988 10.0326 5.32891 10.5934 5.32891ZM10.6071 15.4106C10.0053 15.4106 9.55381 14.9181 9.55381 14.3573C9.55381 13.7828 10.0052 13.304 10.6071 13.304C11.168 13.304 11.6468 13.7828 11.6468 14.3573C11.6468 14.9181 11.168 15.4106 10.6071 15.4106Z" fill="white"/>
</svg>
