<svg width="19" height="16" viewBox="0 0 19 16" fill="none" xmlns="http://www.w3.org/2000/svg">
<path d="M18.3664 13.4654L10.7345 0.808386C10.4338 0.309763 9.88532 0 9.30304 0C8.72077 0 8.17229 0.309763 7.87157 0.808422L0.239679 13.4654C-0.0710652 13.9807 -0.0802592 14.6264 0.215658 15.1504C0.511648 15.6745 1.06932 16 1.67112 16H16.935C17.5368 16 18.0945 15.6745 18.3905 15.1504C18.6864 14.6263 18.6772 13.9807 18.3664 13.4654ZM17.3357 14.5548C17.2542 14.699 17.1006 14.7886 16.935 14.7886H1.67112C1.50544 14.7886 1.3519 14.699 1.27047 14.5548C1.18899 14.4105 1.19154 14.2327 1.27704 14.0909L8.90901 1.43394C8.99179 1.29669 9.14279 1.2114 9.30308 1.2114C9.46334 1.2114 9.61433 1.29669 9.69712 1.43394L17.329 14.0909C17.4146 14.2328 17.4171 14.4105 17.3357 14.5548Z" fill="#F9A61B"/>
<path d="M9.30869 4.98401C8.8479 4.98401 8.48828 5.23127 8.48828 5.6696C8.48828 7.00699 8.6456 8.9288 8.6456 10.2662C8.64563 10.6146 8.94911 10.7607 9.30873 10.7607C9.57845 10.7607 9.96056 10.6146 9.96056 10.2662C9.96056 8.92883 10.1179 7.00703 10.1179 5.6696C10.1179 5.2313 9.74703 4.98401 9.30869 4.98401Z" fill="#F9A61B"/>
<path d="M9.31999 11.5361C8.82551 11.5361 8.45459 11.9295 8.45459 12.4015C8.45459 12.8623 8.82548 13.2669 9.31999 13.2669C9.78079 13.2669 10.1742 12.8623 10.1742 12.4015C10.1742 11.9295 9.78075 11.5361 9.31999 11.5361Z" fill="#F9A61B"/>
</svg>
