<svg width="18" height="18" viewBox="0 0 18 18" fill="none" xmlns="http://www.w3.org/2000/svg">
    <path fill-rule="evenodd" clip-rule="evenodd" d="M6.63748 5.34555C6.63748 4.65905 6.07204 4.10017 5.37583 4.10017C4.68037 4.10017 4.11418 4.65905 4.11418 5.34555C4.11418 6.03204 4.68037 6.59092 5.37583 6.59092C6.07204 6.59092 6.63748 6.03204 6.63748 5.34555ZM7.75236 5.34554C7.75236 6.63859 6.68687 7.69107 5.37618 7.69107C4.06624 7.69107 3 6.63859 3 5.34554C3 4.05248 4.06624 3 5.37618 3C6.68687 3 7.75236 4.05248 7.75236 5.34554ZM15.6315 5.34568C15.6315 5.04204 15.3819 4.7956 15.0743 4.7956H10.5047C10.1971 4.7956 9.94742 5.04204 9.94742 5.34568C9.94742 5.64932 10.1971 5.89576 10.5047 5.89576H15.0743C15.3819 5.89576 15.6315 5.64932 15.6315 5.34568ZM11.9933 12.6545C11.9933 13.341 12.5588 13.8998 13.255 13.8998C13.9512 13.8998 14.5166 13.341 14.5166 12.6545C14.5166 11.9672 13.9512 11.4091 13.255 11.4091C12.5588 11.4091 11.9933 11.9672 11.9933 12.6545ZM10.8795 12.6545C10.8795 11.3607 11.945 10.3089 13.2557 10.3089C14.5664 10.3089 15.6319 11.3607 15.6319 12.6545C15.6319 13.9475 14.5664 15 13.2557 15C11.945 15 10.8795 13.9475 10.8795 12.6545ZM3.55817 12.1042H8.127C8.43461 12.1042 8.68427 12.3506 8.68427 12.6543C8.68427 12.9579 8.43461 13.2043 8.127 13.2043H3.55817C3.25056 13.2043 3.0009 12.9579 3.0009 12.6543C3.0009 12.3506 3.25056 12.1042 3.55817 12.1042Z" fill="#f9a51a"/>
</svg>
