<svg width="18" height="18" viewBox="0 0 18 18" fill="none" xmlns="http://www.w3.org/2000/svg">
    <g clip-path="url(#clip0)">
        <path d="M17.3602 2.48305C16.9734 2.44779 16.6314 2.73273 16.5961 3.11945L16.5029 4.14141C14.9223 1.65916 12.1786 0 8.99947 0C5.57943 0 2.56545 1.95195 1.06927 4.88159C0.89265 5.22742 1.02983 5.65095 1.37566 5.82757C1.72156 6.0042 2.14502 5.86705 2.32165 5.52118C3.58787 3.04182 6.13061 1.40625 8.99947 1.40625C11.6143 1.40625 13.974 2.76789 15.3259 4.90106L14.3234 4.18504C14.0074 3.95937 13.5682 4.03256 13.3426 4.34855C13.1169 4.66457 13.1901 5.10367 13.5061 5.32937L16.5462 7.50066C16.9918 7.81829 17.6064 7.52752 17.6551 6.99233L17.9965 3.24714C18.0318 2.86038 17.7469 2.51831 17.3602 2.48305Z" fill="#f9a51a"/>
        <path d="M16.6238 12.1726C16.2779 11.996 15.8544 12.1331 15.6778 12.479C14.4116 14.9583 11.8688 16.5939 8.99996 16.5939C6.38515 16.5939 4.02539 15.2323 2.67349 13.0991L3.67604 13.8151C3.99206 14.0408 4.43116 13.9676 4.65686 13.6516C4.88253 13.3356 4.80934 12.8965 4.49335 12.6708L1.45322 10.4995C1.01309 10.185 0.393571 10.4671 0.344352 11.0078L0.00294988 14.753C-0.0323118 15.1397 0.25263 15.4818 0.639313 15.5171C1.02652 15.5523 1.36814 15.267 1.40336 14.8807L1.49653 13.8587C3.07708 16.341 5.82082 18.0001 8.99996 18.0001C12.42 18.0001 15.434 16.0482 16.9302 13.1186C17.1068 12.7727 16.9696 12.3492 16.6238 12.1726Z" fill="#f9a51a"/>
    </g>
    <defs>
        <clipPath id="clip0">
            <rect width="18" height="18" fill="white"/>
        </clipPath>
    </defs>
</svg>
