<svg width="16" height="16" viewBox="0 0 16 16" fill="none" xmlns="http://www.w3.org/2000/svg">
    <path opacity="0.4" d="M11.472 0H4.536C1.824 0 0 1.904 0 4.736V11.272C0 14.096 1.824 16 4.536 16H11.472C14.184 16 16 14.096 16 11.272V4.736C16 1.904 14.184 0 11.472 0Z" fill="#DCE1EA"/>
    <path d="M10.4112 9.4164L8.98799 7.994L10.4104 6.5716C10.684 6.2988 10.684 5.8548 10.4104 5.582C10.1368 5.3068 9.69439 5.3076 9.42079 5.5812L7.99759 7.0036L6.57439 5.5796C6.30079 5.306 5.85759 5.3076 5.58399 5.5796C5.31119 5.8532 5.31119 6.2972 5.58399 6.57L7.00799 7.994L5.58719 9.414C5.31359 9.6876 5.31359 10.1316 5.58719 10.4036C5.72399 10.5412 5.90239 10.6092 6.08159 10.6092C6.26159 10.6092 6.43999 10.5412 6.57679 10.4044L7.99759 8.9836L9.42159 10.4068C9.55839 10.5436 9.73679 10.6116 9.91599 10.6116C10.0952 10.6116 10.2744 10.5428 10.4112 10.4068C10.6848 10.1332 10.6848 9.69 10.4112 9.4164Z" fill="#f9a51a"/>
</svg>
